<svg xmlns="http://www.w3.org/2000/svg" viewBox="0 0 410.16 401.33"><circle cx="196.62" cy="204.71" r="196.5" fill="none" stroke="#2FC1C1" stroke-dasharray="0 6" stroke-linecap="round" stroke-linejoin="round" stroke-width=".25"/><path fill="none" stroke="#2FC1C1" stroke-dasharray="0 6" stroke-linecap="round" stroke-linejoin="round" stroke-width=".8" d="M393.85 194.26c8.08 107-75.76 192.46-182.72 200.55S14.58 330.5 6.5 223.5 72 17.09 178.92 9.01s206.85 78.28 214.93 185.25z"/><path fill="none" stroke="#2FC1C1" stroke-dasharray="0 6" stroke-linecap="round" stroke-linejoin="round" stroke-width="1.35" d="M394.57 183.81c16.17 105.4-63.54 188.43-168.94 204.6S29 347.74 12.88 242.34 55.82 25.97 161.22 9.81s217.19 68.59 233.35 174z"/><path fill="none" stroke="#2FC1C1" stroke-dasharray="0 6" stroke-linecap="round" stroke-linejoin="round" stroke-width="1.9" d="M395.3 173.36c24.24 103.84-51.3 184.4-155.18 208.65S43.5 365 19.25 261.16 39.68 34.85 143.53 10.61 371.05 69.5 395.3 173.36z"/><path fill="none" stroke="#2FC1C1" stroke-dasharray="0 6" stroke-linecap="round" stroke-linejoin="round" stroke-width="2.45" d="M396 162.9c32.33 102.29-39.11 180.38-141.4 212.71S58 382.26 25.63 279.98 23.54 43.73 125.83 11.41 363.69 60.62 396 162.9z"/><path fill="none" stroke="#2FC1C1" stroke-dasharray="0 6" stroke-linecap="round" stroke-linejoin="round" stroke-width="3" d="M396.74 152.5c40.41 100.72-26.9 176.34-127.62 216.76S72.42 399.5 32 298.8 7.41 52.62 108.12 12.21 356.33 51.74 396.74 152.5z"/></svg>