<svg xmlns="http://www.w3.org/2000/svg" viewBox="0 0 1200.32 378.22"><path fill="none" stroke="#2fc1c1" stroke-dasharray="0 6" stroke-linecap="round" stroke-linejoin="round" stroke-width="2" d="M34.52 180.62s132.63-197 243.63-174-4 348 307 287 179-206 446-189 30.53 187.22 162.27 196.61"/><path fill="none" stroke="#2fc1c1" stroke-dasharray="0 6" stroke-linecap="round" stroke-linejoin="round" stroke-width="1.92" d="M34.52 183.42S156.15-12.64 268 6.57C334.41 18 319.21 133.63 363 211.2c33.1 58.61 90.07 95.84 217.48 77.07 114-16.78 168.5-44.28 208.34-80 61.66-55.29 68.46-115.89 231.85-106 99.53 5.79 126.94 38.37 137.24 68 17.65 50.75-42.73 121.79 35.49 131.08"/><path fill="none" stroke="#2fc1c1" stroke-dasharray="0 6" stroke-linecap="round" stroke-linejoin="round" stroke-width="1.83" d="M34.52 186.22S145.23-9.1 257.85 6.48c69.3 9.58 49.58 128.78 99.21 201.81 38.12 56.09 96.87 86.07 218.77 74.6 109.09-10.27 164-29.7 207.21-67 64.33-55.49 65.32-125 227.16-116.08 101.15 5.56 125.61 43.43 140.88 70.93 25.53 46-30.69 118 42.31 130.57"/><path fill="none" stroke="#2fc1c1" stroke-dasharray="0 6" stroke-linecap="round" stroke-linejoin="round" stroke-width="1.75" d="M34.52 189S134.37-5.7 247.69 6.39c72.23 7.7 48.16 130.53 103.42 199 43.28 53.62 103.71 76.31 220.06 72.13 104.26-3.75 159.39-15.13 206.09-54 67-55.73 62.19-134.25 222.46-126.13 102.77 5.21 124 48.36 144.52 73.88 33 41.07-18.65 114.12 49.14 130.07"/><path fill="none" stroke="#2fc1c1" stroke-dasharray="0 6" stroke-linecap="round" stroke-linejoin="round" stroke-width="1.67" d="M34.52 191.82s89-194.26 203-185.52c75.19 5.76 46.92 132.26 107.62 196.17 48.58 51.16 110.59 66.55 221.35 69.66 99.47 2.78 154.8-.59 205-41 69.52-56 59.06-143.55 217.77-136.18 104.39 4.85 122.19 53.29 148.15 76.83 39.95 36.22-6.61 110.28 56 129.57"/><path fill="none" stroke="#2fc1c1" stroke-dasharray="0 6" stroke-linecap="round" stroke-linejoin="round" stroke-width="1.58" d="M34.52 194.62S112.78.7 227.38 6.21c78.18 3.79 45.87 133.94 111.83 193.36 54 48.66 117.52 56.81 222.64 67.17 94.73 9.34 150.19 13.94 203.84-28 72.07-56.32 55.94-152.86 213.08-146.23 106 4.48 120.15 58.35 151.79 79.78 46.62 31.58 5.42 106.44 62.8 129.07"/><path fill="none" stroke="#2fc1c1" stroke-dasharray="0 6" stroke-linecap="round" stroke-linejoin="round" stroke-width="1.5" d="M34.52 197.43S102.11 11.12 217.23 6.12c81.12-3.52 45 135.53 116 190.54 59.56 46.1 124.5 47.12 223.93 64.7 90 15.93 145.56 28.44 202.72-15 74.58-56.67 52.81-162.2 208.39-156.28 107.63 4.1 118 63.57 155.41 82.73 53.12 27.19 17.47 102.61 69.63 128.57"/><path fill="none" stroke="#2fc1c1" stroke-dasharray="0 6" stroke-linecap="round" stroke-linejoin="round" stroke-width="1.42" d="M34.52 200.23S91.59 14.4 207.08 6C291 0 251.25 143 327.31 193.75c65.2 43.47 131.53 37.48 225.21 62.23 85.4 22.56 140.92 42.92 201.61-2 77.07-57 49.69-171.55 203.69-166.32 109.26 3.7 115.81 69 159 85.67 59.57 23 29.51 98.77 76.46 128.07"/><path fill="none" stroke="#2fc1c1" stroke-dasharray="0 6" stroke-linecap="round" stroke-linejoin="round" stroke-width="1.33" d="M34.52 203S81.07 17.4 196.92 5.94c86.82-8.58 43.47 138.38 124.44 184.9 70.92 40.74 138.59 27.92 226.5 59.75 80.78 29.26 136.26 57.39 200.48 11 79.55-57.45 46.57-180.92 199-176.37 110.88 3.32 113.66 74.5 162.66 88.63 66 19 41.55 94.93 83.29 127.57"/><path fill="none" stroke="#2fc1c1" stroke-dasharray="0 6" stroke-linecap="round" stroke-linejoin="round" stroke-width="1.25" d="M34.52 205.83s35.3-193.64 152.25-200C277 1 229.58 145.49 315.41 187.93c76.67 37.91 145.67 18.44 227.79 57.28 76.18 36 131.58 71.83 199.36 24C824.57 211.35 786 78.91 936.87 82.8c112.5 2.9 111.48 80.12 166.32 91.57 72.57 15.15 53.59 91.1 90.11 127.06"/><path fill="none" stroke="#2fc1c1" stroke-dasharray="0 6" stroke-linecap="round" stroke-linejoin="round" stroke-width="1.17" d="M34.52 208.63S59.08 14.85 176.62 5.77C269.84-1.44 218.8 146.56 309.46 185c82.46 35 152.73 9.06 229.08 54.81 71.58 42.89 126.9 86.26 198.23 37C821.24 218.5 777.11 77.1 926.39 80.34c114.13 2.48 109.37 85.83 170 94.52 79.17 11.36 65.62 87.26 96.94 126.56"/><path fill="none" stroke="#2fc1c1" stroke-dasharray="0 6" stroke-linecap="round" stroke-linejoin="round" stroke-width="1.08" d="M34.52 211.43S48.33 17.44 166.46 5.68c96.23-9.58 41.56 141.85 137 176.43 88.25 32 159.76-.23 230.37 52.34 66.94 49.83 122.2 100.67 197.11 50 86.9-58.77 37.21-209.12 184.92-206.52 115.76 2 107.31 91.59 173.6 97.47 85.82 7.62 77.66 83.42 103.77 126.06"/><path fill="none" stroke="#2fc1c1" stroke-dasharray="0 6" stroke-linecap="round" stroke-linejoin="round" d="M34.52 214.23S37.56 20 156.31 5.59c99.21-12 40.93 142.83 141.25 173.62 94.05 28.85 166.73-9.45 231.66 49.85 62.24 56.85 117.5 115.07 196 63 89.32-59.22 34.08-218.54 180.22-216.55 117.38 1.6 105.27 97.38 177.23 100.42 92.54 3.92 89.7 79.58 110.6 125.56"/><path fill="none" stroke="#2fc1c1" stroke-dasharray="0 6" stroke-linecap="round" stroke-linejoin="round" stroke-width=".92" d="M34.52 217S26.78 22.44 146.16 5.5C248.34-9 186.43 149.24 291.6 176.3c99.83 25.67 173.63-18.61 233 47.38 57.46 63.91 112.79 129.45 194.86 76C811.18 240 750.4 71.7 895 73.08c119 1.15 103.41 98.8 180.87 103.37 99.13 5.86 101.74 75.75 117.42 125.06"/><path fill="none" stroke="#2fc1c1" stroke-dasharray="0 6" stroke-linecap="round" stroke-linejoin="round" stroke-width=".83" d="M34.52 219.84S16 24.87 136 5.41c105.14-17 39.59 144.6 149.65 168 105.59 22.43 180.43-27.75 234.25 44.91 52.6 71 108.07 143.81 193.74 89 94.17-60.23 27.85-237.46 170.85-236.66 120.63.67 101.3 109 184.5 106.31 106.11-3.43 113.78 71.91 124.25 124.56"/><path fill="none" stroke="#2fc1c1" stroke-dasharray="0 6" stroke-linecap="round" stroke-linejoin="round" stroke-width=".75" d="M34.52 222.64S5.15 27.26 125.85 5.32c108.07-19.64 38.88 145.4 153.85 165.16 111.3 19.13 187.14-36.88 235.53 42.43 47.66 78.11 103.35 158.17 192.63 102C804.44 254.2 732.59 69.28 874 68.23c122.26-.92 99.36 114.84 188.14 109.26 113-7.09 125.81 68.07 131.08 124.06"/><path fill="none" stroke="#2fc1c1" stroke-dasharray="0 6" stroke-linecap="round" stroke-linejoin="round" stroke-width=".67" d="M34.52 225.44S-5.7 29.6 115.7 5.23c111-22.28 38.13 146.16 158.05 162.34 117 15.79 193.79-46 236.82 40 42.63 85.19 98.62 172.51 191.5 115 99-61.26 21.62-255.3 161.46-256.76C987.41 64.5 961 186.48 1055.31 178c119.83-10.76 137.85 64.22 137.91 123.54"/><path fill="none" stroke="#2fc1c1" stroke-dasharray="0 6" stroke-linecap="round" stroke-linejoin="round" stroke-width=".58" d="M34.52 228.24s-51.09-196.32 71-223.1C219.43-19.83 142.89 152 267.8 164.66c122.7 12.41 200.37-55.23 238.11 37.49 37.55 92.24 93.88 186.83 190.38 128 101.4-61.8 18.49-265.91 156.77-266.81 125.51-.81 95.53 126.52 195.41 115.17 126.73-14.41 149.89 60.39 144.73 123"/><path fill="none" stroke="#2fc1c1" stroke-dasharray="0 6" stroke-linecap="round" stroke-linejoin="round" stroke-width=".5" d="M34.52 231s-62-196.84 60.87-226c116.75-27.71 36.54 147.59 166.46 156.69 128.35 9 206.91-64.47 239.4 35 32.42 99.25 89.14 201.15 189.25 141 103.81-62.23 15.38-275.31 152.08-276.75 127.14-1.34 93.64 132.36 199.05 118.12 133.65-18.07 161.93 56.55 151.56 122.54"/><path fill="none" stroke="#2fc1c1" stroke-dasharray="0 6" stroke-linecap="round" stroke-linejoin="round" stroke-width=".42" d="M34.52 233.84S-38.39 36.46 85.23 5c119.61-30.48 35.7 148.28 170.67 153.88 134 5.55 213.41-73.76 240.69 32.53s84.39 215.46 188.13 154C790.92 282.53 697 60.23 832.1 58.51c128.76-2.12 91.77 138.21 202.69 121.07 140.58-21.73 174 52.71 158.39 122"/><path fill="none" stroke="#2fc1c1" stroke-dasharray="0 6" stroke-linecap="round" stroke-linejoin="round" stroke-width=".33" d="M34.52 236.64S-49.33 38.7 75.08 4.88C197.51-28.41 109.9 153.83 250 155.94c139.58 2.1 219.9-83.09 242 30.06s79.56 229.61 187 167c108.52-63.58 9.12-294.6 142.69-297 130.38-2.56 89.89 144.05 206.31 124 147.55-25.38 186 48.87 165.23 121.54"/><path fill="none" stroke="#2fc1c1" stroke-dasharray="0 6" stroke-linecap="round" stroke-linejoin="round" stroke-width=".25" d="M34.52 239.44S-60.3 40.92 64.93 4.79 98.85 154.4 244 153s226.38-92.45 243.27 27.59 74.88 244 185.88 180 6-304 138-307 88 149.88 210 127c154.51-29.05 198.05 45 172.05 121"/></svg>