<svg id="Calque_1" data-name="Calque 1" xmlns="http://www.w3.org/2000/svg" viewBox="0 0 2125.97 320.76"><path d="M2159,128s-5.87,304.33-475.64,59.89S1132.2,184.1,986,220.66C363.08,376.45,484.75-12,254.73,22.26,48.7,53,36,173.59,36,173.59" transform="translate(-34.52 8.3)" fill="none" stroke="#2fc1c1" stroke-linecap="round" stroke-linejoin="round" stroke-width="3" stroke-dasharray="0 6"/><path d="M2142.14,131.13c-8.13,7.69-20.24,296.26-473.24,59.77C1374,36.47,1233.67,69.58,1131.59,128.21c-56,32.41-99.65,70.76-151.08,84.27-319.34,83.89-439.43,23.12-520.1-56.27C392.3,89.19,361,14.07,255.24,29.13,51.79,57.6,36,173.59,36,173.59" transform="translate(-34.52 8.3)" fill="none" stroke="#2fc1c1" stroke-linecap="round" stroke-linejoin="round" stroke-width="2.88" stroke-dasharray="0 6"/><path d="M2125.29,134.26c-16.26,15.38-34.61,288.17-470.83,59.64C1366.91,42.34,1227.58,64.63,1125,121.45c-55.87,31-99.25,68.87-150,82.86-308.53,85.08-427.54,34-514-45.56C391.55,94.85,359.14,22.25,255.76,36,55,62.69,36,173.59,36,173.59" transform="translate(-34.52 8.3)" fill="none" stroke="#2fc1c1" stroke-linecap="round" stroke-linejoin="round" stroke-width="2.76" stroke-dasharray="0 6"/><path d="M2108.45,137.38c-24.4,23.07-49,280.1-468.43,59.52-280.17-148.69-418.41-137-521.59-82.22-55.71,29.59-98.85,67-148.94,81.46C671.77,282.3,554,241,461.59,161.28,391,100.4,357.28,30.3,256.27,42.86,58.06,67.51,36,173.59,36,173.59" transform="translate(-34.52 8.3)" fill="none" stroke="#2fc1c1" stroke-linecap="round" stroke-linejoin="round" stroke-width="2.64" stroke-dasharray="0 6"/><path d="M2091.6,140.5c-32.52,30.77-63.89,273-466,59.4-273.16-145.12-409.93-144.77-513.72-92C1056.31,136.16,1013.4,173,964,188c-286.93,87.12-403.3,55.59-501.8-24.15-71.63-58-106.76-125.49-205.4-114.1C61.17,72.32,36,173.59,36,173.59" transform="translate(-34.52 8.3)" fill="none" stroke="#2fc1c1" stroke-linecap="round" stroke-linejoin="round" stroke-width="2.52" stroke-dasharray="0 6"/><path d="M2074.76,143.63c-40.66,38.45-78.37,265.17-463.63,59.27C1345.26,60.8,1209.7,50.4,1105.27,101.15c-55.37,26.91-98,63.12-146.8,78.65-276.14,88-391,66.29-495.7-13.45-72.5-55.2-109.21-120-205.47-109.76C64.28,77.11,36,173.59,36,173.59" transform="translate(-34.52 8.3)" fill="none" stroke="#2fc1c1" stroke-linecap="round" stroke-linejoin="round" stroke-width="2.4" stroke-dasharray="0 6"/><path d="M2057.91,146.75c-48.79,46.15-92.84,257.28-461.22,59.15-258.57-139.08-392.93-160.21-498-111.51C1043.51,120,1001.05,155.56,953,171.63c-265.37,88.66-378.5,76.9-489.6-2.74C390.1,116.37,351.69,54.37,257.81,63.46,67.38,81.89,36,173.59,36,173.59" transform="translate(-34.52 8.3)" fill="none" stroke="#2fc1c1" stroke-linecap="round" stroke-linejoin="round" stroke-width="2.29" stroke-dasharray="0 6"/><path d="M2041.07,149.88c-56.92,53.83-107.31,249.37-458.82,59C1331,72.83,1197.83,41,1092.11,87.62c-55,24.26-97.23,59.21-144.67,75.84-254.61,89.23-365.9,87.4-483.49,8C390,121.49,349.82,62.37,258.32,70.32,70.47,86.65,36,173.59,36,173.59" transform="translate(-34.52 8.3)" fill="none" stroke="#2fc1c1" stroke-linecap="round" stroke-linejoin="round" stroke-width="2.17" stroke-dasharray="0 6"/><path d="M2024.22,153c-65,61.53-121.76,241.43-456.42,58.89-244-133.07-375.88-175.59-482.27-131-54.8,23-96.83,57.24-143.6,74.44C698.05,245,588.73,253.06,464.54,174,390,126.5,348,70.36,258.83,77.19,73.56,91.38,36,173.59,36,173.59" transform="translate(-34.52 8.3)" fill="none" stroke="#2fc1c1" stroke-linecap="round" stroke-linejoin="round" stroke-width="2.05" stroke-dasharray="0 6"/><path d="M2007.37,156.13c-73.18,69.22-136.19,233.46-454,58.76C1316.71,84.81,1186,31.64,1079,74.09c-54.6,21.64-96.42,55.24-142.53,73-233.19,90-340.41,108-471.29,29.37-75-45.07-119-98.16-205.78-92.44C76.64,96.1,36,173.59,36,173.59" transform="translate(-34.52 8.3)" fill="none" stroke="#2fc1c1" stroke-linecap="round" stroke-linejoin="round" stroke-width="1.93" stroke-dasharray="0 6"/><path d="M1990.53,159.25c-81.31,76.91-150.62,225.48-451.61,58.64C1309.58,90.78,1180.12,27,1072.36,67.32c-54.38,20.36-96,53.22-141.45,71.62C708.38,229.06,603.39,257,465.72,179,390.25,136.26,344.2,86.3,259.86,90.92,79.72,100.78,36,173.59,36,173.59" transform="translate(-34.52 8.3)" fill="none" stroke="#2fc1c1" stroke-linecap="round" stroke-linejoin="round" stroke-width="1.81" stroke-dasharray="0 6"/><path d="M1973.68,162.38c-89.44,84.6-165,217.45-449.21,58.51-222-124.16-350.23-198.52-458.69-160.33-54.17,19.07-95.62,51.18-140.38,70.21-211.91,90.13-314.55,128-459.09,50.79-75.89-40.55-124-87.32-205.94-83.78C82.8,105.45,36,173.59,36,173.59" transform="translate(-34.52 8.3)" fill="none" stroke="#2fc1c1" stroke-linecap="round" stroke-linejoin="round" stroke-width="1.69" stroke-dasharray="0 6"/><path d="M1956.84,165.5c-97.58,92.29-179.42,209.39-446.81,58.39C1295.36,102.66,1168.36,17.77,1059.2,53.79c-54,17.81-95.24,49.11-139.31,68.81-201.34,90-301.5,137.76-453,61.49-76.28-38.4-126.45-81.91-206-79.44C85.87,110.08,36,173.59,36,173.59" transform="translate(-34.52 8.3)" fill="none" stroke="#2fc1c1" stroke-linecap="round" stroke-linejoin="round" stroke-width="1.57" stroke-dasharray="0 6"/><path d="M1940,168.63c-105.7,100-193.79,201.29-444.4,58.26-207.32-118.33-333.1-213.7-443-179.87-53.74,16.56-94.86,47-138.24,67.41C723.55,204.14,626,261.76,467.49,186.63,390.84,150.3,338.57,110.1,261.4,111.51,88.94,114.67,36,173.59,36,173.59" transform="translate(-34.52 8.3)" fill="none" stroke="#2fc1c1" stroke-linecap="round" stroke-linejoin="round" stroke-width="1.45" stroke-dasharray="0 6"/><path d="M1923.15,171.75c-113.84,107.67-208.14,193.16-442,58.14C1281.19,114.44,1156.63,8.63,1046,40.26c-53.52,15.31-94.5,44.88-137.17,66C728.48,195.54,633.64,263,468.07,189.16c-77-34.32-131.38-71.16-206.16-70.78C92,119.23,36,173.59,36,173.59" transform="translate(-34.52 8.3)" fill="none" stroke="#2fc1c1" stroke-linecap="round" stroke-linejoin="round" stroke-width="1.33" stroke-dasharray="0 6"/><path d="M1906.3,174.88c-122,115.36-222.46,185-439.6,58C1274.13,120.28,1150.77,4.1,1039.46,33.49c-53.3,14.08-94.17,42.72-136.11,64.6-170,88.7-262,165.9-434.69,93.61-77.35-32.39-133.85-65.81-206.24-66.46C95.08,123.76,36,173.59,36,173.59" transform="translate(-34.52 8.3)" fill="none" stroke="#2fc1c1" stroke-linecap="round" stroke-linejoin="round" stroke-width="1.21" stroke-dasharray="0 6"/><path d="M1889.46,178c-130.1,123.05-236.76,176.75-437.2,57.88C1267.1,126.08,1144.91-.4,1032.88,26.73,979.8,39.58,939,67.24,897.84,89.92c-159.74,88-248.76,174.9-428.59,104.31-77.69-30.5-136.32-60.48-206.31-62.12C98.16,128.23,36,173.59,36,173.59" transform="translate(-34.52 8.3)" fill="none" stroke="#2fc1c1" stroke-linecap="round" stroke-linejoin="round" stroke-width="1.1" stroke-dasharray="0 6"/><path d="M1872.61,181.12c-138.23,130.75-251,168.46-434.79,57.76C1260.09,131.83,1139.06-4.87,1026.3,20c-52.85,11.64-93.57,38.26-134,61.79-149.57,87.13-235.49,183.71-422.49,115-78-28.67-138.78-55.17-206.39-57.8C101.24,132.66,36,173.59,36,173.59" transform="translate(-34.52 8.3)" fill="none" stroke="#2fc1c1" stroke-linecap="round" stroke-linejoin="round" stroke-width="0.98" stroke-dasharray="0 6"/><path d="M1855.76,184.25c-146.36,138.44-265.23,160.11-432.39,57.63C1253.14,137.5,1133.2-9.32,1019.72,13.2c-52.63,10.44-93.33,35.94-132.9,60.38C747.3,159.72,664.63,265.89,470.43,199.3,392,172.41,329.19,149.43,264,145.84,104.32,137,36,173.59,36,173.59" transform="translate(-34.52 8.3)" fill="none" stroke="#2fc1c1" stroke-linecap="round" stroke-linejoin="round" stroke-width="0.86" stroke-dasharray="0 6"/><path d="M1838.92,187.37c-154.49,146.13-279.42,151.71-430,57.51C1246.23,143.09,1127.35-13.74,1013.14,6.43,960.73,15.69,920,40,881.31,65.4c-129.6,85-208.88,200.73-410.29,136.44-78.8-25.16-143.7-44.6-206.54-49.14C107.42,141.36,36,173.59,36,173.59" transform="translate(-34.52 8.3)" fill="none" stroke="#2fc1c1" stroke-linecap="round" stroke-linejoin="round" stroke-width="0.74" stroke-dasharray="0 6"/><path d="M1822.07,190.5c-162.62,153.82-293.54,143.22-427.58,57.38-155.08-99.31-273-266-387.94-248.22-52.18,8.08-93,31.16-130.75,57.57C756,141.07,680.23,266.17,471.61,204.37,392.41,180.91,325.46,165,265,159.57c-154.45-14-229,14-229,14" transform="translate(-34.52 8.3)" fill="none" stroke="#2fc1c1" stroke-linecap="round" stroke-linejoin="round" stroke-width="0.62" stroke-dasharray="0 6"/><path d="M1805.23,193.62C1420.5,557.52,1207.91-34.77,1000-7.1s-240,292.82-527.77,214S36,173.59,36,173.59" transform="translate(-34.52 8.3)" fill="none" stroke="#2fc1c1" stroke-linecap="round" stroke-linejoin="round" stroke-width="0.5" stroke-dasharray="0 6"/></svg>