<svg data-name="favicon" xmlns="http://www.w3.org/2000/svg" viewBox="0 0 232.57 232.57">
  <circle cx="116.29" cy="116.29" r="116.29" fill="#abe1e1"/>
  <ellipse cx="82.97" cy="148.93" rx="15.43" ry="3.89" fill="#1d1e1c" opacity=".2"/>
  <ellipse cx="51.03" cy="148.09" rx="15.43" ry="3.89" fill="#1d1e1c" opacity=".2"/>
  <ellipse cx="58.63" cy="171.05" rx="15.43" ry="3.89" fill="#1d1e1c" opacity=".2"/>
  <ellipse cx="29.33" cy="160.09" rx="15.43" ry="3.89" fill="#1d1e1c" opacity=".2"/>
  <path fill="#1d1e1c" d="M66.11 146.91h-2.82V84.92l27.36 14.73-1.34 2.48-23.2-12.49v57.27z"/>
  <path fill="#1d1e1c" d="M44.68 159.15l-2.79-.36 7.79-61.62 41.37 6.21-.42 2.79-38.51-5.78-7.44 58.76z"/>
  <path fill="#1d1e1c" d="M70.92 167.8l-1.34-55.82 20.01-5.8.78 2.71-17.92 5.2 1.28 53.65-2.81.06z"/>
  <path fill="#1d1e1c" d="M93.26 144.39l-9.23-27.68 13.04-3.12.66 2.75-10.05 2.4 8.26 24.76-2.68.89z"/>
  <path d="M93.47 144.09s-2.72-4.66-6.85-1.7a5.29 5.29 0 00-1.75 7.05s1.36 1.27 6 1.41 5.7 0 6.56-1-2-8.39-2-8.39zM40.58 154.34s-4.35-6.47-10.11-2.35a7.36 7.36 0 00-2.42 9.81s1.88 1.39 8.3 1.39c8.34 0 8.18-2.49 8.77-4.22 1-2.9-2.08-8.25-2.08-8.25zM62.89 144s-5.76-8.16-11.52-4.05a7.36 7.36 0 00-2.37 9.83s1.88 1.39 8.3 1.4c8.35 0 8.75-1.65 9.33-3.38 1-2.9-2.64-9.09-2.64-9.09zM70.64 166s-5.19-7.88-11-3.76a7.34 7.34 0 00-2.42 9.8s1.88 1.68 8.3 1.68c8.34 0 8.46-2.68 8.49-4.5.14-8.92-2.93-8.25-2.93-8.25zM166.19 147.28h2.82V85.29l-27.36 14.73 1.34 2.48 23.2-12.49v57.27z" fill="#1d1e1c"/>
  <path fill="#1d1e1c" d="M187.62 159.52l2.8-.35-7.8-61.63-41.36 6.22.42 2.79 38.51-5.79 7.43 58.76z"/>
  <path fill="#1d1e1c" d="M161.39 168.18l1.33-55.82-20.01-5.81-.78 2.71 17.92 5.2-1.28 53.65 2.82.07z"/>
  <path fill="#1d1e1c" d="M139.04 144.76l9.23-27.68-13.04-3.11-.66 2.74 10.05 2.4-8.25 24.76 2.67.89z"/>
  <path d="M138.83 144.46s2.72-4.65 6.86-1.69a5.29 5.29 0 011.74 7s-1.36 1.27-6 1.41-5.7 0-6.57-1 2-8.38 2-8.38zM191.73 154.72s4.34-6.48 10.1-2.36a7.36 7.36 0 012.43 9.81s-1.89 1.39-8.3 1.4c-8.35 0-8.19-2.5-8.77-4.23-1-2.9 2.07-8.24 2.07-8.24zM169.41 144.4s5.76-8.17 11.52-4.05a7.36 7.36 0 012.42 9.81s-1.88 1.39-8.3 1.4c-8.34 0-8.74-1.65-9.33-3.38-1-2.9 2.64-9.1 2.64-9.1zM161.66 166.37s5.19-7.88 11-3.76a7.36 7.36 0 012.43 9.81s-1.89 1.67-8.3 1.68c-8.35 0-8.46-2.68-8.49-4.51-.14-8.92 2.92-8.24 2.92-8.24z" fill="#1d1e1c"/>
  <path d="M147.61 95.71c0 17-13.58 26-30.32 26s-29.46-9-29.46-26 12.72-22.93 29.46-22.93 30.32 5.91 30.32 22.93z" fill="#38a9b4"/>
  <path d="M116.93 123.14c-8.86 0-16.43-2.41-21.91-7-5.87-4.86-9-12-9-20.47 0-15.92 10.68-24.33 30.88-24.33 20.45 0 31.72 8.64 31.72 24.33 0 8.49-3.26 15.58-9.41 20.49-5.58 4.51-13.5 6.98-22.28 6.98zm0-48.95c-18.62 0-28.06 7.24-28.06 21.52 0 15.18 10.75 24.61 28.06 24.61 17.55 0 28.9-9.66 28.9-24.61 0-17.78-15.72-21.52-28.9-21.52z" fill="#1d1e1c"/>
  <ellipse cx="105.88" cy="77.63" rx="18.89" ry="19.54" fill="#fff"/>
  <path d="M105.51 98.16c-11 0-19.88-9.21-19.88-20.53s8.92-20.52 19.88-20.52 19.87 9.21 19.87 20.52-8.91 20.53-19.87 20.53zm0-39.08c-9.88 0-17.91 8.33-17.91 18.55s8 18.55 17.91 18.55 17.9-8.32 17.9-18.55-8.03-18.55-17.9-18.55z" fill="#1d1e1c"/>
  <ellipse cx="134.1" cy="80.82" rx="15.59" ry="15.28" fill="#fff"/>
  <path d="M133.73 97.09a16.27 16.27 0 1116.57-16.27 16.44 16.44 0 01-16.57 16.27zm0-30.57a14.3 14.3 0 1014.6 14.3 14.47 14.47 0 00-14.6-14.3z" fill="#1d1e1c"/>
  <circle cx="107.1" cy="78.66" r="8.7" fill="#1d1e1c"/>
  <circle cx="111.76" cy="77.34" r="2.4" fill="#fff"/>
  <ellipse cx="135.35" cy="81.73" rx="7.05" ry="6.77" fill="#1d1e1c"/>
  <circle cx="133.99" cy="80.52" r="1.94" fill="#fff"/>
  <ellipse cx="149.61" cy="149.45" rx="15.43" ry="3.89" fill="#1d1e1c" opacity=".2"/>
  <ellipse cx="181.54" cy="148.6" rx="15.43" ry="3.89" fill="#1d1e1c" opacity=".2"/>
  <ellipse cx="173.95" cy="171.57" rx="15.43" ry="3.89" fill="#1d1e1c" opacity=".2"/>
  <ellipse cx="203.25" cy="160.6" rx="15.43" ry="3.89" fill="#1d1e1c" opacity=".2"/>
</svg>
