<svg xmlns="http://www.w3.org/2000/svg" viewBox="0 0 1200 1200"><defs><style>.a{fill:#abe1e1;}.b,.c{fill:#1d1e1c;}.b{opacity:0.2;}.d{fill:#38a9b4;}.e{fill:#fff;}.f{fill:#2895a0;}</style></defs><title>Logo</title><circle class="a" cx="600" cy="600" r="600"/><ellipse class="b" cx="455.01" cy="620.09" rx="79.63" ry="20.09"/><ellipse class="b" cx="290.25" cy="615.73" rx="79.63" ry="20.09"/><ellipse class="b" cx="329.43" cy="734.21" rx="79.63" ry="20.09"/><ellipse class="b" cx="178.25" cy="677.64" rx="79.63" ry="20.09"/><polygon class="c" points="368.06 609.63 353.51 609.63 353.51 289.79 494.66 365.79 487.76 378.6 368.06 314.14 368.06 609.63"/><polygon class="c" points="257.48 672.79 243.05 670.97 283.26 353.01 496.71 385.06 494.55 399.45 295.83 369.61 257.48 672.79"/><polygon class="c" points="392.84 717.46 385.94 429.45 489.18 399.5 493.24 413.47 400.76 440.3 407.38 717.11 392.84 717.46"/><polygon class="c" points="508.14 596.66 460.53 453.83 527.8 437.75 531.18 451.9 479.35 464.29 521.94 592.05 508.14 596.66"/><path class="c" d="M509.22,595.08s-14-24-35.38-8.73-9,36.37-9,36.37,7,6.55,30.78,7.28,29.4,0,33.86-5.09-10.08-43.25-10.08-43.25Z"/><path class="c" d="M236.29,648s-22.42-33.41-52.14-12.15-12.51,50.61-12.51,50.61,9.73,7.17,42.83,7.21c43.07.05,42.22-12.88,45.25-21.8,5.09-15-10.71-42.55-10.71-42.55Z"/><path class="c" d="M351.42,594.75s-29.7-42.13-59.42-20.88-12.51,50.61-12.51,50.61,9.73,7.18,42.83,7.21c43.07,0,45.13-8.51,48.16-17.43,5.09-15-13.62-46.92-13.62-46.92Z"/><path class="c" d="M391.43,708.15s-26.79-40.67-56.51-19.42-12.51,50.61-12.51,50.61,9.73,8.63,42.83,8.67c43.07,0,43.64-13.84,43.8-23.25.73-46-15.08-42.56-15.08-42.56Z"/><polygon class="c" points="884.42 611.57 898.97 611.57 898.97 291.72 757.82 367.73 764.72 380.54 884.42 316.08 884.42 611.57"/><polygon class="c" points="995 674.73 1009.43 672.9 969.21 354.94 755.77 387 757.93 401.38 956.65 371.54 995 674.73"/><polygon class="c" points="859.64 719.4 866.53 431.39 763.3 401.43 759.24 415.4 851.72 442.24 845.1 719.05 859.64 719.4"/><polygon class="c" points="744.34 598.59 791.95 455.76 724.68 439.69 721.3 453.84 773.13 466.22 730.54 593.99 744.34 598.59"/><path class="c" d="M743.26,597s14-24,35.38-8.73,9,36.37,9,36.37-7,6.55-30.78,7.27-29.4,0-33.86-5.09,10.08-43.24,10.08-43.24Z"/><path class="c" d="M1016.19,649.94s22.42-33.4,52.14-12.15,12.51,50.61,12.51,50.61-9.73,7.18-42.83,7.21c-43.07,0-42.22-12.88-45.25-21.79-5.09-15,10.71-42.55,10.71-42.55Z"/><path class="c" d="M901.06,596.68s29.7-42.13,59.41-20.87S973,626.42,973,626.42s-9.72,7.17-42.82,7.21c-43.07,0-45.13-8.52-48.16-17.44-5.1-15,13.62-46.91,13.62-46.91Z"/><path class="c" d="M861.05,710.09s26.79-40.68,56.51-19.42,12.51,50.61,12.51,50.61-9.73,8.63-42.83,8.66c-43.07,0-43.65-13.83-43.8-23.25-.73-46,15.08-42.55,15.08-42.55Z"/><path class="d" d="M788.53,345.46c0,87.81-70,134.27-156.39,134.27s-152-46.46-152-134.27,65.65-118.27,152-118.27S788.53,257.65,788.53,345.46Z"/><path class="c" d="M630.23,487c-45.68,0-84.77-12.41-113.05-35.88-30.26-25.12-46.25-61.66-46.25-105.66,0-82.13,55.09-125.54,159.3-125.54,105.55,0,163.67,44.58,163.67,125.54,0,43.83-16.78,80.4-48.54,105.75C716.44,474.29,675.56,487,630.23,487Zm0-252.53c-96.05,0-144.75,37.34-144.75,111,0,78.33,55.47,127,144.75,127,90.59,0,149.12-49.84,149.12-127C779.35,253.72,698.26,234.47,630.23,234.47Z"/><ellipse class="e" cx="573.22" cy="252.21" rx="97.47" ry="100.8"/><path class="c" d="M571.31,358.1c-56.55,0-102.56-47.5-102.56-105.89s46-105.89,102.56-105.89,102.57,47.5,102.57,105.89S627.87,358.1,571.31,358.1Zm0-201.6c-50.94,0-92.38,42.94-92.38,95.71s41.44,95.71,92.38,95.71,92.38-42.94,92.38-95.71S622.25,156.5,571.31,156.5Z"/><ellipse class="e" cx="718.84" cy="268.66" rx="80.41" ry="78.86"/><path class="c" d="M716.93,352.61c-47.15,0-85.5-37.66-85.5-83.95s38.35-84,85.5-84,85.51,37.66,85.51,84S764.08,352.61,716.93,352.61Zm0-157.73c-41.53,0-75.32,33.1-75.32,73.78s33.79,73.77,75.32,73.77,75.32-33.1,75.32-73.77S758.47,194.88,716.93,194.88Z"/><circle class="c" cx="579.54" cy="257.52" r="44.9"/><circle class="e" cx="603.6" cy="250.7" r="12.37"/><ellipse class="c" cx="725.28" cy="273.32" rx="36.39" ry="34.92"/><circle class="e" cx="718.26" cy="267.09" r="10.01"/><ellipse class="b" cx="798.86" cy="622.76" rx="79.63" ry="20.09"/><ellipse class="b" cx="963.62" cy="618.39" rx="79.63" ry="20.09"/><ellipse class="b" cx="924.44" cy="736.88" rx="79.63" ry="20.09"/><ellipse class="b" cx="1075.62" cy="680.31" rx="79.63" ry="20.09"/><path class="f" d="M537.94,685.09l23.59,19.27c6.84,5.77,10.62,10.45,11.16,19.27v68.26a15.38,15.38,0,0,1-15.49,15.49,15.57,15.57,0,0,1-15.84-15.49V776.58l-31.34-29v44.3a15.53,15.53,0,0,1-15.67,15.49,15.69,15.69,0,0,1-15.85-15.49V723.63c.73-8.82,4.87-13.5,11.53-19.27l23.05-19.27C522.27,677.89,528.93,677.53,537.94,685.09Zm3.42,60.15V712.47H510v32.77Z"/><path class="f" d="M619.71,775.68v15.13c0,8.82-6.48,16-15.31,16a16,16,0,0,1-15.85-16V707.07a26.83,26.83,0,0,1,26.66-26.66h23.95a26.27,26.27,0,0,1,18.55,7.39L675,705.08c11.34,10.81,9.36,37.46-1.62,48.09l-15.67,15a25,25,0,0,1-18.55,7.56ZM650,744.16V711.93l-29.89-.36v32.59Z"/><path class="f" d="M693.36,793V734.87C693.36,727,700,720,709.21,720c9,0,16,6.33,16,14.08V793c0,7.75-7,14.24-16,14.24C700.57,807.24,693.36,800.75,693.36,793Zm31.18-80.27H694v-32h30.53Z"/><path class="f" d="M227.4,941.44v15.13c0,8.82-6.49,16-15.31,16a16,16,0,0,1-15.85-16V872.83a26.83,26.83,0,0,1,26.65-26.66h24a26.28,26.28,0,0,1,18.55,7.39l17.28,17.28c11.35,10.81,9.37,37.46-1.62,48.09l-15.66,15a25,25,0,0,1-18.55,7.56Zm30.25-31.52V877.69l-29.89-.36v32.59Z"/><path class="f" d="M299.43,945.22v-84.1c0-8.46,7.38-15.49,15.85-15.49a15.73,15.73,0,0,1,16,15.49v80c15.84,0,11.34-.36,27-.36,20.71,0,20.71,31.7,0,31.7H326.8A27.45,27.45,0,0,1,299.43,945.22Z"/><path class="f" d="M441.52,850.86l23.59,19.26c6.85,5.77,10.63,10.45,11.17,19.28v68.25a15.38,15.38,0,0,1-15.49,15.49,15.58,15.58,0,0,1-15.85-15.49V942.34l-31.33-29v44.3a15.76,15.76,0,0,1-31.52,0V889.4c.72-8.83,4.86-13.51,11.53-19.28l23.05-19.26C425.85,843.65,432.52,843.29,441.52,850.86ZM444.94,911V878.23H413.61V911Z"/><path class="f" d="M551,846.35c20.36,0,20.36,31.34,0,31.34h-13.5v79.78c0,21.25-31.52,21.25-31.52,0V877.69h-13.5c-20.53,0-20.53-31.34,0-31.34Z"/><path class="f" d="M606.48,877.87v20.89h28.28a15.79,15.79,0,0,1,15.66,15.67,16.15,16.15,0,0,1-16,15.85H606.48v27.55c0,20.53-31.51,20.53-31.51,0V873a26.55,26.55,0,0,1,26.47-26.66H641.6a15.69,15.69,0,0,1,15.85,15.49,16.27,16.27,0,0,1-15.85,16Z"/><path class="f" d="M694.19,846.53h36a26.83,26.83,0,0,1,26.66,26.66v72.39c0,13-12.43,26.66-25.76,26.66H693.48c-13.33,0-26.66-13.69-26.66-26.66V873.19C666.82,857.52,679.79,846.53,694.19,846.53Zm31.16,31.52h-27v63h27Z"/><path class="f" d="M845.29,921.09c11.16,6.84,15.13,15.49,15.13,26.83v9.19a15.4,15.4,0,1,1-30.8,0v-8.83l-30.8-37.45v46.28a15.53,15.53,0,0,1-15.48,15.67,15.72,15.72,0,0,1-15.85-15.67V862.2a15.76,15.76,0,0,1,15.85-15.85h35.12c7.38,0,13.5,2.7,18.9,7.75l15.31,14.77c5.41,5.4,8.47,11.7,8.47,19.44v7C861.14,907.76,855.37,916.05,845.29,921.09Zm-46.47-43.22v30.25h30.8V877.87Z"/><path class="f" d="M926,851.22l13.69,14.58,13.68-14.58c7.57-7.93,18.37-7.93,25.4,0l18.36,19.09c5.59,6.3,10.27,10.26,11.17,19.09V958c0,20.35-31.7,20.35-31.7,0V878.23H955.5V958c0,20.89-31.51,20.89-31.51,0V878.23H903.28V958c0,20.35-31.7,20.35-31.7,0V889.4c.36-8.83,5.4-12.79,11.17-19.09l18.37-19.09C908.14,843.29,919,843.29,926,851.22Z"/></svg>
