<svg xmlns="http://www.w3.org/2000/svg" xmlns:xlink="http://www.w3.org/1999/xlink" xmlns:lucid="lucid" width="688.43" height="1282.82"><g transform="translate(-680.7125798240472 -243.2245094252949)" lucid:page-tab-id="0zeGYG.TUQLB"><path d="M0 0h2324.52v1796.22H0z" fill="#fff"/><path d="M701.08 318.72c0-30.65 24.85-55.5 55.5-55.5h60.5c30.65 0 55.5 24.85 55.5 55.5 0 30.66-24.85 55.5-55.5 55.5h-60.5c-30.65 0-55.5-24.84-55.5-55.5z" stroke="#fff" fill="#0c7cba"/><use xlink:href="#a" transform="matrix(1,0,0,1,706.0807099810571,268.2245094252949) translate(62.50023148148148 42.87777777777778)"/><use xlink:href="#b" transform="matrix(1,0,0,1,706.0807099810571,268.2245094252949) translate(43.49760802469135 65.74444444444444)"/><path d="M939.28 318.72c0-30.65 24.85-55.5 55.5-55.5h60.13c30.66 0 55.5 24.85 55.5 55.5 0 30.66-24.84 55.5-55.5 55.5H994.8c-30.65 0-55.5-24.84-55.5-55.5z" stroke="#fff" fill="#0c7cba"/><use xlink:href="#c" transform="matrix(1,0,0,1,944.278688649898,268.2245094252949) translate(39.28950617283951 42.87777777777778)"/><use xlink:href="#b" transform="matrix(1,0,0,1,944.278688649898,268.2245094252949) translate(43.49760802469135 65.74444444444444)"/><path d="M1177.1 318.72c0-30.65 24.86-55.5 55.5-55.5h60.67c30.65 0 55.5 24.85 55.5 55.5 0 30.66-24.85 55.5-55.5 55.5h-60.66c-30.64 0-55.5-24.84-55.5-55.5z" stroke="#fff" fill="#0c7cba"/><use xlink:href="#d" transform="matrix(1,0,0,1,1182.1085371617291,268.2245094252949) translate(44.529783950617286 42.87777777777778)"/><use xlink:href="#b" transform="matrix(1,0,0,1,1182.1085371617291,268.2245094252949) translate(43.49760802469135 65.74444444444444)"/><path d="M700.7 424.5c0-4.42 3.6-8 8-8h155.5c4.43 0 8 3.58 8 8v103.4c0 4.43-3.57 8-8 8H708.7c-4.4 0-8-3.57-8-8z" stroke="#fff" fill="#4197d9"/><use xlink:href="#e" transform="matrix(1,0,0,1,705.7125798240472,421.5) translate(58.265663580246915 58.8111111111111)"/><path d="M938.9 424.5c0-4.42 3.6-8 8-8h155.5c4.43 0 8 3.58 8 8v103.4c0 4.43-3.57 8-8 8H946.9c-4.4 0-8-3.57-8-8z" stroke="#fff" fill="#4197d9"/><use xlink:href="#e" transform="matrix(1,0,0,1,943.9105584928882,421.5) translate(58.265663580246915 58.8111111111111)"/><path d="M1177.1 424.5c0-4.42 3.6-8 8-8h155.5c4.43 0 8 3.58 8 8v103.4c0 4.43-3.57 8-8 8h-155.5c-4.4 0-8-3.57-8-8z" stroke="#fff" fill="#4197d9"/><use xlink:href="#e" transform="matrix(1,0,0,1,1182.1085371617291,421.5) translate(58.265663580246915 58.8111111111111)"/><path d="M1177.27 747.88c0-4.42 3.58-8 8-8h155.5c4.42 0 8 3.58 8 8v103.4c0 4.43-3.58 8-8 8h-155.5c-4.42 0-8-3.57-8-8z" stroke="#fff" fill="#4197d9"/><use xlink:href="#f" transform="matrix(1,0,0,1,1182.2709210135276,744.8772388984571) translate(34.02276234567902 58.8111111111111)"/><path d="M1177.48 909.57c0-4.42 3.58-8 8-8h155.5c4.4 0 8 3.58 8 8v103.4c0 4.43-3.6 8-8 8h-155.5c-4.42 0-8-3.57-8-8z" stroke="#fff" fill="#4197d9"/><use xlink:href="#g" transform="matrix(1,0,0,1,1182.4766673187391,906.5658583476857) translate(46.64706790123457 47.37777777777778)"/><use xlink:href="#h" transform="matrix(1,0,0,1,1182.4766673187391,906.5658583476857) translate(8.61535493827161 70.24444444444444)"/><path d="M1177.64 1071.25c0-4.4 3.58-8 8-8h155.5c4.42 0 8 3.6 8 8v103.42c0 4.42-3.58 8-8 8h-155.5c-4.42 0-8-3.58-8-8z" stroke="#fff" fill="#4197d9"/><use xlink:href="#i" transform="matrix(1,0,0,1,1182.6390511705376,1068.2544777969142) translate(47.36165123456791 58.8111111111111)"/><path d="M1177.48 1232.94c0-4.42 3.58-8 8-8h155.5c4.4 0 8 3.58 8 8v103.42c0 4.4-3.6 8-8 8h-155.5c-4.42 0-8-3.6-8-8z" stroke="#fff" fill="#4197d9"/><use xlink:href="#j" transform="matrix(1,0,0,1,1182.4766673187391,1229.9430972461428) translate(59.033179012345684 58.8111111111111)"/><path d="M1177.48 1394.63c0-4.42 3.58-8 8-8h155.5c4.4 0 8 3.58 8 8v103.4c0 4.43-3.6 8-8 8h-155.5c-4.42 0-8-3.57-8-8z" stroke="#fff" fill="#4197d9"/><use xlink:href="#k" transform="matrix(1,0,0,1,1182.4766673187391,1391.6317166953713) translate(44.58271604938272 58.8111111111111)"/><path d="M939.28 909.57c0-4.42 3.58-8 8-8h155.5c4.42 0 8 3.58 8 8v103.4c0 4.43-3.58 8-8 8h-155.5c-4.42 0-8-3.57-8-8z" stroke="#fff" fill="#4197d9"/><use xlink:href="#g" transform="matrix(1,0,0,1,944.278688649898,906.5658583476857) translate(46.64706790123457 47.37777777777778)"/><use xlink:href="#h" transform="matrix(1,0,0,1,944.278688649898,906.5658583476857) translate(8.61535493827161 70.24444444444444)"/><path d="M939.28 1394.63c0-4.42 3.58-8 8-8h155.5c4.42 0 8 3.58 8 8v103.4c0 4.43-3.58 8-8 8h-155.5c-4.42 0-8-3.57-8-8z" stroke="#fff" fill="#4197d9"/><use xlink:href="#k" transform="matrix(1,0,0,1,944.278688649898,1391.6317166953713) translate(44.58271604938272 58.8111111111111)"/><path d="M701.08 909.57c0-4.42 3.58-8 8-8h155.5c4.42 0 8 3.58 8 8v103.4c0 4.43-3.58 8-8 8h-155.5c-4.42 0-8-3.57-8-8z" stroke="#fff" fill="#4197d9"/><use xlink:href="#g" transform="matrix(1,0,0,1,706.0807099810571,906.5658583476857) translate(46.64706790123457 47.37777777777778)"/><use xlink:href="#h" transform="matrix(1,0,0,1,706.0807099810571,906.5658583476857) translate(8.61535493827161 70.24444444444444)"/><path d="M701.08 1394.63c0-4.42 3.58-8 8-8h155.5c4.42 0 8 3.58 8 8v103.4c0 4.43-3.58 8-8 8h-155.5c-4.42 0-8-3.57-8-8z" stroke="#fff" fill="#4197d9"/><use xlink:href="#k" transform="matrix(1,0,0,1,706.0807099810571,1391.6317166953713) translate(44.58271604938272 58.8111111111111)"/><path d="M1177.1 586.2c0-4.43 3.6-8 8-8h155.5c4.43 0 8 3.57 8 8v103.4c0 4.42-3.57 8-8 8h-155.5c-4.4 0-8-3.58-8-8z" stroke="#fff" fill="#4197d9"/><use xlink:href="#l" transform="matrix(1,0,0,1,1182.1085371617291,583.1886194492286) translate(46.64706790123457 58.8111111111111)"/><path d="M938.9 586.2c0-4.43 3.6-8 8-8h155.5c4.43 0 8 3.57 8 8v103.4c0 4.42-3.57 8-8 8H946.9c-4.4 0-8-3.58-8-8z" stroke="#fff" fill="#4197d9"/><use xlink:href="#l" transform="matrix(1,0,0,1,943.9105584928882,583.1886194492286) translate(46.64706790123457 58.8111111111111)"/><path d="M700.7 586.2c0-4.43 3.6-8 8-8h155.5c4.43 0 8 3.57 8 8v103.4c0 4.42-3.57 8-8 8H708.7c-4.4 0-8-3.58-8-8z" stroke="#fff" fill="#4197d9"/><use xlink:href="#l" transform="matrix(1,0,0,1,705.7125798240472,583.1886194492286) translate(46.64706790123457 58.8111111111111)"/><path d="M786.46 537.9v19.17" stroke="#666" stroke-width="3" fill="none"/><path d="M787.96 537.95h-3v-1.54h3z" fill="#666"/><path d="M786.46 572.83l-4.63-14.26h9.27z" stroke="#666" stroke-width="3" fill="#666"/><path d="M786.46 699.6v180.85" stroke="#666" stroke-width="3" fill="none"/><path d="M787.96 699.64h-3v-1.54h3z" fill="#666"/><path d="M786.46 896.2l-4.63-14.25h9.27z" stroke="#666" stroke-width="3" fill="#666"/><path d="M786.83 1022.98v342.53" stroke="#666" stroke-width="3" fill="none"/><path d="M788.33 1023.02h-3v-1.54h3z" fill="#666"/><path d="M786.83 1381.28L782.2 1367h9.27z" stroke="#666" stroke-width="3" fill="#666"/><path d="M1024.66 537.9v19.17" stroke="#666" stroke-width="3" fill="none"/><path d="M1026.16 537.95h-3v-1.54h3z" fill="#666"/><path d="M1024.66 572.83l-4.63-14.26h9.27z" stroke="#666" stroke-width="3" fill="#666"/><path d="M1024.66 699.6v180.85" stroke="#666" stroke-width="3" fill="none"/><path d="M1026.16 699.64h-3v-1.54h3z" fill="#666"/><path d="M1024.66 896.2l-4.63-14.25h9.27z" stroke="#666" stroke-width="3" fill="#666"/><path d="M1025.03 1022.98v342.53" stroke="#666" stroke-width="3" fill="none"/><path d="M1026.53 1023.02h-3v-1.54h3z" fill="#666"/><path d="M1025.03 1381.28l-4.64-14.27h9.26z" stroke="#666" stroke-width="3" fill="#666"/><path d="M1262.86 537.9v19.17" stroke="#666" stroke-width="3" fill="none"/><path d="M1264.36 537.95h-3v-1.54h3z" fill="#666"/><path d="M1262.86 572.83l-4.64-14.26h9.27z" stroke="#666" stroke-width="3" fill="#666"/><path d="M1262.86 699.6v19.16" stroke="#666" stroke-width="3" fill="none"/><path d="M1264.36 699.64h-3v-1.54h3z" fill="#666"/><path d="M1262.86 734.52l-4.64-14.26h9.27z" stroke="#666" stroke-width="3" fill="#666"/><path d="M1263.02 861.3v19.15" stroke="#666" stroke-width="3" fill="none"/><path d="M1264.52 861.33h-3v-1.54h3z" fill="#666"/><path d="M1263.02 896.2l-4.63-14.25h9.26z" stroke="#666" stroke-width="3" fill="#666"/><path d="M1263.23 1022.98v19.15" stroke="#666" stroke-width="3" fill="none"/><path d="M1264.73 1023.02h-3v-1.54h3z" fill="#666"/><path d="M1263.23 1057.9l-4.64-14.27h9.26z" stroke="#666" stroke-width="3" fill="#666"/><path d="M1263.4 1184.67v19.15" stroke="#666" stroke-width="3" fill="none"/><path d="M1264.9 1184.7h-3v-1.53h3z" fill="#666"/><path d="M1263.4 1219.6l-4.65-14.28h9.27z" stroke="#666" stroke-width="3" fill="#666"/><path d="M1263.23 1346.36v19.15" stroke="#666" stroke-width="3" fill="none"/><path d="M1264.73 1346.4h-3v-1.54h3z" fill="#666"/><path d="M1263.23 1381.28l-4.64-14.27h9.26z" stroke="#666" stroke-width="3" fill="#666"/><defs><path fill="#fff" d="M33 0v-248h34V0H33" id="m"/><path fill="#fff" d="M59-47c-2 24 18 29 38 22v24C64 9 27 4 27-40v-127H5v-23h24l9-43h21v43h35v23H59v120" id="n"/><path fill="#fff" d="M100-194c63 0 86 42 84 106H49c0 40 14 67 53 68 26 1 43-12 49-29l28 8c-11 28-37 45-77 45C44 4 14-33 15-96c1-61 26-98 85-98zm52 81c6-60-76-77-97-28-3 7-6 17-6 28h103" id="o"/><path fill="#fff" d="M210-169c-67 3-38 105-44 169h-31v-121c0-29-5-50-35-48C34-165 62-65 56 0H25l-1-190h30c1 10-1 24 2 32 10-44 99-50 107 0 11-21 27-35 58-36 85-2 47 119 55 194h-31v-121c0-29-5-49-35-48" id="p"/><g id="a"><use transform="matrix(0.052932098765432097,0,0,0.052932098765432097,0,0)" xlink:href="#m"/><use transform="matrix(0.052932098765432097,0,0,0.052932098765432097,5.29320987654321,0)" xlink:href="#n"/><use transform="matrix(0.052932098765432097,0,0,0.052932098765432097,10.58641975308642,0)" xlink:href="#o"/><use transform="matrix(0.052932098765432097,0,0,0.052932098765432097,21.17283950617284,0)" xlink:href="#p"/></g><path fill="#fff" d="M233-177c-1 41-23 64-60 70L243 0h-38l-65-103H63V0H30v-248c88 3 205-21 203 71zM63-129c60-2 137 13 137-47 0-61-80-42-137-45v92" id="q"/><path fill="#fff" d="M135-143c-3-34-86-38-87 0 15 53 115 12 119 90S17 21 10-45l28-5c4 36 97 45 98 0-10-56-113-15-118-90-4-57 82-63 122-42 12 7 21 19 24 35" id="r"/><path fill="#fff" d="M100-194c62-1 85 37 85 99 1 63-27 99-86 99S16-35 15-95c0-66 28-99 85-99zM99-20c44 1 53-31 53-75 0-43-8-75-51-75s-53 32-53 75 10 74 51 75" id="s"/><path fill="#fff" d="M24 0v-261h32V0H24" id="t"/><path fill="#fff" d="M108 0H70L1-190h34L89-25l56-165h34" id="u"/><path fill="#fff" d="M114-163C36-179 61-72 57 0H25l-1-190h30c1 12-1 29 2 39 6-27 23-49 58-41v29" id="v"/><g id="b"><use transform="matrix(0.052932098765432097,0,0,0.052932098765432097,0,0)" xlink:href="#q"/><use transform="matrix(0.052932098765432097,0,0,0.052932098765432097,13.709413580246913,0)" xlink:href="#o"/><use transform="matrix(0.052932098765432097,0,0,0.052932098765432097,24.295833333333334,0)" xlink:href="#r"/><use transform="matrix(0.052932098765432097,0,0,0.052932098765432097,33.82361111111111,0)" xlink:href="#s"/><use transform="matrix(0.052932098765432097,0,0,0.052932098765432097,44.41003086419753,0)" xlink:href="#t"/><use transform="matrix(0.052932098765432097,0,0,0.052932098765432097,48.59166666666667,0)" xlink:href="#u"/><use transform="matrix(0.052932098765432097,0,0,0.052932098765432097,58.11944444444444,0)" xlink:href="#o"/><use transform="matrix(0.052932098765432097,0,0,0.052932098765432097,68.70586419753087,0)" xlink:href="#v"/></g><path fill="#fff" d="M212-179c-10-28-35-45-73-45-59 0-87 40-87 99 0 60 29 101 89 101 43 0 62-24 78-52l27 14C228-24 195 4 139 4 59 4 22-46 18-125c-6-104 99-153 187-111 19 9 31 26 39 46" id="w"/><path fill="#fff" d="M96-169c-40 0-48 33-48 73s9 75 48 75c24 0 41-14 43-38l32 2c-6 37-31 61-74 61-59 0-76-41-82-99-10-93 101-131 147-64 4 7 5 14 7 22l-32 3c-4-21-16-35-41-35" id="x"/><path fill="#fff" d="M24-231v-30h32v30H24zM24 0v-190h32V0H24" id="y"/><path fill="#fff" d="M117-194c89-4 53 116 60 194h-32v-121c0-31-8-49-39-48C34-167 62-67 57 0H25l-1-190h30c1 10-1 24 2 32 11-22 29-35 61-36" id="z"/><g id="c"><use transform="matrix(0.052932098765432097,0,0,0.052932098765432097,0,0)" xlink:href="#w"/><use transform="matrix(0.052932098765432097,0,0,0.052932098765432097,13.709413580246913,0)" xlink:href="#s"/><use transform="matrix(0.052932098765432097,0,0,0.052932098765432097,24.295833333333334,0)" xlink:href="#t"/><use transform="matrix(0.052932098765432097,0,0,0.052932098765432097,28.47746913580247,0)" xlink:href="#t"/><use transform="matrix(0.052932098765432097,0,0,0.052932098765432097,32.659104938271604,0)" xlink:href="#o"/><use transform="matrix(0.052932098765432097,0,0,0.052932098765432097,43.24552469135802,0)" xlink:href="#x"/><use transform="matrix(0.052932098765432097,0,0,0.052932098765432097,52.7733024691358,0)" xlink:href="#n"/><use transform="matrix(0.052932098765432097,0,0,0.052932098765432097,58.06651234567901,0)" xlink:href="#y"/><use transform="matrix(0.052932098765432097,0,0,0.052932098765432097,62.24814814814815,0)" xlink:href="#s"/><use transform="matrix(0.052932098765432097,0,0,0.052932098765432097,72.83456790123456,0)" xlink:href="#z"/></g><path fill="#fff" d="M240 0l2-218c-23 76-54 145-80 218h-23L58-218 59 0H30v-248h44l77 211c21-75 51-140 76-211h43V0h-30" id="A"/><path fill="#fff" d="M84 4C-5 8 30-112 23-190h32v120c0 31 7 50 39 49 72-2 45-101 50-169h31l1 190h-30c-1-10 1-25-2-33-11 22-28 36-60 37" id="B"/><path fill="#fff" d="M141-36C126-15 110 5 73 4 37 3 15-17 15-53c-1-64 63-63 125-63 3-35-9-54-41-54-24 1-41 7-42 31l-33-3c5-37 33-52 76-52 45 0 72 20 72 64v82c-1 20 7 32 28 27v20c-31 9-61-2-59-35zM48-53c0 20 12 33 32 33 41-3 63-29 60-74-43 2-92-5-92 41" id="C"/><g id="d"><use transform="matrix(0.052932098765432097,0,0,0.052932098765432097,0,0)" xlink:href="#A"/><use transform="matrix(0.052932098765432097,0,0,0.052932098765432097,15.826697530864196,0)" xlink:href="#B"/><use transform="matrix(0.052932098765432097,0,0,0.052932098765432097,26.413117283950616,0)" xlink:href="#n"/><use transform="matrix(0.052932098765432097,0,0,0.052932098765432097,31.706327160493824,0)" xlink:href="#C"/><use transform="matrix(0.052932098765432097,0,0,0.052932098765432097,42.292746913580245,0)" xlink:href="#n"/><use transform="matrix(0.052932098765432097,0,0,0.052932098765432097,47.585956790123454,0)" xlink:href="#y"/><use transform="matrix(0.052932098765432097,0,0,0.052932098765432097,51.76759259259259,0)" xlink:href="#s"/><use transform="matrix(0.052932098765432097,0,0,0.052932098765432097,62.35401234567901,0)" xlink:href="#z"/></g><path fill="#fff" d="M85-194c31 0 48 13 60 33l-1-100h32l1 261h-30c-2-10 0-23-3-31C134-8 116 4 85 4 32 4 16-35 15-94c0-66 23-100 70-100zm9 24c-40 0-46 34-46 75 0 40 6 74 45 74 42 0 51-32 51-76 0-42-9-74-50-73" id="D"/><g id="e"><use transform="matrix(0.052932098765432097,0,0,0.052932098765432097,0,0)" xlink:href="#q"/><use transform="matrix(0.052932098765432097,0,0,0.052932098765432097,13.709413580246913,0)" xlink:href="#o"/><use transform="matrix(0.052932098765432097,0,0,0.052932098765432097,24.295833333333334,0)" xlink:href="#C"/><use transform="matrix(0.052932098765432097,0,0,0.052932098765432097,34.88225308641975,0)" xlink:href="#D"/></g><path fill="#fff" d="M30-248c118-7 216 8 213 122C240-48 200 0 122 0H30v-248zM63-27c89 8 146-16 146-99s-60-101-146-95v194" id="E"/><path fill="#fff" d="M9 0v-24l116-142H16v-24h144v24L44-24h123V0H9" id="F"/><g id="f"><use transform="matrix(0.052932098765432097,0,0,0.052932098765432097,0,0)" xlink:href="#E"/><use transform="matrix(0.052932098765432097,0,0,0.052932098765432097,13.709413580246913,0)" xlink:href="#o"/><use transform="matrix(0.052932098765432097,0,0,0.052932098765432097,24.295833333333334,0)" xlink:href="#r"/><use transform="matrix(0.052932098765432097,0,0,0.052932098765432097,33.82361111111111,0)" xlink:href="#o"/><use transform="matrix(0.052932098765432097,0,0,0.052932098765432097,44.41003086419753,0)" xlink:href="#v"/><use transform="matrix(0.052932098765432097,0,0,0.052932098765432097,50.708950617283946,0)" xlink:href="#y"/><use transform="matrix(0.052932098765432097,0,0,0.052932098765432097,54.890586419753085,0)" xlink:href="#C"/><use transform="matrix(0.052932098765432097,0,0,0.052932098765432097,65.47700617283951,0)" xlink:href="#t"/><use transform="matrix(0.052932098765432097,0,0,0.052932098765432097,69.65864197530864,0)" xlink:href="#y"/><use transform="matrix(0.052932098765432097,0,0,0.052932098765432097,73.84027777777777,0)" xlink:href="#F"/><use transform="matrix(0.052932098765432097,0,0,0.052932098765432097,83.36805555555554,0)" xlink:href="#o"/></g><path fill="#fff" d="M185-189c-5-48-123-54-124 2 14 75 158 14 163 119 3 78-121 87-175 55-17-10-28-26-33-46l33-7c5 56 141 63 141-1 0-78-155-14-162-118-5-82 145-84 179-34 5 7 8 16 11 25" id="G"/><path fill="#fff" d="M179-190L93 31C79 59 56 82 12 73V49c39 6 53-20 64-50L1-190h34L92-34l54-156h33" id="H"/><g id="g"><use transform="matrix(0.052932098765432097,0,0,0.052932098765432097,0,0)" xlink:href="#G"/><use transform="matrix(0.052932098765432097,0,0,0.052932098765432097,12.703703703703702,0)" xlink:href="#o"/><use transform="matrix(0.052932098765432097,0,0,0.052932098765432097,23.29012345679012,0)" xlink:href="#x"/><use transform="matrix(0.052932098765432097,0,0,0.052932098765432097,32.8179012345679,0)" xlink:href="#B"/><use transform="matrix(0.052932098765432097,0,0,0.052932098765432097,43.404320987654316,0)" xlink:href="#v"/><use transform="matrix(0.052932098765432097,0,0,0.052932098765432097,49.70324074074074,0)" xlink:href="#y"/><use transform="matrix(0.052932098765432097,0,0,0.052932098765432097,53.88487654320988,0)" xlink:href="#n"/><use transform="matrix(0.052932098765432097,0,0,0.052932098765432097,59.178086419753086,0)" xlink:href="#H"/></g><path fill="#fff" d="M30-248c87 1 191-15 191 75 0 78-77 80-158 76V0H30v-248zm33 125c57 0 124 11 124-50 0-59-68-47-124-48v98" id="I"/><g id="h"><use transform="matrix(0.052932098765432097,0,0,0.052932098765432097,0,0)" xlink:href="#I"/><use transform="matrix(0.052932098765432097,0,0,0.052932098765432097,12.703703703703702,0)" xlink:href="#s"/><use transform="matrix(0.052932098765432097,0,0,0.052932098765432097,23.29012345679012,0)" xlink:href="#r"/><use transform="matrix(0.052932098765432097,0,0,0.052932098765432097,32.8179012345679,0)" xlink:href="#n"/><use transform="matrix(0.052932098765432097,0,0,0.052932098765432097,38.11111111111111,0)" xlink:href="#E"/><use transform="matrix(0.052932098765432097,0,0,0.052932098765432097,51.82052469135802,0)" xlink:href="#o"/><use transform="matrix(0.052932098765432097,0,0,0.052932098765432097,62.40694444444443,0)" xlink:href="#z"/><use transform="matrix(0.052932098765432097,0,0,0.052932098765432097,72.99336419753085,0)" xlink:href="#s"/><use transform="matrix(0.052932098765432097,0,0,0.052932098765432097,83.57978395061727,0)" xlink:href="#v"/><use transform="matrix(0.052932098765432097,0,0,0.052932098765432097,89.87870370370369,0)" xlink:href="#p"/><use transform="matrix(0.052932098765432097,0,0,0.052932098765432097,105.70540123456789,0)" xlink:href="#C"/><use transform="matrix(0.052932098765432097,0,0,0.052932098765432097,116.29182098765432,0)" xlink:href="#t"/><use transform="matrix(0.052932098765432097,0,0,0.052932098765432097,120.47345679012342,0)" xlink:href="#y"/><use transform="matrix(0.052932098765432097,0,0,0.052932098765432097,124.65509259259257,0)" xlink:href="#F"/><use transform="matrix(0.052932098765432097,0,0,0.052932098765432097,134.18287037037035,0)" xlink:href="#o"/></g><path fill="#fff" d="M137 0h-34L2-248h35l83 218 83-218h36" id="J"/><g id="i"><use transform="matrix(0.052932098765432097,0,0,0.052932098765432097,0,0)" xlink:href="#J"/><use transform="matrix(0.052932098765432097,0,0,0.052932098765432097,11.274537037037035,0)" xlink:href="#C"/><use transform="matrix(0.052932098765432097,0,0,0.052932098765432097,21.860956790123453,0)" xlink:href="#t"/><use transform="matrix(0.052932098765432097,0,0,0.052932098765432097,26.042592592592587,0)" xlink:href="#y"/><use transform="matrix(0.052932098765432097,0,0,0.052932098765432097,30.224228395061722,0)" xlink:href="#D"/><use transform="matrix(0.052932098765432097,0,0,0.052932098765432097,40.81064814814814,0)" xlink:href="#C"/><use transform="matrix(0.052932098765432097,0,0,0.052932098765432097,51.39706790123456,0)" xlink:href="#n"/><use transform="matrix(0.052932098765432097,0,0,0.052932098765432097,56.690277777777766,0)" xlink:href="#o"/></g><path fill="#fff" d="M266 0h-40l-56-210L115 0H75L2-248h35L96-30l15-64 43-154h32l59 218 59-218h35" id="K"/><g id="j"><use transform="matrix(0.052932098765432097,0,0,0.052932098765432097,0,0)" xlink:href="#K"/><use transform="matrix(0.052932098765432097,0,0,0.052932098765432097,17.573456790123455,0)" xlink:href="#v"/><use transform="matrix(0.052932098765432097,0,0,0.052932098765432097,23.872376543209874,0)" xlink:href="#y"/><use transform="matrix(0.052932098765432097,0,0,0.052932098765432097,28.054012345679013,0)" xlink:href="#n"/><use transform="matrix(0.052932098765432097,0,0,0.052932098765432097,33.34722222222222,0)" xlink:href="#o"/></g><g id="k"><use transform="matrix(0.052932098765432097,0,0,0.052932098765432097,0,0)" xlink:href="#G"/><use transform="matrix(0.052932098765432097,0,0,0.052932098765432097,12.703703703703702,0)" xlink:href="#o"/><use transform="matrix(0.052932098765432097,0,0,0.052932098765432097,23.29012345679012,0)" xlink:href="#v"/><use transform="matrix(0.052932098765432097,0,0,0.052932098765432097,29.589043209876543,0)" xlink:href="#y"/><use transform="matrix(0.052932098765432097,0,0,0.052932098765432097,33.770679012345674,0)" xlink:href="#C"/><use transform="matrix(0.052932098765432097,0,0,0.052932098765432097,44.35709876543209,0)" xlink:href="#t"/><use transform="matrix(0.052932098765432097,0,0,0.052932098765432097,48.53873456790123,0)" xlink:href="#y"/><use transform="matrix(0.052932098765432097,0,0,0.052932098765432097,52.72037037037037,0)" xlink:href="#F"/><use transform="matrix(0.052932098765432097,0,0,0.052932098765432097,62.24814814814815,0)" xlink:href="#o"/></g><g id="l"><use transform="matrix(0.052932098765432097,0,0,0.052932098765432097,0,0)" xlink:href="#G"/><use transform="matrix(0.052932098765432097,0,0,0.052932098765432097,12.703703703703702,0)" xlink:href="#o"/><use transform="matrix(0.052932098765432097,0,0,0.052932098765432097,23.29012345679012,0)" xlink:href="#x"/><use transform="matrix(0.052932098765432097,0,0,0.052932098765432097,32.8179012345679,0)" xlink:href="#B"/><use transform="matrix(0.052932098765432097,0,0,0.052932098765432097,43.404320987654316,0)" xlink:href="#v"/><use transform="matrix(0.052932098765432097,0,0,0.052932098765432097,49.70324074074074,0)" xlink:href="#y"/><use transform="matrix(0.052932098765432097,0,0,0.052932098765432097,53.88487654320988,0)" xlink:href="#n"/><use transform="matrix(0.052932098765432097,0,0,0.052932098765432097,59.178086419753086,0)" xlink:href="#H"/></g></defs></g></svg>
