<svg xmlns="http://www.w3.org/2000/svg" viewBox="0 0 1200 135.45"><defs><style>.a{fill:#fff;}</style></defs><title>Logo</title><path class="a" d="M62.69,5.89,87.58,26.22c7.22,6.08,11.21,11,11.78,20.32v72A16.21,16.21,0,0,1,83,134.88,16.42,16.42,0,0,1,66.3,118.55V102.4l-33-30.59v46.74a16.37,16.37,0,0,1-16.53,16.33A16.54,16.54,0,0,1,0,118.55v-72c.76-9.3,5.13-14.24,12.16-20.32L36.48,5.89C46.16-1.71,53.19-2.09,62.69,5.89ZM66.3,69.34V34.77h-33V69.34Z"/><path class="a" d="M149,101.45v16c0,9.3-6.83,16.9-16.14,16.9a16.91,16.91,0,0,1-16.72-16.9V29.07A28.3,28.3,0,0,1,144.21,1h25.26A27.74,27.74,0,0,1,189,8.74L207.28,27c12,11.4,9.88,39.51-1.71,50.72L189,93.47a26.38,26.38,0,0,1-19.57,8ZM180.87,68.2v-34l-31.54-.38V68.2Z"/><path class="a" d="M226.65,119.72V58.4c0-8.35,7-15.69,16.72-15.69,9.5,0,16.91,6.68,16.91,14.86v62.15c0,8.18-7.41,15-16.91,15C234.25,134.74,226.65,127.9,226.65,119.72ZM259.55,35H227.33V1.3h32.22Z"/><path class="a" d="M376.26,101.45v16c0,9.3-6.84,16.9-16.15,16.9a16.91,16.91,0,0,1-16.72-16.9V29.07A28.3,28.3,0,0,1,371.51,1h25.27a27.74,27.74,0,0,1,19.57,7.79L434.58,27c12,11.4,9.88,39.51-1.71,50.72L416.35,93.47a26.38,26.38,0,0,1-19.57,8ZM408.18,68.2v-34l-31.54-.38V68.2Z"/><path class="a" d="M452.25,105.44V16.72C452.25,7.79,460,.38,469,.38a16.59,16.59,0,0,1,16.9,16.34v84.35c16.72,0,12-.38,28.5-.38,21.85,0,21.85,33.43,0,33.43H481.12A28.94,28.94,0,0,1,452.25,105.44Z"/><path class="a" d="M602.14,5.89,627,26.22c7.21,6.08,11.2,11,11.77,20.33v72a16.2,16.2,0,0,1-16.33,16.33,16.42,16.42,0,0,1-16.72-16.33V102.4L572.69,71.81v46.74a16.62,16.62,0,0,1-33.24,0v-72c.76-9.31,5.12-14.25,12.15-20.33L575.92,5.89C585.61-1.71,592.64-2.09,602.14,5.89Zm3.61,63.45V34.77H572.69V69.34Z"/><path class="a" d="M717.64,1.14c21.47,0,21.47,33.06,0,33.06H703.4v84.16c0,22.41-33.25,22.41-33.25,0V34.2H655.9c-21.66,0-21.66-33.06,0-33.06Z"/><path class="a" d="M776.15,34.39v22H806A16.67,16.67,0,0,1,822.51,73,17,17,0,0,1,805.6,89.67H776.15v29.07c0,21.65-33.24,21.65-33.24,0V29.26A28,28,0,0,1,770.84,1.14H813.2a16.55,16.55,0,0,1,16.72,16.34c0,9.12-7.79,16.91-16.72,16.91Z"/><path class="a" d="M868.68,1.33h38A28.3,28.3,0,0,1,934.8,29.45v76.37c0,13.68-13.11,28.11-27.17,28.11H867.92c-14.06,0-28.11-14.43-28.11-28.11V29.45C839.81,12.92,853.49,1.33,868.68,1.33Zm32.87,33.25h-28.5v66.49h28.5Z"/><path class="a" d="M1028.07,80c11.78,7.22,16,16.34,16,28.31V118a16.25,16.25,0,1,1-32.49,0v-9.31L979.06,69.15V118a16.37,16.37,0,0,1-16.34,16.52A16.58,16.58,0,0,1,946,118V17.86A16.62,16.62,0,0,1,962.72,1.14h37c7.78,0,14.24,2.85,19.94,8.17l16.15,15.58c5.7,5.7,8.93,12.35,8.93,20.52v7.4C1044.79,65.92,1038.71,74.66,1028.07,80Zm-49-45.59V66.3h32.48V34.39Z"/><path class="a" d="M1113.18,6.27l14.44,15.39,14.44-15.39c8-8.36,19.37-8.36,26.78,0l19.38,20.14c5.89,6.65,10.83,10.83,11.78,20.14v72.38c0,21.46-33.44,21.46-33.44,0V34.77h-22.22v84.16c0,22-33.25,22-33.25,0V34.77h-21.85v84.16c0,21.46-33.43,21.46-33.43,0V46.55c.38-9.31,5.7-13.49,11.78-20.14L1087,6.27C1094.37-2.09,1105.77-2.09,1113.18,6.27Z"/></svg>
