<svg xmlns="http://www.w3.org/2000/svg" viewBox="0 0 1200 938.59"><defs><style>.a{fill:#2895a0;}.b{fill:#abe1e1;}.c,.d{fill:#1d1e1c;}.c{opacity:0.2;}.e{fill:#38a9b4;}.f{fill:#fff;}</style></defs><title>Logo</title><path class="a" d="M62.69,809l24.89,20.33c7.22,6.08,11.21,11,11.78,20.32v72A16.22,16.22,0,0,1,83,938,16.42,16.42,0,0,1,66.3,921.68V905.54L33.25,875v46.73A16.38,16.38,0,0,1,16.72,938,16.54,16.54,0,0,1,0,921.68v-72c.76-9.31,5.13-14.24,12.16-20.32L36.48,809C46.16,801.43,53.19,801.05,62.69,809Zm3.61,63.45V837.91h-33v34.57Z"/><path class="a" d="M149,904.59v16c0,9.3-6.83,16.9-16.14,16.9a16.91,16.91,0,0,1-16.72-16.9V832.21a28.3,28.3,0,0,1,28.12-28.12h25.26A27.74,27.74,0,0,1,189,811.88l18.24,18.24c12,11.39,9.88,39.51-1.71,50.72L189,896.61a26.38,26.38,0,0,1-19.57,8Zm31.92-33.25v-34L149.33,837v34.39Z"/><path class="a" d="M226.65,922.86V861.54c0-8.35,7-15.69,16.72-15.69,9.5,0,16.91,6.68,16.91,14.85v62.16c0,8.18-7.41,15-16.91,15C234.25,937.88,226.65,931,226.65,922.86Zm32.9-84.68H227.33V804.44h32.22Z"/><path class="a" d="M376.26,904.59v15.95c0,9.31-6.84,16.91-16.15,16.91a16.91,16.91,0,0,1-16.72-16.91V832.21a28.3,28.3,0,0,1,28.12-28.12h25.27a27.74,27.74,0,0,1,19.57,7.79l18.23,18.24c12,11.39,9.88,39.51-1.71,50.72l-16.52,15.77a26.38,26.38,0,0,1-19.57,8Zm31.92-33.25v-34L376.64,837v34.39Z"/><path class="a" d="M452.25,908.58V819.86c0-8.93,7.79-16.34,16.72-16.34a16.59,16.59,0,0,1,16.9,16.34v84.35c16.72,0,12-.38,28.5-.38,21.85,0,21.85,33.43,0,33.43H481.12A29,29,0,0,1,452.25,908.58Z"/><path class="a" d="M602.14,809,627,829.36c7.21,6.08,11.2,11,11.77,20.32v72A16.21,16.21,0,0,1,622.47,938a16.42,16.42,0,0,1-16.72-16.33V905.54L572.69,875v46.74a16.62,16.62,0,0,1-33.24,0v-72c.76-9.31,5.12-14.24,12.15-20.32L575.92,809C585.61,801.43,592.64,801.05,602.14,809Zm3.61,63.45V837.9H572.69v34.58Z"/><path class="a" d="M717.64,804.28c21.47,0,21.47,33.06,0,33.06H703.4V921.5c0,22.41-33.25,22.41-33.25,0V837.34H655.9c-21.66,0-21.66-33.06,0-33.06Z"/><path class="a" d="M776.15,837.52v22H806a16.67,16.67,0,0,1,16.53,16.53,17,17,0,0,1-16.91,16.72H776.15v29.06c0,21.66-33.24,21.66-33.24,0V832.4a28,28,0,0,1,27.93-28.12H813.2a16.55,16.55,0,0,1,16.72,16.34,17.15,17.15,0,0,1-16.72,16.9Z"/><path class="a" d="M868.68,804.47h38a28.3,28.3,0,0,1,28.12,28.12V909c0,13.68-13.11,28.11-27.17,28.11H867.92c-14.06,0-28.11-14.43-28.11-28.11V832.59C839.81,816.06,853.49,804.47,868.68,804.47Zm32.87,33.25h-28.5v66.49h28.5Z"/><path class="a" d="M1028.07,883.12c11.78,7.22,16,16.34,16,28.31v9.69a16.25,16.25,0,1,1-32.49,0v-9.31l-32.48-39.52v48.83a16.38,16.38,0,0,1-16.34,16.52A16.58,16.58,0,0,1,946,921.12V821a16.62,16.62,0,0,1,16.72-16.72h37c7.78,0,14.24,2.85,19.94,8.17L1035.86,828c5.7,5.7,8.93,12.34,8.93,20.51V856C1044.79,869.06,1038.71,877.8,1028.07,883.12Zm-49-45.6v31.92h32.48V837.52Z"/><path class="a" d="M1113.18,809.41l14.44,15.39,14.44-15.39c8-8.36,19.37-8.36,26.78,0l19.38,20.14c5.89,6.65,10.83,10.82,11.78,20.13v72.38c0,21.47-33.44,21.47-33.44,0V837.9h-22.22v84.16c0,22-33.25,22-33.25,0V837.9h-21.85v84.16c0,21.47-33.43,21.47-33.43,0V849.68c.38-9.31,5.7-13.48,11.78-20.13L1087,809.41C1094.37,801.05,1105.77,801.05,1113.18,809.41Z"/><circle class="b" cx="600" cy="373.08" r="373.08"/><ellipse class="c" cx="493.1" cy="477.82" rx="49.52" ry="12.49"/><ellipse class="c" cx="390.65" cy="475.11" rx="49.52" ry="12.49"/><ellipse class="c" cx="415.01" cy="548.79" rx="49.52" ry="12.49"/><ellipse class="c" cx="321" cy="513.61" rx="49.52" ry="12.49"/><polygon class="d" points="439.03 471.32 429.98 471.32 429.98 272.44 517.75 319.7 513.46 327.66 439.03 287.58 439.03 471.32"/><polygon class="d" points="370.27 510.6 361.3 509.46 386.31 311.75 519.02 331.68 517.68 340.63 394.12 322.07 370.27 510.6"/><polygon class="d" points="454.44 538.37 450.15 359.29 514.35 340.66 516.87 349.34 459.36 366.03 463.48 538.15 454.44 538.37"/><polygon class="d" points="526.13 463.25 496.53 374.44 538.36 364.45 540.46 373.25 508.23 380.94 534.72 460.39 526.13 463.25"/><path class="d" d="M526.81,462.27s-8.72-14.92-22-5.42-5.59,22.61-5.59,22.61,4.35,4.07,19.13,4.53,18.29,0,21.06-3.17-6.27-26.89-6.27-26.89Z"/><path class="d" d="M357.1,495.18s-14-20.77-32.43-7.55-7.77,31.47-7.77,31.47,6,4.46,26.63,4.48c26.78,0,26.25-8,28.13-13.55,3.17-9.31-6.66-26.46-6.66-26.46Z"/><path class="d" d="M428.68,462.07s-18.46-26.2-36.94-13S384,480.55,384,480.55,390,485,410.59,485c26.78,0,28.06-5.3,30-10.84,3.16-9.31-8.47-29.17-8.47-29.17Z"/><path class="d" d="M453.56,532.58s-16.66-25.29-35.13-12.07S410.65,552,410.65,552s6,5.36,26.63,5.38c26.78,0,27.14-8.6,27.23-14.45.46-28.62-9.38-26.46-9.38-26.46Z"/><polygon class="d" points="760.11 472.52 769.16 472.52 769.16 273.64 681.39 320.9 685.68 328.87 760.11 288.79 760.11 472.52"/><polygon class="d" points="828.86 511.8 837.84 510.66 812.83 312.95 680.11 332.89 681.46 341.83 805.02 323.27 828.86 511.8"/><polygon class="d" points="744.7 539.57 748.99 360.49 684.79 341.86 682.27 350.55 739.78 367.24 735.66 539.36 744.7 539.57"/><polygon class="d" points="673 464.46 702.61 375.64 660.78 365.65 658.68 374.45 690.9 382.15 664.42 461.6 673 464.46"/><path class="d" d="M672.33,463.48s8.72-14.93,22-5.43,5.59,22.62,5.59,22.62-4.35,4.07-19.14,4.52-18.28,0-21-3.17S666,455.13,666,455.13Z"/><path class="d" d="M842,496.39s14-20.77,32.42-7.56,7.78,31.47,7.78,31.47-6,4.46-26.63,4.49c-26.78,0-26.25-8-28.14-13.56-3.16-9.31,6.67-26.46,6.67-26.46Z"/><path class="d" d="M770.45,463.27s18.47-26.2,36.95-13,7.78,31.47,7.78,31.47-6,4.46-26.63,4.48c-26.78,0-28.06-5.29-29.95-10.84-3.17-9.31,8.47-29.17,8.47-29.17Z"/><path class="d" d="M745.58,533.79s16.65-25.3,35.13-12.08,7.78,31.47,7.78,31.47-6,5.36-26.63,5.39c-26.78,0-27.14-8.6-27.23-14.46-.46-28.62,9.37-26.46,9.37-26.46Z"/><path class="e" d="M700.48,307.06c0,54.6-43.54,83.49-97.24,83.49s-94.54-28.89-94.54-83.49,40.83-73.54,94.54-73.54S700.48,252.45,700.48,307.06Z"/><path class="d" d="M602.05,395.07c-28.4,0-52.71-7.72-70.29-22.31C512.94,357.14,503,334.42,503,307.06c0-51.07,34.25-78.06,99-78.06,65.63,0,101.77,27.72,101.77,78.06,0,27.25-10.44,50-30.18,65.75C655.66,387.16,630.23,395.07,602.05,395.07Zm0-157c-59.72,0-90,23.22-90,69,0,48.7,34.49,79,90,79,56.33,0,92.73-31,92.73-79C694.78,250,644.35,238,602.05,238Z"/><ellipse class="f" cx="566.6" cy="249.07" rx="60.61" ry="62.68"/><path class="d" d="M565.42,314.92c-35.17,0-63.78-29.54-63.78-65.85s28.61-65.84,63.78-65.84,63.77,29.54,63.77,65.84S600.58,314.92,565.42,314.92Zm0-125.36c-31.68,0-57.45,26.7-57.45,59.51s25.77,59.52,57.45,59.52,57.44-26.7,57.44-59.52S597.09,189.56,565.42,189.56Z"/><ellipse class="f" cx="657.15" cy="259.3" rx="50" ry="49.04"/><path class="d" d="M656,311.5c-29.31,0-53.17-23.41-53.17-52.2s23.86-52.2,53.17-52.2,53.17,23.41,53.17,52.2S685.28,311.5,656,311.5Zm0-98.07c-25.82,0-46.83,20.58-46.83,45.87s21,45.87,46.83,45.87,46.84-20.58,46.84-45.87S681.79,213.43,656,213.43Z"/><circle class="d" cx="570.53" cy="252.38" r="27.92"/><circle class="f" cx="585.49" cy="248.13" r="7.69"/><ellipse class="d" cx="661.15" cy="262.2" rx="22.63" ry="21.71"/><circle class="f" cx="656.79" cy="258.33" r="6.23"/><ellipse class="c" cx="706.9" cy="479.48" rx="49.52" ry="12.49"/><ellipse class="c" cx="809.35" cy="476.77" rx="49.52" ry="12.49"/><ellipse class="c" cx="784.99" cy="550.45" rx="49.52" ry="12.49"/><ellipse class="c" cx="879" cy="515.27" rx="49.52" ry="12.49"/></svg>
