<svg xmlns="http://www.w3.org/2000/svg" viewBox="0 0 1200 434.65"><defs><style>.a{fill:#67cece;}</style></defs><title>Logo</title><path class="a" d="M505,8.18l34.86,28.48c10.12,8.52,15.7,15.44,16.5,28.48V166a22.72,22.72,0,0,1-22.89,22.89c-13,0-23.41-10.11-23.41-22.89V143.38L463.7,100.53V166a22.94,22.94,0,0,1-23.16,22.89c-12.77,0-23.42-10.11-23.42-22.89V65.14c1.07-13,7.19-20,17-28.48L468.22,8.18C481.8-2.46,491.64-3,505,8.18ZM510,97.07V48.64H463.7V97.07Z"/><path class="a" d="M625.79,142.05v22.36c0,13-9.58,23.68-22.62,23.68a23.68,23.68,0,0,1-23.42-23.68V40.65A39.64,39.64,0,0,1,619.14,1.27h35.39A38.85,38.85,0,0,1,682,12.18L707.5,37.73c16.76,16,13.83,55.35-2.4,71.05L682,130.87c-7.72,7.72-16.77,11.18-27.42,11.18ZM670.5,95.48V47.84l-44.18-.53V95.48Z"/><path class="a" d="M734.63,167.65V81.75c0-11.7,9.85-22,23.42-22,13.31,0,23.69,9.35,23.69,20.81v87.07c0,11.45-10.38,21-23.69,21C745.28,188.69,734.63,179.1,734.63,167.65ZM780.71,49H735.59V1.75h45.12Z"/><path class="a" d="M46,387v22.35c0,13-9.58,23.69-22.62,23.69A23.69,23.69,0,0,1,0,409.36V285.61a39.64,39.64,0,0,1,39.39-39.39H74.78a38.89,38.89,0,0,1,27.42,10.91l25.54,25.55c16.77,16,13.84,55.36-2.39,71.06L102.2,375.83C94.48,383.55,85.43,387,74.78,387Zm44.71-46.58V292.8l-44.18-.54v48.17Z"/><path class="a" d="M152.49,392.6V268.31c0-12.51,10.91-22.89,23.42-22.89,13.31,0,23.69,10.38,23.69,22.89V386.48c23.42,0,16.76-.54,39.92-.54,30.6,0,30.6,46.84,0,46.84H192.94C170.85,432.78,152.49,414.69,152.49,392.6Z"/><path class="a" d="M362.47,253.14l34.86,28.48c10.12,8.52,15.71,15.43,16.5,28.48V411A22.71,22.71,0,0,1,391,433.85c-13.05,0-23.42-10.11-23.42-22.89V388.34l-46.31-42.85V411a22.94,22.94,0,0,1-23.16,22.89c-12.77,0-23.42-10.11-23.42-22.89V310.1c1.07-13.05,7.19-20,17-28.48l34.06-28.48C339.31,242.5,349.16,242,362.47,253.14ZM367.53,342V293.59H321.22V342Z"/><path class="a" d="M524.28,246.49c30.07,0,30.07,46.31,0,46.31h-20V410.69c0,31.41-46.58,31.41-46.58,0V292.8h-20c-30.33,0-30.33-46.31,0-46.31Z"/><path class="a" d="M606.24,293.06v30.87H648a23.34,23.34,0,0,1,23.15,23.16c0,12.51-10.64,23.42-23.69,23.42H606.24v40.72c0,30.34-46.57,30.34-46.57,0V285.88a39.24,39.24,0,0,1,39.12-39.39h59.35a23.18,23.18,0,0,1,23.42,22.89c0,12.77-10.91,23.68-23.42,23.68Z"/><path class="a" d="M735.87,246.75h53.22c21,0,39.39,17.3,39.39,39.39v107c0,19.16-18.36,39.39-38.06,39.39H734.8c-19.69,0-39.39-20.23-39.39-39.39v-107C695.41,263,714.58,246.75,735.87,246.75Zm46,46.58H742v93.15h39.92Z"/><path class="a" d="M959.15,356.94c16.5,10.11,22.35,22.88,22.35,39.65v13.57c0,12.78-10.38,23.16-22.62,23.16-13,0-22.88-10.92-22.88-23.16v-13l-45.51-55.36v68.4a23,23,0,0,1-22.89,23.16,23.23,23.23,0,0,1-23.42-23.16V269.91a23.29,23.29,0,0,1,23.42-23.42h51.9c10.91,0,20,4,27.94,11.44l22.62,21.83c8,8,12.51,17.29,12.51,28.74v10.38C982.57,337.24,974.05,349.48,959.15,356.94Zm-68.66-63.88v44.71H936V293.06Z"/><path class="a" d="M1078.38,253.67l20.22,21.56,20.23-21.56c11.18-11.71,27.14-11.71,37.52,0l27.15,28.22c8.25,9.31,15.17,15.16,16.5,28.21V411.49c0,30.08-46.84,30.08-46.84,0V293.59H1122v117.9c0,30.88-46.57,30.88-46.57,0V293.59h-30.61v117.9c0,30.08-46.84,30.08-46.84,0V310.1c.54-13.05,8-18.9,16.5-28.21l27.15-28.22C1052,242,1068,242,1078.38,253.67Z"/></svg>
