<svg xmlns="http://www.w3.org/2000/svg" width="371" height="344" viewBox="0 0 371 344"><style>.a{fill:#FFF;}.b{fill:#1D1E1C;}.c{fill:#1D1E1C;opacity:0.2;}.d{fill:#38A9B4;}.e{fill:#070707;}.f{fill:#197175;}.g{fill:#0E5656;}.h{fill:#332E27;}</style><ellipse cx="161.5" cy="292.7" rx="116" ry="46.9" class="a"/><path d="M115.2 254.6c-0.2 7.2-5.1 12.8-11.2 12.7 -6.1-0.1-10.9-6-10.7-13.2 0.2-7.2 4.1-11 10.2-10.9C109.6 243.3 115.4 247.4 115.2 254.6z" class="a"/><path d="M103.1 242.5c-3.2 0-6.2 1.4-8.5 4 -2.3 2.6-2.4 4.1-2.5 7.8 -0.1 3.7 1 7.1 3.2 9.8 2.2 2.7 5.1 4.1 8.3 4.2 1.4 0 2.7-0.2 3.9-0.7 4.6-1.8 8-6.8 8.1-12.8C115.8 247 109.5 242.6 103.1 242.5zM103.6 266.6c-5.7-0.1-10.2-5.6-10-12.4 0.1-3.3 0-4.4 2.1-6.7 1.2-1.3 2.6-2.3 4-2.9 1.1-0.4 2.2-0.6 3.3-0.6 2.7 0 5.2 1.4 7 3.7 1.8 2.4 4 3.5 3.9 6.8C113.9 261.5 109.3 266.7 103.6 266.6z"/><path d="M103.4 258.2c1.2 3.1 0.5 5.9-1.6 6.3 -2.1 0.4-4.7-1.8-5.9-4.9 -1.2-3.1-0.5-5.9 1.6-6.3C99.6 252.9 102.2 255.1 103.4 258.2z" class="b"/><path d="M102 260.3c0.4 0.8-0.1 1.7-1 1.9 -0.9 0.2-1.9-0.4-2.3-1.2 -0.4-0.8 0.1-1.7 1-1.9C100.6 258.9 101.7 259.4 102 260.3z" class="a"/><path d="M125 256c-0.2 6-4.6 10.9-9.9 10.8 -5.3-0.1-9.4-5-9.3-11.1 0.2-6 3.8-9.7 9.1-9.6S125.2 249.9 125 256z" class="a"/><path d="M114.6 245.4c-2.8 0-5.4 1.2-7.5 3.4 -2 2.2-2.4 3.9-2.5 7.1 -0.1 3.1 0.9 6.1 2.8 8.3 1.9 2.3 4.5 3.5 7.3 3.6 1.2 0 2.4-0.2 3.5-0.6 4.1-1.6 7.1-5.9 7.2-11C125.6 249.6 120.4 245.5 114.6 245.4zM123.9 256.1c-0.1 4.4-2.7 8.1-6.2 9.5 -0.9 0.4-1.9 0.5-2.9 0.5 -2.3 0-4.5-1.1-6.1-3 -1.6-1.9-2.5-4.5-2.4-7.2 0.1-4.4 1.9-6.9 5.4-8.2 0.9-0.4 1.9-0.5 2.9-0.5 2.3 0 5 1 6.6 2.9C122.8 251.9 123.9 253.4 123.9 256.1z"/><path d="M115 259.3c1.2 2.5 0.6 4.9-1.2 5.4 -1.9 0.4-4.3-1.3-5.5-3.9 -1.2-2.5-0.6-4.9 1.2-5.4C111.4 255 113.9 256.8 115 259.3z" class="b"/><path d="M113.5 260.8c0.3 0.7-0.1 1.5-0.9 1.6 -0.8 0.2-1.7-0.3-2-1 -0.3-0.7 0.1-1.5 0.9-1.6S113.2 260.1 113.5 260.8z" class="a"/><ellipse transform="matrix(0.9998 -0.01834095 0.01834095 0.9998 -5.7857 1.4366)" cx="75.4" cy="316.1" rx="6.3" ry="1.7" class="c"/><polygon points="86.8 298.6 85.3 298.7 74.6 265 87.7 270.1 86.7 271.1 76.4 267.6 " class="b"/><polygon points="81.9 309.3 81.3 311.7 66.7 265.5 88.9 274.3 87.6 275.4 68.8 267.8 " class="b"/><polygon points="98.2 315.8 75.2 280.2 94.5 281.8 95.1 283.1 78.3 281.9 100.2 315.7 " class="b"/><polyline points="102.2 270.5 103 292.5 101.3 292.3 100.1 269.1 " class="b"/><path d="M101.2 292.1c0 0-1.9-3.3-3.9-1.1s-0.8 5.1-0.8 5.1 0.7 0.9 3 1c2.3 0.1 2.8-0.1 3.2-0.8 0.4-0.7 0.3-3.9 0.3-3.9L101.2 292.1z" class="b"/><path d="M81.3 311.5c0.6 0.9-4-4.6-6.7-2.1 -3.3 3-1.3 7-1.3 7s1.1 1 4.8 0.9c4.8-0.1 4.4-1.3 4.7-2.6 0.5-2.1-1.3-6.4-1.3-6.4L81.3 311.5z" class="b"/><path d="M85.3 298c0 0-0.9-3.1-3.1-1.1 -1.3 1.2-1.3 2.6-1.2 3.6 0.1 0.8 0.7 1.4 1.5 1.5 0.5 0.1 1.1 0.2 2 0.2 3.2-0.2 2.7-1.2 2.7-1.7 0-2.7-1-4.3-1-4.3L85.3 298z" class="b"/><path d="M98.1 315.5c0 0-2.9-4.8-6.2-1.8 -3.3 3-0.8 6.8-0.8 6.8s1.1 1.2 4.9 1.1c4.9-0.1 5.3-2.6 4.9-3.8 -1.3-4.3-2.1-2.3-2-2.4L98.1 315.5z" class="b"/><polygon points="130.2 297.8 132 297.8 136.9 267.1 116.8 278.3 117.2 280.8 134.7 270.2 " class="b"/><polygon points="129.9 307.9 131.4 309.5 139.7 286.9 116.2 281.2 114.6 283.3 136.9 288.2 " class="b"/><polygon points="109.7 316.1 112.8 290.9 102.8 283.4 102.3 285.4 110.8 292.4 107.9 316.1 " class="b"/><polyline points="113.7 272 113.8 293.1 115.4 293.7 115.8 270.5 " class="b"/><path d="M115.5 293.5c0 0 1.5-3.4 3.6-1.3 2.1 2.1 1 5 1 5s-0.7 0.9-2.9 1.1c-2.3 0.1-2.8 0.1-3.2-0.6 -0.4-0.7-0.1-5.9-0.1-5.9L115.5 293.5z" class="b"/><path d="M131.6 309.2c0 0 2.7-5.5 6.1-2.6 1.9 1.6 2.1 3.7 2 5.1 -0.1 1.3-1.1 2.4-2.4 2.7 -0.7 0.2-1.6 0.3-2.8 0.3 -4.8 0.1-4.7-1.7-5.1-2.9 -0.6-2.1 0.6-4.2 0.6-4.2L131.6 309.2z" class="b"/><path d="M131.9 297.4c0 0 1.6-3.9 3.8-2 1.3 1.1 1.4 2.4 1.3 3.4 -0.1 0.9-0.7 1.6-1.6 1.8 -0.5 0.1-1.1 0.2-1.9 0.2 -3.2 0.1-3.3-0.7-3.6-1.5 -0.4-1.4 0.9-4.9 0.9-4.9L131.9 297.4z" class="b"/><path d="M109.9 314.5c0 0 2.5-4.6 5.9-1.7 3.5 2.9 1.6 7 1.6 7s-1.1 1.2-4.9 1.3c-4.9 0.1-5.2-2.4-5.1-3.7 0.7-5.4 1.6-4.1 1.6-4.1L109.9 314.5z" class="b"/><path d="M116.1 250.5c12.1 8.8 11.7 15.6 3.8 26.5 -6.2 8.6-16.2 11.3-26 4.1s-8.5-16.2-2.3-24.7C97.8 247.8 106.2 243.4 116.1 250.5z" class="d"/><path d="M120.6 277.8c-3.3 4.5-7.5 7.4-12.2 8.3 -5 1-10.3-0.4-15.2-4 -9.2-6.7-10.1-15.7-2.6-26 7.6-10.5 16.8-12.6 25.9-6 4.9 3.6 9.3 8 9.9 13.2C126.8 268 123.8 273.3 120.6 277.8zM92.2 257.2c-6.9 9.5-6.2 17.4 2 23.4 8.8 6.4 18.3 4.8 24.7-4 8.2-11.3 7.4-17.2-3.5-25.1C105.1 244 97.1 250.5 92.2 257.2z" class="b"/><ellipse transform="matrix(0.9998 -0.01834095 0.01834095 0.9998 -5.8588 1.7756)" cx="93.9" cy="320.3" rx="7" ry="2.2" class="c"/><ellipse transform="matrix(0.9998 -0.01834095 0.01834095 0.9998 -5.4982 1.5766)" cx="83.2" cy="300.5" rx="4.1" ry="1.8" class="c"/><ellipse transform="matrix(0.9998 -0.01834095 0.01834095 0.9998 -5.4033 1.8551)" cx="98.4" cy="295.5" rx="4.6" ry="1.8" class="c"/><ellipse transform="matrix(0.9998 -0.01834095 0.01834095 0.9998 -5.7246 2.5985)" cx="138.8" cy="313.4" rx="6.3" ry="1.7" class="c"/><ellipse transform="matrix(0.9998 -0.01834095 0.01834095 0.9998 -5.8422 2.2017)" cx="117.1" cy="319.6" rx="7" ry="2.2" class="c"/><ellipse transform="matrix(0.9998 -0.01834095 0.01834095 0.9998 -5.4665 2.555)" cx="136.6" cy="299.3" rx="4.1" ry="1.8" class="c"/><ellipse transform="matrix(0.9998 -0.01834095 0.01834095 0.9998 -5.4261 2.2582)" cx="120.4" cy="297" rx="4.6" ry="1.8" class="c"/><rect x="100.9" y="274.3" transform="matrix(-0.5582 0.8297 -0.8297 -0.5582 387.8593 347.601)" width="0.9" height="5.5" class="e"/><rect x="100.9" y="274.3" transform="matrix(0.3593 0.9332 -0.9332 0.3593 323.5262 82.9092)" width="0.9" height="5.5" class="e"/><path d="M109.5 220.4c0-1.7 0.3-2.9 0.9-3.8 0.6-0.8 1.7-1.8 3.2-2.9 0.8-0.5 1.4-1.1 1.9-1.9 0.5-0.7 0.7-1.6 0.7-2.6 0-1-0.3-1.8-0.8-2.4 -0.5-0.6-1.3-0.9-2.3-0.9 -0.8 0-1.5 0.2-2 0.7 -0.5 0.5-0.8 1.2-0.9 2.2h-6l0-0.1c0-2.5 0.8-4.4 2.4-5.7 1.6-1.3 3.8-1.9 6.5-1.9 2.9 0 5.1 0.7 6.8 2.2s2.5 3.4 2.5 5.9c0 1.5-0.5 2.9-1.4 4.2 -0.9 1.3-2 2.3-3.4 3 -0.8 0.5-1.3 1.1-1.6 1.6 -0.3 0.6-0.4 1.4-0.4 2.4H109.5zM115.6 228h-6.1v-4.9h6.1V228z"/><path d="M131.3 230.8c0.4-1.1 1-1.9 1.6-2.4 0.6-0.4 1.6-0.8 3-1.2 0.7-0.1 1.3-0.4 1.8-0.8 0.5-0.4 0.9-0.9 1.2-1.6 0.3-0.7 0.3-1.3 0.1-1.9 -0.2-0.6-0.7-1-1.4-1.2 -0.6-0.2-1.1-0.2-1.6 0 -0.5 0.2-0.9 0.6-1.2 1.3l-4.1-1.6 0-0.1c0.6-1.7 1.7-2.8 3.1-3.3 1.4-0.4 3.1-0.3 4.9 0.4 2 0.7 3.3 1.8 4.1 3.3 0.8 1.4 0.8 3 0.2 4.7 -0.4 1-1.1 1.9-2 2.5 -0.9 0.6-2 1-3.1 1.2 -0.7 0.1-1.2 0.4-1.5 0.7 -0.3 0.3-0.6 0.8-0.9 1.5L131.3 230.8zM133.5 237.6l-4.2-1.6 1.3-3.4 4.2 1.6L133.5 237.6z"/><path d="M93.7 234.2c-0.5-0.7-0.8-1.4-0.8-1.9 0-0.5 0.1-1.3 0.5-2.3 0.2-0.5 0.3-0.9 0.2-1.4 0-0.5-0.2-0.9-0.5-1.3 -0.3-0.4-0.7-0.7-1.1-0.8 -0.4-0.1-0.8 0-1.3 0.3 -0.3 0.3-0.6 0.6-0.6 1 -0.1 0.4 0 0.8 0.3 1.2l-2.5 1.9 0 0c-0.8-1.1-1.1-2.1-0.8-3.2 0.3-1.1 1-2 2.2-2.8 1.2-0.9 2.4-1.3 3.6-1.2 1.2 0.1 2.1 0.7 2.9 1.7 0.5 0.6 0.7 1.4 0.7 2.2 0 0.8-0.2 1.6-0.5 2.4 -0.2 0.5-0.2 0.9-0.2 1.2 0.1 0.3 0.3 0.7 0.6 1.1L93.7 234.2zM98.7 235.5l-2.6 1.9 -1.5-2.1 2.6-1.9L98.7 235.5z"/><polygon points="165.4 86.2 165.4 112.1 233.4 152.1 245.7 146.1 235.5 126.2 " class="d"/><polygon points="169.2 83.3 238.5 123.6 249.5 144 245.7 146.1 235.5 126.2 165.4 86.2 " class="f"/><polygon points="171.4 48.4 171.4 73.1 241.9 32.7 251.6 14.5 240.2 7.7 " class="d"/><polygon points="236.3 4.3 168.4 44.2 171.4 48.4 240.2 7.7 " class="f"/><polygon points="79.2 43.8 89.8 38.3 159.9 77.3 160.3 101.9 89.8 62.9 " class="d"/><polygon points="95.8 34 162 72.6 164.1 76 159.9 77.3 89.8 38.3 " class="f"/><polygon points="165.4 122.8 95.4 162.7 85.6 180.9 96.6 188.6 166.7 147.8 " class="d"/><polygon points="91.1 159.7 80.5 178 85.6 180.9 95.4 162.7 165.4 122.8 162 119.4 " class="f"/><polygon points="159.9 77.3 160.3 101.9 165 99.8 164.1 76 " class="g"/><polygon points="168.4 44.2 171.4 48.4 171.4 73.1 165.4 70.9 " class="g"/><path d="M169.6 307.3L169.6 307.3c-2.5 1-5.3 1.1-7.8 0.1l-0.2-0.1v-272h8V307.3z" class="h"/><polygon points="166.7 290.5 215.1 222.6 156.1 237 142.9 240.4 134 235.7 148.4 225.9 226.1 206.8 232.5 195.8 171.8 168.6 195.6 160.6 242.7 181.8 264.8 153.8 268.2 155 265.2 163.1 335.3 145.7 347.6 149.1 333.2 159.7 252.5 181.4 248.7 186.5 295.8 208.1 297.9 218.3 281.8 223.8 235.9 203.9 168.8 297.7 " style="fill:#332E27;opacity:0.2"/><path d="M161.6 35.3c0-1.2 1.8-2.2 4-2.2 2.3 0 4 1 4 2.2" class="h"/><ellipse cx="165.7" cy="35.4" rx="3.4" ry="1.8" fill="#595147"/><path d="M98 56.1L98 56.1l2.7-5.8 1.2 0.7L97.6 60l-1.2-0.8 1-6.6 0 0 -2.9 5.5 -1.2-0.7 2-10.1 1.2 0.7 -1.4 6.5 0 0 3-5.6 0.9 0.5L98 56.1z" class="f"/><path d="M101.9 58l-1.1 4 -1.4-0.8 3-9.9 2.2 1.2c0.7 0.4 1.1 0.9 1.4 1.7 0.3 0.7 0.3 1.6 0 2.5 -0.1 0.5-0.3 0.9-0.6 1.2 -0.3 0.3-0.6 0.5-1 0.5 0.3 0.4 0.5 0.8 0.5 1.4 0 0.5 0 1.1-0.2 1.7l-0.2 0.7c-0.1 0.3-0.1 0.6-0.2 1 0 0.4 0 0.7 0 0.9l0 0.1 -1.4-0.9c-0.1-0.2-0.1-0.5 0-0.9 0.1-0.4 0.2-0.8 0.2-1.1l0.2-0.6c0.1-0.5 0.2-0.9 0.1-1.3 -0.1-0.3-0.3-0.6-0.5-0.8L101.9 58zM102.5 56.2l0.9 0.5c0.3 0.2 0.5 0.2 0.7 0 0.2-0.1 0.4-0.4 0.5-0.8 0.1-0.4 0.1-0.8 0-1.1 -0.1-0.3-0.2-0.6-0.5-0.7l-0.9-0.5L102.5 56.2z" class="f"/><path d="M111.2 63.1c-0.3 1.3-0.8 2.3-1.5 2.9 -0.7 0.6-1.4 0.7-2.2 0.2 -0.8-0.5-1.3-1.3-1.6-2.5 -0.3-1.1-0.2-2.4 0.1-3.7l0.5-1.9c0.3-1.2 0.8-2.1 1.5-2.7 0.7-0.5 1.4-0.6 2.1-0.2 0.7 0.4 1.3 1.2 1.5 2.2 0.3 1.1 0.3 2.3 0 3.6L111.2 63.1zM110.2 60.3c0.2-0.7 0.2-1.4 0.1-2 -0.1-0.6-0.3-1-0.7-1.2 -0.4-0.2-0.7-0.1-1 0.2 -0.3 0.3-0.6 0.9-0.7 1.6l-0.5 1.9c-0.2 0.8-0.2 1.5-0.2 2.1 0.1 0.6 0.3 1 0.7 1.3 0.4 0.2 0.7 0.2 1.1-0.2 0.3-0.4 0.6-1 0.8-1.7L110.2 60.3z" class="f"/><path d="M116.5 71.5l-1.5-0.9L114 62l0 0 -1.5 7.1 -1.5-0.9 2.4-10.8 1.4 0.8 0.9 8.2 0 0 1.4-6.9 1.5 0.8L116.5 71.5z" class="f"/><path d="M123.2 73.7c-0.3 0.4-0.7 0.6-1.2 0.7 -0.5 0.1-1.1 0-1.8-0.5 -0.8-0.5-1.5-1.4-1.8-2.6 -0.4-1.2-0.4-2.5-0.1-3.9l0.4-2.3c0.2-1.3 0.7-2.3 1.3-2.8 0.6-0.5 1.3-0.6 2.1-0.2 0.8 0.5 1.4 1.1 1.7 2 0.3 0.9 0.4 1.9 0.3 3.1l0 0 -1.5-0.8c0-0.6 0-1.1-0.1-1.5 -0.1-0.4-0.4-0.7-0.7-0.9 -0.4-0.2-0.7-0.1-1 0.2 -0.3 0.3-0.5 0.9-0.6 1.7l-0.4 2.4c-0.1 0.8-0.1 1.5 0 2.2 0.1 0.6 0.4 1.1 0.8 1.3 0.3 0.2 0.5 0.3 0.7 0.3 0.2 0 0.3 0 0.4-0.1l0.3-1.9 -1.1-0.6 0.3-1.8 2.6 1.5L123.2 73.7z" class="f"/><path d="M132.8 76.7L132.8 76.7l1.7-7.4 1.6 0.9 -2.8 11.6 -1.6-1 -0.4-8.5 0 0 -2.1 7 -1.6-1 -0.1-12.9 1.5 0.9 0 8.3 0 0 2.1-7.1 1.1 0.6L132.8 76.7z" class="f"/><path d="M139.9 83l-2.5-1.5 -0.6 2.4 -1.8-1.1 3.4-11.3 1.8 1 1.8 14.6 -1.9-1.1L139.9 83zM138 79.4l1.6 1 -0.5-5.1 0 0L138 79.4z" class="f"/><path d="M145 80.9L145 80.9l1.8-4.8 2 1.1 -2.9 7.1 -0.1 5 -1.9-1.2 0.2-5.1 -2.2-9.7 1.9 1.1L145 80.9z" class="f"/><path d="M104.5 179.1l-1.3-15.9 3.9-2c1.4-0.7 2.5-0.9 3.3-0.6 0.8 0.3 1.3 1.1 1.4 2.5 0.1 0.7 0 1.4-0.2 2.1 -0.2 0.7-0.5 1.3-1 1.9 0.7-0.2 1.2 0 1.5 0.4 0.4 0.4 0.6 1.1 0.6 1.9 0.1 1.5-0.1 2.8-0.7 4 -0.6 1.2-1.6 2.2-3 3L104.5 179.1zM106.3 168.3l1.3-0.7c0.6-0.3 1-0.7 1.3-1.2 0.3-0.5 0.4-1 0.3-1.5 -0.1-0.7-0.2-1-0.6-1.2 -0.3-0.1-0.8 0-1.4 0.3l-1.2 0.7L106.3 168.3zM106.6 170.7l0.3 4 1.8-1.1c0.5-0.3 0.9-0.7 1.2-1.2 0.2-0.5 0.3-1 0.3-1.6 -0.1-0.7-0.2-1.1-0.5-1.3 -0.3-0.2-0.7-0.2-1.2 0.1L106.6 170.7z" class="f"/><path d="M119.7 166.9l-3.2 1.9 -0.3 3.3 -2.5 1.5 1.9-16.9 2.5-1.3 4.7 12.7 -2.3 1.4L119.7 166.9zM116.7 165.8l2.1-1.2 -1.6-4.7 0 0L116.7 165.8z" class="f"/><path d="M123.5 167.7l-1.5-14.3 3.4-1.8c1.1-0.6 2-0.5 2.9 0.2 0.8 0.7 1.3 1.8 1.5 3.4l0.3 2.5c0.2 1.7 0 3.2-0.6 4.7 -0.6 1.5-1.4 2.6-2.5 3.2L123.5 167.7zM124.4 154.7l1 9.1 1.1-0.6c0.6-0.3 1-0.9 1.2-1.7 0.2-0.8 0.3-1.6 0.2-2.6l-0.3-2.5c-0.1-1-0.4-1.6-0.7-2 -0.4-0.4-0.9-0.5-1.4-0.2L124.4 154.7z" class="f"/><path d="M141 152.4L141 152.4l0-8.9 1.7-0.9 -0.1 13.6 -1.7 1 -2.4-7.2 0 0 -0.3 8.9 -1.8 1.1 -3.6-12.2 1.9-1 2.2 8 0 0 0.4-9.3 1.3-0.7L141 152.4z" class="f"/><path d="M148.4 150.1l-2.3 1.4 -0.1 2.7 -1.8 1.1 0.7-13.8 1.8-1 4 10.8 -1.7 1L148.4 150.1zM146.1 149l1.6-0.9 -1.4-4 0 0L146.1 149z" class="f"/><path d="M152.2 143.1L152.2 143.1l0.6-5.8 1.7-0.9 -1.1 8.8 0.6 4.2 -1.6 1 -0.6-4.4 -3.4-6.3 1.8-0.9L152.2 143.1z" class="f"/><path d="M188.9 53.1L188.9 53.1l1.2-8.2 2.2-1.3 -1.9 12.7 -2.2 1.3 -1.8-6.2 0 0 -1.6 8.3 -2.3 1.3 -2.3-10.4 2.3-1.3 1.3 6.8 0 0 1.7-8.6 1.6-0.9L188.9 53.1z" class="f"/><path d="M198.3 49.3l-3.1 1.8 -0.5 2.6 -2.3 1.4 2.7-13.1 2.4-1.4 3.7 9.2 -2.3 1.4L198.3 49.3zM195.6 48.8l2.1-1.2 -1.2-3.4 0 0L195.6 48.8z" class="f"/><path d="M204 41.7L204 41.7l1.5-5.7 2.3-1.3 -2.6 8.7 0.3 3.9 -2.2 1.3 -0.3-4 -3.6-5 2.3-1.3L204 41.7z" class="f"/><path d="M219.7 34.1c0.2 1.3 0 2.5-0.6 3.8 -0.6 1.3-1.5 2.2-2.6 2.9 -1.2 0.7-2.2 0.8-3 0.4 -0.8-0.4-1.3-1.3-1.4-2.6l-0.2-1.9c-0.1-1.3 0.1-2.5 0.7-3.7 0.6-1.2 1.5-2.1 2.6-2.8 1.1-0.6 2.1-0.8 2.8-0.4 0.8 0.4 1.3 1.2 1.4 2.4L219.7 34.1zM217.4 33.5c-0.1-0.7-0.3-1.2-0.7-1.5 -0.4-0.3-0.8-0.3-1.3 0 -0.6 0.3-1 0.8-1.2 1.4 -0.2 0.6-0.3 1.3-0.2 2.1l0.2 1.9c0.1 0.8 0.3 1.3 0.7 1.6 0.4 0.3 0.8 0.3 1.4-0.1 0.6-0.3 1-0.8 1.2-1.5 0.2-0.7 0.3-1.4 0.2-2.1L217.4 33.5z" class="f"/><path d="M226.5 30.3l-3.5 2.1 0.6 4.1 -2.1 1.2 -1.4-10.1 6-3.5 0.3 1.7 -4 2.3 0.4 2.4 3.5-2L226.5 30.3z" class="f"/><path d="M233.4 26.2l-3.4 2 0.7 4 -2 1.2 -1.7-9.8 5.9-3.4 0.3 1.7 -3.9 2.3 0.4 2.3 3.4-2L233.4 26.2z" class="f"/><path d="M183.6 115.1l-1.4-0.9 -2.2-7.4 0 0 0.1 6.1 -1.3-0.8 -0.1-9.5 1.4 0.7 2.2 7.4 0 0 0-6.2 1.4 0.8L183.6 115.1z" class="f"/><path d="M190 114.8c0 1.3-0.3 2.1-0.8 2.6 -0.5 0.5-1.2 0.5-2.1 0 -0.8-0.5-1.5-1.3-2-2.4 -0.5-1.1-0.8-2.2-0.8-3.4l0-1.8c0-1.2 0.2-2.1 0.7-2.6 0.5-0.5 1.2-0.6 2-0.2 0.8 0.4 1.5 1.2 2.1 2.3 0.5 1.1 0.8 2.3 0.8 3.6L190 114.8zM188.4 112c0-0.7-0.1-1.4-0.3-2 -0.2-0.6-0.5-1-1-1.2 -0.4-0.2-0.7-0.2-0.9 0.2 -0.2 0.3-0.3 0.9-0.3 1.6l0 1.8c0 0.7 0.1 1.4 0.3 2 0.2 0.6 0.5 1 0.9 1.2 0.4 0.2 0.7 0.2 0.9-0.1 0.2-0.3 0.3-0.9 0.3-1.6L188.4 112z" class="f"/><path d="M199.6 121L199.6 121l1.2-6.7 1.9 1 -2.1 10.1 -1.8-1.1 -1.2-7.5 0 0 -1.4 5.9 -1.6-1 -1.6-11.6 1.7 0.9 0.9 7.6 0 0 1.4-6.4 1.3 0.7L199.6 121z" class="f"/><path d="M207.7 127.5l-2.8-1.6 -0.5 1.9 -2-1.2 3-9.8 2.2 1.2 2.6 13.4 -2.1-1.3L207.7 127.5zM205.4 124l1.9 1.1 -0.8-4.7 0 0L205.4 124z" class="f"/><path d="M213.7 126.5L213.7 126.5l2.2-4.3 2.6 1.4 -3.8 6.1 -0.2 4.2 -2.3-1.4 0.1-4.3 -2.9-9.4 2.4 1.3L213.7 126.5z" class="f"/></svg>
