<svg xmlns="http://www.w3.org/2000/svg" viewBox="0 0 639.84 164.68"><defs><style>.a,.c{fill:#1d1e1c;}.a{opacity:0.2;}.b{fill:#fecc01;}.d{fill:#38a9b4;}.e{fill:#d1770e;}.f{fill:#fcb327;}.g,.l{fill:#fff;}.h{fill:#b4b1b0;}.i{fill:#8a8685;}.j{fill:#ff9d00;}.k{fill:#ffb300;}.l{opacity:0.3;}.m{fill:#d3d1cf;}.n{fill:#d73b38;}.o{fill:#b9312f;}</style></defs><title>contributors</title><ellipse class="a" cx="66.32" cy="127.47" rx="14.82" ry="3.74"/><ellipse class="a" cx="35.66" cy="126.66" rx="14.82" ry="3.74"/><ellipse class="a" cx="42.95" cy="148.71" rx="14.82" ry="3.74"/><ellipse class="a" cx="14.82" cy="138.18" rx="14.82" ry="3.74"/><ellipse class="b" cx="103.25" cy="49.26" rx="14.05" ry="12.62" transform="translate(-3.25 7.48) rotate(-4.09)"/><polygon class="c" points="150.22 128.88 153 128.88 153 67.73 126.01 82.26 127.33 84.71 150.22 72.39 150.22 128.88"/><polygon class="c" points="165.86 140.95 168.62 140.6 166.43 79.82 125.62 80.45 126.03 83.2 164.03 82.99 165.86 140.95"/><polygon class="c" points="123.44 126.4 132.54 99.09 119.68 96.02 119.03 98.73 128.94 101.09 120.8 125.52 123.44 126.4"/><path class="c" d="M123.23,126.1s2.68-4.59,6.76-1.67a5.21,5.21,0,0,1,1.72,6.95s-1.34,1.25-5.88,1.39-5.62,0-6.48-1,1.93-8.27,1.93-8.27Z"/><path class="c" d="M170.08,136.21s4.29-6.38,10-2.32a7.26,7.26,0,0,1,2.39,9.68s-1.86,1.37-8.19,1.37c-8.23,0-8.07-2.46-8.65-4.16-1-2.86,2.05-8.14,2.05-8.14Z"/><path class="c" d="M153.4,126s5.68-8,11.36-4a7.26,7.26,0,0,1,2.39,9.68s-1.86,1.37-8.19,1.38c-8.23,0-8.62-1.63-9.2-3.34-1-2.86,2.6-9,2.6-9Z"/><path class="d" d="M131.88,78c0,16.78-13.38,25.67-29.9,25.67S72.91,94.79,72.91,78,85.47,55.4,102,55.4,131.88,61.22,131.88,78Z"/><path class="c" d="M101.62,105.07c-8.74,0-16.21-2.38-21.62-6.86C74.22,93.4,71.16,86.42,71.16,78c0-15.7,10.53-24,30.46-24,20.18,0,31.29,8.52,31.29,24,0,8.38-3.21,15.37-9.28,20.21C118.1,102.64,110.28,105.07,101.62,105.07Zm0-48.28c-18.37,0-27.68,7.14-27.68,21.22,0,15,10.61,24.27,27.68,24.27,17.32,0,28.51-9.52,28.51-24.27C130.13,60.47,114.62,56.79,101.62,56.79Z"/><ellipse class="a" cx="133.86" cy="131.02" rx="15.23" ry="3.84"/><ellipse class="a" cx="165.36" cy="130.18" rx="15.23" ry="3.84"/><ellipse class="a" cx="180.61" cy="142.02" rx="15.23" ry="3.84"/><ellipse class="e" cx="75.4" cy="51.75" rx="5.99" ry="2.62" transform="matrix(0.96, -0.27, 0.27, 0.96, -11.06, 21.95)"/><ellipse class="e" cx="129.25" cy="51.13" rx="2.62" ry="5.99" transform="translate(36.28 154.45) rotate(-69.6)"/><path class="f" d="M133.07,48.07c-3.67-2.1-15.94-3.57-30.5-3.45-14,.11-25.81,1.65-30,3.68h0s-4.29,1.76-3.86,4.43a2.17,2.17,0,0,0,2.32,1.77c0-2.78,14.1-5.14,31.54-5.28s31.6,2,31.62,4.77a2.72,2.72,0,0,0,1.16-3.72A4.71,4.71,0,0,0,133.07,48.07Z"/><path class="e" d="M133.07,48.07a15.53,15.53,0,0,0-3.61-1.16c-1.23-.29-2.49-.48-3.75-.67s-2.52-.33-3.79-.46-2.53-.23-3.8-.31c-2.54-.16-5.08-.29-7.63-.36s-5.09-.09-7.64-.06L99,45.12c-1.28,0-2.55.06-3.82.11s-2.54.09-3.81.2-2.54.17-3.8.28l-3.8.35c-1.26.17-2.53.32-3.78.51l-1.88.33a16.56,16.56,0,0,0-1.86.38c-.61.15-1.24.28-1.85.45l-1.78.64h0l-.55.25a3.39,3.39,0,0,0-.53.29l-1,.6,1-.67a5.69,5.69,0,0,1,.52-.33l.54-.28h0l1.77-.73c.6-.21,1.22-.37,1.84-.56,1.22-.39,2.49-.58,3.74-.86s2.52-.41,3.79-.62l3.8-.47c1.28-.14,2.55-.22,3.83-.33s2.55-.16,3.83-.23,2.56-.14,3.83-.16,2.55-.08,3.84-.08c2.56,0,5.11,0,7.67.13,1.28.06,2.56.11,3.83.19s2.55.2,3.83.31,2.54.27,3.81.43,2.53.36,3.79.59,2.51.5,3.74.85A14.15,14.15,0,0,1,133.07,48.07Z"/><path class="e" d="M71.07,54.5a1.14,1.14,0,0,1,.22-.63,4.13,4.13,0,0,1,1.57-1.16,29.56,29.56,0,0,1,6.76-2c2.87-.54,6.25-1,9.89-1.34s7.52-.51,11.41-.6c2,0,3.9,0,5.81,0s3.8.11,5.62.18,3.59.19,5.25.38,3.24.32,4.68.53,2.76.43,3.93.64,2.16.5,3,.68,1.44.46,1.88.59l.66.22-.68-.17c-.44-.11-1.07-.32-1.9-.48s-1.83-.39-3-.52-2.49-.34-3.93-.47-3-.28-4.68-.38-3.41-.15-5.22-.26-3.69-.11-5.6-.13-3.85,0-5.78,0c-3.88,0-7.75.2-11.37.47s-7,.6-9.86,1.07a32.32,32.32,0,0,0-6.77,1.64,4.32,4.32,0,0,0-1.61,1A1.17,1.17,0,0,0,71.07,54.5Z"/><ellipse class="g" cx="90.72" cy="60.18" rx="18.64" ry="19.27"/><path class="c" d="M90.35,80.42c-10.81,0-19.61-9.08-19.61-20.24s8.8-20.24,19.61-20.24S110,49,110,60.18,101.17,80.42,90.35,80.42Zm0-38.53c-9.74,0-17.66,8.2-17.66,18.29s7.92,18.3,17.66,18.3S108,70.27,108,60.18,100.09,41.89,90.35,41.89Z"/><ellipse class="g" cx="118.56" cy="63.33" rx="15.38" ry="15.08"/><path class="c" d="M118.19,79.38a16.05,16.05,0,1,1,16.35-16A16.22,16.22,0,0,1,118.19,79.38Zm0-30.16A14.11,14.11,0,1,0,132.6,63.33,14.27,14.27,0,0,0,118.19,49.22Z"/><circle class="c" cx="90.35" cy="59.73" r="8.58"/><circle class="g" cx="94.95" cy="58.43" r="2.37"/><ellipse class="c" cx="119.79" cy="64.22" rx="6.96" ry="6.67"/><circle class="g" cx="118.45" cy="63.03" r="1.91"/><path class="c" d="M176.83,85.31l1.35,1.84L177,96.62l-2-2,.48-6.92.75,0-45.08,1a1.77,1.77,0,0,1-1.54-.86l-.92-1.54a.6.6,0,0,1,.51-.9Z"/><path class="h" d="M158.64,109.61a1.49,1.49,0,0,0-2,.45l-3.5,5.46a6.92,6.92,0,0,1,4.86-10,2.76,2.76,0,0,0,.56-1L162,92.89h0l2.45-8.19a3.16,3.16,0,0,0,.09-1.29,6.91,6.91,0,0,1,5.25-11.75l-3.5,5.46a1.49,1.49,0,0,0,.45,2l1.67,1.07-8.26,30.33Z"/><path class="i" d="M153.06,116.35l-.33-.64a7.34,7.34,0,0,1,.33-7.32,7.23,7.23,0,0,1,4.66-3.21,2.68,2.68,0,0,0,.4-.79l3.58-12h0L164,84.58a2.7,2.7,0,0,0,.09-1,7.33,7.33,0,0,1,5.67-12.35l.71,0-3.88,6.07a1.07,1.07,0,0,0,.33,1.47l1.91,1.23-8.48,31.17-2-1.26a1.07,1.07,0,0,0-.8-.14,1,1,0,0,0-.67.47Zm3.91-10.1a6.48,6.48,0,0,0-3.81,8.41l3.08-4.82a1.89,1.89,0,0,1,2.62-.57h0l1,.65,8-29.5-1.41-.9a1.89,1.89,0,0,1-.57-2.62L169,72.09a6.49,6.49,0,0,0-4.2,11l.1.1,0,.13a3.42,3.42,0,0,1-.11,1.46l-2.56,8.59h0l-3.35,11.23a3.36,3.36,0,0,1-.64,1.19l-.09.11-.15,0A7.53,7.53,0,0,0,157,106.25Z"/><path class="i" d="M162,111.75l-1.84-1.18,8.26-30.33,1.66,1.06a1.48,1.48,0,0,0,2.06-.45l3.49-5.46a6.92,6.92,0,0,1-4.86,10,2.82,2.82,0,0,0-.56,1L166.71,98h0l-2.44,8.2a3,3,0,0,0-.09,1.29,6.91,6.91,0,0,1-5.26,11.75l3.5-5.46A1.48,1.48,0,0,0,162,111.75Z"/><path class="i" d="M161.76,119.23a7.41,7.41,0,0,1-2.85.44l-.72,0,3.88-6.07a1.08,1.08,0,0,0,.14-.8,1,1,0,0,0-.46-.67h0l-2.1-1.35,8.48-31.17L170.28,81a1.08,1.08,0,0,0,1.48-.33l3.88-6.06.33.63a7.36,7.36,0,0,1-.34,7.33A7.23,7.23,0,0,1,171,85.74a2.68,2.68,0,0,0-.4.79L167,98.66h0l-2.29,7.68a2.7,2.7,0,0,0-.09,1,7.3,7.3,0,0,1,.85,9A7.41,7.41,0,0,1,161.76,119.23Zm-2.07-.4a6.5,6.5,0,0,0,4.19-11l-.09-.09,0-.13a3.26,3.26,0,0,1,.1-1.46l2.6-8.72h0l3.31-11.1a3.53,3.53,0,0,1,.64-1.19l.1-.11.14,0a6.48,6.48,0,0,0,4.87-8.7l-3.08,4.82a1.89,1.89,0,0,1-2.62.57l-1.19-.76-8,29.49,1.58,1a1.85,1.85,0,0,1,.83,1.19,1.9,1.9,0,0,1-.25,1.43Z"/><path class="c" d="M172.7,92.12s-7.58-3.79-10.2,2a6.6,6.6,0,0,0,2.51,8.71s2.19,1.33,7.18-1.54c6.49-3.74,5.4-6.76,4.6-8.19"/><path class="b" d="M103.27,45.89c13.41.63,25,3.42,31.35,7.06,0-5.62-.43-24.39-6.6-31.17-7.29-8-12.11-11-22.85-12.81,0,0-18-.84-25.76,10.52-6.88,10.08-8.89,28.37-9.31,32.17C76.3,48.13,88.74,45.2,103.27,45.89Z"/><rect class="j" x="99.47" y="6.13" width="4.51" height="36.95" rx="2.25" transform="translate(1.27 -4.76) rotate(2.7)"/><rect class="k" x="100.14" y="7.51" width="3.15" height="34.44" rx="1.58" transform="translate(1.28 -4.76) rotate(2.7)"/><rect class="j" x="89.4" y="8.35" width="4.51" height="29.29" rx="2.25" transform="translate(1.18 -4.29) rotate(2.7)"/><rect class="k" x="90.07" y="9.45" width="3.15" height="27.3" rx="1.58" transform="translate(1.19 -4.29) rotate(2.7)"/><rect class="j" x="110.3" y="9.34" width="4.51" height="29.29" rx="2.25" transform="translate(1.25 -5.27) rotate(2.7)"/><rect class="k" x="110.97" y="10.43" width="3.15" height="27.3" rx="1.58" transform="translate(1.26 -5.27) rotate(2.7)"/><path class="l" d="M73.17,49.24a46.57,46.57,0,0,1,7.73-2.07c-1.87-9.21.89-20.8.89-20.8C79,28.09,75.34,40.82,73.17,49.24Z"/><path class="l" d="M124.43,49a52.34,52.34,0,0,1,7.36,2.54C130.4,43,128,30.36,125.43,28.42,125.43,28.42,127.06,40,124.43,49Z"/><path class="f" d="M133.07,48.07c-3.67-2.1-15.94-3.57-30.5-3.45-14,.11-25.81,1.65-30,3.68h0s-4.29,1.76-3.86,4.43a2.17,2.17,0,0,0,2.32,1.77c0-2.78,14.1-5.14,31.54-5.28s31.6,2,31.62,4.77a2.72,2.72,0,0,0,1.16-3.72A4.71,4.71,0,0,0,133.07,48.07Z"/><path class="e" d="M133.07,48.07a15.53,15.53,0,0,0-3.61-1.16c-1.23-.29-2.49-.48-3.75-.67s-2.52-.33-3.79-.46-2.53-.23-3.8-.31c-2.54-.16-5.08-.29-7.63-.36s-5.09-.09-7.64-.06L99,45.12c-1.28,0-2.55.06-3.82.11s-2.54.09-3.81.2-2.54.17-3.8.28l-3.8.35c-1.26.17-2.53.32-3.78.51l-1.88.33a16.56,16.56,0,0,0-1.86.38c-.61.15-1.24.28-1.85.45l-1.78.64h0l-.55.25a3.39,3.39,0,0,0-.53.29l-1,.6,1-.67a5.69,5.69,0,0,1,.52-.33l.54-.28h0l1.77-.73c.6-.21,1.22-.37,1.84-.56,1.22-.39,2.49-.58,3.74-.86s2.52-.41,3.79-.62l3.8-.47c1.28-.14,2.55-.22,3.83-.33s2.55-.16,3.83-.23,2.56-.14,3.83-.16,2.55-.08,3.84-.08c2.56,0,5.11,0,7.67.13,1.28.06,2.56.11,3.83.19s2.55.2,3.83.31,2.54.27,3.81.43,2.53.36,3.79.59,2.51.5,3.74.85A14.15,14.15,0,0,1,133.07,48.07Z"/><path class="e" d="M71.07,54.5a1.14,1.14,0,0,1,.22-.63,4.13,4.13,0,0,1,1.57-1.16,29.56,29.56,0,0,1,6.76-2c2.87-.54,6.25-1,9.89-1.34s7.52-.51,11.41-.6c2,0,3.9,0,5.81,0s3.8.11,5.62.18,3.59.19,5.25.38,3.24.32,4.68.53,2.76.43,3.93.64,2.16.5,3,.68,1.44.46,1.88.59l.66.22-.68-.17c-.44-.11-1.07-.32-1.9-.48s-1.83-.39-3-.52-2.49-.34-3.93-.47-3-.28-4.68-.38-3.41-.15-5.22-.26-3.69-.11-5.6-.13-3.85,0-5.78,0c-3.88,0-7.75.2-11.37.47s-7,.6-9.86,1.07a32.32,32.32,0,0,0-6.77,1.64,4.32,4.32,0,0,0-1.61,1A1.17,1.17,0,0,0,71.07,54.5Z"/><polygon class="c" points="49.95 126 47.24 126 47.24 66.49 73.51 80.64 72.22 83.02 49.95 71.03 49.95 126"/><polygon class="c" points="29.37 137.75 26.68 137.41 34.17 78.26 73.89 84.22 73.48 86.9 36.51 81.34 29.37 137.75"/><polygon class="c" points="55.45 145.62 54.17 92.03 73.38 86.46 74.13 89.06 56.92 94.05 58.16 145.56 55.45 145.62"/><polygon class="c" points="76.01 123.59 67.16 97.02 79.67 94.02 80.3 96.66 70.66 98.96 78.58 122.73 76.01 123.59"/><path class="c" d="M76.22,123.3s-2.61-4.47-6.59-1.63A5.08,5.08,0,0,0,68,128.44s1.3,1.22,5.73,1.35,5.47,0,6.3-.94-1.88-8-1.88-8Z"/><path class="c" d="M25.43,133.14s-4.18-6.21-9.71-2.26a7.07,7.07,0,0,0-2.33,9.42s1.81,1.33,8,1.34c8,0,7.86-2.4,8.42-4,.95-2.79-2-7.92-2-7.92Z"/><path class="c" d="M46.85,123.23s-5.53-7.83-11.06-3.88a7.06,7.06,0,0,0-2.32,9.42s1.81,1.33,8,1.34c8,0,8.4-1.59,9-3.25.94-2.78-2.54-8.72-2.54-8.72Z"/><path class="c" d="M55.19,143.89s-5-7.57-10.52-3.62a7.07,7.07,0,0,0-2.33,9.42s1.81,1.61,8,1.61c8,0,8.13-2.57,8.15-4.32.14-8.57-2.8-7.92-2.8-7.92Z"/><ellipse class="a" cx="510.32" cy="127.47" rx="14.82" ry="3.74"/><ellipse class="a" cx="479.66" cy="126.66" rx="14.82" ry="3.74"/><ellipse class="a" cx="486.95" cy="148.71" rx="14.82" ry="3.74"/><ellipse class="a" cx="458.82" cy="138.18" rx="14.82" ry="3.74"/><ellipse class="b" cx="547.25" cy="49.26" rx="14.05" ry="12.62" transform="translate(-2.12 39.12) rotate(-4.09)"/><polygon class="c" points="594.22 128.88 597 128.88 597 67.73 570.01 82.26 571.33 84.71 594.22 72.39 594.22 128.88"/><polygon class="c" points="609.86 140.95 612.62 140.6 610.43 79.82 569.62 80.45 570.03 83.2 608.03 82.99 609.86 140.95"/><polygon class="c" points="567.43 126.4 576.54 99.09 563.68 96.02 563.03 98.73 572.94 101.09 564.8 125.52 567.43 126.4"/><path class="c" d="M567.23,126.1s2.68-4.59,6.76-1.67a5.21,5.21,0,0,1,1.72,6.95s-1.34,1.25-5.88,1.39-5.62,0-6.48-1,1.93-8.27,1.93-8.27Z"/><path class="c" d="M614.08,136.21s4.29-6.38,10-2.32a7.26,7.26,0,0,1,2.39,9.68s-1.86,1.37-8.19,1.37c-8.23,0-8.07-2.46-8.65-4.16-1-2.86,2-8.14,2-8.14Z"/><path class="c" d="M597.4,126s5.68-8,11.36-4a7.26,7.26,0,0,1,2.39,9.68s-1.86,1.37-8.19,1.38c-8.23,0-8.62-1.63-9.2-3.34-1-2.86,2.6-9,2.6-9Z"/><path class="d" d="M575.88,78c0,16.78-13.38,25.67-29.9,25.67S516.91,94.79,516.91,78,529.47,55.4,546,55.4,575.88,61.22,575.88,78Z"/><path class="c" d="M545.62,105.07c-8.74,0-16.21-2.38-21.62-6.86-5.78-4.81-8.84-11.79-8.84-20.2,0-15.7,10.53-24,30.46-24,20.18,0,31.29,8.52,31.29,24,0,8.38-3.21,15.37-9.28,20.21C562.1,102.64,554.28,105.07,545.62,105.07Zm0-48.28c-18.37,0-27.68,7.14-27.68,21.22,0,15,10.61,24.27,27.68,24.27,17.32,0,28.51-9.52,28.51-24.27C574.13,60.47,558.62,56.79,545.62,56.79Z"/><ellipse class="a" cx="577.86" cy="131.02" rx="15.23" ry="3.84"/><ellipse class="a" cx="609.36" cy="130.18" rx="15.23" ry="3.84"/><ellipse class="a" cx="624.61" cy="142.02" rx="15.23" ry="3.84"/><ellipse class="e" cx="519.4" cy="51.75" rx="5.99" ry="2.62" transform="matrix(0.96, -0.27, 0.27, 0.96, 4.97, 140.17)"/><ellipse class="e" cx="573.25" cy="51.13" rx="2.62" ry="5.99" transform="translate(325.52 570.61) rotate(-69.6)"/><path class="f" d="M577.07,48.07c-3.67-2.1-15.94-3.57-30.5-3.45-14,.11-25.81,1.65-30,3.68h0s-4.29,1.76-3.86,4.43a2.17,2.17,0,0,0,2.32,1.77c0-2.78,14.1-5.14,31.54-5.28s31.6,2,31.62,4.77a2.72,2.72,0,0,0,1.16-3.72A4.71,4.71,0,0,0,577.07,48.07Z"/><path class="e" d="M577.07,48.07a15.53,15.53,0,0,0-3.61-1.16c-1.23-.29-2.49-.48-3.75-.67s-2.52-.33-3.79-.46-2.53-.23-3.8-.31c-2.54-.16-5.08-.29-7.63-.36s-5.09-.09-7.64-.06l-3.82.07c-1.28,0-2.55.06-3.82.11s-2.54.09-3.81.2-2.54.17-3.8.28l-3.8.35c-1.26.17-2.53.32-3.78.51l-1.88.33a16.56,16.56,0,0,0-1.86.38c-.61.15-1.24.28-1.85.45l-1.78.64h0l-.55.25a3.39,3.39,0,0,0-.53.29l-1.05.6,1-.67a5.69,5.69,0,0,1,.52-.33l.54-.28h0l1.77-.73c.6-.21,1.22-.37,1.84-.56,1.22-.39,2.49-.58,3.74-.86s2.52-.41,3.79-.62l3.8-.47c1.28-.14,2.55-.22,3.83-.33s2.55-.16,3.83-.23,2.56-.14,3.83-.16,2.55-.08,3.84-.08c2.56,0,5.11,0,7.67.13,1.28.06,2.56.11,3.83.19s2.55.2,3.83.31,2.54.27,3.81.43,2.53.36,3.79.59,2.51.5,3.74.85A14.15,14.15,0,0,1,577.07,48.07Z"/><path class="e" d="M515.07,54.5a1.14,1.14,0,0,1,.22-.63,4.13,4.13,0,0,1,1.57-1.16,29.56,29.56,0,0,1,6.76-2c2.87-.54,6.25-1,9.89-1.34s7.52-.51,11.41-.6c2,0,3.9,0,5.81,0s3.8.11,5.62.18,3.59.19,5.25.38,3.24.32,4.68.53,2.76.43,3.93.64,2.16.5,3,.68,1.44.46,1.88.59l.66.22-.68-.17c-.44-.11-1.07-.32-1.9-.48s-1.83-.39-3-.52-2.49-.34-3.93-.47-3-.28-4.68-.38-3.41-.15-5.22-.26-3.69-.11-5.6-.13-3.85,0-5.78,0c-3.88,0-7.75.2-11.37.47s-7,.6-9.86,1.07a32.32,32.32,0,0,0-6.77,1.64,4.32,4.32,0,0,0-1.61,1A1.17,1.17,0,0,0,515.07,54.5Z"/><ellipse class="g" cx="534.72" cy="60.18" rx="18.64" ry="19.27"/><path class="c" d="M534.35,80.42c-10.81,0-19.61-9.08-19.61-20.24s8.8-20.24,19.61-20.24S554,49,554,60.18,545.17,80.42,534.35,80.42Zm0-38.53c-9.74,0-17.66,8.2-17.66,18.29s7.92,18.3,17.66,18.3S552,70.27,552,60.18,544.09,41.89,534.35,41.89Z"/><ellipse class="g" cx="562.56" cy="63.33" rx="15.38" ry="15.08"/><path class="c" d="M562.19,79.38a16.05,16.05,0,1,1,16.35-16A16.22,16.22,0,0,1,562.19,79.38Zm0-30.16A14.11,14.11,0,1,0,576.6,63.33,14.27,14.27,0,0,0,562.19,49.22Z"/><circle class="c" cx="534.35" cy="59.73" r="8.58"/><circle class="g" cx="538.95" cy="58.43" r="2.37"/><ellipse class="c" cx="563.79" cy="64.22" rx="6.96" ry="6.67"/><circle class="g" cx="562.45" cy="63.03" r="1.91"/><path class="c" d="M620.83,85.31l1.35,1.84L621,96.62l-2-2,.48-6.92.75,0-45.08,1a1.77,1.77,0,0,1-1.54-.86l-.92-1.54a.6.6,0,0,1,.51-.9Z"/><path class="h" d="M602.64,109.61a1.49,1.49,0,0,0-2,.45l-3.5,5.46a6.92,6.92,0,0,1,4.86-10,2.76,2.76,0,0,0,.56-1L606,92.89h0l2.45-8.19a3.16,3.16,0,0,0,.09-1.29,6.91,6.91,0,0,1,5.25-11.75l-3.5,5.46a1.49,1.49,0,0,0,.45,2l1.67,1.07-8.26,30.33Z"/><path class="i" d="M597.06,116.35l-.33-.64a7.34,7.34,0,0,1,.33-7.32,7.23,7.23,0,0,1,4.66-3.21,2.68,2.68,0,0,0,.4-.79l3.58-12h0L608,84.58a2.7,2.7,0,0,0,.09-1,7.33,7.33,0,0,1,5.67-12.35l.71,0-3.88,6.07a1.07,1.07,0,0,0,.33,1.47l1.91,1.23-8.48,31.17-2-1.26a1.07,1.07,0,0,0-.8-.14,1,1,0,0,0-.67.47Zm3.91-10.1a6.48,6.48,0,0,0-3.81,8.41l3.08-4.82a1.89,1.89,0,0,1,2.62-.57h0l1,.65,8-29.5-1.41-.9a1.89,1.89,0,0,1-.57-2.62L613,72.09a6.49,6.49,0,0,0-4.2,11l.1.1,0,.13a3.42,3.42,0,0,1-.11,1.46l-2.56,8.59h0l-3.35,11.23a3.36,3.36,0,0,1-.64,1.19l-.09.11-.15,0A7.53,7.53,0,0,0,601,106.25Z"/><path class="i" d="M606,111.75l-1.84-1.18,8.26-30.33,1.66,1.06a1.48,1.48,0,0,0,2.06-.45l3.49-5.46a6.92,6.92,0,0,1-4.86,10,2.82,2.82,0,0,0-.56,1L610.71,98h0l-2.44,8.2a3,3,0,0,0-.09,1.29,6.91,6.91,0,0,1-5.26,11.75l3.5-5.46A1.48,1.48,0,0,0,606,111.75Z"/><path class="i" d="M605.76,119.23a7.41,7.41,0,0,1-2.85.44l-.72,0,3.88-6.07a1.08,1.08,0,0,0,.14-.8,1,1,0,0,0-.46-.67h0l-2.1-1.35,8.48-31.17L614.28,81a1.08,1.08,0,0,0,1.48-.33l3.88-6.06.33.63a7.36,7.36,0,0,1-.34,7.33A7.23,7.23,0,0,1,615,85.74a2.68,2.68,0,0,0-.4.79L611,98.66h0l-2.29,7.68a2.7,2.7,0,0,0-.09,1,7.3,7.3,0,0,1,.85,9A7.41,7.41,0,0,1,605.76,119.23Zm-2.07-.4a6.5,6.5,0,0,0,4.19-11l-.09-.09,0-.13a3.26,3.26,0,0,1,.1-1.46l2.6-8.72h0l3.31-11.1a3.53,3.53,0,0,1,.64-1.19l.1-.11.14,0a6.48,6.48,0,0,0,4.87-8.7l-3.08,4.82a1.89,1.89,0,0,1-2.62.57l-1.19-.76-8,29.49,1.58,1a1.85,1.85,0,0,1,.83,1.19,1.9,1.9,0,0,1-.25,1.43Z"/><path class="c" d="M616.7,92.12s-7.58-3.79-10.2,2a6.6,6.6,0,0,0,2.51,8.71s2.19,1.33,7.18-1.54c6.49-3.74,5.4-6.76,4.6-8.19"/><path class="b" d="M547.27,45.89c13.41.63,25.05,3.42,31.35,7.06,0-5.62-.43-24.39-6.6-31.17-7.29-8-12.11-11-22.85-12.81,0,0-18-.84-25.76,10.52-6.88,10.08-8.89,28.37-9.31,32.17C520.3,48.13,532.74,45.2,547.27,45.89Z"/><rect class="j" x="543.47" y="6.13" width="4.51" height="36.95" rx="2.25" transform="translate(1.76 -25.67) rotate(2.7)"/><rect class="k" x="544.14" y="7.51" width="3.15" height="34.44" rx="1.58" transform="translate(1.77 -25.67) rotate(2.7)"/><rect class="j" x="533.4" y="8.35" width="4.51" height="29.29" rx="2.25" transform="translate(1.68 -25.19) rotate(2.7)"/><rect class="k" x="534.07" y="9.45" width="3.15" height="27.3" rx="1.58" transform="translate(1.68 -25.19) rotate(2.7)"/><rect class="j" x="554.3" y="9.34" width="4.51" height="29.29" rx="2.25" transform="translate(1.75 -26.18) rotate(2.7)"/><rect class="k" x="554.97" y="10.43" width="3.15" height="27.3" rx="1.58" transform="translate(1.75 -26.18) rotate(2.7)"/><path class="l" d="M517.17,49.24a46.57,46.57,0,0,1,7.73-2.07c-1.87-9.21.89-20.8.89-20.8C523,28.09,519.34,40.82,517.17,49.24Z"/><path class="l" d="M568.43,49a52.34,52.34,0,0,1,7.36,2.54C574.4,43,572,30.36,569.43,28.42,569.43,28.42,571.06,40,568.43,49Z"/><path class="f" d="M577.07,48.07c-3.67-2.1-15.94-3.57-30.5-3.45-14,.11-25.81,1.65-30,3.68h0s-4.29,1.76-3.86,4.43a2.17,2.17,0,0,0,2.32,1.77c0-2.78,14.1-5.14,31.54-5.28s31.6,2,31.62,4.77a2.72,2.72,0,0,0,1.16-3.72A4.71,4.71,0,0,0,577.07,48.07Z"/><path class="e" d="M577.07,48.07a15.53,15.53,0,0,0-3.61-1.16c-1.23-.29-2.49-.48-3.75-.67s-2.52-.33-3.79-.46-2.53-.23-3.8-.31c-2.54-.16-5.08-.29-7.63-.36s-5.09-.09-7.64-.06l-3.82.07c-1.28,0-2.55.06-3.82.11s-2.54.09-3.81.2-2.54.17-3.8.28l-3.8.35c-1.26.17-2.53.32-3.78.51l-1.88.33a16.56,16.56,0,0,0-1.86.38c-.61.15-1.24.28-1.85.45l-1.78.64h0l-.55.25a3.39,3.39,0,0,0-.53.29l-1.05.6,1-.67a5.69,5.69,0,0,1,.52-.33l.54-.28h0l1.77-.73c.6-.21,1.22-.37,1.84-.56,1.22-.39,2.49-.58,3.74-.86s2.52-.41,3.79-.62l3.8-.47c1.28-.14,2.55-.22,3.83-.33s2.55-.16,3.83-.23,2.56-.14,3.83-.16,2.55-.08,3.84-.08c2.56,0,5.11,0,7.67.13,1.28.06,2.56.11,3.83.19s2.55.2,3.83.31,2.54.27,3.81.43,2.53.36,3.79.59,2.51.5,3.74.85A14.15,14.15,0,0,1,577.07,48.07Z"/><path class="e" d="M515.07,54.5a1.14,1.14,0,0,1,.22-.63,4.13,4.13,0,0,1,1.57-1.16,29.56,29.56,0,0,1,6.76-2c2.87-.54,6.25-1,9.89-1.34s7.52-.51,11.41-.6c2,0,3.9,0,5.81,0s3.8.11,5.62.18,3.59.19,5.25.38,3.24.32,4.68.53,2.76.43,3.93.64,2.16.5,3,.68,1.44.46,1.88.59l.66.22-.68-.17c-.44-.11-1.07-.32-1.9-.48s-1.83-.39-3-.52-2.49-.34-3.93-.47-3-.28-4.68-.38-3.41-.15-5.22-.26-3.69-.11-5.6-.13-3.85,0-5.78,0c-3.88,0-7.75.2-11.37.47s-7,.6-9.86,1.07a32.32,32.32,0,0,0-6.77,1.64,4.32,4.32,0,0,0-1.61,1A1.17,1.17,0,0,0,515.07,54.5Z"/><polygon class="c" points="493.95 126 491.24 126 491.24 66.49 517.51 80.64 516.22 83.02 493.95 71.03 493.95 126"/><polygon class="c" points="473.37 137.75 470.68 137.41 478.17 78.26 517.89 84.22 517.49 86.9 480.5 81.34 473.37 137.75"/><polygon class="c" points="499.45 145.62 498.17 92.03 517.38 86.46 518.13 89.06 500.92 94.05 502.16 145.56 499.45 145.62"/><polygon class="c" points="520.01 123.59 511.15 97.02 523.67 94.02 524.3 96.66 514.66 98.96 522.58 122.73 520.01 123.59"/><path class="c" d="M520.22,123.3s-2.61-4.47-6.59-1.63a5.08,5.08,0,0,0-1.67,6.77s1.3,1.22,5.73,1.35,5.47,0,6.3-.94-1.88-8-1.88-8Z"/><path class="c" d="M469.43,133.14s-4.18-6.21-9.71-2.26a7.07,7.07,0,0,0-2.33,9.42s1.81,1.33,8,1.34c8,0,7.86-2.4,8.42-4,1-2.79-2-7.92-2-7.92Z"/><path class="c" d="M490.85,123.23s-5.53-7.83-11.06-3.88a7.06,7.06,0,0,0-2.32,9.42s1.81,1.33,8,1.34c8,0,8.4-1.59,9-3.25.94-2.78-2.54-8.72-2.54-8.72Z"/><path class="c" d="M499.19,143.89s-5-7.57-10.52-3.62a7.07,7.07,0,0,0-2.33,9.42s1.81,1.61,8,1.61c8,0,8.13-2.57,8.15-4.32.14-8.57-2.8-7.92-2.8-7.92Z"/><ellipse class="a" cx="367" cy="137.2" rx="16.31" ry="4.11"/><ellipse class="a" cx="400.74" cy="136.31" rx="16.31" ry="4.11"/><ellipse class="a" cx="392.72" cy="160.56" rx="16.31" ry="4.11"/><ellipse class="a" cx="423.68" cy="148.98" rx="16.31" ry="4.11"/><ellipse class="b" cx="330.77" cy="47.39" rx="15.46" ry="13.89"/><ellipse class="a" cx="290.84" cy="137.63" rx="16.75" ry="4.23"/><ellipse class="a" cx="256.17" cy="136.72" rx="16.75" ry="4.23"/><ellipse class="a" cx="232.61" cy="149.74" rx="16.75" ry="4.23"/><polygon class="c" points="272.54 135.44 269.48 135.44 269.48 68.16 299.18 84.14 297.73 86.84 272.54 73.28 272.54 135.44"/><polygon class="c" points="249.28 148.72 246.24 148.34 254.71 81.45 299.61 88.2 299.16 91.22 257.35 84.94 249.28 148.72"/><polygon class="c" points="302.02 132.71 292 102.66 306.15 99.28 306.87 102.26 295.96 104.86 304.92 131.74 302.02 132.71"/><path class="c" d="M302.25,132.37s-3-5-7.45-1.83a5.74,5.74,0,0,0-1.89,7.65s1.47,1.38,6.48,1.53,6.18,0,7.12-1.07-2.12-9.1-2.12-9.1Z"/><path class="c" d="M244.82,143.51s-4.72-7-11-2.56a8,8,0,0,0-2.63,10.65s2.05,1.51,9,1.51c9.06,0,8.88-2.7,9.52-4.58,1.07-3.15-2.25-8.95-2.25-8.95Z"/><path class="c" d="M269,132.3s-6.24-8.86-12.5-4.39a8,8,0,0,0-2.63,10.65s2.05,1.51,9,1.52c9.06,0,9.5-1.8,10.14-3.67,1.07-3.15-2.87-9.87-2.87-9.87Z"/><path class="d" d="M361,79.87c0,18.47-14.73,28.24-32.9,28.24s-32-9.77-32-28.24S309.93,55,328.11,55,361,61.39,361,79.87Z"/><path class="c" d="M327.71,109.64c-9.62,0-17.84-2.61-23.79-7.55-6.37-5.28-9.73-13-9.73-22.22,0-17.28,11.59-26.41,33.52-26.41,22.2,0,34.43,9.38,34.43,26.41,0,9.22-3.53,16.91-10.21,22.24C345.84,107,337.24,109.64,327.71,109.64Zm0-53.12c-20.21,0-30.46,7.85-30.46,23.35,0,16.47,11.67,26.71,30.46,26.71,19.05,0,31.37-10.49,31.37-26.71C359.08,60.57,342,56.52,327.71,56.52Z"/><path class="c" d="M245.84,103l-.7,2.41,4.77,9.35,1.28-2.75-3.11-7-.77.31,49.2-13.63a1.32,1.32,0,0,0,.94-1l.37-2A.66.66,0,0,0,297,88Z"/><polygon class="c" points="384.74 134.65 387.72 134.65 387.72 69.16 358.81 84.72 360.22 87.35 384.74 74.15 384.74 134.65"/><polygon class="c" points="407.38 147.58 410.33 147.2 402.1 82.11 358.39 88.67 358.83 91.61 399.53 85.5 407.38 147.58"/><polygon class="c" points="378.68 156.23 380.09 97.27 358.95 91.13 358.12 93.99 377.06 99.49 375.7 156.16 378.68 156.23"/><polygon class="c" points="356.05 131.99 365.8 102.75 352.02 99.46 351.33 102.35 361.95 104.89 353.23 131.05 356.05 131.99"/><path class="c" d="M355.83,131.67s2.87-4.92,7.24-1.79a5.59,5.59,0,0,1,1.85,7.45s-1.44,1.34-6.31,1.48-6,0-6.93-1,2.06-8.85,2.06-8.85Z"/><path class="c" d="M411.72,142.5s4.59-6.84,10.68-2.49A7.79,7.79,0,0,1,425,150.38s-2,1.46-8.77,1.47c-8.82,0-8.65-2.64-9.27-4.46-1-3.07,2.19-8.71,2.19-8.71Z"/><path class="c" d="M388.14,131.6s6.08-8.63,12.17-4.28a7.78,7.78,0,0,1,2.56,10.36s-2,1.47-8.77,1.48c-8.82,0-9.24-1.74-9.86-3.57-1-3.06,2.79-9.6,2.79-9.6Z"/><path class="c" d="M379,154.32s5.48-8.32,11.57-4a7.78,7.78,0,0,1,2.56,10.36s-2,1.77-8.77,1.77c-8.82,0-8.94-2.83-9-4.76-.15-9.42,3.09-8.71,3.09-8.71Z"/><ellipse class="e" cx="300" cy="47.93" rx="6.59" ry="2.88" transform="translate(-3.57 59.98) rotate(-11.35)"/><ellipse class="e" cx="359.16" cy="51.48" rx="2.88" ry="6.59" transform="translate(163.42 356.98) rotate(-65.51)"/><path class="f" d="M363.59,48.43c-3.87-2.6-17.22-5.18-33.2-6.19-15.35-1-28.46-.22-33.17,1.69h0s-4.86,1.59-4.59,4.56a2.38,2.38,0,0,0,2.4,2.12c.2-3,15.88-4.53,35-3.32S364.59,52,364.4,55A3,3,0,0,0,366,51,5.15,5.15,0,0,0,363.59,48.43Z"/><path class="e" d="M363.59,48.43a17.33,17.33,0,0,0-3.87-1.56c-1.34-.42-2.7-.73-4.07-1s-2.74-.56-4.12-.8-2.76-.45-4.15-.64c-2.77-.37-5.55-.72-8.34-1s-5.58-.5-8.38-.67l-4.2-.22c-1.4-.09-2.8-.13-4.2-.17s-2.8-.1-4.2-.09-2.8,0-4.2,0l-4.2.09c-1.39.09-2.79.15-4.18.26l-2.09.22a17.74,17.74,0,0,0-2.07.26c-.69.12-1.38.21-2.06.36l-2,.56h0l-.62.23a4.59,4.59,0,0,0-.6.27l-1.2.58,1.16-.66a5.54,5.54,0,0,1,.59-.32l.62-.26h0l2-.67c.68-.18,1.38-.3,2.06-.46,1.38-.34,2.78-.44,4.18-.66s2.8-.25,4.2-.38l4.22-.22c1.41-.05,2.81,0,4.22-.05s2.82,0,4.23,0,2.82,0,4.22.13,2.8.11,4.21.21q4.21.3,8.41.75c1.4.16,2.8.32,4.19.51s2.79.42,4.18.64,2.77.5,4.15.77,2.75.59,4.11.94,2.72.75,4,1.23A15.71,15.71,0,0,1,363.59,48.43Z"/><path class="e" d="M295,50.61a1.33,1.33,0,0,1,.29-.68,4.67,4.67,0,0,1,1.82-1.14,32.12,32.12,0,0,1,7.58-1.63,104.73,104.73,0,0,1,10.95-.7c4-.06,8.3,0,12.58.24,2.13.12,4.27.33,6.36.49s4.17.42,6.16.64,3.92.49,5.73.83,3.53.6,5.1,1,3,.68,4.26,1,2.34.72,3.23,1a21.71,21.71,0,0,1,2,.8l.7.29-.72-.25c-.48-.14-1.16-.43-2.06-.66s-2-.58-3.26-.81-2.7-.58-4.28-.83-3.28-.54-5.1-.79-3.74-.43-5.71-.69-4-.41-6.14-.58-4.22-.32-6.35-.42c-4.25-.25-8.52-.38-12.51-.37s-7.72.11-10.9.4A35.8,35.8,0,0,0,297.21,49a4.7,4.7,0,0,0-1.85,1A1.23,1.23,0,0,0,295,50.61Z"/><ellipse class="g" cx="315.71" cy="60.25" rx="20.51" ry="21.2"/><path class="c" d="M315.31,82.52c-11.9,0-21.58-10-21.58-22.27S303.41,38,315.31,38s21.58,10,21.58,22.27S327.21,82.52,315.31,82.52Zm0-42.4c-10.72,0-19.44,9-19.44,20.13s8.72,20.13,19.44,20.13,19.44-9,19.44-20.13S326,40.12,315.31,40.12Z"/><ellipse class="g" cx="346.35" cy="63.71" rx="16.92" ry="16.59"/><path class="c" d="M346,81.37a17.66,17.66,0,1,1,18-17.66A17.85,17.85,0,0,1,346,81.37Zm0-33.18a15.52,15.52,0,1,0,15.84,15.52A15.7,15.7,0,0,0,346,48.19Z"/><circle class="c" cx="315.31" cy="59.76" r="9.45"/><circle class="g" cx="320.37" cy="58.32" r="2.6"/><ellipse class="c" cx="347.7" cy="64.69" rx="7.66" ry="7.34"/><circle class="g" cx="346.23" cy="63.38" r="2.11"/><path class="m" d="M229.48,87.49l2.25-2.25,3.78,1.54,1.54,3.79,15,15a1.59,1.59,0,1,1-2.25,2.24l-15-15L231,91.28Z"/><path class="n" d="M264,126.48a3.13,3.13,0,0,0,4.38.19l2.79-2.76a3,3,0,0,0-.19-4.33l-14.49-14.33a3.13,3.13,0,0,0-4.38-.19l-2.8,2.76a3,3,0,0,0,.2,4.33Z"/><path class="o" d="M267.42,120.21c1,1,2,1.63,2.25,1.4l.56-.55c.23-.23-.4-1.23-1.41-2.23l-11.59-11.46c-1-1-2-1.62-2.25-1.39l-.56.55c-.23.23.4,1.23,1.41,2.22Z"/><path class="o" d="M263.24,124.35c1,1,2,1.63,2.24,1.4l.56-.55c.23-.23-.4-1.23-1.41-2.23L253,111.52c-1-1-2-1.63-2.25-1.4l-.56.55c-.23.23.4,1.23,1.41,2.22Z"/><path class="o" d="M265.33,122.29c1,1,2,1.62,2.25,1.39l.56-.55c.23-.23-.4-1.22-1.41-2.23l-11.6-11.45c-1-1-2-1.63-2.24-1.4l-.56.55c-.23.23.4,1.23,1.41,2.23Z"/><path class="c" d="M252.17,116.08A4,4,0,0,1,250,109.7a16.4,16.4,0,0,1,4.24-3.35c5.45-3.23,7.87-1.79,7.87-1.79a7.26,7.26,0,0,1,2.88,9.55c-2.49,5.67-9.36,3.11-10.89,2.46a4,4,0,0,0-.69-.23Z"/><path class="b" d="M331.05,43.69c14.67,1.74,27.22,5.72,33.85,10.22.46-6.17,1.45-26.81-4.79-34.74-7.37-9.36-12.43-13-24.08-15.85,0,0-19.69-2.34-29.1,9.52-8.34,10.52-12,30.44-12.74,34.58C301.27,44,315.16,41.79,331.05,43.69Z"/><rect class="j" x="328.55" y="-0.13" width="4.96" height="40.65" rx="2.48" transform="translate(4.71 -39.01) rotate(6.79)"/><rect class="k" x="329.28" y="1.39" width="3.47" height="37.9" rx="1.74" transform="translate(4.73 -39) rotate(6.79)"/><rect class="j" x="317.62" y="1.54" width="4.96" height="32.23" rx="2.48" transform="translate(4.33 -37.73) rotate(6.79)"/><rect class="k" x="318.35" y="2.74" width="3.47" height="30.04" rx="1.74" transform="translate(4.35 -37.73) rotate(6.79)"/><rect class="j" x="340.48" y="4.26" width="4.96" height="32.23" rx="2.48" transform="translate(4.82 -40.42) rotate(6.79)"/><rect class="k" x="341.21" y="5.47" width="3.47" height="30.04" rx="1.74" transform="translate(4.83 -40.41) rotate(6.79)"/><path class="l" d="M297.75,45a52,52,0,0,1,8.64-1.67C305.06,33.09,309,20.58,309,20.58,305.84,22.25,300.8,35.93,297.75,45Z"/><path class="l" d="M354,48.76a57,57,0,0,1,7.88,3.36c-.85-9.53-2.52-23.53-5.16-25.86C356.75,26.26,357.63,39.13,354,48.76Z"/><path class="f" d="M363.59,48.43c-3.87-2.6-17.22-5.18-33.2-6.19-15.35-1-28.46-.22-33.17,1.69h0s-4.86,1.59-4.59,4.56a2.38,2.38,0,0,0,2.4,2.12c.2-3,15.88-4.53,35-3.32S364.59,52,364.4,55A3,3,0,0,0,366,51,5.15,5.15,0,0,0,363.59,48.43Z"/><path class="e" d="M363.59,48.43a17.33,17.33,0,0,0-3.87-1.56c-1.34-.42-2.7-.73-4.07-1s-2.74-.56-4.12-.8-2.76-.45-4.15-.64c-2.77-.37-5.55-.72-8.34-1s-5.58-.5-8.38-.67l-4.2-.22c-1.4-.09-2.8-.13-4.2-.17s-2.8-.1-4.2-.09-2.8,0-4.2,0l-4.2.09c-1.39.09-2.79.15-4.18.26l-2.09.22a17.74,17.74,0,0,0-2.07.26c-.69.12-1.38.21-2.06.36l-2,.56h0l-.62.23a4.59,4.59,0,0,0-.6.27l-1.2.58,1.16-.66a5.54,5.54,0,0,1,.59-.32l.62-.26h0l2-.67c.68-.18,1.38-.3,2.06-.46,1.38-.34,2.78-.44,4.18-.66s2.8-.25,4.2-.38l4.22-.22c1.41-.05,2.81,0,4.22-.05s2.82,0,4.23,0,2.82,0,4.22.13,2.8.11,4.21.21q4.21.3,8.41.75c1.4.16,2.8.32,4.19.51s2.79.42,4.18.64,2.77.5,4.15.77,2.75.59,4.11.94,2.72.75,4,1.23A15.71,15.71,0,0,1,363.59,48.43Z"/><path class="e" d="M295,50.61a1.33,1.33,0,0,1,.29-.68,4.67,4.67,0,0,1,1.82-1.14,32.12,32.12,0,0,1,7.58-1.63,104.73,104.73,0,0,1,10.95-.7c4-.06,8.3,0,12.58.24,2.13.12,4.27.33,6.36.49s4.17.42,6.16.64,3.92.49,5.73.83,3.53.6,5.1,1,3,.68,4.26,1,2.34.72,3.23,1a21.71,21.71,0,0,1,2,.8l.7.29-.72-.25c-.48-.14-1.16-.43-2.06-.66s-2-.58-3.26-.81-2.7-.58-4.28-.83-3.28-.54-5.1-.79-3.74-.43-5.71-.69-4-.41-6.14-.58-4.22-.32-6.35-.42c-4.25-.25-8.52-.38-12.51-.37s-7.72.11-10.9.4A35.8,35.8,0,0,0,297.21,49a4.7,4.7,0,0,0-1.85,1A1.23,1.23,0,0,0,295,50.61Z"/></svg>