<svg xmlns="http://www.w3.org/2000/svg" width="400" height="419" viewBox="0 0 400.2 419.4"><style type="text/css">
	.st0{fill:#85CCD3;}
	.st1{opacity:0.2;fill:#FFFFFF;}
	.st2{fill:#38A9B4;}
	.st3{fill:#FFFFFF;}
	.st4{fill:#FFBF10;}
	.st5{fill:#FF9C00;}
	.st6{fill:#226C70;}
	.st7{fill:#163056;}
	.st8{fill:#EFEFEF;}
	.st9{opacity:0.15;}
	.st10{fill:#CCCCCC;}
	.st11{fill:#4AB8A1;}
	.st12{fill:#E16B5A;}
	.st13{fill:#FFD464;}
	.st14{fill:#20D3A8;}
	.st15{opacity:0.15;fill:#020202;}
	.st16{fill:#E74C3C;}
	.st17{fill:#CE1B13;}
	.st18{fill:#F4F3E1;}
	.st19{fill:#FF3000;}
	.st20{fill:#BC0B00;}
	.st21{fill:#FFA529;}
	.st22{fill:#F57B00;}
	.st23{fill:#1D1E1C;}
	.st24{fill:#F4B459;}
	.st25{fill:#EBEBEB;}
	.st26{fill:#E4E7E7;}
	.st27{fill:#485760;}
	.st28{fill:#818587;}
	.st29{opacity:0.2;fill:#1D1E1C;}
</style><title>  API platform bordel2</title><circle class="st0" cx="192.2" cy="239.4" r="156.2"/><path class="st1" d="M326 188.7c29.7 73.1-5.5 156.5-78.6 186.2 -73.1 29.7-156.5-5.5-186.2-78.6"/><path class="st2" d="M335.1 352.1c-11.4 0-31.9-9.6-49-18.8 -30.9-16.7-69.3-42.2-108.3-71.9 -39-29.7-73.8-60-98.1-85.3 -17.5-18.2-36.9-41.7-30.5-50.1 3.6-4.7 14-3.4 31.1 3.7 0.6 0.2 0.9 0.9 0.6 1.5 -0.2 0.6-0.9 0.9-1.5 0.6 -21-8.8-26.8-6.6-28.4-4.5 -4.1 5.4 7.2 23 30.3 47.1 24.2 25.2 58.9 55.4 97.8 85.1 38.9 29.6 77.2 55.1 108 71.7 29.4 15.9 49.4 22.1 53.5 16.7 1.9-2.5 0.9-9.5-14.6-28.8 -0.4-0.5-0.3-1.2 0.2-1.6 0.5-0.4 1.2-0.3 1.6 0.2 13.6 16.8 18.3 26.9 14.7 31.6C341.1 351.3 338.5 352.1 335.1 352.1z"/><path class="st2" d="M293.6 276.6c-31.1 0-67.5-2.1-103.3-5.9 -48.7-5.2-94.2-13-128.1-22.1 -24.4-6.5-53.2-16.5-52.1-27.1 0.6-5.9 10.2-10.2 28.6-12.9 0.6-0.1 1.2 0.3 1.3 1 0.1 0.6-0.3 1.2-1 1.3 -22.5 3.4-26.3 8.3-26.6 10.9 -0.7 6.8 18.1 16 50.4 24.6 33.8 9 79.1 16.9 127.7 22 108.3 11.5 182.5 5.1 183.9-8.1 0.4-3.4-3.5-9.4-25.7-17.4 -0.6-0.2-0.9-0.9-0.7-1.5 0.2-0.6 0.9-0.9 1.5-0.7 14.5 5.2 28 12.4 27.2 19.8C375.6 271.8 340.8 276.6 293.6 276.6z"/><path class="st2" d="M43.6 285.3c-0.2 0-0.4-0.1-0.6-0.2 -20.6-13.4-31.5-29.2-31.5-45.7 0-16 10.4-31.5 30.1-44.7 33.5-22.5 89.7-36 150.4-36 61.3 0 117.9 13.7 151.3 36.6 19.1 13.1 29.1 28.3 29.1 44.1 0 15.5-8.4 27.9-28 41.4 -0.5 0.3-1.2 0.2-1.6-0.3 -0.3-0.5-0.2-1.2 0.3-1.6 19-13 27.1-24.8 27.1-39.5 0-15-9.7-29.6-28.1-42.3 -33.1-22.7-89.2-36.3-150.1-36.3 -60.2 0-116 13.3-149.1 35.6 -19 12.8-29.1 27.6-29.1 42.9 0 15.7 10.5 30.8 30.5 43.8 0.5 0.3 0.7 1 0.3 1.5C44.4 285.1 44 285.3 43.6 285.3z"/><path class="st2" d="M243.9 410.5c-16.9 0-36.8-9.4-57.7-27.7 -28-24.5-54.6-62-74.8-105.6 -20.2-43.6-31.7-88.1-32.3-125.3 -0.6-37.5 9.9-63.2 29.6-72.4 13.7-6.4 30.9-4.1 49.8 6.5 0.5 0.3 0.7 1 0.4 1.5 -0.3 0.5-1 0.7-1.5 0.4 -18.3-10.2-34.8-12.4-47.8-6.4 -39.3 18.2-37.6 105.6 3.7 194.7 41.3 89.1 106.9 146.9 146.2 128.6 14.6-6.8 22.6-19.4 26.1-41 0.1-0.6 0.7-1 1.3-0.9 0.6 0.1 1 0.7 0.9 1.3 -3.6 22.4-12 35.6-27.3 42.7C255.5 409.3 249.8 410.5 243.9 410.5z"/><circle class="st3" cx="42.4" cy="196" r="31.5"/><path class="st2" d="M42.4 229.7c-18.6 0-33.7-15.1-33.7-33.7s15.1-33.7 33.7-33.7c18.6 0 33.7 15.1 33.7 33.7S61 229.7 42.4 229.7zM42.4 166.6C26.2 166.6 13 179.8 13 196s13.2 29.4 29.4 29.4 29.4-13.2 29.4-29.4S58.7 166.6 42.4 166.6z"/><ellipse transform="matrix(0.469 -0.8832 0.8832 0.469 -133.1441 277.0089)" class="st4" cx="163.8" cy="249.2" rx="4.2" ry="4.2"/><ellipse transform="matrix(0.469 -0.8832 0.8832 0.469 6.6583 368.4938)" class="st4" cx="309.8" cy="178.7" rx="4.2" ry="4.2"/><ellipse transform="matrix(0.469 -0.8832 0.8832 0.469 -84.9552 190.4202)" class="st5" cx="115.9" cy="165.9" rx="4.2" ry="4.2"/><ellipse transform="matrix(0.4689 -0.8832 0.8832 0.4689 -181.6712 196.8577)" class="st4" cx="72.9" cy="249.5" rx="4.2" ry="4.2"/><ellipse transform="matrix(0.4689 -0.8832 0.8832 0.4689 -81.0456 415.9604)" class="st5" cx="305.4" cy="275.4" rx="4.2" ry="4.2"/><circle class="st3" cx="132.2" cy="215.4" r="31.5"/><path class="st2" d="M132.2 249.1c-18.6 0-33.7-15.1-33.7-33.7s15.1-33.7 33.7-33.7c18.6 0 33.7 15.1 33.7 33.7S150.8 249.1 132.2 249.1zM132.2 186c-16.2 0-29.4 13.2-29.4 29.4s13.2 29.4 29.4 29.4 29.4-13.2 29.4-29.4S148.5 186 132.2 186z"/><circle class="st3" cx="357.9" cy="216" r="31.5"/><path class="st2" d="M357.9 249.7c-18.6 0-33.7-15.1-33.7-33.7s15.1-33.7 33.7-33.7 33.7 15.1 33.7 33.7S376.5 249.7 357.9 249.7zM357.9 186.6c-16.2 0-29.4 13.2-29.4 29.4s13.2 29.4 29.4 29.4c16.2 0 29.4-13.2 29.4-29.4S374.1 186.6 357.9 186.6z"/><circle class="st3" cx="223.3" cy="271.8" r="31.5"/><path class="st2" d="M223.3 305.5c-18.6 0-33.7-15.1-33.7-33.7s15.1-33.7 33.7-33.7c18.6 0 33.7 15.1 33.7 33.7S241.8 305.5 223.3 305.5zM223.3 242.4c-16.2 0-29.4 13.2-29.4 29.4 0 16.2 13.2 29.4 29.4 29.4s29.4-13.2 29.4-29.4C252.7 255.6 239.5 242.4 223.3 242.4z"/><circle class="st3" cx="282.1" cy="331.9" r="31.5"/><path class="st2" d="M282.1 365.6c-18.6 0-33.7-15.1-33.7-33.7s15.1-33.7 33.7-33.7c18.6 0 33.7 15.1 33.7 33.7S300.6 365.6 282.1 365.6zM282.1 302.5c-16.2 0-29.4 13.2-29.4 29.4 0 16.2 13.2 29.4 29.4 29.4s29.4-13.2 29.4-29.4C311.5 315.7 298.3 302.5 282.1 302.5z"/><polygon class="st6" points="275.4 343.2 285.5 345.3 286.3 353.1 271.5 350 "/><line class="st6" x1="286.2" y1="349.4" x2="286" y2="345.4"/><path class="st2" d="M299.4 351l-39.4-8.4c-1.1-0.2-1.8-1.3-1.5-2.3l5.4-25c0.2-1.1 1.3-1.8 2.3-1.5l39.4 8.4c1.1 0.2 1.8 1.3 1.5 2.3l-5.4 25C301.5 350.5 300.4 351.2 299.4 351z"/><path class="st7" d="M302 347.9l5-23.5c0.2-1.1-0.4-2.1-1.5-2.3l-39.4-8.4c-1.1-0.2-2.1 0.4-2.3 1.5l-5 23.5L302 347.9z"/><rect x="271.8" y="311.3" transform="matrix(0.2094 -0.9778 0.9778 0.2094 -99.8662 537.9644)" class="st8" width="21.9" height="38.9"/><ellipse transform="matrix(0.2094 -0.9778 0.9778 0.2094 -115.8641 546.9259)" cx="280.3" cy="345.1" rx="1.2" ry="1.2"/><path class="st2" d="M288.6 354.3l-19.1-4.1c-0.5-0.1-0.8-0.6-0.7-1l0-0.1c0.1-0.5 0.6-0.8 1-0.7l19.1 4.1c0.5 0.1 0.8 0.6 0.7 1l0 0.1C289.5 354.1 289.1 354.4 288.6 354.3z"/><path class="st9" d="M306.6 322.7c-0.3-0.3-0.6-0.5-1-0.6l-19.4-4.2 -7.3 34.3 9.8 2.1c0.5 0.1 1-0.2 1.1-0.7s-0.2-1-0.7-1.1l-2.8-0.6 -0.4-3.9 13.6 2.9c1.1 0.2 2.1-0.5 2.3-1.5l0.3-1.6 5-23.5C307.2 323.8 307 323.1 306.6 322.7z"/><circle class="st3" cx="43.6" cy="285.8" r="31.5"/><path class="st2" d="M43.6 319.5c-18.6 0-33.7-15.1-33.7-33.7s15.1-33.7 33.7-33.7c18.6 0 33.7 15.1 33.7 33.7S62.1 319.5 43.6 319.5zM43.6 256.4c-16.2 0-29.4 13.2-29.4 29.4 0 16.2 13.2 29.4 29.4 29.4S73 302 73 285.8C73 269.6 59.8 256.4 43.6 256.4z"/><rect x="26.3" y="298.6" transform="matrix(0.2475 -0.9689 0.9689 0.2475 -271.4765 254.3473)" class="st7" width="3.4" height="6.8"/><rect x="47.4" y="303.9" transform="matrix(0.2475 -0.9689 0.9689 0.2475 -260.8378 278.8041)" class="st7" width="3.4" height="6.8"/><path class="st2" d="M25.4 299.3c-2.1-0.5-3.3-2.6-2.8-4.7l6.5-25.3c0.5-2.1 2.6-3.3 4.7-2.8l27.6 7.1c2.1 0.5 3.3 2.6 2.8 4.7l-6.5 25.3c-0.5 2.1-2.6 3.3-4.7 2.8L25.4 299.3zM25.4 299.3"/><rect x="44.4" y="262.7" transform="matrix(0.2475 -0.9689 0.9689 0.2475 -238.3214 254.7902)" class="st3" width="1" height="36.2"/><rect x="41.5" y="273.9" transform="matrix(0.2475 -0.9689 0.9689 0.2475 -251.3649 260.4641)" class="st3" width="1" height="36.2"/><rect x="61.5" y="284.7" transform="matrix(0.2475 -0.9689 0.9689 0.2475 -229.6924 274.6271)" class="st10" width="1" height="1"/><rect x="58.6" y="295.9" transform="matrix(0.2475 -0.9689 0.9689 0.2475 -242.7359 280.301)" class="st10" width="1" height="1"/><path class="st3" d="M35.8 272.5c-0.3 1.3-1.6 2.1-2.9 1.7 -1.3-0.3-2.1-1.6-1.7-2.9s1.6-2.1 2.9-1.7C35.3 269.9 36.1 271.2 35.8 272.5L35.8 272.5zM35.8 272.5"/><path class="st11" d="M34.8 272.3c-0.2 0.8-1 1.2-1.8 1 -0.8-0.2-1.2-1-1-1.8 0.2-0.8 1-1.2 1.8-1C34.6 270.7 35 271.5 34.8 272.3L34.8 272.3zM34.8 272.3"/><path class="st3" d="M32.9 283.7c-0.3 1.3-1.6 2.1-2.9 1.7 -1.3-0.3-2.1-1.6-1.7-2.9 0.3-1.3 1.6-2.1 2.9-1.7C32.4 281.1 33.2 282.4 32.9 283.7L32.9 283.7zM32.9 283.7"/><path class="st12" d="M32 283.5c-0.2 0.8-1 1.2-1.8 1 -0.8-0.2-1.2-1-1-1.8 0.2-0.8 1-1.2 1.8-1C31.7 281.9 32.2 282.7 32 283.5L32 283.5zM32 283.5"/><path class="st3" d="M30 295c-0.3 1.3-1.6 2.1-2.9 1.7 -1.3-0.3-2.1-1.6-1.7-2.9 0.3-1.3 1.6-2.1 2.9-1.7C29.6 292.4 30.4 293.7 30 295L30 295zM30 295"/><path class="st13" d="M29.1 294.7c-0.2 0.8-1 1.2-1.8 1 -0.8-0.2-1.2-1-1-1.8 0.2-0.8 1-1.2 1.8-1C28.8 293.2 29.3 294 29.1 294.7L29.1 294.7zM29.1 294.7"/><path class="st14" d="M52.6 276.8c-0.1 0.5-0.7 0.8-1.2 0.7 -0.5-0.1-0.8-0.7-0.7-1.2 0.1-0.5 0.7-0.8 1.2-0.7C52.4 275.8 52.7 276.3 52.6 276.8L52.6 276.8zM52.6 276.8"/><path class="st14" d="M56.8 277.9c-0.1 0.5-0.7 0.8-1.2 0.7 -0.5-0.1-0.8-0.7-0.7-1.2 0.1-0.5 0.7-0.8 1.2-0.7C56.6 276.8 57 277.4 56.8 277.9L56.8 277.9zM56.8 277.9"/><path class="st14" d="M61 279c-0.1 0.5-0.7 0.8-1.2 0.7 -0.5-0.1-0.8-0.7-0.7-1.2 0.1-0.5 0.7-0.8 1.2-0.7C60.9 277.9 61.2 278.4 61 279L61 279zM61 279"/><path class="st12" d="M49.7 288c-0.1 0.5-0.7 0.8-1.2 0.7 -0.5-0.1-0.8-0.7-0.7-1.2 0.1-0.5 0.7-0.8 1.2-0.7C49.6 287 49.9 287.5 49.7 288L49.7 288zM49.7 288"/><path class="st12" d="M54 289.1c-0.1 0.5-0.7 0.8-1.2 0.7 -0.5-0.1-0.8-0.7-0.7-1.2 0.1-0.5 0.7-0.8 1.2-0.7C53.8 288.1 54.1 288.6 54 289.1L54 289.1zM54 289.1"/><path class="st12" d="M58.2 290.2c-0.1 0.5-0.7 0.8-1.2 0.7 -0.5-0.1-0.8-0.7-0.7-1.2 0.1-0.5 0.7-0.8 1.2-0.7C58 289.2 58.3 289.7 58.2 290.2L58.2 290.2zM58.2 290.2"/><path class="st13" d="M46.9 299.3c-0.1 0.5-0.7 0.8-1.2 0.7 -0.5-0.1-0.8-0.7-0.7-1.2 0.1-0.5 0.7-0.8 1.2-0.7C46.7 298.2 47 298.8 46.9 299.3L46.9 299.3zM46.9 299.3"/><path class="st13" d="M51.1 300.4c-0.1 0.5-0.7 0.8-1.2 0.7 -0.5-0.1-0.8-0.7-0.7-1.2 0.1-0.5 0.7-0.8 1.2-0.7C50.9 299.3 51.2 299.8 51.1 300.4L51.1 300.4zM51.1 300.4"/><path class="st13" d="M55.3 301.4c-0.1 0.5-0.7 0.8-1.2 0.7 -0.5-0.1-0.8-0.7-0.7-1.2 0.1-0.5 0.7-0.8 1.2-0.7C55.1 300.4 55.4 300.9 55.3 301.4L55.3 301.4zM55.3 301.4"/><rect x="47.4" y="303.9" transform="matrix(0.2475 -0.9689 0.9689 0.2475 -260.8378 278.8041)" class="st9" width="3.4" height="6.8"/><path class="st15" d="M59.7 296l2.6-10.3 0.2-0.9 1.6-6.6c0.5-2.1-0.8-4.2-2.8-4.7l-13.5-3.3 -8.4 32.8 13.7 3.4c2.1 0.5 4.2-0.8 4.7-2.8l1.6-6.6L59.7 296z"/><circle class="st3" cx="151.6" cy="344.7" r="31.5"/><path class="st2" d="M151.6 378.4c-18.6 0-33.7-15.1-33.7-33.7S133 311 151.6 311c18.6 0 33.7 15.1 33.7 33.7S170.2 378.4 151.6 378.4zM151.6 315.3c-16.2 0-29.4 13.2-29.4 29.4s13.2 29.4 29.4 29.4 29.4-13.2 29.4-29.4S167.8 315.3 151.6 315.3z"/><rect x="208.1" y="265.7" transform="matrix(0.993 -0.1185 0.1185 0.993 -31.2876 28.5057)" class="st2" width="32.1" height="23.5"/><path class="st16" d="M201.9 270.9l18.8-23.9 23.9 18.8L201.9 270.9zM201.9 270.9"/><path class="st17" d=""/><rect x="221.7" y="277.3" transform="matrix(0.993 -0.1185 0.1185 0.993 -31.9781 28.6353)" class="st3" width="6.4" height="11.9"/><rect x="211.3" y="273.6" transform="matrix(0.993 -0.1185 0.1185 0.993 -31.2818 27.3591)" class="st3" width="6.5" height="6.5"/><rect x="230.1" y="271.3" transform="matrix(0.993 -0.1185 0.1185 0.993 -30.8823 29.5782)" class="st3" width="6.5" height="6.5"/><path class="st9" d="M240.6 280.2l-1.6-13.8 5.7-0.7 -23.9-18.8 -0.4 0.5 5 41.8 3.4-0.4 0-0.1 8.1-1 0 0 3.3-0.4 0 0 1.3-0.2 -0.3-2.3M241 283.6l-0.3-2.1"/><path class="st2" d="M139.8 237.1c-0.4 1.2-1.6 1.8-2.7 1.4l-23.1-7.2c-1.2-0.4-1.8-1.6-1.4-2.7l11.3-36.3c0.4-1.2 1.6-1.8 2.7-1.4l23.1 7.2c1.2 0.4 1.8 1.6 1.4 2.7L139.8 237.1zM139.8 237.1"/><rect x="116.3" y="201.6" transform="matrix(0.2979 -0.9546 0.9546 0.2979 -110.2235 275.7828)" class="st18" width="32.2" height="22.3"/><rect x="137.1" y="192.2" transform="matrix(0.2979 -0.9546 0.9546 0.2979 -90.6048 269.004)" class="st19" width="0.9" height="7.9"/><rect x="139" y="194.7" transform="matrix(0.2979 -0.9546 0.9546 0.2979 -89.8424 271.2175)" class="st20" width="0.9" height="4"/><path class="st21" d="M128.6 232c-0.4 1.1-1.6 1.8-2.7 1.4 -1.1-0.4-1.8-1.6-1.4-2.7 0.4-1.1 1.6-1.8 2.7-1.4C128.4 229.6 129 230.8 128.6 232L128.6 232zM128.6 232"/><path class="st22" d="M127.3 229.3C127.3 229.3 127.2 229.3 127.3 229.3l-1.3 4.1c0 0 0 0 0 0 1.1 0.4 2.3-0.3 2.7-1.4C129 230.9 128.4 229.7 127.3 229.3L127.3 229.3zM127.3 229.3"/><path class="st2" d="M133.8 336.5l30.3-6.4c1.9-0.4 3.8 0.8 4.2 2.8l4.4 21c0.4 1.9-0.8 3.8-2.8 4.2l-30.3 6.4c-1.9 0.4-3.8-0.8-4.2-2.8l-4.4-21C130.7 338.8 131.9 336.9 133.8 336.5L133.8 336.5zM133.8 336.5"/><path class="st23" d="M162.1 337.8l2.3-0.5c0.6-0.1 1.1-0.8 0.9-1.4 -0.1-0.6-0.8-1.1-1.4-0.9l-2.3 0.5c-0.6 0.1-1.1 0.8-0.9 1.4C160.8 337.5 161.4 337.9 162.1 337.8L162.1 337.8zM164.6 338.5l-2.3 0.5c-0.6 0.1-1.1 0.8-0.9 1.4 0.1 0.6 0.8 1.1 1.4 0.9l2.3-0.5c0.6-0.1 1.1-0.8 0.9-1.4C165.9 338.7 165.3 338.3 164.6 338.5L164.6 338.5zM165.4 342l-2.3 0.5c-0.6 0.1-1.1 0.8-0.9 1.4 0.1 0.6 0.8 1.1 1.4 0.9l2.3-0.5c0.6-0.1 1.1-0.8 0.9-1.4C166.7 342.2 166 341.8 165.4 342L165.4 342zM165.4 342"/><path class="st24" d="M166 350.4c1.3-0.3 2.6 0.5 2.8 1.8 0.3 1.3-0.5 2.6-1.8 2.8 -1.3 0.3-2.6-0.5-2.8-1.8C163.9 351.9 164.7 350.6 166 350.4L166 350.4zM166 350.4"/><path class="st25" d="M136.9 339.6l17.5-3.8c1.3-0.3 2.6 0.5 2.8 1.8l3.5 16.3c0.3 1.3-0.5 2.6-1.8 2.8l-17.5 3.8c-1.3 0.3-2.6-0.5-2.8-1.8l-3.5-16.3C134.8 341.1 135.6 339.9 136.9 339.6L136.9 339.6zM136.9 339.6"/><path class="st7" d="M149.2 323.5c-0.6 0.1-1.1 0.8-0.9 1.4 0 0.1 0.1 0.2 0.1 0.2l-4.1 6.4 -6.4-4.1c0-0.1 0-0.2 0-0.2 -0.1-0.6-0.8-1.1-1.4-0.9 -0.6 0.1-1.1 0.8-0.9 1.4 0.1 0.6 0.8 1.1 1.4 0.9 0.1 0 0.2-0.1 0.2-0.1l7.1 4.6 0.2-0.3 0.3 0.2 4.6-7.1c0.1 0 0.2 0 0.2 0 0.6-0.1 1.1-0.8 0.9-1.4C150.5 323.8 149.9 323.4 149.2 323.5L149.2 323.5zM149.2 323.5"/><path class="st7" d="M147.3 331.3l-5.8 1.3c-1.3 0.3-2.1 1.5-1.8 2.8 0 0 10.5-2.3 10.5-2.2C149.8 331.8 148.5 331 147.3 331.3L147.3 331.3zM147.3 331.3"/><path class="st9" d="M149.7 198.1l-11.6-3.6 -12.6 40.5 11.6 3.6c1.2 0.4 2.4-0.3 2.7-1.4l11.3-36.3C151.5 199.7 150.8 198.4 149.7 198.1z"/><g class="st9"><path d="M164.1 330.1l-14 3c-0.1-0.3-0.2-0.6-0.4-0.9l0.2 0.9c0 0 0.1 0 0.1 0l-0.1 0 6 27.9 14.1-3c1.9-0.4 3.2-2.3 2.8-4.2l-4.4-21C167.9 330.9 166 329.7 164.1 330.1z"/><path d="M148.2 325.5l0.4 1.8 0.9-1.4c0.1 0 0.2 0 0.2 0 0.6-0.1 1.1-0.8 0.9-1.4 -0.1-0.6-0.8-1.1-1.4-0.9 -0.6 0.1-1.1 0.8-0.9 1.4 0 0.1 0.1 0.2 0.1 0.2L148.2 325.5z"/></g><rect x="337.1" y="208.1" transform="matrix(0.5344 -0.8452 0.8452 0.5344 -15.7826 403.4439)" class="st2" width="42.4" height="15.9"/><path class="st26" d="M366.1 203.7c6.8 4.3 8.8 13.3 4.5 20.1 -4.3 6.8-13.3 8.8-20.1 4.5 -6.8-4.3-8.8-13.3-4.5-20.1C350.3 201.5 359.3 199.4 366.1 203.7L366.1 203.7zM366.1 203.7"/><path class="st23" d="M363.5 217.8l-3.4-2.1 2.1-3.4c0.4-0.6 0.2-1.4-0.4-1.8 -0.6-0.4-1.4-0.2-1.8 0.4l-2.8 4.5c-0.4 0.6-0.2 1.4 0.4 1.8l4.5 2.8c0.6 0.4 1.4 0.2 1.8-0.4C364.3 219 364.1 218.2 363.5 217.8L363.5 217.8zM363.5 217.8"/><path class="st5" d="M366.1 203.7c-6.8-4.3-15.8-2.3-20.1 4.5 -4.3 6.8-2.3 15.8 4.5 20.1 6.8 4.3 15.8 2.3 20.1-4.5C374.9 217 372.9 208 366.1 203.7L366.1 203.7zM352.3 225.6c-5.2-3.3-6.8-10.3-3.5-15.5s10.3-6.8 15.5-3.5 6.8 10.3 3.5 15.5C364.5 227.3 357.6 228.9 352.3 225.6L352.3 225.6zM352.3 225.6"/><g class="st9"><path d="M371.6 210l4.8-7.6 -6.7-4.2L347 234l6.7 4.2 4.8-7.6c4.8-0.1 9.4-2.5 12.1-6.8C373.4 219.5 373.5 214.3 371.6 210z"/></g><path class="st5" d="M28.3 197.9c0 0-4.1-9.5 5.8-16.5s17.4-0.3 17.4-0.3 4.3-1.9 7.2 0.4c3 2.3 2.9 3.3 2.9 3.3l-37 26.8C24.6 211.6 20.7 203.4 28.3 197.9z"/><path class="st0" d="M63.8 187.1L26.5 214c-0.7 0.5-1.7 0.3-2.2-0.4l-0.1-0.1c-0.5-0.7-0.3-1.7 0.4-2.2l37.3-26.9c0.7-0.5 1.7-0.3 2.2 0.4l0.1 0.1C64.7 185.6 64.5 186.6 63.8 187.1z"/><ellipse transform="matrix(0.8105 -0.5858 0.5858 0.8105 -114.6332 59.6447)" class="st27" cx="34.9" cy="207" rx="4.8" ry="4.8"/><ellipse transform="matrix(0.8105 -0.5858 0.5858 0.8105 -102.5046 68.5254)" class="st27" cx="54.6" cy="192.7" rx="4.8" ry="4.8"/><ellipse transform="matrix(0.8105 -0.5858 0.5858 0.8105 -114.6332 59.6447)" class="st28" cx="34.9" cy="207" rx="2.1" ry="2.1"/><ellipse transform="matrix(0.8105 -0.5858 0.5858 0.8105 -102.5046 68.5254)" class="st28" cx="54.6" cy="192.7" rx="2.1" ry="2.1"/><ellipse transform="matrix(0.8105 -0.5858 0.5858 0.8105 -116.4115 53.0143)" class="st16" cx="23.7" cy="206.4" rx="2.3" ry="2.3"/><path class="st16" d="M43.6 191.5l-1.9 1.4c-0.4 0.3-1 0.2-1.3-0.2l0-0.1c-0.3-0.4-0.2-1 0.2-1.3l1.9-1.4c0.4-0.3 1-0.2 1.3 0.2l0 0.1C44.1 190.7 44 191.2 43.6 191.5z"/><path class="st0" d="M30.8 195.1c0 0-1.3-7.4 4.7-11.7 5.9-4.3 12.6-0.8 12.6-0.8l-0.5 1.2L32.1 195 30.8 195.1z"/><path class="st15" d="M61.9 184.5l-0.3 0.2c-0.1-0.3-0.5-1.3-2.9-3.2 -3-2.3-7.2-0.4-7.2-0.4s-7.6-6.7-17.4 0.3c-0.2 0.1-0.4 0.3-0.6 0.5l12.9 17.9 4.9-3.6c1.7 1.6 4.3 1.8 6.2 0.4 1.9-1.4 2.5-4 1.5-6l4.8-3.4c0.7-0.5 0.9-1.5 0.4-2.3l0 0C63.6 184.2 62.6 184 61.9 184.5z"/><ellipse transform="matrix(0.4689 -0.8832 0.8832 0.4689 -192.2468 256.5134)" class="st5" cx="117.2" cy="288.1" rx="4.2" ry="4.2"/><ellipse transform="matrix(0.4689 -0.8832 0.8832 0.4689 -223.5114 442.4884)" class="st5" cx="256.2" cy="407.1" rx="4.2" ry="4.2"/><ellipse transform="matrix(0.2589 -0.9659 0.9659 0.2589 -42.7556 245.5936)" class="st29" cx="138.7" cy="150.7" rx="4.1" ry="15.3"/><polygon class="st23" points="176.6 117.7 173.1 116.7 170.8 31.8 197.7 52.1 194.9 53.8 173.3 38.9 "/><polygon class="st23" points="158.2 139.2 155.2 144.3 152.2 27.6 197.8 62.7 194.1 64.4 155.5 34.2 "/><polygon class="st23" points="191.6 164.9 162 67.2 205.8 83.8 206.2 87.4 168.1 73.3 196.3 166.1 "/><polyline class="st23" points="231.1 62.9 218.3 114.3 214.5 112.8 227.1 58.2 "/><path class="st23" d="M214.4 112.2c0 0-2.3-8.9-8.3-5.3 -6.1 3.7-5.1 11.2-5.1 11.2s1 2.5 6.2 4.2c5.2 1.7 6.5 1.8 8 0.4 1.4-1.4 3.3-8.8 3.3-8.8L214.4 112.2z"/><path class="st23" d="M155.4 143.7c0.8 2.4-6.3-13.3-14.1-9.3 -9.6 4.8-7.6 15.5-7.6 15.5s1.9 3 10.5 5.3c11.2 3 11.1-0.2 12.7-2.8 2.6-4.5 1.2-15.7 1.2-15.7L155.4 143.7z"/><path class="st23" d="M173.5 115.1c0 0-0.1-7.7-6.4-4.5 -3.8 1.9-4.8 5.2-5.1 7.5 -0.2 1.9 0.7 3.7 2.4 4.6 1 0.6 2.5 1.3 4.6 1.7 7.5 1.7 7.1-0.9 7.4-2 1.8-6.2 0.5-10.7 0.5-10.7L173.5 115.1z"/><path class="st23" d="M191.7 164.4c0 0-3.5-13-13.2-8.3s-6.3 15.2-6.3 15.2 1.8 3.5 10.6 5.9c11.5 3.1 14-2.5 14-5.6 -0.1-10.9-3.3-6.8-3.1-7L191.7 164.4z"/><polygon class="st23" points="277.7 144.8 281.8 145.8 313.8 78 259.6 90.5 259 96.7 306.5 83.9 "/><polygon class="st23" points="270.2 167.9 272.6 172.5 306.8 125.7 256.3 96.8 251.3 100.8 299.6 126.9 "/><polygon class="st23" points="218 173.3 242 117 223.9 93.2 221.4 97.4 236.3 119.2 213.9 172.1 "/><polyline class="st23" points="256.8 73.9 242.7 122.9 246.2 125.4 262.5 71.8 "/><path class="st23" d="M246.5 125c0 0 5.8-6.7 9.2-0.5 3.4 6.2-1.1 12.3-1.1 12.3s-2.1 1.7-7.5 0.5c-5.3-1.2-6.5-1.8-7.1-3.7 -0.6-1.9 3.8-13.7 3.8-13.7L246.5 125z"/><path class="st23" d="M273.3 172c0 0 10-10.9 15.8-1.9 3.3 5 2.5 9.9 1.2 13.1 -1.2 2.9-4.2 4.8-7.3 4.6 -1.7-0.1-4-0.4-6.8-1.2 -11.2-3-9.9-7.1-9.9-10.2 0-5.2 4.2-9.2 4.2-9.2L273.3 172z"/><path class="st23" d="M282 144.8c0 0 6.3-8 10.2-2.1 2.2 3.4 1.7 6.6 0.8 8.7 -0.8 2-2.7 3.2-4.8 3.1 -1.1-0.1-2.6-0.3-4.5-0.8 -7.4-2-7.3-3.9-7.3-6 0-3.4 5.2-10.7 5.2-10.7L282 144.8z"/><path class="st23" d="M219.6 169.9c0 0 8.8-9.1 14.8-0.1 6.1 9-1 17.2-1 17.2s-3.3 2.1-12.1-0.3c-11.5-3.1-10.6-9-9.3-11.9 5.2-12.1 6.5-8.4 6.5-8.4L219.6 169.9z"/><path class="st2" d="M276.5 25.8c22.2 28.5 16.7 43.9-8.8 63.8 -20.1 15.7-45 15.4-63-7.7s-9-43.1 11.1-58.8S258.5 2.7 276.5 25.8z"/><path class="st23" d="M268.7 91.9c-10.6 8.3-22.3 12.1-33.7 11.1 -12.2-1.1-23.4-7.8-32.5-19.4 -16.9-21.6-13-43.1 11.3-62 24.6-19.2 47.3-18 63.9 3.3 9 11.5 16.2 24.7 14 37.1C289.7 73.4 279.2 83.7 268.7 91.9zM216.8 25.4c-22.4 17.5-26 36.1-10.9 55.6 16.1 20.6 39 23.4 59.8 7.1 26.5-20.6 28.7-34.9 8.6-60.6C255.5 3.4 232.6 13 216.8 25.4z"/><path class="st3" d="M220 43.8c2.4 17.2-3.5 31.9-13.7 33.3 -10.2 1.4-20.4-11.3-22.8-28.5s2.6-27.3 12.8-28.7C206.4 18.5 217.6 26.6 220 43.8z"/><path d="M195.5 18.4c-5.3 0.7-9.8 4.9-12.6 11.7 -2.8 6.7-2.4 10.4-1.2 19.1 1.2 8.8 4.4 16.7 9 22.4 4.6 5.7 10.1 8.5 15.4 7.8 2.3-0.3 4.3-1.2 6.2-2.7 7-5.4 10.6-18.2 8.6-32.7C218.2 25.7 206.1 16.9 195.5 18.4zM205.5 75.6c-9.5 1.3-19-10.7-21.3-26.8 -1.1-7.8-1.6-10.5 0.9-16.5 1.4-3.5 3.4-6.1 5.6-7.9 1.6-1.3 3.4-2 5.3-2.3 4.5-0.6 9.2 1.8 13.1 7 3.9 5.1 8 7.4 9.1 15.2C220.5 60.6 214.9 74.3 205.5 75.6z"/><ellipse transform="matrix(0.9124 -0.4093 0.4093 0.9124 -6.6825 85.3447)" class="st23" cx="196" cy="58.3" rx="6.5" ry="14"/><ellipse transform="matrix(0.9036 -0.4283 0.4283 0.9036 -7.5303 90.7024)" class="st3" cx="197.8" cy="62.1" rx="2.9" ry="3.9"/><path class="st3" d="M236.8 44.5c2 14.4-3.5 27.1-12.3 28.3C215.8 74.1 207 63.4 205 49s2.6-24 11.4-25.3C225.2 22.5 234.8 30.1 236.8 44.5z"/><path d="M215.6 22.1c-4.6 0.6-8.6 4.2-11.1 10 -2.5 5.8-2.5 10-1.4 17.4 1 7.5 3.8 14.2 7.8 19.1 4 4.9 8.8 7.2 13.4 6.6 2-0.3 3.9-1.1 5.5-2.4 6.2-4.8 9.5-15.9 7.8-28.1C235.5 29.2 225.1 20.8 215.6 22.1zM235 45.1c1.5 10.5-1.4 20-6.6 24.1 -1.4 1.1-2.9 1.8-4.6 2 -3.9 0.5-7.9-1.4-11.3-5.6 -3.4-4.2-5.8-10-6.7-16.5 -1.5-10.5 0.5-17 5.8-21.1 1.4-1.1 2.9-1.8 4.6-2 3.9-0.5 8.6 1 12 5.1C231.7 35.4 234.1 38.6 235 45.1z"/><ellipse transform="matrix(0.8911 -0.4537 0.4537 0.8911 -2.7011 104.4554)" class="st23" cx="216.3" cy="57.9" rx="5.9" ry="11.7"/><ellipse transform="matrix(0.9024 -0.4309 0.4309 0.9024 -4.7377 99.6079)" class="st3" cx="217.5" cy="60.3" rx="2.5" ry="3.3"/><ellipse transform="matrix(0.2589 -0.9659 0.9659 0.2589 -34.3206 300.3969)" class="st29" cx="178.6" cy="172.6" rx="5.4" ry="16.9"/><ellipse transform="matrix(0.2589 -0.9659 0.9659 0.2589 8.1744 250.0863)" class="st29" cx="167.1" cy="119.7" rx="4.5" ry="9.9"/><ellipse transform="matrix(0.2589 -0.9659 0.9659 0.2589 38.26 286.2777)" class="st29" cx="205.7" cy="118.2" rx="4.5" ry="11.1"/><ellipse transform="matrix(0.2589 -0.9659 0.9659 0.2589 32.7019 415.6569)" class="st29" cx="287.2" cy="186.5" rx="4.1" ry="15.3"/><ellipse transform="matrix(0.2589 -0.9659 0.9659 0.2589 -7.512 363.1092)" class="st29" cx="232.9" cy="186.4" rx="5.4" ry="16.9"/><ellipse transform="matrix(0.2589 -0.9659 0.9659 0.2589 68.7847 394.4237)" class="st29" cx="291.4" cy="152.4" rx="4.5" ry="9.9"/><ellipse transform="matrix(0.2589 -0.9659 0.9659 0.2589 57.8579 347.7821)" class="st29" cx="255.6" cy="136.2" rx="4.5" ry="11.1"/></svg>
