<svg version="1.1" id="Calque_1" xmlns="http://www.w3.org/2000/svg" xmlns:xlink="http://www.w3.org/1999/xlink" x="0px" y="0px"
	 width="371px" height="344px" viewBox="0 0 371 344" style="enable-background:new 0 0 371 344;" xml:space="preserve">
<style type="text/css">
	.st0{fill:#18495E;}
	.st1{fill:#1D1E1C;}
	.st2{fill:#38A9B4;}
	.st3{fill:#FFFFFF;}
	.st4{opacity:0.2;fill:#1D1E1C;}
	.st5{fill:#53C1DE;}
	.st6{opacity:0.2;fill:#FFFFFF;}
	.st7{opacity:0.15;}
	.st8{fill:#BA1C1C;}
	.st9{fill:#084966;}
	.st10{opacity:0.3;}
</style>
<g>
	<path class="st0" d="M106.3,254.6c-3.5,0.9-9-1.3-11.2-3.8c-2.4-2.8-3.4-5.9-3.6-10.6c-0.1-3.5,2.1-7.8,2.6-11.3
		c0.3-1.7,0.6-3.5,0.8-5.3c0.7-6.3,1.7-10.4-0.9-15.5c-0.1-0.1-0.1-0.2,0-0.3c0.1-0.2,0.3-0.3,0.5-0.4c0.2,0,0.5-0.1,0.6,0.2
		c2.2,4.4,1.4,7.4,1.3,12.2c-0.1,3-0.6,6-1,8.9c-0.9,5.3-3.8,10.7-2.2,16c1.3,4.2,5.6,7.4,9,8.6c1.4,0.5,2.8,0.6,4,0.3
		c1-0.3,1.8-0.8,2.4-1.6c0.8-1,0.8-2.4,0.1-3.4c-0.6-0.8-1.6-1.2-2.6-0.9c-0.1,0-0.1,0-0.2,0l0,0c-0.2,0.1-0.5,0.1-0.6-0.2
		c-0.1-0.2,0-0.6,0.5-0.7c0.1,0,0.1,0,0.2-0.1c1.8-0.5,3.8,0.5,4.4,2.2c0.7,1.9-0.6,3.7-2.1,4.7C107.6,254.1,107,254.4,106.3,254.6
		L106.3,254.6z"/>
</g>
<g>
	<g id="XMLID_807_">
		<polygon id="XMLID_818_" class="st1" points="146.9,332.3 143.8,332.3 128.9,259 158.8,275 157.3,277.7 132,264.1 		"/>
		<polygon id="XMLID_816_" class="st1" points="116.7,322.3 113.6,321.9 119.3,266.7 159.2,279.1 158.8,282.2 122,270.2 		"/>
		<polygon id="XMLID_814_" class="st1" points="161.6,323.9 151.6,293.7 165.8,290.3 166.5,293.3 155.6,295.9 164.6,322.9 		"/>
		<path id="XMLID_812_" class="st1" d="M161.9,323.6c0,0-3-5.1-7.5-1.8c-4.5,3.2-1.9,7.7-1.9,7.7s1.5,1.4,6.5,1.5
			c5,0.2,6.2,0,7.2-1.1c0.9-1.1-2.1-9.1-2.1-9.1L161.9,323.6z"/>
		<path id="XMLID_810_" class="st1" d="M113.8,321.4c0,0-4.7-7.1-11-2.6c-6.3,4.5-2.6,10.7-2.6,10.7s2.1,1.5,9.1,1.5
			c9.1,0,8.9-2.7,9.6-4.6c1.1-3.2-2.3-9-2.3-9L113.8,321.4z"/>
		<path id="XMLID_808_" class="st1" d="M144.6,331.9c0,0-6.3-8.9-12.6-4.4c-6.3,4.5-2.6,10.7-2.6,10.7s2.1,1.5,9.1,1.5
			c9.1,0,9.5-1.8,10.2-3.7c1.1-3.2-2.9-9.9-2.9-9.9L144.6,331.9z"/>
	</g>
	<g>
		<g id="XMLID_794_">
			<polygon id="XMLID_805_" class="st1" points="222.7,330.8 225.7,330.8 240.6,257.5 210.8,273.6 212.2,276.3 237.6,262.7 			"/>
			<polygon id="XMLID_803_" class="st1" points="252.9,320.8 256,320.4 250.3,265.3 210.3,277.7 210.8,280.7 247.6,268.8 			"/>
			<polygon id="XMLID_801_" class="st1" points="207.9,322.4 218,292.2 203.8,288.8 203,291.8 214,294.4 205,321.5 			"/>
			<path id="XMLID_799_" class="st1" d="M207.7,322.1c0,0,3-5.1,7.5-1.8c4.5,3.2,1.9,7.7,1.9,7.7s-1.5,1.4-6.5,1.5
				c-5,0.2-6.2,0-7.2-1.1c-0.9-1.1,2.1-9.1,2.1-9.1L207.7,322.1z"/>
			<path id="XMLID_797_" class="st1" d="M255.8,320c0,0,4.7-7.1,11-2.6c6.3,4.5,2.6,10.7,2.6,10.7s-2.1,1.5-9.1,1.5
				c-9.1,0-8.9-2.7-9.6-4.6c-1.1-3.2,2.3-9,2.3-9L255.8,320z"/>
			<path id="XMLID_795_" class="st1" d="M225,330.5c0,0,6.3-8.9,12.6-4.4c6.3,4.5,2.6,10.7,2.6,10.7s-2.1,1.5-9.1,1.5
				c-9.1,0-9.5-1.8-10.2-3.7c-1.1-3.2,2.9-9.9,2.9-9.9L225,330.5z"/>
		</g>
		<g id="XMLID_789_">
			<path id="XMLID_793_" class="st2" d="M215.3,259.3c5.4,16.7-5.1,29.8-21.6,35.2c-16.5,5.4-32,0.7-37.4-16s5.2-26.5,21.8-31.9
				C194.5,241.2,209.8,242.6,215.3,259.3z"/>
			<path id="XMLID_790_" class="st1" d="M194.6,297.6c-9.2,3-17.9,3.1-25.1,0.2c-7.7-3.1-13.4-9.4-16.2-18.2
				c-5.4-16.5,2.8-28.9,23.8-35.7c21.2-6.9,35.8-1.8,41.2,14.5c2.9,8.8,1.9,17.3-2.8,24.5C211.1,289.4,203.7,294.6,194.6,297.6z
				 M178,246.8c-19.3,6.3-26.7,17-21.8,31.8c5.1,15.8,19.5,21.9,37.5,16c18.2-5.9,26.7-19.8,21.7-35.3
				C209.3,240.9,191.7,242.3,178,246.8z"/>
		</g>
		<g id="XMLID_784_">
			<ellipse id="XMLID_788_" class="st3" cx="171.7" cy="249.2" rx="20.6" ry="21.3"/>
			<path id="XMLID_785_" class="st1" d="M171.3,271.6c-12,0-21.7-10.1-21.7-22.4c0-12.4,9.7-22.4,21.7-22.4
				c12,0,21.7,10.1,21.7,22.4C193,261.5,183.3,271.6,171.3,271.6z M171.3,228.9c-10.8,0-19.5,9.1-19.5,20.3
				c0,11.2,8.8,20.3,19.5,20.3c10.8,0,19.5-9.1,19.5-20.3C190.9,238,182.1,228.9,171.3,228.9z"/>
		</g>
		<g id="XMLID_779_">
			<ellipse id="XMLID_783_" class="st3" cx="202.5" cy="252.6" rx="17" ry="16.7"/>
			<path id="XMLID_780_" class="st1" d="M202.1,270.4c-10,0-18.1-8-18.1-17.8c0-9.8,8.1-17.8,18.1-17.8s18.1,8,18.1,17.8
				C220.2,262.4,212.1,270.4,202.1,270.4z M202.1,237c-8.8,0-15.9,7-15.9,15.6c0,8.6,7.1,15.6,15.9,15.6c8.8,0,15.9-7,15.9-15.6
				C218.1,244,210.9,237,202.1,237z"/>
		</g>
		<circle id="XMLID_777_" class="st1" cx="173.1" cy="250.3" r="9.5"/>
		<circle id="XMLID_776_" class="st3" cx="178.1" cy="248.8" r="2.6"/>
		<ellipse id="XMLID_774_" class="st1" cx="203.9" cy="253.6" rx="7.7" ry="7.4"/>
		<circle id="XMLID_773_" class="st3" cx="202.4" cy="252.3" r="2.1"/>
		<g id="XMLID_769_">

				<ellipse id="XMLID_772_" transform="matrix(0.9996 -2.788183e-02 2.788183e-02 0.9996 -9.2805 6.6711)" class="st4" cx="234.6" cy="336.1" rx="13.4" ry="4.3"/>

				<ellipse id="XMLID_764_" transform="matrix(0.9996 -2.788180e-02 2.788180e-02 0.9996 -8.8605 6.9215)" class="st4" cx="243.8" cy="321.2" rx="9.4" ry="2.2"/>
			<ellipse id="XMLID_771_" class="st4" cx="264.7" cy="327" rx="13.5" ry="4.3"/>
			<ellipse id="XMLID_770_" class="st4" cx="211.8" cy="326.8" rx="9.1" ry="4.3"/>
		</g>
		<g id="XMLID_765_">

				<ellipse id="XMLID_768_" transform="matrix(2.788183e-02 -0.9996 0.9996 2.788183e-02 -207.4278 462.1733)" class="st4" cx="133.9" cy="337.7" rx="4.3" ry="13.4"/>
			<ellipse id="XMLID_767_" class="st4" cx="103.8" cy="328.7" rx="13.5" ry="4.3"/>
			<ellipse id="XMLID_766_" class="st4" cx="156.6" cy="328.5" rx="9.1" ry="4.3"/>
		</g>
		<polygon id="XMLID_763_" class="st1" points="232.9,315.4 235.1,317.8 248.4,290.5 212.8,281.1 210.3,284.3 244.1,292.4 		"/>
		<path id="XMLID_720_" class="st1" d="M236.3,315.4c0,0,4.3-8.3,9.4-3.8c2.9,2.5,3.2,5.6,2.9,7.8c-0.2,2-1.8,3.6-3.7,4
			c-1.1,0.2-2.5,0.4-4.3,0.4c-7.3,0-7.2-2.7-7.7-4.6c-0.9-3.2,1.1-6.3,1.1-6.3L236.3,315.4z"/>
	</g>
	<polygon id="XMLID_716_" class="st1" points="103.2,260.9 147.4,296.2 162.8,279.4 160.6,277.3 146.8,292.3 105.8,258.2 	"/>
	<path id="XMLID_667_" class="st1" d="M101,257.1c0,0-7.4-7.2-1.8-12.5s11-0.6,11-0.6s1.4,2.4,0.1,9.2c-1.7,9-4.6,8.5-6.6,8.2"/>
	<g>
		<path class="st0" d="M109,261.7c-5.2,0.4-10.4-7.1-12.9-14.3c-2.9-8.1-4.1-18.2-3.5-29.8c0.5-8.5,2-16.8,3.4-24.8
			c0.7-4.1,1.5-8.3,2.1-12.5c2.2-14.8,2-29.4-0.7-43.3c-0.1-0.3,0-0.6,0.1-0.8c0.1-0.3,0.5-0.6,0.8-0.6c0.2,0,0.7,0.1,0.8,0.8
			c2.3,11.9,2.9,23.8,1.9,35.4c-0.6,7.1-1.9,14.2-3.2,21.1c-2.2,12.3-4.5,25.1-3.3,38.8c1,11,4.2,20,8.9,24.8
			c1.8,1.9,3.9,2.9,5.6,2.8c1.4-0.1,2.7-1,3.7-2.5c1.3-2.1,1.6-5.5,0.7-8.3c-0.7-2.3-2.1-3.7-3.6-3.5c-0.1,0-0.2,0-0.2,0
			c0,0-0.1,0-0.1,0c-0.3,0-0.7-0.1-0.8-0.8c0-0.6,0.1-1.4,0.8-1.5c0.1,0,0.2,0,0.3,0c2.6-0.2,5.3,3.2,5.8,7.7
			c0.6,4.9-1.5,8.8-3.8,10.3C110.9,261.3,109.9,261.7,109,261.7L109,261.7z"/>
		<path class="st0" d="M108.9,261.3c-5,0.4-10-7-12.5-14c-2.9-8.1-4.1-18.1-3.5-29.7c0.5-8.5,2-16.8,3.4-24.8
			c0.7-4.1,1.5-8.3,2.1-12.5c2.2-14.9,2-29.5-0.7-43.4c-0.1-0.3,0-0.5,0-0.6c0.1-0.2,0.3-0.3,0.4-0.4c0.3,0,0.4,0.2,0.4,0.5
			c2.3,11.9,2.9,23.7,1.9,35.3c-0.6,7.1-1.9,14.2-3.2,21c-2.2,12.4-4.6,25.2-3.3,38.9c1,11.1,4.3,20.2,9,25c1.9,2,4.1,3,6,2.9
			c1.6-0.1,2.9-1,4-2.7c1.3-2.2,1.7-5.7,0.8-8.6c-0.8-2.5-2.3-4-4-3.8c-0.1,0-0.2,0-0.3,0l0,0c-0.1,0-0.3,0-0.3-0.5
			c0,0-0.1-1,0.4-1.1c0.1,0,0.2,0,0.2,0c2.4-0.2,4.9,3.1,5.4,7.3c0.6,4.7-1.5,8.4-3.7,9.9C110.7,260.9,109.8,261.3,108.9,261.3
			C108.9,261.3,108.9,261.3,108.9,261.3z"/>
	</g>
	<g>
		<path class="st0" d="M99.6,260.9c-4.9-1.8-6.4-10.8-5.7-18.4c0.7-8.6,3.9-18.2,9.4-28.5c4-7.6,8.9-14.4,13.6-21.1
			c2.4-3.4,4.8-6.9,7.2-10.4c8.2-12.5,14.1-20.2,17.5-34c0.1-0.3,0.2-0.6,0.4-0.7c0.3-0.2,0.7-0.3,1-0.2c0.2,0.1,0.6,0.3,0.4,1.1
			c-2.9,11.8-7.3,17.2-13.2,27.3c-3.6,6.2-7.7,12.1-11.7,17.8c-7.2,10.3-14.7,20.9-19.3,33.8c-3.7,10.4-4.6,19.9-2.4,26.2
			c0.9,2.5,2.3,4.3,3.9,4.9c1.4,0.5,2.8,0.3,4.4-0.8c2-1.3,3.7-4.3,4.1-7.2c0.3-2.4,0.5-3-1-3.5c-0.1,0-0.1-0.1-0.2-0.1
			c0,0-0.1,0-0.1,0c-0.3-0.1-0.6-0.4-0.3-1.1c0.2-0.6,0.7-1.2,1.3-1c0.1,0,0.2,0.1,0.3,0.1c2.5,0.9,2.6,3.9,1.3,8.2
			c-1.5,4.7-5.1,7.3-7.8,7.7C101.5,261.3,100.5,261.2,99.6,260.9L99.6,260.9z"/>
	</g>
</g>
<g>
	<path class="st5" d="M217.3,141.6c8.2-17.3,0.8-37.9-16.4-46.1c-2.9-1.4-5.8-2.3-8.8-2.8c0,0-0.1,0-0.1,0c-7-2-14.8-0.6-22,3.5
		c-0.7,0.4-1.4,0.8-2.1,1.2c-1.1,0.7-2.5,0-2.7-1.3c-1.2-10.1-5.9-18.6-13.7-23c-0.1,0-0.1-0.1-0.2-0.1c-2.1-1.6-4.3-3.1-6.8-4.3
		c-17.3-8.2-37.9-0.8-46.1,16.4c-16.1,33.8,23.3,86.5,28.5,93.2c0.4,0.5,0.9,0.7,1.5,0.7C136.8,178.8,201.3,175.4,217.3,141.6z"/>
	<path class="st5" d="M126,177.7c-2.7,1.4-6.8,3.6-7,3.9c-0.6,1.3,1.4,3.5,4.6,5c3.1,1.5,6.1,1.6,6.8,0.3c0.2-0.3-0.9-5.3-1.5-8.2"
		/>
	<path class="st6" d="M130,178.8c7.2-0.2,71.1-3,87.4-37.2c2.7-5.7,3.7-11.8,3.2-17.7c-0.2-0.4-6.9-11.9-10.7-5.1
		C206,125.7,205.4,171.4,130,178.8"/>
	<path class="st3" d="M118,112.4c-2.6,4.9-0.1,12.1,6.1,18.6c-5.5,6.9-7.5,13.7-4.5,18.2c3,4.7,10.3,6.3,19.1,4.2
		c3.3,8.1,8.2,13.2,13.6,13c5.6-0.2,10.3-6.2,12.8-14.8c9.3,1.5,15.8-0.1,18.4-5.1c2.5-4.8-0.1-11.5-6.3-18c6-7.3,7.7-14.1,4.6-18.8
		c-2.9-4.6-10-5.6-18.7-3.5c-3.3-8.8-8.4-13.6-14.1-13.3c-5.4,0.2-9.9,5.9-12.4,14.5C127.8,106,120.5,107.6,118,112.4z"/>
	<path class="st5" d="M174.2,130.2c-0.5-0.5-1-1.1-1.6-1.6c0.3-0.4,0.6-0.7,1-1.1c5-6.1,7-12.2,4.7-15.6c-2.1-3.3-8-4.1-15.3-2.3
		c-0.7,0.2-1.4,0.4-2.1,0.6c-0.2-0.5-0.3-0.9-0.5-1.4c-2.8-7.4-7.1-12.1-11.2-11.9c-3.9,0.2-7.5,4.9-9.7,12.1
		c-0.2,0.7-0.4,1.4-0.6,2.1c-0.9-0.2-1.7-0.3-2.5-0.4c-7.3-1.1-12.9,0.3-14.8,3.7c-1.9,3.6,0.5,9.4,5.7,14.9
		c0.4,0.4,0.9,0.9,1.3,1.3c-0.5,0.6-1,1.2-1.5,1.8c-4.5,5.8-6.2,11.3-4.1,14.7c2.2,3.4,8.4,4.3,15.8,2.5c0.6-0.1,1.2-0.3,1.8-0.5
		c0.3,0.8,0.5,1.5,0.8,2.3c2.7,6.8,6.7,11.1,10.6,10.9c4.1-0.2,7.9-5.1,10.1-12.4c0.2-0.6,0.3-1.1,0.5-1.7c0.4,0.1,0.8,0.2,1.3,0.2
		c7.8,1.3,14,0,15.9-3.7C181.6,141.1,179.3,135.6,174.2,130.2L174.2,130.2z"/>
	<path class="st3" d="M164.3,145.5c-0.4-0.1-0.8-0.1-1.1-0.2c0.5-2.7,0.8-5.7,0.9-8.9c2.5-1.9,4.7-3.8,6.6-5.8c0.5,0.5,1,1,1.4,1.4
		c4.4,4.6,6.3,9.1,5.2,11.2C176.1,145.6,171.1,146.6,164.3,145.5L164.3,145.5z M159.5,149c-0.9,3.2-2.2,5.9-3.7,7.8
		c-1.3,1.7-2.7,2.6-3.8,2.6c-2.4,0.1-5.6-3.3-7.9-9.1c-0.3-0.7-0.5-1.4-0.8-2.1c2.6-0.9,5.3-2.2,8.1-3.6c2.9,1.2,5.8,2.2,8.5,2.9
		C159.8,148,159.6,148.5,159.5,149L159.5,149z M129.6,147.6c-2.1-0.3-3.6-1-4.2-2c-1.3-2,0.1-6.5,4-11.4c0.5-0.6,0.9-1.2,1.4-1.7
		c2.1,1.8,4.5,3.5,7.2,5.2c0.4,3.1,1,6.1,1.8,8.8c-0.5,0.2-1.1,0.3-1.6,0.4C134.9,147.7,131.9,147.9,129.6,147.6L129.6,147.6z
		 M129.4,127.4c-2.3-2.4-4-4.9-4.9-7.1c-0.8-2-0.9-3.6-0.4-4.6c1.1-2.1,5.7-3.2,11.9-2.3c0.8,0.1,1.6,0.3,2.3,0.4
		c-0.5,2.7-0.8,5.7-1,8.8c-2.5,1.9-4.8,3.9-6.7,5.9C130.2,128.2,129.8,127.8,129.4,127.4z M142.2,109.7c1.8-6.1,4.7-10,7.1-10.1
		c2.5-0.1,6,3.7,8.4,10.1c0.2,0.4,0.3,0.8,0.5,1.3c-2.6,0.9-5.4,2.1-8.1,3.5c-2.9-1.2-5.7-2.1-8.4-2.8
		C141.8,111,142,110.4,142.2,109.7L142.2,109.7z M164,128.9c-0.1-1.3-0.1-2.6-0.3-3.8c1.7,1.2,3.3,2.4,4.8,3.7
		c-1.3,1.3-2.8,2.7-4.5,4C164.1,131.5,164.1,130.2,164,128.9L164,128.9z M159,113.7c0.5,1.8,0.9,3.8,1.3,5.9
		c-2.2-1.3-4.5-2.5-6.9-3.6C155.3,115.1,157.2,114.3,159,113.7L159,113.7z M143.5,118.3c-1.1,0.7-2.2,1.4-3.2,2.2
		c0.2-2.1,0.4-4.1,0.8-6c1.9,0.5,3.8,1.1,5.7,1.8C145.7,116.9,144.6,117.6,143.5,118.3z M137.6,134.1c-1.8-1.2-3.4-2.4-4.9-3.6
		c1.4-1.4,2.9-2.8,4.6-4.1c0,1.3,0,2.6,0.1,3.9C137.4,131.4,137.5,132.8,137.6,134.1z M142.5,145.5c-0.5-1.9-1-3.9-1.3-6
		c1.1,0.6,2.2,1.2,3.4,1.8c1.2,0.6,2.4,1.2,3.5,1.7C146.2,144.1,144.3,144.9,142.5,145.5z M161.2,138.6c-0.1,2.2-0.4,4.2-0.7,6.1
		c-1.9-0.5-3.9-1.1-5.9-1.9c1.1-0.7,2.2-1.3,3.3-2C159,140.1,160.1,139.3,161.2,138.6L161.2,138.6z M156.4,138.4
		c-1.7,1.1-3.4,2.1-5.1,3c-1.8-0.8-3.6-1.6-5.4-2.6c-1.8-0.9-3.5-1.9-5.2-2.9c-0.2-2-0.4-4-0.5-6c-0.1-2-0.1-4,0-6
		c1.6-1.2,3.2-2.3,4.9-3.4l0,0c1.7-1.1,3.4-2.1,5.2-3c1.8,0.8,3.6,1.6,5.4,2.6c1.8,0.9,3.5,1.9,5.2,3c0.2,2,0.4,3.9,0.5,5.9
		c0.1,2,0.1,4,0.1,6C159.7,136.2,158.1,137.4,156.4,138.4L156.4,138.4z M175.9,113.4c1.4,2.1-0.2,7.1-4.5,12.3
		c-0.3,0.3-0.6,0.7-0.9,1c-2.1-1.8-4.5-3.6-7.1-5.3c-0.4-3.1-1-6-1.7-8.7c0.7-0.2,1.3-0.4,2-0.5
		C169.9,110.8,174.6,111.4,175.9,113.4L175.9,113.4z"/>
	<path class="st5" d="M153.4,124.3c2.9,1.5,4,5,2.5,7.9c-1.5,2.9-5,4-7.9,2.5c-2.9-1.5-4-5-2.5-7.9
		C147,123.9,150.6,122.8,153.4,124.3"/>
	<path class="st7" d="M191.3,153.2c0,0-24.4,4.8-50.1-6.2c-25.7-11-35.4-50.8-30.8-59.4c3.5-6.6,21.6-19.4,26.8-21
		c-6.6-1.6-13.4-1.2-19.6,0.9c-8.2,3-15.2,9.1-19.2,17.6c-6.3,13.3-4,29.6,1.3,44.8c6.2,17,16.3,33.1,23,42.8
		c1.3,1.8,2.7,3.7,3.7,5.1l-0.4-0.2c-2.7,1.4-6.8,3.6-7,3.9c-0.6,1.3,1.4,3.5,4.6,5c3.1,1.5,6.1,1.6,6.8,0.3c0.2-0.3-0.9-5.1-1.5-8
		C175.4,173.6,191.3,153.2,191.3,153.2z"/>
</g>
<g>
	<path class="st8" d="M153.8,34.1C149,12.2,127.4-1.5,105.6,3.3c-3.6,0.8-7,2.1-10.1,3.7c0,0-0.1,0-0.1,0.1
		c-7.9,3.2-14.1,10.1-17.9,19c-0.4,0.9-0.8,1.8-1.1,2.7c-0.5,1.4-2.4,1.8-3.4,0.7c-8.4-8.5-18.8-13-29.1-11.4c-0.1,0-0.2,0-0.3,0
		c-3.1,0-6.2,0.3-9.3,0.9C12.4,23.8-1.4,45.4,3.5,67.3c9.4,42.8,83.6,63.2,93.2,65.6c0.6,0.2,1.3,0,1.8-0.4
		C106,126.2,163.3,76.8,153.8,34.1z"/>
	<path class="st3" d="M76.3,32.6C53.1,37.8,38.5,60.8,43.7,84c5.2,23.2,28.2,37.8,51.4,32.7c23.2-5.2,37.8-28.2,32.6-51.4
		C122.6,42,99.6,27.4,76.3,32.6z M105,54.5c-2,0.5-3.7-0.4-4.2-2.2c-0.2-0.7-0.1-1.3,0.2-2.1c0.3-1,0.3-1.1,0.2-1.5
		c-0.3-1.2-2.1-0.8-2.5-0.7c-6.5,1.7-6.3,11-6.1,18.5l0.2,4c3.9-0.3,6.5-1.6,7.8-2.9c1.8-1.8-1.2-2.7-1.2-4.3c0-1.7,1.3-2.8,2.4-3.1
		c1.6-0.4,3.1,1,3.5,2.7c0.6,2.8-2.3,7.5-9.8,9c-0.9,0.2-1.8,0.3-2.6,0.4l0.3,8.1c0.1,6.2,0.2,14.6-4.2,22.9
		c-3.8,7.3-8.8,9.4-11.1,10c-4.3,1.1-7.8-0.6-8.5-3.6c-0.8-3,1.5-5.2,3.3-5.7c2.3-0.6,4.3,0.7,4.8,2.7c0.4,1.6-0.3,2.3-0.8,2.8
		c-0.3,0.4-0.8,0.8-0.6,1.5c0.1,0.3,0.5,0.9,1.5,0.6c1.8-0.5,2.9-1.7,3.6-2.5c3.5-4.5,3.7-11,3.4-22.8l-0.2-2.8
		c-0.1-3.8-0.2-8.1,0.1-12.4c-3.5-1.6-5.9-4-10.2-4.2c-2.9-0.1-4.5,0.9-5.3,2.6c-1,2.1,0,4.3,1.6,5.3l2.8,2c3.5,2.6,5.5,4.7,5.7,8.1
		c0.3,5.5-5.1,11-13.1,10.4c-6.8-0.5-9-4.8-8.8-7.5c0.2-2.3,1.8-3.1,3.7-3c1.9,0.2,3.2,2.2,3,4c0,0.2,0,0.5-0.1,1
		c-0.1,0.5-0.4,1-0.5,1.6c-0.1,1.4,1.9,2,3.3,2.1c3,0.2,5.5-1.9,5.7-4.3c0.2-2.3-1.5-3.4-2.2-3.9l-3.3-2.3c-1.5-1.1-5.1-4.3-4.8-8.9
		c0.1-1.8,0.8-3.8,2.1-5.3c2.7-3.2,6.2-4.4,9.9-4.2c4.7,0.3,7.5,2.7,10.7,4.4c0.5-4.9,1.7-9.8,4.1-14.2c2.1-4.1,5.5-7.4,9.9-8.5
		c4.4-1.1,8.3,0.1,9.1,3.3C107.9,51,107.7,53.9,105,54.5z"/>
	<path class="st8" d="M95.3,132.8c-1.5,3.2-3.8,8.2-3.7,8.6c0.4,1.6,3.8,2.2,7.8,1.3c3.9-0.9,6.8-2.9,6.5-4.5
		c-0.1-0.4-4.6-4.3-7.3-6.5"/>
	<path class="st7" d="M138.1,63.4c0,0-19.1,21.9-50.7,30.3S18.3,72.1,16.3,60.9c-1.5-8.6,6-33.4,9.7-38.6
		c-7.3,3.2-13.3,8.5-17.4,14.9c-5.4,8.6-7.5,19.3-5.1,30c3.7,16.8,17.5,30.2,33.3,40.4c18,11.2,38.8,18.9,51.9,23
		c2.5,0.7,5.2,1.5,7.1,2l-0.5,0.2c-1.5,3.2-3.8,8.2-3.7,8.6c0.4,1.6,3.8,2.2,7.8,1.3c3.9-0.9,6.8-2.9,6.5-4.5
		c-0.1-0.4-4.4-4.1-7.1-6.3C138,93.6,138.1,63.4,138.1,63.4z"/>
	<path class="st6" d="M99.8,131.1c6.5-5.4,63.6-53.8,54-97c-1.6-7.2-5-13.6-9.7-18.6c-0.4-0.2-15-6.1-13.6,2.9
		C132,27.5,164.1,70.1,99.8,131.1"/>
</g>
<g>
	<path class="st9" d="M96.7,210.8c3.6-3.5,25.3-25.3,20.3-42.6c-2.6-9-12.1-14.2-21.1-11.6c-1.5,0.4-2.9,1.1-4.1,1.8c0,0,0,0-0.1,0
		c-3.2,1.6-5.6,4.6-7,8.5c-0.1,0.4-0.3,0.8-0.4,1.1c-0.2,0.6-0.9,0.8-1.4,0.4c-3.8-3.3-8.2-4.9-12.5-4c0,0-0.1,0-0.1,0
		c-1.3,0.1-2.6,0.3-3.9,0.7c-9,2.6-14.2,12.1-11.6,21.1c5,17.2,35.2,23.8,40.5,24.9l-0.2,0.1c-0.5,1.4-1.4,3.5-1.3,3.7
		c0.2,0.7,1.7,0.8,3.3,0.4c1.6-0.5,2.8-1.4,2.6-2.1C99.8,213,98,211.7,96.7,210.8z"/>
	<g>
		<defs>
			<path id="SVGID_1_" d="M79.5,197.2c-1.3,0.2-2.6-0.6-2.8-1.9c-0.2-1.3,0.7-2.4,2-2.7s2.6,0.6,2.8,1.9
				C81.7,195.7,80.7,197,79.5,197.2L79.5,197.2z M106.9,180c-0.5-1.8-1.9-3.1-3.6-4l-0.6-0.4l-0.4,0.6c-0.7,1.2-0.8,3.1-0.5,4.4
				c0.3,1,0.8,2,1.5,2.7c-0.4,0.3-1,0.6-1.4,0.9c-1,0.5-2,0.8-3,1L69.4,190l0,0.7c0.1,2.2,0.8,4.4,2.1,6.3l0.6,0.7l0,0.1
				c3.5,4.1,8.7,5.4,14.1,4.5c10.3-1.7,18-7.5,20.4-17.7c2.6-0.3,5.1-1.4,6-4.1l0.3-0.6l-0.6-0.3C110.6,179.1,108.5,179.3,106.9,180
				L106.9,180z M91.9,180.6l-4.4,0.7l0.7,4.4l4.4-0.7L91.9,180.6z M91,175l-4.4,0.7l0.7,4.4l4.4-0.7L91,175z M90.1,169.3l-4.4,0.7
				l0.7,4.4l4.4-0.7L90.1,169.3z M97.3,179.7l-4.4,0.7l0.7,4.4l4.4-0.7L97.3,179.7z M80.8,182.3l-4.4,0.7l0.7,4.4l4.4-0.7
				L80.8,182.3L80.8,182.3z M86.4,181.4l-4.4,0.7l0.7,4.4l4.4-0.7L86.4,181.4z M75.4,183.2l-4.4,0.7l0.7,4.4l4.4-0.7L75.4,183.2
				L75.4,183.2z M85.5,175.8l-4.4,0.7l0.7,4.4l4.4-0.7L85.5,175.8z M79.9,176.7l-4.4,0.7l0.7,4.4l4.4-0.7L79.9,176.7L79.9,176.7z"/>
		</defs>
		<use xlink:href="#SVGID_1_"  style="overflow:visible;fill:#FFFFFF;"/>
		<clipPath id="SVGID_2_">
			<use xlink:href="#SVGID_1_"  style="overflow:visible;"/>
		</clipPath>
	</g>
	<path class="st6" d="M97.1,210.3c2.6-2.4,25.2-24.3,20-42.2c-0.9-3-2.5-5.5-4.6-7.5c-0.2-0.1-6.4-2.1-5.6,1.6
		C108.3,168.9,112.1,194.1,97.1,210.3"/>
	<path class="st10" d="M107.7,185.1c0.1-0.9-1.1-1.3-1.6-0.6c-2.1,2.8-6.7,7.6-15.3,10.5c-13,4.4-29.6-7.1-30.7-11.8
		c-0.7-2.8,0.7-9.9,2-14c0.3-0.8-0.7-1.5-1.4-1c-1.9,1.4-3.4,3.2-4.5,5.2c-2,3.8-2.6,8.3-1.3,12.7c2,7,8.2,12.2,15.1,16
		c7.8,4.2,16.8,6.8,22.4,8.2c1.1,0.2,2.2,0.5,3,0.6l-0.2,0.1c-0.5,1.4-1.4,3.5-1.3,3.7c0.2,0.7,1.7,0.8,3.3,0.4
		c1.6-0.5,2.8-1.4,2.6-2.1c0-0.1-1.4-1.1-2.5-2c-0.4-0.3-0.5-0.8-0.2-1.2C106.5,198.5,107.5,189.3,107.7,185.1z"/>
</g>
<circle class="st1" cx="107.7" cy="249.7" r="5.6"/>
</svg>
