<svg xmlns="http://www.w3.org/2000/svg" viewBox="0 0 695.17 149.31"><defs><style>.a{fill:#2fc1c1}.b{fill:none;stroke:#12d4c4;stroke-miterlimit:10;stroke-width:2px}.d{fill:#19a594}</style></defs><path d="M39.83 3.39l14.34 11.72c4.16 3.5 6.46 6.35 6.79 11.71v41.49a9.35 9.35 0 01-9.42 9.41 9.46 9.46 0 01-9.63-9.41V59l-19-17.62v26.93a9.44 9.44 0 01-9.52 9.41 9.53 9.53 0 01-9.63-9.41V26.82c.44-5.36 3-8.21 7-11.71l14-11.72c5.55-4.39 9.6-4.59 15.07 0zM41.91 40V20h-19v20zM89.54 58.46v9.19c0 5.37-3.94 9.74-9.31 9.74a9.74 9.74 0 01-9.63-9.74v-50.9A16.3 16.3 0 0186.8.55h14.56A16 16 0 01112.64 5l10.51 10.5c6.89 6.57 5.69 22.77-1 29.23l-9.52 9.09a15.23 15.23 0 01-11.28 4.6zm18.39-19.16V19.7l-18.17-.21V39.3zM134.31 69V33.65a9.3 9.3 0 019.63-9c5.48 0 9.74 3.85 9.74 8.56V69c0 4.71-4.26 8.65-9.74 8.65-5.25-.01-9.63-3.95-9.63-8.65zm18.95-48.8H134.7V.75h18.56zM220.52 58.46v9.19c0 5.37-3.94 9.74-9.31 9.74a9.74 9.74 0 01-9.63-9.74v-50.9a16.3 16.3 0 0116.2-16.2h14.56A15.94 15.94 0 01243.61 5l10.51 10.5c6.9 6.57 5.7 22.77-1 29.23l-9.53 9.09a15.2 15.2 0 01-11.27 4.6zm18.39-19.16V19.7l-18.17-.21V39.3zM264.3 60.75V9.63a9.68 9.68 0 019.64-9.41 9.56 9.56 0 019.74 9.41v48.61c9.63 0 6.89-.22 16.42-.22 12.59 0 12.59 19.27 0 19.27h-19.16a16.68 16.68 0 01-16.64-16.54zM350.67 3.39L365 15.11c4.16 3.5 6.46 6.35 6.79 11.71v41.49a9.35 9.35 0 01-9.42 9.41 9.46 9.46 0 01-9.63-9.41V59L333.7 41.38v26.93a9.58 9.58 0 01-19.15 0V26.82c.43-5.36 2.95-8.21 7-11.71l14-11.72c5.6-4.39 9.65-4.59 15.12 0zM352.75 40V20H333.7v20zM417.23.66c12.37 0 12.37 19 0 19H409V68.2c0 12.92-19.16 12.92-19.16 0V19.7h-8.21c-12.48 0-12.48-19 0-19zM450.94 19.81v12.7h17.19a9.6 9.6 0 019.52 9.49 9.81 9.81 0 01-9.74 9.63h-17v16.79c0 12.48-19.15 12.48-19.15 0V16.86A16.13 16.13 0 01447.88.66h24.41a9.53 9.53 0 019.63 9.41 9.88 9.88 0 01-9.63 9.74zM504.26.77h21.89A16.31 16.31 0 01542.36 17v44c0 7.89-7.56 16.21-15.66 16.21h-22.88c-8.1 0-16.2-8.32-16.2-16.21V17c0-9.56 7.88-16.23 16.64-16.23zm18.94 19.15h-16.42v38.32h16.42zM596.1 46.09c6.79 4.16 9.2 9.41 9.2 16.31V68a9.36 9.36 0 11-18.72 0v-5.38l-18.72-22.77V68a9.44 9.44 0 01-9.41 9.52 9.56 9.56 0 01-9.64-9.52V10.29a9.58 9.58 0 019.64-9.63h21.34a16.27 16.27 0 0111.5 4.7l9.3 9a16.14 16.14 0 015.15 11.82v4.27c0 7.55-3.51 12.55-9.64 15.64zm-28.24-26.28V38.2h18.72V19.81zM645.14 3.61l8.32 8.87 8.32-8.87c4.6-4.81 11.17-4.81 15.44 0l11.16 11.61c3.4 3.83 6.24 6.24 6.79 11.6v41.71c0 12.37-19.26 12.37-19.26 0V20H663.1v48.5c0 12.7-19.16 12.7-19.16 0V20h-12.59v48.5c0 12.37-19.27 12.37-19.27 0V26.82c.22-5.36 3.29-7.77 6.79-11.6L630 3.61c4.31-4.81 10.88-4.81 15.14 0z" class="a"/><path d="M1 117.88a30.69 30.69 0 011.91-10.58 29.19 29.19 0 015.55-9.41 28.47 28.47 0 018.92-6.72 27 27 0 0112-2.57A25.59 25.59 0 0143 92.17a22.43 22.43 0 018.63 9.29l-10.45 7.29a12.3 12.3 0 00-2.32-3.85 13.22 13.22 0 00-3.07-2.49 11.9 11.9 0 00-3.44-1.33 16.36 16.36 0 00-3.36-.37 12.1 12.1 0 00-6.3 1.58 14 14 0 00-4.4 4.06 18.23 18.23 0 00-2.57 5.65 23.88 23.88 0 00-.87 6.38 21.9 21.9 0 001 6.72 19.27 19.27 0 002.91 5.72 13.85 13.85 0 004.52 3.94 12 12 0 005.88 1.45 14.1 14.1 0 003.45-.45 14.34 14.34 0 003.44-1.41 11.7 11.7 0 003-2.49 12 12 0 002.16-3.77l11.19 6.55a17.92 17.92 0 01-3.85 5.8 23.82 23.82 0 01-5.77 4.31A29.25 29.25 0 0136 147.4a28.74 28.74 0 01-7.09.91 24.28 24.28 0 01-11.23-2.61 28.55 28.55 0 01-8.79-6.93A32.65 32.65 0 013.07 129 31.18 31.18 0 011 117.88zM100 148.31a25.27 25.27 0 01-11.44-2.57 28.75 28.75 0 01-8.82-6.74 30.58 30.58 0 01-5.74-9.6 31.1 31.1 0 01-2-11.11 30.86 30.86 0 018-20.69 28.53 28.53 0 019-6.55 26.22 26.22 0 0111.32-2.45 25.32 25.32 0 0111.45 2.57 28.84 28.84 0 018.83 6.8 30.74 30.74 0 015.68 9.62 31.6 31.6 0 012 11 30.35 30.35 0 01-2.12 11.19 30.69 30.69 0 01-5.84 9.5 28.64 28.64 0 01-8.92 6.59 25.78 25.78 0 01-11.4 2.44zm-14.17-29.85a22.79 22.79 0 001 6.59 18.81 18.81 0 002.73 5.68 13.49 13.49 0 004.48 4 12.51 12.51 0 006.18 1.49 12 12 0 006.22-1.57 14.15 14.15 0 004.43-4.11 18 18 0 002.66-5.72 24.67 24.67 0 00.87-6.51 23.08 23.08 0 00-1-6.59 18.12 18.12 0 00-2.78-5.64 13.85 13.85 0 00-4.48-3.9 12.5 12.5 0 00-6.05-1.45 12.11 12.11 0 00-6.22 1.54 14 14 0 00-4.44 4 18.06 18.06 0 00-2.68 5.73 23.54 23.54 0 00-.92 6.46zM166.35 114.14v33.67h-13.6V88.94h10.62l27.45 34.58V88.94h13.6v58.87h-10.95zM232.28 147.81V88.94h40v11.94h-26.4v12.68h21.72v11h-21.72v23.22zM337.09 135.87v11.94h-41.38V88.94h40.64v11.94h-27v11.44h23.22v11h-23.26v12.52zM362.14 147.81V88.94h26.53a17.07 17.07 0 017.67 1.74 20.32 20.32 0 016.1 4.56 21.53 21.53 0 014 6.38 19 19 0 011.45 7.22 20.72 20.72 0 01-.66 5.26 20.25 20.25 0 01-1.91 4.77 18.17 18.17 0 01-3 4 18 18 0 01-4 3l13.52 21.89h-15.37l-11.86-19h-8.87v19zm13.6-30.81h12.44a5.07 5.07 0 004.14-2.28 9.36 9.36 0 001.74-5.84 8.23 8.23 0 00-2-5.81 5.83 5.83 0 00-4.31-2.15h-12zM476.49 135.87v11.94h-41.38V88.94h40.64v11.94h-27v11.44h23.22v11h-23.26v12.52zM515.13 114.14v33.67h-13.6V88.94h10.62l27.45 34.58V88.94h13.6v58.87h-11zM577.66 117.88a30.69 30.69 0 011.91-10.58 29.19 29.19 0 015.55-9.41 28.35 28.35 0 018.88-6.72 27 27 0 0112-2.57 25.59 25.59 0 0113.68 3.57 22.43 22.43 0 018.63 9.29l-10.45 7.29a12.3 12.3 0 00-2.32-3.85 13.22 13.22 0 00-3.07-2.49 12 12 0 00-3.44-1.33 16.36 16.36 0 00-3.36-.37 12.08 12.08 0 00-6.3 1.58 14 14 0 00-4.4 4.06 18.23 18.23 0 00-2.61 5.64 23.88 23.88 0 00-.87 6.38 21.9 21.9 0 001 6.72 19 19 0 002.91 5.72 13.85 13.85 0 004.52 3.94 12 12 0 005.88 1.45 14 14 0 003.44-.45 14.24 14.24 0 003.45-1.41 11.7 11.7 0 003-2.49 12.18 12.18 0 002.16-3.77l11.19 6.55a17.92 17.92 0 01-3.85 5.8 23.82 23.82 0 01-5.77 4.31 29.25 29.25 0 01-6.84 2.66 28.74 28.74 0 01-7.09.91 24.28 24.28 0 01-11.23-2.61 28.55 28.55 0 01-8.79-6.93 32.65 32.65 0 01-5.77-9.78 31.18 31.18 0 01-2.04-11.11zM694 135.87v11.94h-41.38V88.94h40.64v11.94h-27v11.44h23.22v11h-23.26v12.52z" class="b"/><g opacity=".46"><path d="M29.38 146.34A22.37 22.37 0 0119.06 144a26.76 26.76 0 01-8.18-6.44 30.83 30.83 0 01-5.41-9.2 29.25 29.25 0 01-1.95-10.4A28.88 28.88 0 015.31 108a27.13 27.13 0 015.18-8.77A26 26 0 0118.78 93a25 25 0 0111.1-2.37 23.79 23.79 0 0112.64 3.27 20.73 20.73 0 016.53 6.14l.55.81-7.05 4.93L42 105a12.37 12.37 0 00-1.09-1.37 15.13 15.13 0 00-3.54-2.87 13.71 13.71 0 00-4-1.55c-4.4-.92-8.13-.32-11.09 1.44a16 16 0 00-5 4.64 20 20 0 00-2.91 6.25 26.18 26.18 0 00-.94 6.92 23.93 23.93 0 001.13 7.32 21.5 21.5 0 003.21 6.32 16.06 16.06 0 005.16 4.49 14.57 14.57 0 0010.78 1.18 15.67 15.67 0 004-1.62 13.58 13.58 0 003.5-2.91 12.59 12.59 0 001-1.41l.52-.81 7.7 4.51-.55.87a16 16 0 01-2.17 2.71 22 22 0 01-5.28 4 28 28 0 01-6.43 2.38 26.83 26.83 0 01-6.62.85zm.5-53.7a23.28 23.28 0 00-10.23 2.16 24.4 24.4 0 00-7.65 5.77 25.16 25.16 0 00-4.8 8.13 26.89 26.89 0 00-1.67 9.21 27.19 27.19 0 001.82 9.7 29 29 0 005.06 8.6 24.73 24.73 0 007.57 6 22 22 0 0015.53 1.38 25.76 25.76 0 005.92-2.29 20.37 20.37 0 004.81-3.6 15.68 15.68 0 001.31-1.52l-4.25-2.49c-.22.29-.44.58-.68.85a15.57 15.57 0 01-4 3.34 18.14 18.14 0 01-4.44 1.82 16.52 16.52 0 01-12.24-1.37 17.93 17.93 0 01-5.8-5 23.08 23.08 0 01-3.51-6.91 25.68 25.68 0 01-1.23-7.93 27.71 27.71 0 011-7.45 22.09 22.09 0 013.19-6.87 18 18 0 015.63-5.21 17.09 17.09 0 0112.51-1.76 15.78 15.78 0 014.61 1.8 16.89 16.89 0 014 3.25c.22.25.45.51.66.78l3.79-2.65a19.16 19.16 0 00-5.35-4.75 21.83 21.83 0 00-11.56-2.99zM100.54 146.34A23.27 23.27 0 0190 144a26.92 26.92 0 01-8.23-6.29 28.85 28.85 0 01-5.35-9 29.46 29.46 0 01-1.9-10.41A28.74 28.74 0 0182 99a26.91 26.91 0 018.34-6.1 24.4 24.4 0 0110.46-2.25A23.3 23.3 0 01111.33 93a26.51 26.51 0 018.22 6.32 28.7 28.7 0 015.31 9 29.46 29.46 0 011.87 10.25 28.55 28.55 0 01-2 10.47 28.85 28.85 0 01-5.46 8.88 26.91 26.91 0 01-8.3 6.13 23.94 23.94 0 01-10.43 2.29zm.24-53.7a22.33 22.33 0 00-9.61 2.06 24.75 24.75 0 00-7.72 5.64 26.74 26.74 0 00-6.94 18 27.36 27.36 0 001.77 9.66 26.88 26.88 0 005 8.34 24.93 24.93 0 007.62 5.82 21.33 21.33 0 009.66 2.15 21.93 21.93 0 009.58-2.09 24.86 24.86 0 007.69-5.68 27 27 0 006.92-18A27.68 27.68 0 00123 109a27 27 0 00-4.94-8.37 24.78 24.78 0 00-7.61-5.85 21.33 21.33 0 00-9.67-2.14zm-.08 47.6a16.41 16.41 0 01-8.11-2 17.39 17.39 0 01-5.8-5.15 22.86 22.86 0 01-3.31-6.86 26.84 26.84 0 01-1.12-7.74 27.53 27.53 0 011.06-7.61 22.29 22.29 0 013.29-6.88 18.1 18.1 0 015.69-5.15 16.12 16.12 0 018.22-2.08 16.41 16.41 0 018 2 17.79 17.79 0 015.77 5 22.08 22.08 0 013.4 6.89 27.17 27.17 0 011.12 7.73 28.89 28.89 0 01-1 7.57 22.27 22.27 0 01-3.24 7 18.32 18.32 0 01-5.67 5.14 15.93 15.93 0 01-8.3 2.14zm-.08-41.5a14.2 14.2 0 00-7.22 1.81 16.08 16.08 0 00-5.06 4.58 20.38 20.38 0 00-3 6.3 25.88 25.88 0 00-1 7.06 25 25 0 001 7.17 21.21 21.21 0 003 6.27 15.49 15.49 0 005.13 4.56 14.56 14.56 0 007.15 1.75 14 14 0 007.24-1.86 16.22 16.22 0 005-4.67 20.21 20.21 0 003-6.35 27 27 0 00.94-7 25 25 0 00-1-7.16 20 20 0 00-3.09-6.26 15.66 15.66 0 00-5.12-4.46 14.51 14.51 0 00-6.97-1.74zM202.94 145.85h-8l-30.07-37.34v37.34h-9.6V91h7.64l30.42 38.32V91h9.6zm-7-2h5V93h-5.6v42L162 93h-4.68v50.88h5.6v-41zM244.4 145.85h-9.6V91h36v7.94h-26.4v16.66h21.73v7H244.4zm-7.6-2h5.6v-23.22h21.73v-3H242.4V96.91h26.37V93h-32zM335.62 145.85h-37.38V91h36.63v7.94h-27v15.44h23.22v7h-23.25v16.52h27.78zm-35.38-2h33.38v-3.95h-27.78v-20.52h23.22v-3h-23.22V96.91h27V93h-32.6zM408.75 145.85H398.1l-11.86-19h-12v19h-9.6V91h24.56a15 15 0 016.8 1.5 18.46 18.46 0 015.5 4.12 19.43 19.43 0 013.65 5.79 17 17 0 011.31 6.46 19.16 19.16 0 01-.6 4.76 18.94 18.94 0 01-1.72 4.3 16.16 16.16 0 01-6.28 6.28l-1.83 1zm-9.54-2h6l-12-19.36 3.66-2a14.12 14.12 0 003.13-2.39 14.35 14.35 0 002.36-3.14 16.3 16.3 0 001.53-3.84 16.5 16.5 0 00.54-4.25 15 15 0 00-1.16-5.7A17.46 17.46 0 00400 98a16.33 16.33 0 00-4.92-3.67A12.87 12.87 0 00389.2 93h-22.54v50.88h5.6v-19h15.09zM388.7 121h-16.44V96.91h16a9.7 9.7 0 017.26 3.44 12.15 12.15 0 013 8.52 13.34 13.34 0 01-2.56 8.27 9 9 0 01-7.26 3.86zm-14.44-2h14.44a7.09 7.09 0 005.74-3.07 11.38 11.38 0 002.15-7.06 10.19 10.19 0 00-2.52-7.16 7.77 7.77 0 00-5.79-2.8h-14zM475 145.85h-37.37V91h36.64v7.94h-27v15.44h23.22v7h-23.26v16.52H475zm-35.38-2H473v-3.95h-27.77v-20.52h23.22v-3h-23.22V96.91h27V93h-32.6zM551.72 145.85h-8l-30.07-37.34v37.34h-9.6V91h7.65l30.41 38.32V91h9.6zm-7-2h5V93h-5.6v42l-33.38-42h-4.68v50.88h5.6v-41zM606 146.34a22.37 22.37 0 01-10.28-2.34 26.76 26.76 0 01-8.18-6.44 31.07 31.07 0 01-5.42-9.2 29.46 29.46 0 01-1.94-10.4A28.88 28.88 0 01582 108a27.13 27.13 0 015.18-8.77 26 26 0 018.26-6.23 25 25 0 0111.1-2.37 23.81 23.81 0 0112.64 3.27 20.73 20.73 0 016.53 6.14l.55.81-7 4.93-.57-.84a12.37 12.37 0 00-1.09-1.37 15.13 15.13 0 00-3.54-2.87 13.71 13.71 0 00-4-1.55c-4.41-.92-8.13-.32-11.09 1.44a16 16 0 00-5 4.64 20 20 0 00-2.91 6.25 26.18 26.18 0 00-.94 6.92 23.93 23.93 0 001.13 7.32 21.5 21.5 0 003.21 6.32 16.06 16.06 0 005.16 4.49 14.57 14.57 0 0010.78 1.18 15.67 15.67 0 004-1.62 13.58 13.58 0 003.5-2.91 12.59 12.59 0 001-1.41l.52-.81 7.7 4.51-.56.87a16 16 0 01-2.16 2.71 22 22 0 01-5.28 4 28 28 0 01-6.38 2.47 26.83 26.83 0 01-6.74.82zm.5-53.7a23.28 23.28 0 00-10.23 2.16 24.4 24.4 0 00-7.66 5.77 25.16 25.16 0 00-4.8 8.13 26.89 26.89 0 00-1.67 9.21 27.19 27.19 0 001.82 9.7 29 29 0 005.06 8.6 24.61 24.61 0 007.57 6 22 22 0 0015.53 1.38 25.76 25.76 0 005.92-2.29 20.37 20.37 0 004.81-3.6 15.68 15.68 0 001.31-1.52l-4.16-2.53c-.22.29-.45.58-.68.85a15.73 15.73 0 01-4 3.34 18.31 18.31 0 01-4.44 1.82 16.52 16.52 0 01-12.24-1.37 17.93 17.93 0 01-5.8-5 23.08 23.08 0 01-3.51-6.91 25.68 25.68 0 01-1.23-7.93 28.11 28.11 0 011-7.45 22.34 22.34 0 013.2-6.87 18 18 0 015.63-5.21 17.14 17.14 0 0112.52-1.68A15.78 15.78 0 01615 99a16.65 16.65 0 014 3.25c.23.25.46.51.67.78l3.79-2.65a19.16 19.16 0 00-5.35-4.75 21.83 21.83 0 00-11.57-2.99zM692.53 145.85h-37.38V91h36.63v7.94h-27v15.44H688v7h-23.25v16.52h27.78zm-35.38-2h33.38v-3.95h-27.78v-20.52H686v-3h-23.25V96.91h27V93h-32.6z" class="d"/></g></svg>