<?xml version="1.0" encoding="utf-8"?>
<!-- Generator: Adobe Illustrator 23.0.6, SVG Export Plug-In . SVG Version: 6.00 Build 0)  -->
<svg version="1.1" id="Calque_1" xmlns="http://www.w3.org/2000/svg" xmlns:xlink="http://www.w3.org/1999/xlink" x="0px" y="0px"
	 viewBox="0 0 670.4 464.49" style="enable-background:new 0 0 670.4 464.49;" xml:space="preserve">
<style type="text/css">
	.st0{opacity:0.2;fill:#1D1E1C;}
	.st1{fill:#965C40;}
	.st2{fill:#C4835F;}
	.st3{fill:#F9F0EA;}
	.st4{fill:#729351;}
	.st5{fill:#38A9B4;}
	.st6{fill:#F4B962;}
	.st7{fill:#60231E;}
	.st8{fill:#A3533E;}
	.st9{fill:#1D1E1C;}
	.st10{fill:#FFFFFF;}
	.st11{fill:#7C3023;}
	.st12{fill:#F7F3F2;}
	.st13{fill:#211F1F;}
	.st14{fill:#221F20;}
	.st15{fill:#2D2D2D;}
	.st16{opacity:0.42;fill:#221F20;}
	.st17{fill:#3D3D3D;}
	.st18{fill-rule:evenodd;clip-rule:evenodd;fill:#F2DCD1;}
</style>
<g>
	<ellipse id="XMLID_2615_" class="st0" cx="399.37" cy="416.73" rx="36.77" ry="9.28"/>
	<ellipse class="st0" cx="515.95" cy="444.25" rx="130.04" ry="20.24"/>
	<ellipse class="st0" cx="574.71" cy="412.87" rx="75.5" ry="11.75"/>
	<g>
		<g>
			<polygon class="st1" points="615.77,0 649.7,264.98 659.13,264.98 625.2,0 			"/>
		</g>
		<g>
			<polygon class="st2" points="436.21,442.39 422.6,442.39 475.8,269.77 489.41,269.77 			"/>
		</g>
		<g>
			<polygon class="st2" points="619.64,442.39 633.26,442.39 580.06,269.77 566.44,269.77 			"/>
		</g>
		<g>
			<polygon class="st1" points="574.92,413.97 588.54,413.97 535.34,241.35 521.72,241.35 			"/>
		</g>
		<g>
			<polygon class="st1" points="634.35,261.39 432.02,261.39 454.66,0 656.98,0 			"/>
		</g>
		<g>
			<polygon class="st2" points="624.92,261.39 422.6,261.39 445.23,0 647.56,0 			"/>
		</g>
		<g>
			<polygon class="st3" points="616.78,250.05 432.02,250.05 452.7,11.35 637.45,11.35 			"/>
		</g>
		<g>
			<rect x="399.75" y="260.86" class="st1" width="270.65" height="16.01"/>
		</g>
		<g>
			<rect x="637.45" y="260.86" class="st2" width="32.95" height="16.01"/>
		</g>
		<g>
			<g>
				<g>
					<polygon class="st4" points="524.69,182.29 520.97,181.95 531.73,91.09 535.46,91.44 					"/>
				</g>
				<g>
					<path class="st5" d="M581.09,67.07c-4.32-3.18-9.4-5.44-14.77-4.79c-4.67,0.56-9.57,2.63-14.1,5.21
						c3.36-3.74,6.19-7.86,7.3-11.94c1.28-4.68-0.71-9.42-3.81-13.58c-7.1-9.53-23.21-9.53-32.57,0c-4.08,4.16-7.2,8.9-7.02,13.58
						c0.15,4.08,2,8.2,4.48,11.94c-3.92-2.58-8.33-4.65-12.87-5.21c-5.21-0.65-10.83,1.62-15.9,4.79
						c-11.63,7.28-13.32,21.55-3.42,28.84c4.32,3.18,9.4,5.44,14.77,4.79c4.67-0.56,9.57-2.63,14.1-5.21
						c-3.36,3.74-6.19,7.86-7.3,11.94c-1.28,4.68,0.71,9.42,3.81,13.58c7.1,9.53,23.21,9.53,32.57,0c4.08-4.16,7.2-8.9,7.02-13.58
						c-0.15-4.08-2-8.2-4.48-11.94c3.92,2.58,8.33,4.65,12.87,5.21c5.21,0.65,10.83-1.62,15.9-4.79
						C589.31,88.62,591,74.35,581.09,67.07z"/>
				</g>
				<g>
					
						<ellipse transform="matrix(0.9419 -0.3359 0.3359 0.9419 2.4348 184.4072)" class="st6" cx="534.32" cy="85.16" rx="19.56" ry="16.59"/>
				</g>
				<g>
					<path class="st4" d="M527.15,145.63c0,0,7.47-14.77,20.93-15.07c13.46-0.3,21.93,0,21.93,0S554.36,158.29,527.15,145.63z"/>
				</g>
				<g>
					<path class="st4" d="M526.57,162.29c0,0-4.61-17.11-20.12-17.46c-15.51-0.35-25.41,0-25.41,0S491.58,176.96,526.57,162.29z"/>
				</g>
			</g>
			<g>
				<polygon class="st7" points="566.63,187.93 478.8,187.93 479.8,179.56 567.62,179.56 				"/>
			</g>
			<g>
				<polygon class="st8" points="481.07,187.93 493.16,227.18 541.83,227.18 563.22,187.93 				"/>
			</g>
		</g>
	</g>
	<g>
		<g>
			<g>
				<g id="XMLID_2648_">
					<ellipse id="XMLID_2651_" class="st0" cx="164.54" cy="417.51" rx="36.77" ry="9.28"/>
					<ellipse id="XMLID_2650_" class="st0" cx="88.48" cy="415.5" rx="36.77" ry="9.28"/>
					<ellipse id="XMLID_2649_" class="st0" cx="36.77" cy="444.08" rx="36.77" ry="9.28"/>
				</g>
				<g id="XMLID_2635_">
					<polygon id="XMLID_2646_" class="st9" points="124.4,412.68 117.68,412.68 117.68,265.01 182.85,300.1 179.67,306.02 
						124.4,276.26 					"/>
					<polygon id="XMLID_2644_" class="st9" points="73.35,441.85 66.68,441 85.25,294.2 183.8,309 182.8,315.64 91.05,301.87 					
						"/>
					<polygon id="XMLID_2642_" class="st9" points="189.08,406.69 167.09,340.75 198.15,333.33 199.71,339.86 175.78,345.58 
						195.45,404.57 					"/>
					<path id="XMLID_2640_" class="st9" d="M189.57,405.97c0,0-6.48-11.08-16.34-4.03c-9.86,7.05-4.15,16.79-4.15,16.79
						s3.23,3.02,14.21,3.36c10.98,0.34,13.58,0,15.63-2.35s-4.66-19.97-4.66-19.97L189.57,405.97z"/>
					<path id="XMLID_2638_" class="st9" d="M63.56,430.4c0,0-10.35-15.42-24.07-5.61c-13.72,9.81-5.78,23.37-5.78,23.37
						s4.49,3.31,19.77,3.33c19.88,0.02,19.49-5.95,20.89-10.06c2.35-6.91-4.95-19.65-4.95-19.65L63.56,430.4z"/>
					<path id="XMLID_2636_" class="st9" d="M116.72,405.81c0,0-13.71-19.45-27.43-9.64c-13.72,9.81-5.78,23.37-5.78,23.37
						s4.49,3.31,19.77,3.33c19.88,0.02,20.84-3.93,22.24-8.05c2.35-6.91-6.29-21.66-6.29-21.66L116.72,405.81z"/>
				</g>
				<g id="XMLID_2622_">
					<polygon id="XMLID_2633_" class="st9" points="362.8,413.58 369.52,413.58 369.52,265.91 304.35,301 307.54,306.91 
						362.8,277.15 					"/>
					<polygon id="XMLID_2631_" class="st9" points="400.58,442.74 407.24,441.9 401.95,295.1 303.41,296.62 304.4,303.26 
						396.15,302.76 					"/>
					<polygon id="XMLID_2629_" class="st9" points="298.13,407.59 320.11,341.64 289.05,334.22 287.49,340.76 311.42,346.47 
						291.76,405.46 					"/>
					<path id="XMLID_2627_" class="st9" d="M297.63,406.86c0,0,6.48-11.08,16.34-4.03c9.86,7.05,4.15,16.79,4.15,16.79
						s-3.23,3.02-14.21,3.36s-13.58,0-15.63-2.35c-2.06-2.35,4.66-19.97,4.66-19.97L297.63,406.86z"/>
					<path id="XMLID_2625_" class="st9" d="M410.77,431.3c0,0,10.35-15.42,24.07-5.61c13.72,9.81,5.78,23.37,5.78,23.37
						s-4.49,3.31-19.77,3.33c-19.88,0.02-19.49-5.95-20.89-10.06c-2.35-6.91,4.95-19.65,4.95-19.65L410.77,431.3z"/>
					<path id="XMLID_2623_" class="st9" d="M370.49,406.71c0,0,13.71-19.45,27.43-9.64c13.72,9.81,5.78,23.37,5.78,23.37
						s-4.49,3.31-19.77,3.33c-19.88,0.02-20.84-3.93-22.24-8.05c-2.35-6.91,6.29-21.66,6.29-21.66L370.49,406.71z"/>
				</g>
				<g id="XMLID_2617_">
					<path id="XMLID_2621_" class="st5" d="M318.53,290.72c0,40.54-32.33,61.99-72.21,61.99s-70.19-21.45-70.19-61.99
						s30.31-54.6,70.19-54.6S318.53,250.17,318.53,290.72z"/>
					<path id="XMLID_2618_" class="st9" d="M245.45,356.07c-21.09,0-39.14-5.73-52.2-16.57c-13.97-11.6-21.35-28.47-21.35-48.78
						c0-37.92,25.43-57.96,73.55-57.96c48.73,0,75.57,20.58,75.57,57.96c0,20.24-7.75,37.12-22.41,48.82
						C285.25,350.2,266.37,356.07,245.45,356.07z M245.45,239.47c-44.35,0-66.83,17.24-66.83,51.24c0,36.17,25.61,58.63,66.83,58.63
						c41.82,0,68.85-23.01,68.85-58.63C314.29,248.36,276.85,239.47,245.45,239.47z"/>
				</g>
				<g id="XMLID_2613_">
					<ellipse id="XMLID_2616_" class="st0" cx="323.3" cy="418.75" rx="36.77" ry="9.28"/>
				</g>
				<polyline class="st9" points="305.41,303.83 307.14,313 412.46,349.1 410.77,348.44 403.93,363.73 406.75,369.76 417.21,349.24 
					415.67,343.96 				"/>
				<polyline class="st9" points="189.09,305.79 187.48,314.24 71.18,346.69 72.86,346.02 79.7,361.31 76.89,367.35 66.43,346.83 
					67.96,341.55 				"/>
			</g>
		</g>
		<g>
			<g id="XMLID_2608_">
				<ellipse id="XMLID_2612_" class="st10" cx="219.12" cy="247.66" rx="45" ry="46.54"/>
				<path id="XMLID_2609_" class="st9" d="M218.24,296.55c-26.11,0-47.35-21.93-47.35-48.89c0-26.96,21.24-48.89,47.35-48.89
					c26.11,0,47.35,21.93,47.35,48.89C265.6,274.62,244.35,296.55,218.24,296.55z M218.24,203.48c-23.52,0-42.65,19.82-42.65,44.19
					c0,24.37,19.13,44.19,42.65,44.19s42.65-19.82,42.65-44.19C260.89,223.3,241.76,203.48,218.24,203.48z"/>
			</g>
			<g id="XMLID_2551_">
				<ellipse id="XMLID_2607_" class="st10" cx="286.35" cy="255.26" rx="37.13" ry="36.41"/>
				<path id="XMLID_2604_" class="st9" d="M285.47,294.02c-21.77,0-39.48-17.39-39.48-38.76c0-21.37,17.71-38.76,39.48-38.76
					c21.77,0,39.48,17.39,39.48,38.76C324.95,276.63,307.24,294.02,285.47,294.02z M285.47,221.2c-19.18,0-34.78,15.28-34.78,34.06
					c0,18.78,15.6,34.06,34.78,34.06c19.18,0,34.78-15.28,34.78-34.06C320.25,236.48,304.65,221.2,285.47,221.2z"/>
			</g>
			<circle id="XMLID_2544_" class="st9" cx="221.16" cy="252.5" r="20.73"/>
			<circle id="XMLID_2542_" class="st10" cx="232.27" cy="249.35" r="5.71"/>
			<ellipse id="XMLID_2538_" class="st9" cx="289.33" cy="257.41" rx="16.8" ry="16.12"/>
			<circle id="XMLID_2536_" class="st10" cx="286.09" cy="254.54" r="4.62"/>
		</g>
		<g>
			<g>
				<path class="st11" d="M158.15,352.08l-119,35.82c-0.73,0.22-1.5-0.21-1.69-0.95l-0.89-3.48c-0.17-0.68,0.21-1.38,0.88-1.6
					l118.61-39.61L158.15,352.08z"/>
			</g>
			<g>
				<path class="st12" d="M143.85,346.33c0,0-2.39,5.58,2.62,9.27l16.38-4.98c0,0-3.66-5.05-2.45-9.91L143.85,346.33z"/>
			</g>
			<g>
				<path class="st13" d="M160.39,340.7c0,0,2.62-10.35,13.34-12.32c10.72-1.98,12.03,5.17,18.98,2.48
					c6.95-2.68,4.09,28.52-29.87,19.75C162.84,350.61,158.9,346.63,160.39,340.7z"/>
			</g>
			<g>
				<path class="st6" d="M178.49,328.06c0,0,5.53-0.54,8.01,1.41c2.47,1.95,8.26-2.46,8.26-2.46l-1.26,2.23c0,0,4.35-3.38,5.32-5.06
					l-1.84,7.08l1.49-1.86c0,0-2.26,16.67-13.76,20.7c0,0,4.3-3.84,5.41-5.32c1.11-1.48-4.66,3.53-6.9,4.07s3.52-3.04,1.74-3.99
					c-1.79-0.95-6.72,2.39-6.15,0.55c0.57-1.84,7.5-6.48,7.18-7.91c-0.32-1.43-8.4,1.26-9.32-0.58c-0.92-1.85,6.54-1.93,6.88-3.41
					c0.34-1.48-4.16-1.38-4.59-2.09c-0.43-0.71,2.16,0.46,3.74-0.76S178.49,328.06,178.49,328.06z"/>
			</g>
		</g>
		<path id="XMLID_2531_" class="st9" d="M82.94,371.62c0,0,10.76,17.4,23.49,8.83s5.86-21.1,5.86-21.1s-2.81-5.5-16.7-5.91
			c-18.08-0.54-19.67,7.04-19.84,10.99"/>
		<g>
			<path class="st14" d="M268,168.26c1.28-6.18,5.5-10.95,12.19-13.82c4.88-2.09,9.35-2.42,9.54-2.44c1.22-0.09,2.28,0.84,2.37,2.06
				c0.02,0.23,0,0.46-0.06,0.69c-0.23,0.94-1.03,1.61-2,1.68c-0.15,0.01-14.89,1.24-17.59,12.23c-0.04,0.16-0.08,0.33-0.11,0.5
				c-0.25,1.2-1.43,1.97-2.62,1.72C268.52,170.63,267.75,169.45,268,168.26z"/>
			<path class="st15" d="M326.13,244.08c-10.5-4.03-45.98-15.27-144.41-30.07c-2.1-0.32-3.48-2.37-2.98-4.44l3.63-14.77
				l150.93,37.11l-2.37,9.65C330.41,243.68,328.16,244.86,326.13,244.08z"/>
			<path class="st16" d="M269.6,229.32c34.17,7.08,50.07,12.28,56.53,14.76c2.03,0.78,4.28-0.4,4.8-2.51l2.37-9.65l-120.41-29.6
				L269.6,229.32z"/>
			<path class="st17" d="M343.99,239.07l-174.4-42.88c-2.76-0.68-4.45-3.47-3.77-6.23l0,0c1.08-4.41,4.05-8.11,8.12-10.13
				l11.55-5.74c53.92-26.77,119.29-10.7,154.65,38.02l7.58,10.44c2.67,3.67,3.58,8.33,2.49,12.74l0,0
				C349.54,238.06,346.75,239.75,343.99,239.07z"/>
			<path class="st16" d="M344.44,239.52c2.76,0.68,5.55-1.01,6.23-3.77c1.08-4.41,0.17-9.07-2.49-12.74l-7.58-10.44
				c-3.79-5.23-7.93-10.07-12.36-14.53c0.27,6.35,0.82,11.98,1.22,15.07c1.07,8.23-23.35,9.54-23.54,16.43L344.44,239.52z"/>
		</g>
		<g id="palette">
			<path class="st18" d="M374.03,310.63c-17.22-5.06-35.07,0.87-46.35,15.01c-8.53,10.7-12.42,22.82-9.53,36.35
				c4.89,22.84,17.19,40.4,38.39,51.04c7.47,3.75,15.48,5.65,23.91,5.16c9.53-0.55,16.64-4.92,20.96-13.55
				c0.68-1.36,1.19-2.79,1.83-4.3c0.88-2.84,0.67-5.76,0.63-6.34c-0.47-7.27-3.91-12.96-9.3-17.56c-3.73-3.19-7.68-6.14-11.42-9.32
				c-4.22-3.58-5.02-9.34-1.83-13.51c2.81-3.68,6.72-4.78,11.22-4.23c1.72,0.21,3.48,0.44,5.19,0.31c5.64-0.41,8.91-4.38,8.33-9.99
				c-0.47-4.51-2.2-8.55-5.17-11.95C393.61,319.44,384.55,313.72,374.03,310.63z M389.98,401.28c-3.23,2.35-9.24-0.42-13.42-6.17
				c-4.18-5.76-4.96-12.33-1.73-14.67c3.23-2.35,9.24,0.42,13.42,6.17C392.43,392.36,393.2,398.93,389.98,401.28z"/>
			<path class="st8" d="M388.46,326.83c3.28,1.78,4.49,5.88,2.71,9.16c-1.78,3.28-5.88,4.49-9.16,2.71
				c-3.28-1.78-4.49-5.88-2.71-9.16C381.08,326.26,385.18,325.04,388.46,326.83z"/>
			<path class="st7" d="M363.77,319.85c3.28,1.78,4.49,5.88,2.71,9.16c-1.78,3.28-5.88,4.49-9.16,2.71
				c-3.28-1.78-4.49-5.88-2.71-9.16C356.4,319.28,360.5,318.07,363.77,319.85z"/>
			<path class="st4" d="M340,333.75c3.28,1.78,4.49,5.88,2.71,9.16c-1.78,3.28-5.88,4.49-9.16,2.71c-3.28-1.78-4.49-5.88-2.71-9.16
				C332.62,333.18,336.72,331.97,340,333.75z"/>
			<path class="st6" d="M357.09,384.18c3.28,1.78,4.49,5.88,2.71,9.16c-1.78,3.28-5.88,4.49-9.16,2.71
				c-3.28-1.78-4.49-5.88-2.71-9.16C349.71,383.61,353.81,382.39,357.09,384.18z"/>
			<path class="st5" d="M339.76,361.38c3.28,1.78,4.49,5.88,2.71,9.16c-1.78,3.28-5.88,4.49-9.16,2.71
				c-3.28-1.78-4.49-5.88-2.71-9.16C332.38,360.82,336.48,359.6,339.76,361.38z"/>
		</g>
		<path id="XMLID_1855_" class="st9" d="M399.72,356.57c0,0-14.02-14.9-24.78-3.96s-1.52,21.84-1.52,21.84s3.85,4.83,17.55,2.45
			c17.82-3.09,17.86-10.83,17.24-14.74"/>
	</g>
</g>
</svg>
