<svg xmlns="http://www.w3.org/2000/svg" width="646" height="646" viewBox="0 0 646 646"><style type="text/css">
	.st0{fill:#273942;}
	.st1{fill:#B7CDD8;}
	.st2{fill:#E2E2F7;}
	.st3{fill:#52677A;}
	.st4{fill:#354F5C;}
	.st5{fill:#CE521F;}
	.st6{fill:#EBEBEB;}
	.st7{fill:#8E96A3;}
	.st8{fill:#3D4D5C;}
	.st9{fill:#3E9697;}
	.st10{fill:#68B7CE;}
	.st11{fill:#E8E8E8;}
	.st12{fill:#FFFFFF;}
	.st13{fill:#828282;}
	.st14{fill:#CCCCCC;}
	.st15{fill:#606060;}
	.st16{fill:#C6C6C6;}
	.st17{opacity:0.15;}
	.st18{fill:#1D1E1C;}
	.st19{fill:#FFD700;}
	.st20{fill:#FF9700;}
	.st21{fill:#FFFFE8;}
	.st22{fill:#F2DAB8;}
	.st23{fill:#D44D41;}
	.st24{opacity:0.3;}
	.st25{opacity:0.3;fill:#FFFFFF;}
	.st26{fill:#F01C01;}
	.st27{fill:#DBDAD9;}
	.st28{opacity:0.4;fill:#FFFFFF;}
	.st29{opacity:0.2;}
	.st30{opacity:0.2;fill:#020202;}
	.st31{fill:#F3554B;}
	.st32{fill:#BF2C28;}
	.st33{fill:#1F6A7B;}
	.st34{fill:#0594AF;}
	.st35{fill:#38A9B4;}
	.st36{opacity:0.2;fill:#1D1E1C;}
	.st37{opacity:0.64;fill:#A6D9ED;}
	.st38{fill-rule:evenodd;clip-rule:evenodd;fill:#F0F0F0;}
	.st39{fill-rule:evenodd;clip-rule:evenodd;fill:#E1DDDD;}
	.st40{fill-rule:evenodd;clip-rule:evenodd;fill:#FFFFFF;}
	.st41{fill-rule:evenodd;clip-rule:evenodd;fill:#AF3737;}
	.st42{fill-rule:evenodd;clip-rule:evenodd;fill:#990000;}
	.st43{fill:#990000;}
	.st44{fill:#510000;}
	.st45{opacity:0.5;fill-rule:evenodd;clip-rule:evenodd;fill:#8E2525;}
	.st46{fill:#2BA2B2;}
	.st47{fill:#34AAC0;}
	.st48{fill:#F69F00;}
	.st49{fill:#F59E00;}
	.st50{opacity:0.1;}
	.st51{fill:#ED9406;}
	.st52{fill:#C6006D;}
	.st53{fill:#A50263;}
	.st54{fill:#6AC700;}
	.st55{fill:#5B9904;}
	.st56{fill:#070707;}
</style><ellipse class="st17" cx="321" cy="549.5" rx="209" ry="37.4"/><polygon class="st46" points="508 398.3 342.5 398.2 336.5 348.7 499.5 348.7 "/><polygon class="st47" points="508 553.7 341.4 553.7 342.5 398.2 508 398.2 "/><path class="st12" d="M474.1 537.9h-99.7c-10 0-18.1-7.7-18.1-17l0.6-93c0.1-9.3 8.2-16.9 18.2-16.9h99.1c9.9 0 18.1 7.6 18.1 16.9l-0.1 93C492.3 530.3 484.1 537.9 474.1 537.9z"/><path class="st47" d="M426.3 421.9c12.7 0 22.6 2.7 29.8 8.1 7.2 5.4 10.8 12.9 10.8 22.5 0 5.3-1.5 9.9-4.6 13.7 -3 3.9-7.5 7-13.3 9.4 6.6 1.8 11.4 4.9 14.3 9.1 2.9 4.3 4.3 9.5 4.3 15.8l0 5.3c0 2.3 0.5 4.1 1.5 5.4 1 1.3 2.6 2 4.9 2.3l2.8 0.4 0 12.7H465c-7.4 0-12.5-1.9-15.5-5.6 -3-3.7-4.4-8.5-4.4-14.4l0-6c0-5.1-1.4-9.1-4.3-12 -2.9-2.9-7-4.4-12.3-4.6h-18.4L410 512l12 2.2 0 12.7h-46.5l0.1-12.7 12-2.2 0.4-75.3 -11.9-2.2 0.1-12.6H388 426.3zM410.2 468.1h15.5c6.3 0 11-1.2 14.1-3.7 3.1-2.5 4.7-6.1 4.7-10.8 0-4.7-1.5-8.4-4.6-11.2 -3.1-2.8-7.7-4.2-13.7-4.2h-15.9L410.2 468.1z"/><polygon class="st48" points="347.2 559.4 206.9 583.1 206.9 420 350.5 397.4 "/><path class="st12" d="M319.6 548.1l-85.2 14.3c-8.2 1.4-14.9-5.1-14.9-14.4l0.2-98.8c0-9.6 6.9-18.5 15.2-19.9l86.9-13.8c8.2-1.3 14.8 5.4 14.7 15l-1.8 98.3C334.5 538.1 327.7 546.8 319.6 548.1z"/><path class="st49" d="M311.9 468.6l-13.3 2.2 -1.7-13.4c-1.7-1.7-3.9-3-6.6-3.7 -2.7-0.7-5.8-0.8-9.5-0.2 -7.8 1.3-13.9 5.5-18.1 12.7 -4.3 7.2-6.4 16-6.5 26.4l0 3.6c-0.1 10.4 2 18.5 6.1 24.2 4.1 5.8 9.9 8 17.5 6.8 3.5-0.6 6.7-1.7 9.6-3.3 2.9-1.6 5.2-3.6 6.8-5.8l2-13.8 13.2-2.2 -0.3 20c-3.6 5.3-8.2 9.8-13.8 13.5 -5.6 3.7-11.8 6.1-18.6 7.3 -11.9 2-21.6-1.1-29.2-9.2 -7.6-8.2-11.4-19.7-11.3-34.6l0-3.4c0.1-14.9 4-27.8 11.7-38.7 7.7-10.9 17.7-17.4 29.9-19.3 7-1.1 13.2-0.7 18.8 1.4 5.5 2 10.1 5.1 13.7 9.3L311.9 468.6z"/><polygon class="st48" points="206.9 583.4 128.5 534.5 128.5 373.8 206.9 419.4 "/><path class="st12" d="M182.2 551.6l-30.1-18.6c-9.2-5.7-16.8-17.9-16.8-27v-98.2c0-9.2 7.5-12.3 16.8-6.9l30.1 17.6c9.4 5.5 17.2 17.7 17.2 27v99.8C199.3 554.6 191.6 557.4 182.2 551.6z"/><path class="st49" d="M185.9 471.8l-7.4-4.4 -1-14.3c-1-2.6-2.2-4.9-3.7-7 -1.5-2.1-3.2-3.7-5.2-4.9 -4.3-2.5-7.6-1.3-9.9 3.8 -2.3 5.1-3.5 12.8-3.5 23.1v3.6c0 10.4 1.1 19.5 3.4 27.3 2.3 7.9 5.5 13.1 9.7 15.7 1.9 1.2 3.7 1.7 5.3 1.5 1.6-0.2 2.9-1 3.8-2.5l1-13 7.4 4.5v20.3c-2 3.6-4.6 5.8-7.7 6.7 -3.1 0.9-6.6 0.2-10.4-2.1 -6.6-4.1-12-12.1-16.2-24.2 -4.2-12-6.3-25.4-6.3-40.2v-3.4c0-14.7 2.1-25.6 6.2-32.7 4.2-7 9.6-8.6 16.2-4.7 3.8 2.3 7.3 5.7 10.4 10.4 3.1 4.7 5.7 10 7.7 16V471.8z"/><g class="st50"><polygon points="206.9 583.4 128.5 534.5 128.5 373.8 206.9 419.4 "/></g><polygon class="st51" points="351.1 398.2 274.8 352.9 129.1 374.1 206.9 420.8 "/><rect x="359.6" y="224.3" class="st52" width="162.6" height="162.6"/><path class="st12" d="M494.8 370.5H386c-6.6 0-12-5.4-12-12V249.7c0-6.6 5.4-12 12-12h108.8c6.6 0 12 5.4 12 12v108.8C506.8 365.1 501.4 370.5 494.8 370.5z"/><path class="st52" d="M445.4 249.3c13.2 0 24 4.2 32.6 12.6 8.5 8.4 12.8 19.2 12.8 32.4v17.9c0 13.2-4.3 24-12.8 32.4 -8.5 8.4-19.4 12.6-32.6 12.6h-48.5v-13l11.5-2.2v-77.4l-11.5-2.2v-13h11.5H445.4zM430 265.9v74.6h14.3c7.8 0 13.8-2.6 18.2-7.9 4.4-5.2 6.6-12.1 6.6-20.5v-18c0-8.3-2.2-15.1-6.6-20.4 -4.4-5.2-10.5-7.9-18.2-7.9H430z"/><polygon class="st52" points="361 386.8 337 366.6 337 188.9 361 224.3 "/><path class="st12" d="M349.4 360L349.4 360c-5.5-5-10.2-14-10.2-19.9V217.6c0-5.8 4.7-4 10.2 3.8l0 0c5.3 7.5 9.5 17.9 9.5 23.3v114C358.9 364.1 354.7 364.8 349.4 360z"/><path class="st52" d="M350.2 234.4c1.9 2.6 3.5 9.1 4.7 19.4 1.2 10.2 1.8 21.9 1.8 35.3v18.1c0 13.5-0.6 23.8-1.8 31.1 -1.2 7.4-2.8 10.2-4.7 8.3l-7.3-7v-13.9l1.8-0.6V243l-1.8-4.7v-13.9l1.8 2.4L350.2 234.4zM347.9 248.8v78.4l2.1 2.2c1.1 1.2 2-0.6 2.7-5.4 0.6-4.7 0.9-11.4 0.9-20.1v-18.5c0-8.6-0.3-16-0.9-22.2 -0.6-6.2-1.5-10.1-2.7-11.6L347.9 248.8z"/><polygon class="st50" points="361 386.8 337 366.6 337 188.9 361 224.3 "/><polygon class="st53" points="337 188.9 492.5 188.9 523.6 224.3 359.6 224.3 "/><rect x="187.1" y="245.5" class="st54" width="164" height="171.1"/><path class="st12" d="M323.6 399.3H213.7c-6.6 0-12-5.4-12-12V271.6c0-6.6 5.4-12 12-12h109.9c6.6 0 12 5.4 12 12v115.7C335.6 393.9 330.2 399.3 323.6 399.3z"/><path class="st54" d="M260 280.4v12.1l-10.3 2.1v52.4c0 6.6 1.7 11.6 5.1 14.8 3.4 3.3 8.1 4.9 14 4.9 6 0 10.8-1.6 14.2-4.9 3.4-3.3 5.2-8.2 5.2-14.9v-52.4l-10.2-2.1v-12.1h39.8v12.1l-10.3 2.1v52.4c0 11.3-3.6 19.9-10.7 26 -7.1 6.1-16.4 9.2-28 9.2 -11.5 0-20.8-3.1-27.8-9.2 -7.1-6.1-10.6-14.8-10.6-26v-52.4l-10.2-2.1v-12.1h10.2 19.3H260z"/><polygon class="st54" points="187.5 416.5 164.1 380.2 164.3 209.8 187.2 245.1 "/><path class="st12" d="M177.2 383.1l-3-4.7c-4.4-6.8-8-16.6-8-21.8l0.1-120.8c0-5 3.6-3.6 7.9 3.1l3 4.6c4.4 6.7 7.9 16.3 7.9 21.3l0.2 121.3C185.3 391.3 181.7 389.9 177.2 383.1z"/><path class="st54" d="M174.5 259.8l0 12 -1.5-0.2 0 52.1c0 6.6 0.2 12 0.7 16 0.5 4.1 1.1 6.7 2 8 0.9 1.3 1.5 0.7 2-1.8 0.5-2.5 0.7-7.1 0.7-13.8l0-52.2 -1.4-4.3 0-12 5.6 8.6 0 12 -1.4-0.2 0.1 52.2c0 11.3-0.5 19.3-1.5 23.9 -1 4.6-2.3 5.6-4 3.1 -1.6-2.5-3-7.6-4-15.4 -1-7.7-1.5-17.2-1.5-28.5l0-52.1 -1.4-4.3 0-12 1.4 2.2 2.7 4.2L174.5 259.8z"/><polygon class="st50" points="187.5 416.5 164.1 380.2 164.3 209.8 187.2 245.1 "/><polygon class="st55" points="164.5 210.1 320 210.1 351.1 245.5 187.1 245.5 "/><ellipse class="st36" cx="224.8" cy="230" rx="18.6" ry="5"/><polygon class="st18" points="260.3 214.4 255.9 214.4 232.2 76.3 270.2 91.6 267.4 94.5 237.3 83.8 "/><polygon class="st18" points="232.8 211.8 230.8 218.8 209.1 77.2 273.6 104 269.7 107.1 215 83.9 "/><polygon class="st18" points="287.1 224.4 233 120.6 289.6 126.2 291.2 130.3 242.1 125.7 293 227.1 "/><polyline class="st18" points="312.7 93.7 313.8 209 308.9 208.4 306.6 89.5 "/><path class="st18" d="M308.7 206.3c0 0-5.5-9.7-11.4-3.5 -6 6.2-2.5 14.8-2.5 14.8s2 2.7 8.6 3c6.6 0.3 8.2 0 9.5-2.1s1-11.4 1-11.4L308.7 206.3z"/><path class="st18" d="M231 216.6c1.7 2.6-11.5-13.6-19.5-6.5 -9.7 8.6-4.1 20.5-4.1 20.5s3.2 2.9 14 2.9c14.1 0 13-3.7 14-7.3 1.7-6.1-3.5-18.8-3.5-18.8L231 216.6z"/><path class="st18" d="M255.9 211.3c0 0-2.5-9.1-9-3.3 -3.8 3.4-4 7.6-3.6 10.4 0.4 2.3 2 4.1 4.3 4.6 1.4 0.3 3.3 0.7 5.9 0.6 9.3-0.4 8-3.3 8.1-4.7 0.2-7.9-2.8-12.7-2.8-12.7L255.9 211.3z"/><path class="st18" d="M285.6 222.3c0 0-8.2-14.2-18.1-5.6s-2.6 19.8-2.6 19.8 3.3 3.5 14.3 3.5c14.4 0 15.7-7.3 14.7-11 -4.9-17.3-12.2 5.2-5.8-7.2L285.6 222.3z"/><polygon class="st18" points="397.3 186.4 402.4 186.4 414.4 85.5 354.8 117.2 356.1 124.7 407.7 94.6 "/><polygon class="st18" points="418.4 206 424.1 210.7 421.3 143.7 352.9 125.7 348.3 131.9 415.9 148.7 "/><polygon class="st18" points="370.2 206.2 352.4 155.2 318 128.8 316.4 134.4 349.2 159.6 365 206 "/><polyline class="st18" points="346.9 121.1 374.1 184.4 378.9 186.2 352.9 116.8 "/><path class="st18" d="M379.1 184.2c0 0 4.7-9.7 10.7-3.5 6 6.2 2.5 14.8 2.5 14.8s-2 2.7-8.6 3 -8.2 0-9.5-2.1 0.1-17.3 0.1-17.3L379.1 184.2z"/><path class="st18" d="M424.8 204.2c0 0 8.3-15.9 18-7.2 5.5 4.9 6.1 10.8 5.6 15 -0.5 3.8-3.4 6.9-7.1 7.7 -2.1 0.4-4.8 0.7-8.3 0.7 -14.1 0-13.8-5.2-14.8-8.8 -1.7-6.1 2.1-12.1 2.1-12.1L424.8 204.2z"/><path class="st18" d="M402.4 185.2c0 0 4.9-11.4 11.3-5.6 3.6 3.2 4 7.2 3.7 10 -0.3 2.5-2.2 4.6-4.7 5.1 -1.4 0.3-3.2 0.5-5.5 0.5 -9.3 0-9.7-2.3-10.4-4.7 -1.1-4 2.8-14.2 2.8-14.2L402.4 185.2z"/><path class="st18" d="M369.6 204.5c0 0 7.4-13.4 17.4-4.8 9.9 8.6 4.2 20.5 4.2 20.5s-3.3 3.5-14.3 3.5c-14.4 0-15.2-7.2-14.7-11 2.3-15.8 5-11.9 5-11.9L369.6 204.5z"/><path class="st35" d="M354.3 36c35 26.4 33.3 46.3 9.7 77.6 -18.7 24.7-47.9 32.2-76.3 10.7 -28.4-21.5-24.1-47.7-5.5-72.4S325.9 14.6 354.3 36z"/><path class="st18" d="M365.9 116c-9.9 13.1-22.3 21.2-36 23.6 -14.7 2.5-30-1.8-44.2-12.6 -26.6-20.1-28.8-46.5-6.3-76.3 22.8-30.2 49.8-36 76-16.2 14.2 10.7 26.8 23.8 28.1 39.1C384.7 87.6 375.7 103 365.9 116zM284.1 54.3c-20.8 27.5-19.2 50.6 4.7 68.6 25.4 19.1 53.1 15.1 72.4-10.4 24.5-32.5 22.6-49.9-8.9-73.7C322.6 16.3 298.8 34.8 284.1 54.3z"/><path class="st12" d="M293.7 74.9c8.2 19.4 5.9 38.5-5.6 43.4 -11.5 4.9-27.5-6.9-35.7-26.2 -8.2-19.4-5.5-32.8 6-37.7C269.8 49.4 285.5 55.5 293.7 74.9z"/><path d="M256.9 52.8c-6 2.5-9.9 8.8-11.2 17.7 -1.2 8.8 0.4 12.9 4.6 22.8 4.2 9.9 10.4 18.2 17.6 23.5 7.2 5.3 14.5 6.8 20.5 4.3 2.6-1.1 4.7-2.8 6.4-5.1 6.5-8.6 6.7-24.7-0.2-41C285.9 54.2 268.9 47.7 256.9 52.8zM286.7 116.7c-10.7 4.5-25.7-6.5-33.4-24.7 -3.7-8.8-5.2-11.8-4.2-19.6 0.6-4.5 2-8.2 4.1-11 1.5-2 3.3-3.5 5.5-4.4 5.1-2.2 11.3-0.7 17.6 4.1 6.2 4.8 11.7 6.1 15.5 15C299.5 94.4 297.3 112.2 286.7 116.7z"/><ellipse transform="matrix(0.7753 -0.6316 0.6316 0.7753 -2.0812 192.9214)" class="st18" cx="270.1" cy="99.4" rx="7.9" ry="17"/><ellipse transform="matrix(0.762 -0.6476 0.6476 0.762 -1.8134 201.642)" class="st12" cx="273.4" cy="103.3" rx="3.5" ry="4.7"/><path class="st12" d="M313.6 70.4c6.9 16.3 4.4 32.9-5.5 37.1 -9.9 4.2-23.6-5.6-30.5-21.8s-4.4-29 5.5-33.2S306.7 54.1 313.6 70.4z"/><path d="M281.7 50.8c-5.2 2.2-8.7 7.6-9.8 15.2 -1.1 7.5 0.2 12.5 3.8 20.9 3.6 8.4 9 15.5 15.1 20 6.2 4.5 12.6 5.7 17.8 3.5 2.3-1 4.2-2.5 5.7-4.6 5.7-7.6 6.1-21.6 0.3-35.4C307.2 52.9 292.5 46.2 281.7 50.8zM311.7 71.7c5 11.9 4.7 23.9-0.2 30.4 -1.3 1.7-2.9 3-4.8 3.8 -4.4 1.9-9.7 0.8-15-3 -5.3-3.8-10-9.9-13.1-17.2 -5-11.9-4.7-20.1 0.2-26.5 1.3-1.7 2.9-3 4.8-3.8 4.4-1.9 10.4-1.6 15.7 2.2C304.7 61.3 308.6 64.4 311.7 71.7z"/><ellipse transform="matrix(0.7433 -0.6689 0.6689 0.7433 13.5375 220.2809)" class="st18" cx="293.8" cy="92.5" rx="7.2" ry="14.2"/><ellipse transform="matrix(0.7601 -0.6499 0.6499 0.7601 9.2891 215.0791)" class="st12" cx="295.9" cy="95" rx="3" ry="4.1"/><ellipse class="st36" cx="272.9" cy="236.1" rx="20.5" ry="6.6"/><ellipse class="st36" cx="251.2" cy="220.1" rx="12" ry="5.4"/><ellipse class="st36" cx="303.1" cy="218.9" rx="13.5" ry="5.4"/><ellipse class="st36" cx="444.2" cy="216.9" rx="18.6" ry="5"/><ellipse class="st36" cx="381.9" cy="216.9" rx="20.5" ry="6.6"/><ellipse class="st36" cx="410.2" cy="193.9" rx="12" ry="5.4"/><path class="st36" d="M363.6 197.5c0 3 6.1 5.4 13.5 5.4 7.5 0 13.5-2.4 13.5-5.4 0-3-0.4-6.8-7.9-6.8C375.3 190.7 363.6 194.5 363.6 197.5z"/></svg>
