<svg xmlns="http://www.w3.org/2000/svg" width="646" height="646" viewBox="0 0 646 646"><style type="text/css">
	.st0{fill:#273942;}
	.st1{fill:#B7CDD8;}
	.st2{fill:#E2E2F7;}
	.st3{fill:#52677A;}
	.st4{fill:#354F5C;}
	.st5{fill:#CE521F;}
	.st6{fill:#EBEBEB;}
	.st7{fill:#8E96A3;}
	.st8{fill:#3D4D5C;}
	.st9{fill:#3E9697;}
	.st10{fill:#68B7CE;}
	.st11{fill:#E8E8E8;}
	.st12{fill:#FFFFFF;}
	.st13{fill:#828282;}
	.st14{fill:#CCCCCC;}
	.st15{fill:#606060;}
	.st16{fill:#C6C6C6;}
	.st17{opacity:0.15;}
	.st18{fill:#1D1E1C;}
	.st19{fill:#FFD700;}
	.st20{fill:#FF9700;}
	.st21{fill:#FFFFE8;}
	.st22{fill:#F2DAB8;}
	.st23{fill:#D44D41;}
	.st24{opacity:0.3;}
	.st25{opacity:0.3;fill:#FFFFFF;}
	.st26{fill:#F01C01;}
	.st27{fill:#DBDAD9;}
	.st28{opacity:0.4;fill:#FFFFFF;}
	.st29{opacity:0.2;}
	.st30{opacity:0.2;fill:#020202;}
	.st31{fill:#F3554B;}
	.st32{fill:#BF2C28;}
	.st33{fill:#1F6A7B;}
	.st34{fill:#0594AF;}
	.st35{fill:#38A9B4;}
	.st36{opacity:0.2;fill:#1D1E1C;}
	.st37{opacity:0.64;fill:#A6D9ED;}
	.st38{fill-rule:evenodd;clip-rule:evenodd;fill:#F0F0F0;}
	.st39{fill-rule:evenodd;clip-rule:evenodd;fill:#E1DDDD;}
	.st40{fill-rule:evenodd;clip-rule:evenodd;fill:#FFFFFF;}
	.st41{fill-rule:evenodd;clip-rule:evenodd;fill:#AF3737;}
	.st42{fill-rule:evenodd;clip-rule:evenodd;fill:#990000;}
	.st43{fill:#990000;}
	.st44{fill:#510000;}
	.st45{opacity:0.5;fill-rule:evenodd;clip-rule:evenodd;fill:#8E2525;}
	.st46{fill:#2BA2B2;}
	.st47{fill:#34AAC0;}
	.st48{fill:#F69F00;}
	.st49{fill:#F59E00;}
	.st50{opacity:0.1;}
	.st51{fill:#ED9406;}
	.st52{fill:#C6006D;}
	.st53{fill:#A50263;}
	.st54{fill:#6AC700;}
	.st55{fill:#5B9904;}
	.st56{fill:#070707;}
</style><ellipse class="st17" cx="333.5" cy="588.2" rx="114.3" ry="28.8"/><polygon class="st18" points="211.9 341.2 205 341.2 171.4 176.2 238.6 212.4 235.3 218.5 178.3 187.8 "/><polygon class="st18" points="245 322.3 222.4 254.3 254.4 246.6 256 253.4 231.3 259.3 251.6 320.1 "/><path class="st18" d="M245.6 321.6c0 0-6.7-11.4-16.9-4.2 -10.2 7.3-4.3 17.3-4.3 17.3s3.3 3.1 14.7 3.5c11.3 0.3 14 0 16.1-2.4 2.1-2.4-4.8-20.6-4.8-20.6L245.6 321.6z"/><path class="st18" d="M206.7 340.4c0 0-14.1-20.1-28.3-9.9 -14.2 10.1-6 24.1-6 24.1s4.6 3.4 20.4 3.4c20.5 0 21.5-4.1 22.9-8.3 2.4-7.1-6.5-22.3-6.5-22.3L206.7 340.4z"/><polygon class="st18" points="382.4 326.7 389.3 326.7 422.9 161.6 355.6 197.8 358.9 203.9 415.9 173.2 "/><polygon class="st18" points="349.2 319.1 371.9 251.1 339.8 243.4 338.2 250.1 362.9 256 342.6 316.9 "/><path class="st18" d="M348.7 318.3c0 0 6.7-11.4 16.9-4.2s4.3 17.3 4.3 17.3 -3.3 3.1-14.7 3.5c-11.3 0.3-14 0-16.1-2.4s4.8-20.6 4.8-20.6L348.7 318.3z"/><path class="st18" d="M387.6 337.2c0 0 14.1-20.1 28.3-9.9 14.2 10.1 6 24.1 6 24.1s-4.6 3.4-20.4 3.4c-20.5 0-21.5-4.1-22.9-8.3 -2.4-7.1 6.5-22.3 6.5-22.3L387.6 337.2z"/><path class="st35" d="M371.5 158.2c13.2 40.4-12.3 72.5-52.5 85.6s-77.6 1.7-90.8-38.8 12.7-64.4 52.8-77.5S358.3 117.7 371.5 158.2z"/><path class="st18" d="M321.3 251.3c-22.3 7.3-43.4 7.5-61 0.5 -18.8-7.4-32.4-22.7-39.5-44.2 -13.1-40.1 6.9-70.1 57.8-86.7 51.6-16.8 87.1-4.3 100 35.2 7 21.4 4.6 42-6.8 59.4C361.4 231.3 343.4 244 321.3 251.3zM281 127.9c-46.9 15.3-64.8 41.3-53 77.3 12.5 38.3 47.4 53.2 91 38.9 44.3-14.5 64.9-48.1 52.6-85.8C356.9 113.5 314.2 117.1 281 127.9z"/><ellipse class="st12" cx="341.9" cy="189.9" rx="34.4" ry="33.7"/><path class="st18" d="M341.1 225.8c-20.2 0-36.6-16.1-36.6-35.9 0-19.8 16.4-35.9 36.6-35.9 20.2 0 36.6 16.1 36.6 35.9C377.7 209.7 361.3 225.8 341.1 225.8zM341.1 158.4c-17.8 0-32.2 14.2-32.2 31.6 0 17.4 14.5 31.6 32.2 31.6 17.8 0 32.2-14.2 32.2-31.6C373.3 172.5 358.9 158.4 341.1 158.4z"/><ellipse class="st18" cx="344.7" cy="195.2" rx="15.6" ry="14.9"/><circle class="st12" cx="341.7" cy="192.5" r="4.3"/><ellipse transform="matrix(0.9996 -0.02788183 0.02788183 0.9996 -9.5954 11.5453)" class="st36" cx="409.2" cy="349.9" rx="30.2" ry="9.6"/><ellipse class="st36" cx="477" cy="329.4" rx="30.4" ry="9.6"/><ellipse class="st36" cx="358" cy="329" rx="20.5" ry="9.6"/><ellipse class="st12" cx="272.7" cy="201.2" rx="37.6" ry="38.9"/><path class="st18" d="M272 242c-21.8 0-39.5-18.3-39.5-40.8 0-22.5 17.7-40.8 39.5-40.8 21.8 0 39.5 18.3 39.5 40.8C311.5 223.7 293.8 242 272 242zM272 164.3c-19.6 0-35.6 16.5-35.6 36.9 0 20.3 16 36.9 35.6 36.9s35.6-16.5 35.6-36.9C307.6 180.9 291.6 164.3 272 164.3z"/><circle class="st18" cx="275.2" cy="203.3" r="17.3"/><circle class="st12" cx="284.5" cy="200.6" r="4.8"/><circle class="st37" cx="353.2" cy="211.5" r="44.4"/><path class="st18" d="M353.2 259.5c-28 0-48.1-20.1-48.1-48.1s20.1-48.1 48.1-48.1c28 0 48.1 20.1 48.1 48.1S381.2 259.5 353.2 259.5zM353.2 173.4c-21 0-38.1 17.1-38.1 38.1s17.1 38.1 38.1 38.1 38.1-17.1 38.1-38.1S374.2 173.4 353.2 173.4z"/><circle class="st37" cx="262.5" cy="216.9" r="44.4"/><path class="st18" d="M262.5 265c-28 0-48.1-20.1-48.1-48.1s20.1-48.1 48.1-48.1c28 0 48.1 20.1 48.1 48.1S290.5 265 262.5 265zM262.5 178.8c-21 0-38.1 17.1-38.1 38.1s17.1 38.1 38.1 38.1 38.1-17.1 38.1-38.1S283.5 178.8 262.5 178.8z"/><path class="st38" d="M370.4 204.5l-58.9 85.8c10.6-1.5 21.4-1.3 27.8 1.2l14 87.6 43.9-7L370.4 204.5z"/><path class="st39" d="M395.3 209.3l-83.8 81c10.6-1.5 21.4-1.3 27.8 1.2l14 87.6 67.4-10.8L395.3 209.3z"/><path class="st40" d="M339.4 291.5l131.9-53.2c-13.8-6.8-28.8-12-44.8-15.9l-115 67.9C322.1 288.8 332.9 289 339.4 291.5L339.4 291.5 339.4 291.5z"/><path class="st38" d="M471.3 238.2l19.1 118.9 -136.9 21.9 -14-87.6c-0.5-0.2-1-0.4-1.5-0.5L471.3 238.2z"/><path class="st39" d="M311.5 290.3c11-1.5 20.4-1.2 27.8 1.2l14 87.6 -27 4.3L311.5 290.3z"/><path class="st38" d="M228.8 227.2l82.8 63.1c-10.5 1.9-20.7 5.4-26.1 9.8l14 87.6 -43.9 7L228.8 227.2z"/><path class="st39" d="M206.6 239.5l104.9 50.8c-10.5 1.9-20.7 5.4-26.1 9.8l14 87.6 -67.4 10.8L206.6 239.5z"/><path class="st40" d="M285.5 300.1l-141.9-9.4c11-10.7 23.6-20.4 37.6-29.1l130.4 28.6C301 292.2 290.8 295.7 285.5 300.1L285.5 300.1 285.5 300.1z"/><path class="st38" d="M143.5 290.7l19.1 118.9 136.9-21.9 -14-87.6c0.4-0.3 0.8-0.7 1.3-1L143.5 290.7z"/><path class="st39" d="M311.5 290.3c-10.9 2-19.8 5.2-26.1 9.8l14 87.6 27-4.3L311.5 290.3z"/><polygon class="st41" points="127.4 299 285.5 300.1 329 571.6 170.9 570.5 "/><polygon class="st41" points="492.3 240.6 342.5 291 386 562.5 535.8 512.1 "/><path class="st42" d="M285.5 300.1L329 571.6l0 0c6.2 4.5 17.5 6.5 30 4.5 12.4-2 22.6-7.4 27.1-13.6L342.5 291c-4.4 6.2-14.6 11.6-27.1 13.6C303 306.6 291.6 304.7 285.5 300.1z"/><path class="st43" d="M345.8 317.8l37.3 239.4 -52.7 8.2L293.2 326 345.8 317.8z"/><path class="st44" d="M315.1 339.9c-1 0.3-1.6 0.6-1.9 1.1 -0.6 0.8-0.8 2.1-0.5 3.9 0.2 1.1 0.4 1.9 0.9 2.5 0.4 0.6 0.9 0.8 1.6 0.7 0.6-0.1 1-0.4 1.3-1 0.2-0.6 0.5-2.5 0.8-5.9 0.2-2.4 0.7-4.2 1.4-5.3 0.7-1.1 1.9-1.8 3.5-2 1.9-0.3 3.7 0.2 5.3 1.5 1.6 1.3 2.6 3.3 3 6 0.4 2.6 0.2 4.8-0.6 6.5 -0.8 1.8-2.4 3-4.9 3.6l-0.8-5.4c0.7-0.2 1.2-0.5 1.6-0.8 0.6-0.7 0.8-1.8 0.6-3.2 -0.2-1.2-0.5-2-0.9-2.4 -0.4-0.5-0.9-0.6-1.4-0.6 -0.6 0.1-1 0.4-1.2 1 -0.2 0.6-0.4 2.5-0.6 5.9 -0.2 2.2-0.7 3.9-1.5 5.2 -0.9 1.2-2.1 2-3.6 2.2 -2 0.3-3.8-0.2-5.4-1.5 -1.6-1.3-2.6-3.6-3.1-6.8 -0.5-3.3-0.2-5.8 0.9-7.5 1.1-1.8 2.7-2.8 4.9-3.1L315.1 339.9z"/><path class="st12" d="M318.4 339.4c-1 0.3-1.6 0.6-1.9 1.1 -0.6 0.8-0.8 2.1-0.5 3.9 0.2 1.1 0.4 1.9 0.9 2.5 0.4 0.6 0.9 0.8 1.6 0.7 0.6-0.1 1-0.4 1.3-1 0.2-0.6 0.5-2.5 0.8-5.9 0.2-2.4 0.7-4.2 1.4-5.3 0.7-1.1 1.9-1.8 3.5-2 1.9-0.3 3.7 0.2 5.3 1.5 1.6 1.3 2.6 3.3 3 6 0.4 2.6 0.2 4.8-0.6 6.5 -0.8 1.8-2.4 3-4.9 3.6l-0.8-5.4c0.7-0.2 1.2-0.5 1.6-0.8 0.6-0.7 0.8-1.8 0.6-3.2 -0.2-1.2-0.5-2-0.9-2.4 -0.4-0.5-0.9-0.6-1.4-0.6 -0.6 0.1-1 0.4-1.2 1 -0.2 0.6-0.4 2.5-0.6 5.9 -0.2 2.2-0.7 3.9-1.5 5.2 -0.9 1.2-2.1 2-3.6 2.2 -2 0.3-3.8-0.2-5.4-1.5 -1.6-1.3-2.6-3.6-3.1-6.8 -0.5-3.3-0.2-5.8 0.9-7.5 1.1-1.8 2.7-2.8 4.9-3.1L318.4 339.4z"/><path class="st44" d="M326.8 367.9c0.7-0.2 1.4-0.6 2-1.1 0.7-0.7 1-1.8 0.8-3 -0.3-1.8-1.4-2.9-3.3-3.3 -1-0.2-2.3-0.2-3.9 0.1 -1.5 0.2-2.7 0.6-3.6 1.1 -1.6 0.9-2.3 2.3-2 4 0.2 1.3 0.7 2.1 1.4 2.5 0.8 0.4 1.7 0.6 2.8 0.6l0.9 5.5c-1.7 0.1-3.3-0.2-4.9-1.1 -2.6-1.3-4.2-3.7-4.7-7 -0.5-3.3 0.1-5.9 1.8-7.8 1.7-1.9 4.2-3.1 7.3-3.5 3.5-0.6 6.4-0.1 8.7 1.3 2.2 1.4 3.6 3.6 4.1 6.7 0.4 2.6 0.1 4.8-0.8 6.6 -0.9 1.8-2.8 3.1-5.7 3.9L326.8 367.9z"/><path class="st12" d="M330 367.4c0.7-0.2 1.4-0.6 2-1.1 0.7-0.7 1-1.8 0.8-3 -0.3-1.8-1.4-2.9-3.3-3.3 -1-0.2-2.3-0.2-3.9 0.1 -1.5 0.2-2.7 0.6-3.6 1.1 -1.6 0.9-2.3 2.3-2 4 0.2 1.3 0.7 2.1 1.4 2.5 0.8 0.4 1.7 0.6 2.8 0.6l0.9 5.5c-1.7 0.1-3.3-0.2-4.9-1.1 -2.6-1.3-4.2-3.7-4.7-7 -0.5-3.3 0.1-5.9 1.8-7.8 1.7-1.9 4.2-3.1 7.3-3.5 3.5-0.6 6.4-0.1 8.7 1.3 2.2 1.4 3.6 3.6 4.1 6.7 0.4 2.6 0.1 4.8-0.8 6.6 -0.9 1.8-2.8 3.1-5.7 3.9L330 367.4z"/><path class="st44" d="M337.4 391.3c-0.3 1.1-0.8 2.1-1.6 2.9 -0.7 0.7-1.4 1.1-2.2 1.4 -0.8 0.3-2.1 0.5-4 0.8l-12.1 1.9 -0.9-5.5 12.6-2c1.1-0.2 2-0.5 2.6-1 0.9-0.6 1.2-1.7 1-3 -0.2-1.4-0.9-2.4-1.9-3 -1.1-0.6-2.5-0.8-4.3-0.5l-11.2 1.7 -0.8-5.4 27.8-4.3 0.8 5.4 -9.9 1.5c1.3 0.6 2.3 1.4 2.9 2.3 0.6 0.9 1 2 1.2 3.1C337.7 389 337.7 390.2 337.4 391.3z"/><path class="st12" d="M340.6 390.8c-0.3 1.1-0.8 2.1-1.6 2.9 -0.7 0.7-1.4 1.1-2.2 1.4 -0.8 0.3-2.1 0.5-4 0.8l-12.1 1.9 -0.9-5.5 12.6-2c1.1-0.2 2-0.5 2.6-1 0.9-0.6 1.2-1.7 1-3 -0.2-1.4-0.9-2.4-1.9-3 -1.1-0.6-2.5-0.8-4.3-0.5l-11.2 1.7 -0.8-5.4 27.8-4.3 0.8 5.4 -9.9 1.5c1.3 0.6 2.3 1.4 2.9 2.3 0.6 0.9 1 2 1.2 3.1C340.9 388.5 340.9 389.6 340.6 390.8z"/><path class="st44" d="M334.8 407.2c-0.9-0.6-2-0.9-3.4-0.8l1.3 8.4c1.4-0.3 2.4-0.9 3.1-1.8 0.6-0.9 0.8-1.9 0.6-3.1C336.3 408.7 335.7 407.8 334.8 407.2zM340.7 414.1c-0.4 1.5-1.3 2.8-2.5 3.9 -1.1 1-2.5 1.7-4 2.2 -0.9 0.3-2.3 0.5-4.1 0.8l-2.2-14.1c-2.1 0.4-3.4 1.3-4.1 2.6 -0.4 0.8-0.5 1.7-0.4 2.8 0.2 1.1 0.6 2 1.4 2.6 0.4 0.3 0.9 0.6 1.6 0.8l0.9 5.5c-1.3 0.1-2.6-0.4-4-1.3 -2.3-1.5-3.7-3.8-4.2-7 -0.4-2.6 0.1-5.1 1.5-7.3 1.4-2.3 4-3.7 7.8-4.3 3.6-0.6 6.4-0.1 8.6 1.4 2.2 1.5 3.5 3.7 4 6.6C341.2 411 341.1 412.6 340.7 414.1z"/><path class="st12" d="M338.1 406.7c-0.9-0.6-2-0.9-3.4-0.8l1.3 8.4c1.4-0.3 2.4-0.9 3.1-1.8 0.6-0.9 0.8-1.9 0.6-3.1C339.5 408.2 338.9 407.3 338.1 406.7zM343.9 413.5c-0.4 1.5-1.3 2.8-2.5 3.9 -1.1 1-2.5 1.7-4 2.2 -0.9 0.3-2.3 0.5-4.1 0.8l-2.2-14.1c-2.1 0.4-3.4 1.3-4.1 2.6 -0.4 0.8-0.5 1.7-0.4 2.8 0.2 1.1 0.6 2 1.4 2.6 0.4 0.3 0.9 0.6 1.6 0.8l0.9 5.5c-1.3 0.1-2.6-0.4-4-1.3 -2.3-1.5-3.7-3.8-4.2-7 -0.4-2.6 0.1-5.1 1.5-7.3 1.4-2.3 4-3.7 7.8-4.3 3.6-0.6 6.4-0.1 8.6 1.4 2.2 1.5 3.5 3.7 4 6.6C344.4 410.5 344.3 412.1 343.9 413.5z"/><path class="st44" d="M346.4 448.6c-0.2 0.9-0.7 1.8-1.5 2.7 -0.6 0.7-1.5 1.2-2.5 1.6 -0.7 0.2-1.7 0.5-3 0.7l-13 2 -0.9-5.5 13.1-2c0.8-0.1 1.4-0.4 1.9-0.7 0.9-0.6 1.2-1.6 1-2.9 -0.2-1.5-1-2.4-2.3-2.8 -0.7-0.2-1.5-0.2-2.4-0.1l-12.3 1.9 -0.8-5.4 12.3-1.9c1.2-0.2 2.1-0.5 2.6-0.8 0.9-0.6 1.3-1.6 1.1-2.9 -0.2-1.5-0.9-2.5-2-2.9 -0.6-0.2-1.5-0.2-2.6 0l-12.4 1.9 -0.9-5.5 20.6-3.2 0.8 5.2 -3 0.5c1.2 0.5 2 1 2.6 1.5 1 0.9 1.6 2.2 1.8 3.9 0.2 1.6 0.1 2.9-0.4 4 -0.5 0.9-1.3 1.6-2.2 2.2 1.3 0.5 2.3 1.2 3.1 2.2 0.7 1 1.2 2.2 1.4 3.6C346.6 446.7 346.6 447.6 346.4 448.6z"/><path class="st12" d="M349.6 448.1c-0.2 0.9-0.7 1.8-1.5 2.7 -0.6 0.7-1.5 1.2-2.5 1.6 -0.7 0.2-1.7 0.5-3 0.7l-13 2 -0.9-5.5 13.1-2c0.8-0.1 1.4-0.4 1.9-0.7 0.9-0.6 1.2-1.6 1-2.9 -0.2-1.5-1-2.4-2.3-2.8 -0.7-0.2-1.5-0.2-2.4-0.1l-12.3 1.9 -0.8-5.4 12.3-1.9c1.2-0.2 2.1-0.5 2.6-0.8 0.9-0.6 1.3-1.6 1.1-2.9 -0.2-1.5-0.9-2.5-2-2.9 -0.6-0.2-1.5-0.2-2.6 0l-12.4 1.9 -0.9-5.5 20.6-3.2 0.8 5.2 -3 0.5c1.2 0.5 2 1 2.6 1.5 1 0.9 1.6 2.2 1.8 3.9 0.2 1.6 0.1 2.9-0.4 4 -0.5 0.9-1.3 1.6-2.2 2.2 1.3 0.5 2.3 1.2 3.1 2.2 0.7 1 1.2 2.2 1.4 3.6C349.9 446.2 349.8 447.1 349.6 448.1z"/><path class="st44" d="M339.1 470.8c-0.3-0.3-0.5-0.6-0.7-0.9 -0.2-0.3-0.4-0.8-0.6-1.4l-0.4-1.2c-0.4-1.1-0.8-1.9-1.1-2.3 -0.6-0.8-1.5-1.1-2.5-0.9 -0.9 0.1-1.6 0.5-1.9 1.1 -0.3 0.6-0.5 1.2-0.3 2 0.2 1.1 0.7 2.2 1.5 3.1 0.8 0.9 2.2 1.2 4 0.9L339.1 470.8zM341.1 467.2c0.3 1 0.5 1.7 0.8 2.1 0.4 0.7 1 1 1.7 0.9 0.8-0.1 1.4-0.5 1.6-1.1 0.2-0.6 0.2-1.5 0.1-2.7 -0.2-1.3-0.7-2.1-1.4-2.6 -0.5-0.3-1.2-0.5-2-0.5l-0.8-5.2c1.8-0.2 3.4 0.1 4.7 0.8 2 1.1 3.3 3.4 3.9 6.9 0.3 2.2 0.2 4.3-0.4 6.2 -0.6 1.9-2.2 3-4.7 3.4l-9.5 1.5c-0.7 0.1-1.5 0.2-2.4 0.4 -0.7 0.2-1.2 0.3-1.4 0.5 -0.2 0.2-0.4 0.5-0.5 0.9l-0.8 0.1 -0.9-5.9c0.4-0.2 0.8-0.4 1.1-0.5 0.3-0.1 0.8-0.2 1.2-0.3 -0.9-0.6-1.8-1.4-2.5-2.3 -0.9-1.1-1.4-2.3-1.6-3.8 -0.3-1.9 0-3.5 0.9-4.9 0.9-1.4 2.3-2.3 4.2-2.5 2.5-0.4 4.5 0.3 6 2.1 0.8 1 1.5 2.5 2.1 4.5L341.1 467.2z"/><path class="st12" d="M342.3 470.3c-0.3-0.3-0.5-0.6-0.7-0.9 -0.2-0.3-0.4-0.8-0.6-1.4l-0.4-1.2c-0.4-1.1-0.8-1.9-1.1-2.3 -0.6-0.8-1.5-1.1-2.5-0.9 -0.9 0.1-1.6 0.5-1.9 1.1 -0.3 0.6-0.5 1.2-0.3 2 0.2 1.1 0.7 2.2 1.5 3.1 0.8 0.9 2.2 1.2 4 0.9L342.3 470.3zM344.3 466.7c0.3 1 0.5 1.7 0.8 2.1 0.4 0.7 1 1 1.7 0.9 0.8-0.1 1.4-0.5 1.6-1.1 0.2-0.6 0.2-1.5 0.1-2.7 -0.2-1.3-0.7-2.1-1.4-2.6 -0.5-0.3-1.2-0.5-2-0.5l-0.8-5.2c1.8-0.2 3.4 0.1 4.7 0.8 2 1.1 3.3 3.4 3.9 6.9 0.3 2.2 0.2 4.3-0.4 6.2 -0.6 1.9-2.2 3-4.7 3.4l-9.5 1.5c-0.7 0.1-1.5 0.2-2.4 0.4 -0.7 0.2-1.2 0.3-1.4 0.5 -0.2 0.2-0.4 0.5-0.5 0.9l-0.8 0.1 -0.9-5.9c0.4-0.2 0.8-0.4 1.1-0.5 0.3-0.1 0.8-0.2 1.2-0.3 -0.9-0.6-1.8-1.4-2.5-2.3 -0.9-1.1-1.4-2.3-1.6-3.8 -0.3-1.9 0-3.5 0.9-4.9 0.9-1.4 2.3-2.3 4.2-2.5 2.5-0.4 4.5 0.3 6 2.1 0.8 1 1.5 2.5 2.1 4.5L344.3 466.7z"/><path class="st44" d="M336.3 481.9l0.9 5.7 -5.6 0.9 -0.9-5.7L336.3 481.9z"/><path class="st12" d="M339.5 481.4l0.9 5.7 -5.6 0.9 -0.9-5.7L339.5 481.4z"/><path class="st44" d="M340.3 508.7c1.2 0.7 2.9 0.8 5 0.5 2.1-0.3 3.6-1 4.6-2 1-1 1.3-2.3 1.1-3.9 -0.2-1.6-1-2.7-2.2-3.4 -1.3-0.7-2.9-0.9-5-0.5 -2.1 0.3-3.6 1-4.6 2 -1 1-1.4 2.3-1.1 3.9C338.3 506.9 339.1 508 340.3 508.7zM338 513.5c-2.4-1.4-3.9-3.9-4.5-7.4 -0.6-3.5 0.1-6.4 2-8.4 1.9-2.1 4.3-3.3 7.4-3.8 3-0.5 5.7 0 8.2 1.4 2.4 1.4 3.9 3.9 4.5 7.4 0.5 3.5-0.1 6.4-2 8.4 -1.9 2.1-4.4 3.4-7.3 3.8C343.2 515.3 340.4 514.9 338 513.5z"/><path class="st12" d="M343.6 508.2c1.2 0.7 2.9 0.8 5 0.5 2.1-0.3 3.6-1 4.6-2 1-1 1.3-2.3 1.1-3.9 -0.2-1.6-1-2.7-2.2-3.4 -1.3-0.7-2.9-0.9-5-0.5 -2.1 0.3-3.6 1-4.6 2 -1 1-1.4 2.3-1.1 3.9C341.6 506.4 342.3 507.5 343.6 508.2zM341.3 513c-2.4-1.4-3.9-3.9-4.5-7.4 -0.6-3.5 0.1-6.4 2-8.4 1.9-2.1 4.3-3.3 7.4-3.8 3-0.5 5.7 0 8.2 1.4 2.4 1.4 3.9 3.9 4.5 7.4 0.5 3.5-0.1 6.4-2 8.4 -1.9 2.1-4.4 3.4-7.3 3.8C346.4 514.8 343.7 514.4 341.3 513z"/><path class="st44" d="M359.2 526.8c0 0.1 0 0.2 0 0.5l-5.5 0.9c0-0.3 0-0.7-0.1-0.9 0-0.3-0.1-0.5-0.1-0.6 -0.3-2.2-1.3-3.5-2.8-4 -0.9-0.3-2.1-0.3-3.8-0.1l-9.9 1.5 -0.8-5.4 20.6-3.2 0.8 5.2 -3.6 0.6c1.5 0.6 2.5 1.2 3.2 1.7 1 0.9 1.6 2.1 1.9 3.7C359.1 526.6 359.2 526.7 359.2 526.8z"/><path class="st12" d="M362.4 526.3c0 0.1 0 0.2 0 0.5l-5.5 0.9c0-0.3 0-0.7-0.1-0.9 0-0.3-0.1-0.5-0.1-0.6 -0.3-2.2-1.3-3.5-2.8-4 -0.9-0.3-2.1-0.3-3.8-0.1l-9.9 1.5 -0.8-5.4 20.6-3.2 0.8 5.2 -3.6 0.6c1.5 0.6 2.5 1.2 3.2 1.7 1 0.9 1.6 2.1 1.9 3.7C362.4 526.1 362.4 526.2 362.4 526.3z"/><path class="st44" d="M346.2 543.6c1.1 0.7 2.7 0.9 4.7 0.6 1.9-0.3 3.4-1 4.3-1.9 0.9-1 1.2-2.2 1-3.6 -0.3-1.9-1.4-3.1-3.3-3.5 -1-0.2-2.2-0.2-3.6 0 -1.2 0.2-2.2 0.6-3.1 1.1 -1.6 1-2.3 2.5-2 4.3C344.4 541.9 345.1 542.8 346.2 543.6zM360.7 539.4c-0.4 1.4-1.2 2.6-2.5 3.6l3-0.5 0.8 5.2 -19.6 3.1c-2.7 0.4-4.8 0.3-6.2-0.4 -2.6-1.2-4.2-3.9-4.9-8.3 -0.4-2.6-0.2-4.9 0.5-6.7 0.8-1.8 2.2-3 4.2-3.5l0.9 5.9c-0.6 0.2-1 0.6-1.2 1 -0.4 0.6-0.5 1.7-0.3 3.1 0.3 1.9 1.1 3.1 2.6 3.6 0.9 0.3 2.3 0.3 4.3 0l1.3-0.2c-1-0.4-1.7-0.8-2.2-1.4 -1-1-1.6-2.3-1.9-4 -0.4-2.7 0.2-4.9 1.8-6.8 1.6-1.9 4-3.1 7.2-3.6 3.1-0.5 5.8-0.1 8.1 1.1 2.3 1.2 3.7 3.2 4.1 6C360.9 537.7 360.9 538.6 360.7 539.4z"/><path class="st12" d="M349.4 543.1c1.1 0.7 2.7 0.9 4.7 0.6 1.9-0.3 3.4-1 4.3-1.9 0.9-1 1.2-2.2 1-3.6 -0.3-1.9-1.4-3.1-3.3-3.5 -1-0.2-2.2-0.2-3.6 0 -1.2 0.2-2.2 0.6-3.1 1.1 -1.6 1-2.3 2.5-2 4.3C347.6 541.3 348.3 542.3 349.4 543.1zM363.9 538.9c-0.4 1.4-1.2 2.6-2.5 3.6l3-0.5 0.8 5.2 -19.6 3.1c-2.7 0.4-4.8 0.3-6.2-0.4 -2.6-1.2-4.2-3.9-4.9-8.3 -0.4-2.6-0.2-4.9 0.5-6.7 0.8-1.8 2.2-3 4.2-3.5l0.9 5.9c-0.6 0.2-1 0.6-1.2 1 -0.4 0.6-0.5 1.7-0.3 3.1 0.3 1.9 1.1 3.1 2.6 3.6 0.9 0.3 2.3 0.3 4.3 0l1.3-0.2c-1-0.4-1.7-0.8-2.2-1.4 -1-1-1.6-2.3-1.9-4 -0.4-2.7 0.2-4.9 1.8-6.8 1.6-1.9 4-3.1 7.2-3.6 3.1-0.5 5.8-0.1 8.1 1.1 2.3 1.2 3.7 3.2 4.1 6C364.1 537.2 364.1 538.1 363.9 538.9z"/><path class="st43" d="M376.1 412.1l122.3-31.2 6.9 26.9L382.9 439 376.1 412.1z"/><path class="st44" d="M389 426.9c0.2 0.5 0.4 0.8 0.6 0.9 0.4 0.3 1.1 0.3 2 0.1 0.5-0.1 1-0.3 1.2-0.6 0.3-0.2 0.4-0.5 0.3-0.8 -0.1-0.3-0.3-0.5-0.6-0.6 -0.3-0.1-1.3-0.1-3.1-0.1 -1.3 0-2.2-0.1-2.8-0.5 -0.6-0.3-1-0.9-1.2-1.7 -0.2-1-0.1-1.9 0.5-2.8 0.6-0.9 1.6-1.5 3-1.9 1.3-0.3 2.5-0.3 3.4 0 1 0.3 1.7 1.1 2.1 2.4l-2.8 0.7c-0.1-0.3-0.3-0.6-0.5-0.8 -0.4-0.3-1-0.4-1.7-0.2 -0.6 0.2-1 0.4-1.2 0.6 -0.2 0.3-0.3 0.5-0.2 0.8 0.1 0.3 0.3 0.5 0.6 0.6 0.3 0.1 1.3 0.1 3.1 0 1.2 0 2.1 0.2 2.8 0.5 0.7 0.4 1.1 1 1.3 1.8 0.3 1 0.1 2-0.5 2.9 -0.6 0.9-1.7 1.5-3.4 1.9 -1.7 0.4-3 0.4-3.9-0.1 -1-0.5-1.6-1.3-1.9-2.4L389 426.9z"/><path class="st12" d="M388.6 425.2c0.2 0.5 0.4 0.8 0.6 0.9 0.4 0.3 1.1 0.3 2 0.1 0.5-0.1 1-0.3 1.2-0.6 0.3-0.2 0.4-0.5 0.3-0.8 -0.1-0.3-0.3-0.5-0.6-0.6 -0.3-0.1-1.3-0.1-3.1-0.1 -1.3 0-2.2-0.1-2.8-0.5 -0.6-0.3-1-0.9-1.2-1.7 -0.2-1-0.1-1.9 0.5-2.8 0.6-0.9 1.6-1.5 3-1.9 1.3-0.3 2.5-0.3 3.4 0 1 0.3 1.7 1.1 2.1 2.4l-2.8 0.7c-0.1-0.3-0.3-0.6-0.5-0.8 -0.4-0.3-1-0.4-1.7-0.2 -0.6 0.2-1 0.4-1.2 0.6 -0.2 0.3-0.3 0.5-0.2 0.8 0.1 0.3 0.3 0.5 0.6 0.6 0.3 0.1 1.3 0.1 3.1 0 1.2 0 2.1 0.2 2.8 0.5 0.7 0.4 1.1 1 1.3 1.8 0.3 1 0.1 2-0.5 2.9 -0.6 0.9-1.7 1.5-3.4 1.9 -1.7 0.4-3 0.4-3.9-0.1 -1-0.5-1.6-1.3-1.9-2.4L388.6 425.2z"/><path class="st44" d="M403 419.5c-0.2-0.4-0.4-0.7-0.7-1 -0.4-0.3-1-0.4-1.6-0.3 -0.9 0.2-1.5 0.9-1.6 1.9 -0.1 0.5 0 1.2 0.2 2 0.2 0.8 0.4 1.4 0.7 1.8 0.6 0.8 1.3 1.1 2.2 0.8 0.6-0.2 1.1-0.5 1.2-0.9 0.2-0.4 0.2-0.9 0.1-1.5l2.8-0.7c0.1 0.9 0 1.7-0.3 2.6 -0.6 1.4-1.7 2.4-3.4 2.8 -1.7 0.4-3.1 0.2-4.1-0.6 -1.1-0.8-1.8-2-2.2-3.6 -0.5-1.8-0.4-3.3 0.2-4.6 0.6-1.2 1.7-2 3.3-2.4 1.3-0.3 2.5-0.3 3.5 0.1 1 0.4 1.8 1.3 2.3 2.8L403 419.5z"/><path class="st12" d="M402.5 417.8c-0.2-0.4-0.4-0.7-0.7-1 -0.4-0.3-1-0.4-1.6-0.3 -0.9 0.2-1.5 0.9-1.6 1.9 -0.1 0.5 0 1.2 0.2 2 0.2 0.8 0.4 1.4 0.7 1.8 0.6 0.8 1.3 1.1 2.2 0.8 0.6-0.2 1.1-0.5 1.2-0.9 0.2-0.4 0.2-0.9 0.1-1.5l2.8-0.7c0.1 0.9 0 1.7-0.3 2.6 -0.6 1.4-1.7 2.4-3.4 2.8 -1.7 0.4-3.1 0.2-4.1-0.6 -1.1-0.8-1.8-2-2.2-3.6 -0.5-1.8-0.4-3.3 0.2-4.6 0.6-1.2 1.7-2 3.3-2.4 1.3-0.3 2.5-0.3 3.5 0.1 1 0.4 1.8 1.3 2.3 2.8L402.5 417.8z"/><path class="st44" d="M414.6 412.8c0.6 0.1 1.1 0.3 1.6 0.7 0.4 0.3 0.7 0.7 0.8 1.1 0.2 0.4 0.4 1.1 0.6 2l1.6 6.2 -2.8 0.7 -1.6-6.4c-0.1-0.6-0.4-1-0.6-1.3 -0.4-0.4-0.9-0.5-1.6-0.4 -0.7 0.2-1.2 0.6-1.5 1.1 -0.3 0.6-0.3 1.3 0 2.2l1.5 5.7 -2.7 0.7 -3.6-14.2 2.7-0.7 1.3 5c0.2-0.7 0.6-1.3 1.1-1.6 0.5-0.4 1-0.6 1.6-0.8C413.4 412.8 414 412.7 414.6 412.8z"/><path class="st12" d="M414.2 411.2c0.6 0.1 1.1 0.3 1.6 0.7 0.4 0.3 0.7 0.7 0.8 1.1 0.2 0.4 0.4 1.1 0.6 2l1.6 6.2 -2.8 0.7 -1.6-6.4c-0.1-0.6-0.4-1-0.6-1.3 -0.4-0.4-0.9-0.5-1.6-0.4 -0.7 0.2-1.2 0.6-1.5 1.1 -0.3 0.6-0.3 1.3 0 2.2l1.5 5.7 -2.7 0.7 -3.6-14.2 2.7-0.7 1.3 5c0.2-0.7 0.6-1.3 1.1-1.6 0.5-0.4 1-0.6 1.6-0.8C412.9 411.1 413.6 411.1 414.2 411.2z"/><path class="st44" d="M423 413.4c-0.3 0.5-0.3 1.1-0.3 1.8l4.3-1.1c-0.2-0.7-0.6-1.2-1.1-1.5 -0.5-0.3-1-0.3-1.6-0.2C423.7 412.6 423.2 412.9 423 413.4zM426.2 410c0.8 0.2 1.5 0.5 2.1 1.1 0.6 0.5 1 1.2 1.4 2 0.2 0.5 0.4 1.2 0.6 2.1l-7.2 1.8c0.3 1 0.8 1.7 1.6 2 0.4 0.2 0.9 0.2 1.5 0 0.6-0.1 1-0.4 1.3-0.8 0.1-0.2 0.3-0.5 0.3-0.9l2.8-0.7c0.1 0.7-0.1 1.4-0.5 2.2 -0.6 1.3-1.8 2.1-3.4 2.5 -1.3 0.3-2.6 0.2-3.9-0.4 -1.2-0.6-2.1-1.9-2.6-3.8 -0.5-1.8-0.4-3.3 0.3-4.6 0.7-1.2 1.7-2 3.2-2.4C424.6 409.9 425.4 409.9 426.2 410z"/><path class="st12" d="M422.6 411.7c-0.3 0.5-0.3 1.1-0.3 1.8l4.3-1.1c-0.2-0.7-0.6-1.2-1.1-1.5 -0.5-0.3-1-0.3-1.6-0.2C423.3 410.9 422.8 411.2 422.6 411.7zM425.8 408.3c0.8 0.2 1.5 0.5 2.1 1.1 0.6 0.5 1 1.2 1.4 2 0.2 0.5 0.4 1.2 0.6 2.1l-7.2 1.8c0.3 1 0.8 1.7 1.6 2 0.4 0.2 0.9 0.2 1.5 0 0.6-0.1 1-0.4 1.3-0.8 0.1-0.2 0.3-0.5 0.3-0.9l2.8-0.7c0.1 0.7-0.1 1.4-0.5 2.2 -0.6 1.3-1.8 2.1-3.4 2.5 -1.3 0.3-2.6 0.2-3.9-0.4 -1.2-0.6-2.1-1.9-2.6-3.8 -0.5-1.8-0.4-3.3 0.3-4.6 0.7-1.2 1.7-2 3.2-2.4C424.2 408.2 425 408.2 425.8 408.3z"/><path class="st44" d="M443.9 405.3c0.5 0.1 1 0.3 1.5 0.6 0.4 0.3 0.7 0.7 0.9 1.2 0.2 0.3 0.3 0.9 0.5 1.5l1.7 6.7 -2.8 0.7 -1.7-6.7c-0.1-0.4-0.3-0.7-0.4-0.9 -0.4-0.4-0.9-0.6-1.5-0.4 -0.8 0.2-1.2 0.7-1.3 1.3 -0.1 0.4 0 0.8 0.1 1.3l1.6 6.3 -2.8 0.7 -1.6-6.3c-0.2-0.6-0.3-1.1-0.5-1.3 -0.4-0.5-0.9-0.6-1.6-0.4 -0.8 0.2-1.3 0.6-1.4 1.2 -0.1 0.3 0 0.8 0.1 1.4l1.6 6.3 -2.8 0.7 -2.7-10.5 2.7-0.7 0.4 1.5c0.2-0.6 0.4-1.1 0.7-1.4 0.4-0.5 1.1-0.9 1.9-1.1 0.8-0.2 1.5-0.2 2.1 0 0.5 0.2 0.9 0.6 1.2 1 0.2-0.7 0.5-1.3 1-1.7 0.5-0.4 1.1-0.7 1.8-0.9C442.9 405.3 443.4 405.3 443.9 405.3z"/><path class="st12" d="M443.4 403.7c0.5 0.1 1 0.3 1.5 0.6 0.4 0.3 0.7 0.7 0.9 1.2 0.2 0.3 0.3 0.9 0.5 1.5l1.7 6.7 -2.8 0.7 -1.7-6.7c-0.1-0.4-0.3-0.7-0.4-0.9 -0.4-0.4-0.9-0.6-1.5-0.4 -0.8 0.2-1.2 0.7-1.3 1.4 -0.1 0.4 0 0.8 0.1 1.3l1.6 6.3 -2.8 0.7 -1.6-6.3c-0.2-0.6-0.3-1.1-0.5-1.3 -0.4-0.5-0.9-0.6-1.6-0.4 -0.8 0.2-1.3 0.6-1.4 1.2 -0.1 0.3 0 0.8 0.1 1.4l1.6 6.3 -2.8 0.7 -2.7-10.5 2.7-0.7 0.4 1.5c0.2-0.6 0.4-1.1 0.7-1.4 0.4-0.5 1.1-0.9 1.9-1.1 0.8-0.2 1.5-0.2 2.1 0 0.5 0.2 0.9 0.6 1.2 1 0.2-0.7 0.5-1.3 1-1.7 0.5-0.4 1.1-0.7 1.8-0.9C442.5 403.6 442.9 403.6 443.4 403.7z"/><path class="st44" d="M455.8 408c-0.1 0.2-0.3 0.3-0.5 0.4 -0.2 0.1-0.4 0.2-0.7 0.4l-0.6 0.3c-0.6 0.3-0.9 0.5-1.2 0.7 -0.4 0.4-0.5 0.8-0.3 1.3 0.1 0.5 0.3 0.8 0.7 0.9 0.3 0.1 0.6 0.2 1 0.1 0.6-0.1 1.1-0.5 1.5-0.9 0.4-0.5 0.5-1.2 0.3-2.1L455.8 408zM453.8 407.2c0.5-0.2 0.8-0.4 1-0.5 0.4-0.3 0.5-0.6 0.4-0.9 -0.1-0.4-0.3-0.7-0.7-0.8 -0.3-0.1-0.8-0.1-1.4 0.1 -0.6 0.2-1.1 0.5-1.3 0.8 -0.1 0.3-0.2 0.6-0.1 1.1l-2.7 0.7c-0.2-0.9-0.1-1.8 0.2-2.5 0.5-1.1 1.6-1.9 3.4-2.3 1.1-0.3 2.2-0.3 3.3-0.1 1 0.2 1.7 1 2 2.3l1.2 4.8c0.1 0.3 0.2 0.7 0.3 1.2 0.1 0.4 0.2 0.6 0.4 0.7 0.1 0.1 0.3 0.2 0.5 0.2l0.1 0.4 -3 0.8c-0.1-0.2-0.3-0.4-0.3-0.6 -0.1-0.2-0.2-0.4-0.2-0.6 -0.3 0.5-0.6 1-1 1.4 -0.5 0.5-1.1 0.8-1.9 1 -1 0.3-1.8 0.2-2.6-0.2 -0.8-0.4-1.3-1.1-1.5-2.1 -0.3-1.3-0.1-2.4 0.8-3.2 0.5-0.5 1.2-0.9 2.2-1.3L453.8 407.2z"/><path class="st12" d="M455.3 406.4c-0.1 0.2-0.3 0.3-0.5 0.4 -0.2 0.1-0.4 0.2-0.7 0.4l-0.6 0.3c-0.6 0.3-0.9 0.5-1.2 0.7 -0.4 0.4-0.5 0.8-0.3 1.3 0.1 0.5 0.3 0.8 0.7 0.9 0.3 0.1 0.6 0.2 1 0.1 0.6-0.1 1.1-0.5 1.5-0.9 0.4-0.5 0.5-1.2 0.3-2.1L455.3 406.4zM453.3 405.5c0.5-0.2 0.8-0.4 1-0.5 0.4-0.3 0.5-0.6 0.4-0.9 -0.1-0.4-0.3-0.7-0.7-0.8 -0.3-0.1-0.8-0.1-1.4 0.1 -0.6 0.2-1.1 0.5-1.3 0.8 -0.1 0.3-0.2 0.6-0.1 1.1l-2.7 0.7c-0.2-0.9-0.1-1.8 0.2-2.5 0.5-1.1 1.6-1.9 3.4-2.3 1.1-0.3 2.2-0.3 3.3-0.1 1 0.2 1.7 1 2 2.3l1.2 4.8c0.1 0.3 0.2 0.7 0.3 1.2 0.1 0.4 0.2 0.6 0.4 0.7 0.1 0.1 0.3 0.2 0.5 0.2l0.1 0.4 -3 0.8c-0.1-0.2-0.3-0.4-0.3-0.6 -0.1-0.2-0.2-0.4-0.2-0.6 -0.3 0.5-0.6 1-1 1.4 -0.5 0.5-1.1 0.8-1.9 1 -1 0.3-1.8 0.2-2.6-0.2 -0.8-0.4-1.3-1.1-1.5-2.1 -0.3-1.3-0.1-2.4 0.8-3.2 0.5-0.5 1.2-0.9 2.2-1.3L453.3 405.5z"/><path class="st44" d="M461.6 408.9l2.9-0.7 0.7 2.9 -2.9 0.7L461.6 408.9z"/><path class="st12" d="M461.2 407.3l2.9-0.7 0.7 2.9 -2.9 0.7L461.2 407.3z"/><path class="st44" d="M475.3 405.5c0.3-0.7 0.3-1.5 0-2.6 -0.3-1.1-0.7-1.8-1.3-2.3 -0.6-0.5-1.3-0.6-2.1-0.4 -0.8 0.2-1.4 0.6-1.6 1.3 -0.3 0.7-0.3 1.6 0 2.6 0.3 1.1 0.7 1.8 1.3 2.3 0.6 0.5 1.3 0.6 2.1 0.4C474.5 406.6 475 406.2 475.3 405.5zM477.9 406.5c-0.6 1.3-1.8 2.2-3.6 2.7 -1.8 0.5-3.3 0.3-4.5-0.6 -1.2-0.9-1.9-2.1-2.3-3.6 -0.4-1.5-0.3-2.9 0.3-4.3 0.6-1.3 1.8-2.2 3.6-2.7 1.8-0.5 3.3-0.2 4.5 0.6 1.2 0.9 2 2.1 2.3 3.6C478.6 403.7 478.5 405.1 477.9 406.5z"/><path class="st12" d="M474.9 403.9c0.3-0.7 0.3-1.5 0-2.6 -0.3-1.1-0.7-1.8-1.3-2.3 -0.6-0.5-1.3-0.6-2.1-0.4 -0.8 0.2-1.4 0.6-1.6 1.3 -0.3 0.7-0.3 1.6 0 2.6 0.3 1.1 0.7 1.8 1.3 2.3 0.6 0.5 1.3 0.6 2.1 0.4C474.1 405 474.6 404.5 474.9 403.9zM477.5 404.8c-0.6 1.3-1.8 2.2-3.6 2.7 -1.8 0.5-3.3 0.3-4.5-0.6 -1.2-0.9-1.9-2.1-2.3-3.6 -0.4-1.5-0.3-2.9 0.3-4.3 0.6-1.3 1.8-2.2 3.6-2.7 1.8-0.5 3.3-0.2 4.5 0.6 1.2 0.9 2 2.1 2.3 3.6C478.2 402.1 478.1 403.5 477.5 404.8z"/><path class="st44" d="M483.8 394.8c0 0 0.1 0 0.2 0l0.7 2.8c-0.2 0-0.3 0.1-0.5 0.1 -0.1 0-0.2 0.1-0.3 0.1 -1.1 0.3-1.8 0.8-2 1.7 -0.1 0.5-0.1 1.1 0.2 2l1.3 5 -2.8 0.7 -2.7-10.5 2.6-0.7 0.5 1.8c0.2-0.8 0.5-1.4 0.7-1.7 0.4-0.6 1-0.9 1.8-1.2C483.7 394.9 483.7 394.9 483.8 394.8z"/><path class="st12" d="M483.4 393.2c0 0 0.1 0 0.2 0l0.7 2.8c-0.2 0-0.3 0.1-0.5 0.1 -0.1 0-0.2 0.1-0.3 0.1 -1.1 0.3-1.8 0.8-2 1.7 -0.1 0.5-0.1 1.1 0.2 2l1.3 5 -2.8 0.7 -2.7-10.5 2.6-0.7 0.5 1.8c0.2-0.8 0.5-1.4 0.7-1.7 0.4-0.6 1-0.9 1.8-1.2C483.3 393.2 483.3 393.2 483.4 393.2z"/><path class="st44" d="M493.1 400.8c0.3-0.6 0.3-1.4 0.1-2.5 -0.3-1-0.7-1.7-1.2-2.1 -0.6-0.4-1.2-0.5-1.9-0.3 -1 0.2-1.5 0.9-1.7 1.9 -0.1 0.5 0 1.2 0.2 1.9 0.2 0.6 0.4 1.1 0.7 1.6 0.6 0.8 1.4 1.1 2.4 0.8C492.3 401.8 492.8 401.4 493.1 400.8zM490.3 393.4c0.7 0.1 1.4 0.5 2 1.1l-0.4-1.5 2.7-0.7 2.5 10c0.3 1.4 0.4 2.5 0.1 3.3 -0.5 1.4-1.8 2.4-4.1 2.9 -1.3 0.3-2.5 0.4-3.5 0 -1-0.3-1.7-1-2-2l3-0.8c0.2 0.3 0.3 0.5 0.6 0.6 0.4 0.2 0.9 0.2 1.6 0 1-0.2 1.6-0.7 1.7-1.5 0.1-0.5 0-1.2-0.2-2.2l-0.2-0.7c-0.2 0.5-0.4 0.9-0.6 1.2 -0.4 0.6-1.1 1-2 1.2 -1.4 0.4-2.6 0.2-3.6-0.6 -1.1-0.7-1.8-1.9-2.2-3.6 -0.4-1.6-0.3-3 0.2-4.3 0.5-1.3 1.5-2.1 2.9-2.4C489.3 393.4 489.8 393.4 490.3 393.4z"/><path class="st12" d="M492.7 399.1c0.3-0.6 0.3-1.4 0.1-2.5 -0.3-1-0.7-1.7-1.2-2.1 -0.6-0.4-1.2-0.5-1.9-0.3 -1 0.2-1.5 0.9-1.7 1.9 -0.1 0.5 0 1.2 0.2 1.9 0.2 0.6 0.4 1.1 0.7 1.6 0.6 0.8 1.4 1.1 2.4 0.8C491.9 400.1 492.4 399.7 492.7 399.1zM489.8 391.8c0.7 0.1 1.4 0.5 2 1.1l-0.4-1.5 2.7-0.7 2.5 10c0.3 1.4 0.4 2.5 0.1 3.3 -0.5 1.4-1.8 2.4-4.1 2.9 -1.3 0.3-2.5 0.4-3.5 0 -1-0.3-1.7-1-2-2l3-0.8c0.2 0.3 0.3 0.5 0.6 0.6 0.4 0.2 0.9 0.2 1.6 0 1-0.2 1.6-0.7 1.7-1.5 0.1-0.5 0-1.2-0.2-2.2l-0.2-0.7c-0.2 0.5-0.4 0.9-0.6 1.2 -0.4 0.6-1.1 1-2 1.2 -1.4 0.4-2.6 0.2-3.6-0.6 -1.1-0.7-1.8-1.9-2.2-3.5 -0.4-1.6-0.3-3 0.2-4.3 0.5-1.3 1.5-2.1 2.9-2.4C488.9 391.8 489.4 391.7 489.8 391.8z"/><polygon class="st45" points="159 333 262.5 333.9 275.2 424.6 171.7 425.5 "/><polygon class="st45" points="175.4 441.9 280.6 442.8 287.9 479.1 180.8 481.8 "/><polygon class="st18" points="488.5 300.9 495.4 300 515.3 175.8 395.5 200.2 396.5 207 509.3 183.7 "/><path class="st18" d="M493.6 289.6c0 0-35.7 14.8-35.8 30 -0.2 15.2 2.9 15.6 12.7 18.9s18.3 0.6 22.3-10.3C496.8 317.3 498.5 304.8 493.6 289.6z"/><polygon class="st18" points="129.5 343.3 122.6 344.4 69 230.6 219.7 216.1 220.6 222.9 76.9 236.5 "/><path class="st18" d="M121.5 333.8c0 0 38.4 4.3 42.8 18.8 4.4 14.6 1.5 15.8-6.9 21.6 -8.4 5.8-17.4 5.7-24.3-3.6S121.1 349.8 121.5 333.8z"/><rect x="296.9" y="-2" class="st18" width="5.4" height="121.8"/></svg>
