<svg xmlns="http://www.w3.org/2000/svg" width="300" height="214" viewBox="0 0 300 214"><style type="text/css">
	.st0{fill:#1D1E1C;}
	.st1{fill:#38A9B4;}
	.st2{fill:#FFFFFF;}
	.st3{opacity:0.2;fill:#1D1E1C;}
	.st4{opacity:0.64;fill:#A6D9ED;}
	.st5{fill:#AFAFAF;}
	.st6{fill:#ECECEC;}
	.st7{fill:#F5F5F5;}
	.st8{fill:#D9D9D9;}
	.st9{fill:#CFD1D2;}
</style><polygon class="st0" points="95.5 146.7 91 146.7 69.2 39.7 112.9 63.2 110.7 67.1 73.7 47.2 "/><polygon class="st0" points="117 134.5 102.3 90.4 123.1 85.4 124.1 89.8 108.1 93.6 121.3 133.1 "/><path class="st0" d="M117.3 134c0 0-4.3-7.4-10.9-2.7 -6.6 4.7-2.8 11.2-2.8 11.2s2.2 2 9.5 2.2c7.3 0.2 9.1 0 10.5-1.6 1.4-1.6-3.1-13.4-3.1-13.4L117.3 134z"/><path class="st0" d="M92.1 146.3c0 0-9.2-13-18.4-6.4 -9.2 6.6-3.9 15.6-3.9 15.6s3 2.2 13.2 2.2c13.3 0 13.9-2.6 14.9-5.4 1.6-4.6-4.2-14.5-4.2-14.5L92.1 146.3z"/><polygon class="st0" points="206.1 137.3 210.6 137.3 232.4 30.3 188.8 53.8 190.9 57.7 227.9 37.8 "/><polygon class="st0" points="184.6 132.4 199.3 88.3 178.5 83.3 177.5 87.7 193.5 91.5 180.3 131 "/><path class="st0" d="M184.3 131.9c0 0 4.3-7.4 10.9-2.7 6.6 4.7 2.8 11.2 2.8 11.2s-2.2 2-9.5 2.2c-7.3 0.2-9.1 0-10.5-1.6 -1.4-1.6 3.1-13.4 3.1-13.4L184.3 131.9z"/><path class="st0" d="M209.5 144.2c0 0 9.2-13 18.4-6.4 9.2 6.6 3.9 15.6 3.9 15.6s-3 2.2-13.2 2.2c-13.3 0-13.9-2.6-14.9-5.4 -1.6-4.6 4.2-14.5 4.2-14.5L209.5 144.2z"/><path class="st1" d="M105.2 59.3c-6-26.9 12.7-46.1 39.8-52.2s50.8 3.6 56.9 30.5c6 26.9-12.4 40.9-39.5 47C135.2 90.7 111.2 86.2 105.2 59.3z"/><path class="st0" d="M144.3 2.3c14.9-3.3 28.5-2.2 39.4 3.4 11.7 6 19.5 16.7 22.8 31 6 26.7-8.8 44.9-42.7 52.5 -34.3 7.7-56.5-2.6-62.4-28.9 -3.2-14.3-0.4-27.4 8.1-37.9C117.2 12.7 129.6 5.6 144.3 2.3zM162.7 84.4c31.2-7 44.4-22.7 39-46.7C196 12.3 174.4 0.5 145.4 7c-29.5 6.6-44.9 27.1-39.2 52.2C112.8 89 140.6 89.4 162.7 84.4z"/><ellipse class="st2" cx="179.8" cy="48.6" rx="22.3" ry="21.9"/><path class="st0" d="M179.3 71.9c-13.1 0-23.7-10.5-23.7-23.3 0-12.8 10.6-23.3 23.7-23.3 13.1 0 23.7 10.5 23.7 23.3C203 61.5 192.4 71.9 179.3 71.9zM179.3 28.2c-11.5 0-20.9 9.2-20.9 20.5 0 11.3 9.4 20.5 20.9 20.5 11.5 0 20.9-9.2 20.9-20.5C200.2 37.3 190.8 28.2 179.3 28.2z"/><ellipse class="st0" cx="181.6" cy="52" rx="10.1" ry="9.7"/><circle class="st2" cx="179.7" cy="50.3" r="2.8"/><ellipse transform="matrix(0.9996 -0.02788183 0.02788183 0.9996 -4.1614 6.2911)" class="st3" cx="223.5" cy="152.4" rx="19.6" ry="6.2"/><ellipse class="st3" cx="190.3" cy="138.8" rx="13.3" ry="6.2"/><ellipse class="st2" cx="135" cy="56" rx="24.4" ry="25.2"/><path class="st0" d="M134.5 82.4c-14.1 0-25.6-11.9-25.6-26.5 0-14.6 11.5-26.5 25.6-26.5 14.1 0 25.6 11.9 25.6 26.5C160.2 70.6 148.7 82.4 134.5 82.4zM134.5 32c-12.7 0-23.1 10.7-23.1 23.9 0 13.2 10.4 23.9 23.1 23.9s23.1-10.7 23.1-23.9C157.6 42.8 147.2 32 134.5 32z"/><circle class="st0" cx="136.6" cy="57.3" r="11.2"/><circle class="st2" cx="142.6" cy="55.6" r="3.1"/><circle class="st4" cx="187.2" cy="62.6" r="28.8"/><path class="st0" d="M187.2 93.8c-18.2 0-31.2-13-31.2-31.2s13-31.2 31.2-31.2 31.2 13 31.2 31.2S205.3 93.8 187.2 93.8zM187.2 37.9c-13.6 0-24.7 11.1-24.7 24.7s11.1 24.7 24.7 24.7c13.6 0 24.7-11.1 24.7-24.7S200.8 37.9 187.2 37.9z"/><circle class="st4" cx="128.3" cy="66.1" r="28.8"/><path class="st0" d="M128.3 97.3c-18.2 0-31.2-13-31.2-31.2s13-31.2 31.2-31.2 31.2 13 31.2 31.2S146.5 97.3 128.3 97.3zM128.3 41.4c-13.6 0-24.7 11.1-24.7 24.7s11.1 24.7 24.7 24.7c13.6 0 24.7-11.1 24.7-24.7S141.9 41.4 128.3 41.4z"/><polygon class="st0" points="262.8 131.9 267.3 131.3 297 59.1 214.6 55.3 215.3 59.7 291.2 63.3 "/><polygon class="st0" points="56.1 149.1 51.7 149.8 0 75 100.6 65.6 101.2 70 8 78.9 "/><path class="st5" d="M154 78.2c0 0-26.3-33-142.8-0.5l34.1 33.7L154 78.2z"/><path class="st5" d="M154.3 84c0 0 18.5-37.9 139.3-31.4l-25.9 40.3L154.3 84z"/><path class="st6" d="M154 78.2c0 0-59.6-30.2-137.7 12.6 0 0 46.1 32.4 56 63.5 1.9 6.1 2.1 10.7 1.6 16.4 -2 24.1-2.7 43.7-2.7 43.7s50-23.8 92-2.4L154 78.2z"/><path class="st7" d="M154 78.2c0 0 54.9-38.1 138.2-6.4 0 0-41.2 38.5-46.8 70.6 -1.1 6.3-0.6 10.9 0.6 16.5 5.2 23.6 8.6 43 8.6 43s-52.8-16.7-91.4 10.2L154 78.2z"/><path class="st8" d="M26.2 92.6c0 0 42.1 35.4 48.2 56.9l79.9-0.5 -4.8-69.5C149.6 79.6 79.7 58.6 26.2 92.6z"/><path class="st5" d="M260.4 100c9.9-13.1 21.7-23.4 21.7-23.4 -57.4-26.7-124 3.2-124 3.2l2.3 29.9C170.9 105.5 215.6 89.3 260.4 100z"/><rect x="204.5" y="142.7" transform="matrix(0.9916 -0.1295 0.1295 0.9916 -16.6348 29.9546)" class="st5" width="35.2" height="0.4"/><rect x="204.9" y="145.8" transform="matrix(0.9916 -0.1295 0.1295 0.9916 -17.0291 30.0324)" class="st5" width="35.2" height="0.4"/><rect x="205.3" y="148.8" transform="matrix(0.9916 -0.1295 0.1295 0.9916 -17.4234 30.1102)" class="st5" width="35.2" height="0.4"/><rect x="205.7" y="151.9" transform="matrix(0.9916 -0.1295 0.1295 0.9916 -17.8177 30.188)" class="st5" width="35.2" height="0.4"/><rect x="206.1" y="155" transform="matrix(0.9916 -0.1295 0.1295 0.9916 -18.212 30.2657)" class="st5" width="35.2" height="0.4"/><rect x="206.5" y="158.1" transform="matrix(0.9916 -0.1295 0.1295 0.9916 -18.6063 30.3435)" class="st5" width="35.2" height="0.4"/><rect x="206.9" y="161.1" transform="matrix(0.9916 -0.1295 0.1295 0.9916 -19.0006 30.4213)" class="st5" width="35.2" height="0.4"/><rect x="207.3" y="164.2" transform="matrix(0.9916 -0.1295 0.1295 0.9916 -19.3948 30.499)" class="st5" width="35.2" height="0.4"/><rect x="207.7" y="167.3" transform="matrix(0.9916 -0.1295 0.1295 0.9916 -19.7891 30.5768)" class="st5" width="35.2" height="0.4"/><rect x="208.1" y="170.3" transform="matrix(0.9916 -0.1295 0.1295 0.9916 -20.1834 30.6546)" class="st5" width="35.2" height="0.4"/><rect x="208.5" y="173.4" transform="matrix(0.9916 -0.1295 0.1295 0.9916 -20.5777 30.7324)" class="st5" width="35.2" height="0.4"/><rect x="208.9" y="176.5" transform="matrix(0.9916 -0.1295 0.1295 0.9916 -20.972 30.8101)" class="st5" width="35.2" height="0.4"/><rect x="162.9" y="134.1" transform="matrix(0.9932 -0.1168 0.1168 0.9932 -14.3858 24.563)" class="st8" width="78.9" height="1.9"/><rect x="163.2" y="136.8" transform="matrix(0.9932 -0.1168 0.1168 0.9932 -14.7096 24.6205)" class="st8" width="78.9" height="1.9"/><rect x="163.5" y="139.6" transform="matrix(0.9932 -0.1168 0.1168 0.9932 -15.0335 24.678)" class="st8" width="78.9" height="1.9"/><rect x="78.1" y="153.6" transform="matrix(1 -0.0095833 0.0095833 1 -1.4768 0.9266)" class="st5" width="35.6" height="1.9"/><rect x="78.2" y="156.4" transform="matrix(1 -0.0095833 0.0095833 1 -1.5037 0.927)" class="st5" width="35.6" height="1.9"/><rect x="78.2" y="159.2" transform="matrix(1 -0.0095833 0.0095833 1 -1.5306 0.9274)" class="st5" width="35.6" height="1.9"/><rect x="78" y="163" transform="matrix(1 -0.0095833 0.0095833 1 -1.567 0.9261)" class="st5" width="35.6" height="1.9"/><rect x="78.1" y="165.8" transform="matrix(1 -0.0095833 0.0095833 1 -1.5939 0.9265)" class="st5" width="35.6" height="1.9"/><rect x="78.1" y="168.7" transform="matrix(1 -0.0095833 0.0095833 1 -1.6209 0.9269)" class="st5" width="35.6" height="1.9"/><rect x="118.2" y="152.7" transform="matrix(1 -0.0095833 0.0095833 1 -1.4666 1.3101)" class="st9" width="35.6" height="1.9"/><rect x="118.2" y="155.6" transform="matrix(1 -0.0095833 0.0095833 1 -1.4935 1.3105)" class="st9" width="35.6" height="1.9"/><rect x="118.2" y="158.4" transform="matrix(1 -0.0095833 0.0095833 1 -1.5204 1.3109)" class="st9" width="35.6" height="1.9"/><rect x="118.1" y="162.2" transform="matrix(1 -0.0095833 0.0095833 1 -1.5568 1.3097)" class="st9" width="35.6" height="1.9"/><rect x="118.1" y="165" transform="matrix(1 -0.0095833 0.0095833 1 -1.5837 1.31)" class="st9" width="35.6" height="1.9"/><rect x="118.1" y="167.8" transform="matrix(1 -0.0095833 0.0095833 1 -1.6106 1.3104)" class="st9" width="35.6" height="1.9"/><rect x="166.5" y="183.8" transform="matrix(0.9932 -0.1168 0.1168 0.9932 -20.1715 25.2809)" class="st8" width="78.1" height="1.9"/><rect x="166.8" y="186.6" transform="matrix(0.9932 -0.1168 0.1168 0.9932 -20.4953 25.3384)" class="st8" width="78.1" height="1.9"/><rect x="167.2" y="189.3" transform="matrix(0.9932 -0.1168 0.1168 0.9932 -20.8192 25.3959)" class="st8" width="78.1" height="1.9"/><path class="st5" d="M78.9 175.2l74.9-0.9 1.9 30c0 0-18.7-7.5-33.7-6.6s-45.9 9.4-45.9 9.4L78.9 175.2z"/><polygon class="st5" points="164.2 149.9 198.8 145.2 202.6 179 167 183.6 "/><path class="st0" d="M267.9 128c0 0-25-0.1-29 8.9s-2.2 10.1 2.8 14.5c5 4.4 10.8 5 15.9-0.5C262.9 145.4 267 138.4 267.9 128z"/><path class="st0" d="M49.9 147.1c0 0 24.3-6 30.3 1.8 6 7.9 4.5 9.3 0.7 14.7s-9.3 7.4-15.6 3.3C58.9 162.8 53.3 156.9 49.9 147.1z"/><path class="st8" d="M200.4 92.5l-4.1 0.6L188.9 81l-0.2 0c0.3 1 0.6 2 0.8 3.1l1.4 9.8 -3.1 0.5 -2.6-17.9 4.1-0.6 7.3 12 0.1 0c-0.3-0.8-0.5-1.8-0.7-3l-1.4-9.8 3.1-0.4L200.4 92.5z"/><path class="st8" d="M211.4 91.4l-8.1 0.8 -1.8-18 8.1-0.8 0.3 2.9 -4.8 0.5 0.4 4.3 4.4-0.4 0.3 2.9 -4.4 0.4 0.5 5 4.8-0.5L211.4 91.4z"/><path class="st8" d="M228.6 90.7l-4.2 0 -1.9-9.4c-0.3-1.3-0.5-2.8-0.6-4.6l-0.1 0.9 -0.5 3.7 -1.6 9.4 -4.2 0 -3.5-18 3.3 0 1.7 10.2c0.2 1 0.4 2.6 0.7 4.8 0.2-2.2 0.4-3.8 0.5-4.7l1.8-10.3 3.5 0 2 10.2c0.3 1.5 0.5 3.1 0.7 4.7 0.3-2.4 0.5-4.1 0.6-4.8l1.4-10.2 3.3 0L228.6 90.7z"/><path class="st8" d="M241.9 87.5c-0.2 1.7-0.8 2.9-1.8 3.7 -1 0.8-2.2 1-3.8 0.8 -1.6-0.2-2.8-0.7-3.9-1.5l0.5-3.3c1.2 1.1 2.4 1.7 3.5 1.8 0.6 0.1 1.1 0 1.5-0.3 0.4-0.3 0.6-0.8 0.7-1.4 0.1-0.6 0-1.2-0.4-1.7 -0.3-0.5-0.9-1.2-1.7-1.9 -0.7-0.6-1.2-1.2-1.5-1.8 -0.3-0.5-0.6-1.1-0.7-1.8 -0.1-0.6-0.1-1.3 0-2.1 0.2-1.5 0.8-2.7 1.8-3.5 1-0.8 2.2-1.1 3.6-0.9 1.4 0.2 2.6 0.8 3.8 1.7L242 78c-0.4-0.3-0.7-0.5-1.1-0.8 -0.4-0.2-0.8-0.4-1.3-0.5 -0.5-0.1-1 0-1.3 0.4 -0.3 0.3-0.5 0.8-0.6 1.4 -0.1 0.6 0 1.2 0.3 1.6s0.8 1.1 1.6 1.8c1.1 0.9 1.8 1.9 2.1 2.7C241.9 85.5 242 86.5 241.9 87.5z"/><path class="st8" d="M161.8 112.9l1.9 22.5 39.3-5.6 -3.7-28.1C199.3 101.7 179.6 105.4 161.8 112.9z"/><rect x="203" y="101" transform="matrix(0.9941 -0.1087 0.1087 0.9941 -9.9864 24.6114)" class="st8" width="35.6" height="5.9"/><rect x="204" y="107.9" transform="matrix(0.9941 -0.1087 0.1087 0.9941 -10.7388 24.7579)" class="st8" width="35.6" height="5.9"/><rect x="204.8" y="117.1" transform="matrix(0.9941 -0.1087 0.1087 0.9941 -11.5487 24.8925)" class="st8" width="35.6" height="2.6"/><rect x="205.2" y="121" transform="matrix(0.9941 -0.1087 0.1087 0.9941 -11.972 24.9622)" class="st8" width="35.6" height="2.6"/><rect x="205.7" y="124.9" transform="matrix(0.9941 -0.1087 0.1087 0.9941 -12.3953 25.032)" class="st8" width="35.6" height="2.6"/></svg>
