<svg xmlns="http://www.w3.org/2000/svg" viewBox="0 0 1610 465.85"><path fill="none" stroke="#2fc1c1" stroke-dasharray="0 6" stroke-linecap="round" stroke-linejoin="round" stroke-width="3" d="M1.5 385.47c190-61 458.11 165.54 447-20-10-167 138-4 193-138C652 202 710 210.72 776 260c83.89 62.59 72 113.36 106.81 117 49.51 5.15 75.9-72.33 139.06-72.2 64.88.1-29.87 176.82 152.13 158.2 166-17 182-135 246-206 30.37-33.69 165.29-215.68 188.5-229.5"/><path fill="none" stroke="#2fc1c1" stroke-dasharray="0 6" stroke-linecap="round" stroke-linejoin="round" stroke-width="2.9" d="M10.2 378.64c52.14-15.81 103.51-10.92 159.51.84 33.83 7 67.23 15.64 97.6 24.09 79.06 22 148.86 46.32 173.15 10.62 8-11.77 11.85-29.62 10.6-55.15-1.41-28.51 2.08-47.15 8.84-59 31.94-56.19 138.43 33.07 184-75.28 3.2-7.62 10.53-12.25 21-13.74 25-3.58 67.86 12.83 113.59 45.11A306.7 306.7 0 01809.6 281c1.72 1.59 3.35 3.18 4.91 4.76 43.36 43.91 40.59 76.25 69.67 79a47.88 47.88 0 0012.93-.48c1-.18 2.07-.4 3.09-.64 33.07-7.82 57-47.61 94.88-60.73a73.13 73.13 0 0126.86-4.06c41.55 1.46 17.46 76.11 45.36 122.47 11 18.23 30.14 31.45 62.69 34.15l1.26.09c12.1.82 26.5.32 43.3-1.47 161.56-16.67 178.53-130.56 238.36-201.62.53-.63 1.07-1.34 1.67-2.08C1445.93 211 1584.3 39 1608.5 27.47"/><path fill="none" stroke="#2fc1c1" stroke-dasharray="0 6" stroke-linecap="round" stroke-linejoin="round" stroke-width="2.81" d="M18.89 371.8c53.66-15.35 100.22-9.74 157.26 2.44 33.55 7 66.7 14.42 95.92 21.93 76.43 19.64 148.34 46.63 171.18 11.05 7.57-11.8 11.31-29.58 10.36-54.61-1.08-27.94 2.85-46.13 9.86-57.53C496.42 241.41 600.6 328 646.2 222c3.27-7.61 10.53-12.31 20.93-14 25.32-4 68.58 14.15 113.78 44.2A334.49 334.49 0 01811.6 275a97.6 97.6 0 014.78 4.35c42.22 40.79 39.62 70.65 69.17 73.3a51.68 51.68 0 0013-.46q1.56-.26 3.09-.6c33.29-7.34 57-44.16 94.07-55.55a71.6 71.6 0 0126.34-3c40.78 2.83 18.24 76.88 46.43 122.48 11.3 18.28 31 30.71 62.63 32.24l1.22.05c11.75.3 26-.7 42.82-2.5 157.05-16.86 175.06-126.22 230.7-197.24.51-.64 1-1.37 1.55-2.13 29.25-40.37 175.51-209 201.14-218.45"/><path fill="none" stroke="#2fc1c1" stroke-dasharray="0 6" stroke-linecap="round" stroke-linejoin="round" stroke-width="2.71" d="M27.59 365c55.17-14.89 96.88-8.42 155 4 33.26 7.13 66.18 13.21 94.24 19.78C350.62 406 424.65 435.69 446 400.25c7.15-11.84 10.78-29.55 10.14-54.07-.75-27.37 3.62-45.11 10.86-56C501 239 602.9 323 648.55 219.25c3.34-7.6 10.54-12.38 20.84-14.2 25.59-4.51 69.29 15.47 114 43.29 12 7.5 22.06 14.36 30.22 20.61a66.93 66.93 0 014.66 3.94c41.08 37.68 38.59 65.1 68.67 67.61a55.52 55.52 0 0013-.44c1-.16 2.07-.35 3.09-.56 33.51-6.82 57-40.71 93.26-50.38a70.61 70.61 0 0125.82-2c40 4.2 19 77.65 47.49 122.5 11.62 18.32 31.92 30 62.57 30.32h1.19c11.4-.21 25.61-1.69 42.33-3.53 152.58-16.75 171.59-122 223.06-192.85.47-.66.91-1.41 1.42-2.19 27.08-41.37 181.28-206.44 208.33-213.9"/><path fill="none" stroke="#2fc1c1" stroke-dasharray="0 6" stroke-linecap="round" stroke-linejoin="round" stroke-width="2.61" d="M36.28 358.12c56.69-14.43 93.58-7.2 152.73 5.63 33 7.15 65.64 12 92.57 17.62 71.14 14.88 147.31 47.2 167.24 11.91 6.71-11.88 10.23-29.51 9.91-53.54-.42-26.78 4.37-44.07 11.87-54.51 34.92-48.6 134.63 32.72 180.3-68.71 3.42-7.6 10.55-12.46 20.75-14.43 25.86-5 70 16.77 114.18 42.38a489.4 489.4 0 0129.76 18.45 49.34 49.34 0 014.53 3.53c40 34.51 37.58 59.55 68.17 61.89a59.86 59.86 0 0013-.41c1-.15 2.08-.33 3.1-.52 33.73-6.3 56.94-37.26 92.44-45.2a69.53 69.53 0 0125.3-.93c39.24 5.56 19.86 78.42 48.56 122.51 12 18.37 32.83 29.22 62.51 28.41l1.15-.05c11.07-.72 25.18-2.67 41.85-4.55 148.11-16.64 168.1-117.93 215.42-188.48.44-.66.82-1.44 1.29-2.23 25-42.39 187.11-204 215.58-209.42"/><path fill="none" stroke="#2fc1c1" stroke-dasharray="0 6" stroke-linecap="round" stroke-linejoin="round" stroke-width="2.52" d="M45 351.28c58.2-14 90.26-6 150.47 7.22 32.7 7.18 65.08 10.77 90.88 15.47 68.47 12.48 146.79 47.47 165.27 12.34 6.28-11.93 9.7-29.47 9.68-53-.08-26.21 5.13-43 12.89-53 35.86-46 133.41 32.63 179.08-66.52 3.49-7.59 10.56-12.54 20.66-14.66 26.13-5.48 70.66 18.08 114.37 41.47a750.56 750.56 0 0129.31 16.29A37.74 37.74 0 01822 260c38.81 31.3 36.57 54 67.67 56.18a65 65 0 0013-.38c1-.14 2.08-.31 3.11-.49 34-5.77 56.92-33.74 91.62-40a69.47 69.47 0 0124.78.1c38.46 6.94 20.69 79.18 49.62 122.53 12.29 18.41 33.75 28.47 62.46 26.5.37 0 .74-.06 1.11-.1 10.73-1.23 24.73-3.66 41.36-5.57 143.64-16.51 164.56-114 207.77-184.1.42-.68.74-1.47 1.17-2.29 22.83-43.41 192.9-201.5 222.8-204.9"/><path fill="none" stroke="#2fc1c1" stroke-dasharray="0 6" stroke-linecap="round" stroke-linejoin="round" stroke-width="2.42" d="M53.68 344.45c59.71-13.52 86.95-4.78 148.2 8.81 32.43 7.19 64.52 9.54 89.2 13.31 65.76 10.06 146.27 47.72 163.31 12.77 5.84-12 9.16-29.43 9.45-52.46.24-25.64 5.87-42 13.9-51.5C514.5 231.89 610 307.91 655.6 211c3.57-7.58 10.57-12.62 20.57-14.88 26.41-6 71.31 19.37 114.57 40.55 11.53 5.65 21.15 10.23 28.84 14.14a30.14 30.14 0 014.28 2.71C861.52 281.63 859.42 302 891 304a70 70 0 0013.05-.35c1-.13 2.09-.29 3.12-.45 34.22-5.2 56.95-30.2 90.83-34.82a69.42 69.42 0 0124.26 1.15c37.69 8.31 21.53 79.94 50.69 122.55 12.62 18.45 34.68 27.71 62.39 24.59l1.08-.16c10.39-1.75 24.29-4.64 40.88-6.59 139.16-16.37 160.94-110.21 200.12-179.72.39-.69.66-1.51 1-2.34 20.68-44.44 198.7-199 230-200.39"/><path fill="none" stroke="#2fc1c1" stroke-dasharray="0 6" stroke-linecap="round" stroke-linejoin="round" stroke-width="2.32" d="M62.37 337.61C123.6 324.54 146 334 208.32 348c32.14 7.21 63.92 8.3 87.52 11.16 63 7.61 145.72 47.94 161.33 13.19 5.41-12 8.63-29.39 9.23-51.92.57-25.07 6.61-41 14.91-50 37.63-40.92 131 32.44 176.64-62.15 3.65-7.57 10.58-12.71 20.49-15.11 26.67-6.48 71.93 20.67 114.75 39.65 11.36 5 20.82 8.83 28.39 12a23.7 23.7 0 014.15 2.31c36.5 24.77 34.55 42.93 66.68 44.76a77 77 0 0013.08-.33c1-.12 2.09-.26 3.12-.41 34.4-4.72 56.89-26.8 90-29.67a69.85 69.85 0 0123.74 2.19c36.91 9.68 22.38 80.68 51.75 122.56 13 18.49 35.62 26.95 62.33 22.68.35-.06.7-.13 1-.21 10.07-2.27 23.85-5.63 40.4-7.62 134.7-16.2 157.25-106.57 192.48-175.33.36-.71.57-1.55.91-2.4 18.58-45.48 204.53-196.55 237.28-195.88"/><path fill="none" stroke="#2fc1c1" stroke-dasharray="0 6" stroke-linecap="round" stroke-linejoin="round" stroke-width="2.23" d="M71.07 330.77c62.74-12.61 80.34-2.36 143.68 12 31.87 7.23 63.31 7.07 85.84 9C360.82 357 445.77 399.94 460 365.4c5-12.1 8.1-29.36 9-51.39.91-24.48 7.35-39.93 15.93-48.49 38.47-38.35 129.89 32.37 175.42-60 3.73-7.55 10.59-12.79 20.4-15.34 26.95-7 72.54 22 114.95 38.74a423.98 423.98 0 0027.93 9.82 18.48 18.48 0 014 1.9c35.31 21.42 33.55 37.39 66.18 39.05a85.33 85.33 0 0013.1-.31c1-.11 2.1-.24 3.13-.36 34.63-4.2 56.86-23.33 89.19-24.51a70.85 70.85 0 0123.22 3.24c36.16 11 23.24 81.43 52.81 122.58 13.32 18.53 36.57 26.17 62.27 20.76.34-.07.68-.16 1-.25a251.33 251.33 0 0139.91-8.65c130.23-16 153.46-103.09 184.83-171 .34-.72.49-1.58.8-2.44 16.37-46.52 210.28-194.06 244.45-191.36"/><path fill="none" stroke="#2fc1c1" stroke-dasharray="0 6" stroke-linecap="round" stroke-linejoin="round" stroke-width="2.13" d="M79.77 323.93c64.25-12.15 77-1.15 141.41 13.6 31.6 7.24 63.23 1.85 84.17 6.85 55.88 13.33 144.62 48.36 157.39 14.05 4.53-12.17 7.61-29.31 8.77-50.85 1.29-23.91 8.07-38.9 16.93-47 39.27-35.8 128.78 32.3 174.21-57.78 3.81-7.54 10.6-12.89 20.31-15.56 27.23-7.5 73.13 23.26 115.15 37.82a236 236 0 0027.46 7.66 15.84 15.84 0 013.9 1.49c34.07 18 32.54 31.87 65.68 33.34a95.79 95.79 0 0013.13-.27c1.05-.1 2.1-.22 3.13-.33 34.86-3.66 56.84-19.86 88.38-19.33a72.47 72.47 0 0122.7 4.28c35.39 12.34 24.11 82.16 53.87 122.59 13.67 18.57 37.52 25.38 62.22 18.85.32-.09.65-.19 1-.3a187.21 187.21 0 0139.43-9.67c125.76-15.82 149.53-99.75 177.18-166.58.31-.74.4-1.61.67-2.5C1371 166.75 1572.91 22.73 1608.5 27.47"/><path fill="none" stroke="#2fc1c1" stroke-dasharray="0 6" stroke-linecap="round" stroke-linejoin="round" stroke-width="2.03" d="M88.46 317.1c65.77-11.7 73.73 0 139.16 15.18 31.31 7.25 62.5.13 82.48 4.7 53.12 12.15 144 48.55 155.42 14.48 4.09-12.25 7.08-29.28 8.55-50.31 1.62-23.34 8.78-37.86 17.94-45.48 40-33.25 127.68 32.24 173-55.59 3.89-7.53 10.61-13 20.22-15.79 27.51-8 73.69 24.57 115.34 36.92 10.79 3.2 20.22 2.4 27 5.5 1.3.59 2.69.6 3.77 1.08 32.76 14.55 31.53 26.34 65.18 27.63a108.84 108.84 0 0013.15-.25l3.15-.29c35.08-3.13 56.8-16.38 87.55-14.15a74.59 74.59 0 0122.19 5.32c34.62 13.7 25 82.89 54.94 122.61 14 18.6 38.48 24.58 62.15 16.93a9.38 9.38 0 00.93-.35 148.46 148.46 0 0139-10.69c121.3-15.6 134-102 169.54-162.2.13-.81.31-1.65.54-2.55 12.05-48.61 221.87-189.1 258.89-182.33"/><path fill="none" stroke="#2fc1c1" stroke-dasharray="0 6" stroke-linecap="round" stroke-linejoin="round" stroke-width="1.94" d="M97.16 310.26C164.44 299 167.58 311.5 234.05 327c31 7.26 61.7-1.61 80.8 2.54 50.39 11 143.47 48.73 153.46 14.92 3.64-12.33 6.54-29.25 8.31-49.78 2-22.76 9.49-36.83 19-44 40.74-30.73 126.6 32.18 171.77-53.41 4-7.52 10.61-13.08 20.13-16 27.79-8.55 74.22 25.89 115.54 36 10.59 2.6 19.59.75 26.55 3.34 1.28.48 2.6.31 3.64.68 31.35 11.05 30.52 20.81 64.68 21.91a123.43 123.43 0 0013.18-.22c1.06-.08 2.11-.18 3.15-.25 35.31-2.59 56.77-12.91 86.74-9a78.42 78.42 0 0121.67 6.36c33.85 15.08 25.89 83.62 56 122.63 14.38 18.63 39.45 23.77 62.09 15a9.1 9.1 0 00.9-.4 122.69 122.69 0 0138.46-11.72c116.8-15.26 129.13-98.6 161.88-157.71a36 36 0 01.42-2.61c9.88-49.66 227.67-186.61 266.11-177.81"/><path fill="none" stroke="#2fc1c1" stroke-dasharray="0 6" stroke-linecap="round" stroke-linejoin="round" stroke-width="1.84" d="M105.85 303.42c68.8-10.79 67.12 2.43 134.64 18.38 30.76 7.26 60.81-3.36 79.12.38 47.71 9.75 142.87 48.89 151.48 15.35 3.19-12.42 6-29.21 8.09-49.25 2.29-22.18 10.19-35.79 20-42.46C540.56 217.6 624.69 278 669.7 194.6c4-7.51 10.62-13.19 20-16.24 28.06-9.1 74.72 27.21 115.74 35.09 10.37 2 18.88 3.25 26.08 1.19 1.31.11 2.49.2 3.52.26 27.94 12.81 29.51 15.29 64.19 16.21 4.38.12 8.76.08 13.19-.2l3.16-.21c35.54-2 56.73-9.43 85.93-3.8a82.9 82.9 0 0121.15 7.4c33.08 16.44 26.8 84.34 57.06 122.64 14.74 18.67 40.43 22.93 62 13.11.29-.13.58-.29.86-.45a104 104 0 0138-12.74c112.42-15.11 124.42-95.4 154.3-153.44 0-.84.15-1.72.29-2.65 7.71-50.72 233.46-184.14 273.33-173.3"/><path fill="none" stroke="#2fc1c1" stroke-dasharray="0 6" stroke-linecap="round" stroke-linejoin="round" stroke-width="1.74" d="M114.55 296.58c70.31-10.33 63.81 3.63 132.37 20 30.49 7.27 59.82-5.08 77.44-1.77 45.09 8.49 142.25 49 149.52 15.78 2.73-12.5 5.48-29.17 7.86-48.71 2.63-21.6 10.87-34.77 21-41 42-25.75 124.51 32.11 169.33-49a34.88 34.88 0 0120-16.47c28.33-9.64 75.19 28.57 115.92 34.19 10.17 1.4 18.55 2 25.63-1 1.27 0 2.4-.07 3.39-.14 26.56 10 28.49 9.77 63.69 10.5 4.37.09 8.76.06 13.22-.18 1.06-.05 2.12-.13 3.16-.17 35.77-1.51 56.69-6 85.12 1.38a88.8 88.8 0 0120.63 8.44c32.32 17.81 27.71 85.05 58.12 122.66 15.11 18.69 41.4 22.07 62 11.19a8.54 8.54 0 00.82-.5c8.15-5.5 21.21-11.52 37.5-13.76 107.91-14.84 119.55-92.1 146.6-149.06 0-.86.06-1.76.16-2.71 5.53-51.77 239.26-181.65 280.55-168.78"/><path fill="none" stroke="#2fc1c1" stroke-dasharray="0 6" stroke-linecap="round" stroke-linejoin="round" stroke-width="1.65" d="M123.25 289.75c71.82-9.88 60.5 4.8 130.11 21.56 30.21 7.27 59.84 2.84 75.76-3.93 43.11-1 141.61 49.18 147.54 16.21 2.27-12.59 4.95-29.13 7.63-48.17 3-21 11.56-33.75 22-39.45 42.65-23.3 123.49 32.1 168.11-46.85a36.07 36.07 0 0119.87-16.69c28.6-10.2 75.65 29.94 116.12 33.27 9.94.82 18.21.73 25.17-3.13a41.4 41.4 0 003.26-.55c25.18 7.11 27.48 4.25 63.19 4.78 4.36.07 8.76 0 13.24-.14 1.07 0 2.13-.11 3.17-.14 36-1 56.64-2.48 84.31 6.55a97.09 97.09 0 0120.11 9.49c31.55 19.18 28.64 85.75 59.18 122.67 15.49 18.72 42.37 21.21 61.92 9.28a6.19 6.19 0 00.79-.55c7.82-6.06 20.77-12.5 37-14.79 103.46-14.55 114.75-88.79 139-144.67 0-.88 0-1.79 0-2.76 3.34-52.83 245-179.17 287.77-164.27"/><path fill="none" stroke="#2fc1c1" stroke-dasharray="0 6" stroke-linecap="round" stroke-linejoin="round" stroke-width="1.55" d="M131.94 282.91c73.34-9.42 57.21 6 127.85 23.15 29.94 7.28 59.28 1.84 74.08-6.07 40.37-2.79 141 49.31 145.58 16.63 1.79-12.69 4.41-29.09 7.4-47.63 3.3-20.45 12.24-32.74 23-38 43.24-20.88 122.51 32.09 166.9-44.66a37.5 37.5 0 0119.78-16.92c28.88-10.76 76.64 25.66 116.32 32.36a32.44 32.44 0 0024.7-5.29 24.21 24.21 0 003.14-1c23.8 4.26 26.49-2.06 62.69-.92 4.35.13 8.76 0 13.27-.12 1.07 0 2.13-.09 3.18-.1 36.23-.41 56.59 1 83.49 11.73a106.25 106.25 0 0119.59 10.53c30.77 20.55 29.57 86.44 60.25 122.69 15.85 18.73 43.33 20.31 61.86 7.36a8.45 8.45 0 00.75-.59c7.49-6.63 20.32-13.49 36.52-15.82 99-14.24 110-85.5 131.31-140.29-.07-.9-.11-1.83-.09-2.82 1.14-53.88 250.85-176.69 295-159.75"/><path fill="none" stroke="#2fc1c1" stroke-dasharray="0 6" stroke-linecap="round" stroke-linejoin="round" stroke-width="1.45" d="M140.64 276.07c74.85-9 53.9 7.17 125.58 24.75 29.67 7.27 58.72.84 72.4-8.23C376.24 288 478.9 342 482.23 309.65c1.32-12.78 3.88-29 7.18-47.1 3.62-19.87 12.9-31.74 24-36.43C557.22 207.6 635 258.21 679.1 183.64c4.41-7.44 10.64-13.63 19.69-17.15 29.14-11.33 76.74 26.95 116.51 31.46a31 31 0 0024.25-7.45 20.43 20.43 0 003-1.37c22.42 1.41 25.47-7.57 62.19-6.64 4.35.11 8.77 0 13.29-.09 1.07 0 2.14-.08 3.19-.06 36.45.7 56.53 4.46 82.67 16.91a118.76 118.76 0 0119.11 11.57c30 21.92 30.51 87.13 61.31 122.7 16.23 18.75 44.28 19.4 61.8 5.46.25-.21.49-.43.71-.65 7.16-7.2 19.89-14.46 36-16.84 94.55-13.92 105.14-82.2 123.66-135.92a25.73 25.73 0 01-.22-2.86c-1-54.94 256.65-174.21 302.21-155.24"/><path fill="none" stroke="#2fc1c1" stroke-dasharray="0 6" stroke-linecap="round" stroke-linejoin="round" stroke-width="1.35" d="M149.33 269.23c76.37-8.5 50.61 8.35 123.33 26.34 29.39 7.28 58.15-.16 70.72-10.38C378.24 278.78 483 334.75 485 302.68c.83-12.88 3.34-29 6.94-46.56 4-19.3 13.58-30.75 25-34.93 44.39-16.19 120.64 32.11 164.51-40.28 4.51-7.44 10.65-13.75 19.6-17.38 29.41-11.91 76.93 34.31 116.71 30.54 9.26-.87 16.25-4.2 23.79-9.61 1-.73 2.09-1.16 2.88-1.77 21-1.44 24.46-13.07 61.69-12.35 4.34.08 8.77 0 13.32-.07 1.07 0 2.14 0 3.19 0 36.69.69 56.48 7.92 81.86 22.08a138.3 138.3 0 0118.56 12.61c29.23 23.31 31.46 87.82 62.37 122.73 16.62 18.76 45.23 18.47 61.74 3.54a9 9 0 00.68-.7c6.82-7.77 19.44-15.44 35.56-17.86 90.1-13.58 100.34-78.9 116-131.54a24.05 24.05 0 01-.35-2.92c-3.26-56 262.44-171.72 309.43-150.72"/><path fill="none" stroke="#2fc1c1" stroke-dasharray="0 6" stroke-linecap="round" stroke-linejoin="round" stroke-width="1.26" d="M158 262.4c77.88-8.06 47.3 9.51 121.06 27.93 29.12 7.27 57.59-1.16 69-12.54 32.11-8.22 138.85 49.69 139.67 17.92.33-13 2.81-29 6.72-46 4.29-18.72 14.24-29.77 26-33.42 44.87-13.9 119.66 32.13 163.24-38.1 4.6-7.42 10.65-13.87 19.51-17.61 29.67-12.5 77.35 35.86 116.91 29.64 9-1.42 15.87-5.33 23.32-11.77 1-.85 2-1.43 2.76-2.19 19.66-4.28 23.44-18.56 61.2-18.05 4.32.05 8.76 0 13.34-.05 1.07 0 2.14 0 3.19 0 36.92 1.25 56.42 11.38 81.05 27.26a160.14 160.14 0 0118 13.65c28.46 24.68 32.42 88.5 63.43 122.74 17 18.77 46.15 17.54 61.68 1.63a9.06 9.06 0 00.64-.75c6.48-8.35 19-16.41 35.08-18.89 85.65-13.21 95.54-75.59 108.37-127.15a26.75 26.75 0 01-.46-3c-5.48-57 268.23-169.25 316.64-146.21"/><path fill="none" stroke="#2fc1c1" stroke-dasharray="0 6" stroke-linecap="round" stroke-linejoin="round" stroke-width="1.16" d="M166.73 255.56c79.39-7.6 44 10.69 118.8 29.53 28.84 7.26 57-2.16 67.36-14.7 29.35-10 138.1 49.82 137.69 18.35-.17-13.07 2.28-28.93 6.5-45.48 4.62-18.15 14.9-28.8 27.05-31.92 45.4-11.64 118.74 32.18 162-35.91 4.7-7.4 10.65-14 19.43-17.83 29.92-13.1 77.77 37.44 117.09 28.72 8.8-1.95 15.54-6.46 22.87-13.93a36.1 36.1 0 002.63-2.59c18.28-7.14 22.43-23.27 60.7-23.77 4.32-.05 8.76 0 13.36 0 1.08 0 2.15 0 3.2.06 37.15 1.79 56.36 14.83 80.24 32.42a191.39 191.39 0 0117.52 14.7c27.69 26.05 33.38 89.17 64.5 122.75 17.39 18.78 47.06 16.59 61.62-.28a7.94 7.94 0 00.6-.8c6.13-8.93 18.57-17.38 34.6-19.91 81.2-12.83 90.73-72.3 100.72-122.77a25.62 25.62 0 01-.59-3c-7.69-58.1 274-166.77 323.86-141.7"/><path fill="none" stroke="#2fc1c1" stroke-dasharray="0 6" stroke-linecap="round" stroke-linejoin="round" stroke-width="1.06" d="M175.42 248.72c80.91-7.14 40.71 11.85 116.54 31.12 28.57 7.26 56.46-3.16 65.68-16.85 26.6-11.83 137.35 49.95 135.73 18.78-.68-13.16 1.74-28.89 6.26-44.95 4.95-17.56 15.57-27.84 28.07-30.41 45.94-9.43 117.85 32.24 160.8-33.72 4.8-7.37 10.65-14.12 19.34-18.06 30.18-13.7 78.22 39.08 117.29 27.81 8.58-2.47 15.23-7.58 22.41-16.08a31.75 31.75 0 002.5-3c16.9-10 21.42-28.77 60.2-29.48 4.31-.08 8.76 0 13.39 0 1.07 0 2.15 0 3.21.1 37.37 2.35 56.3 18.28 79.42 37.6 5 4.19 10.74 9.36 17 15.74 26.91 27.43 34.35 89.83 65.56 122.77 17.79 18.78 48 15.64 61.56-2.2a9.69 9.69 0 00.57-.85c5.77-9.51 18.12-18.34 34.11-20.93 76.75-12.43 85.93-69 93.08-118.39a26.63 26.63 0 01-.72-3.08c-9.9-59.13 279.82-164.27 331.08-137.17"/><path fill="none" stroke="#2fc1c1" stroke-dasharray="0 6" stroke-linecap="round" stroke-linejoin="round" stroke-width=".97" d="M184.12 241.88c82.42-6.68 37.41 13 114.28 32.72 28.29 7.25 55.89-4.16 64-19 23.84-13.6 136.6 50.08 133.75 19.2-1.2-13.25 1.2-28.85 6-44.41 5.28-17 16.23-26.9 29.07-28.9 46.49-7.26 117 32.31 159.59-31.54 4.9-7.35 10.65-14.24 19.25-18.29 30.43-14.3 78.7 40.77 117.48 26.91 8.37-3 15-8.73 21.95-18.24a26 26 0 002.37-3.41c15.53-12.84 20.42-34.26 59.71-35.2 4.3-.1 8.76-.06 13.41 0 1.08 0 2.16 0 3.22.14 37.6 2.92 56.24 21.73 78.61 42.78a301.76 301.76 0 0116.48 16.78c26.13 28.8 35.32 90.48 66.62 122.78 18.2 18.78 48.83 14.69 61.5-4.11a9.07 9.07 0 00.53-.89c5.42-10.09 17.69-19.32 33.63-22 72.32-12 81.13-65.7 85.43-114a27.42 27.42 0 01-.84-3.12C1258.08 100 1555.82-1.67 1608.5 27.47"/><path fill="none" stroke="#2fc1c1" stroke-dasharray="0 6" stroke-linecap="round" stroke-linejoin="round" stroke-width=".87" d="M192.81 235.05c83.94-6.23 34.12 14.16 112 34.3 28 7.25 55.33-5.16 62.32-21.16 21.1-15.44 135.77 50.24 131.79 19.64-1.74-13.34.66-28.81 5.8-43.87 5.61-16.41 16.91-26 30.09-27.4 47.06-5.11 116.11 32.4 158.37-29.35 5-7.32 10.65-14.37 19.16-18.51 30.67-14.93 79.22 42.48 117.68 26 8.15-3.5 14.69-9.88 21.49-20.4.84-1.31 1.49-2.63 2.24-3.82 11.33-17.83 19.41-39.74 59.21-40.9 4.29-.13 8.76-.08 13.44.06 1.08 0 2.16.08 3.22.18 37.83 3.48 56.18 25.17 77.79 47.95a408.72 408.72 0 0116 17.83c25.37 30.18 36.31 91.13 67.69 122.8 18.6 18.77 49.69 13.73 61.45-6a10.46 10.46 0 00.49-.94c5-10.67 17.25-20.28 33.14-23C1254 256.86 1262.49 206 1264 158.8a26.7 26.7 0 01-1-3.18C1248.64 94.4 1554.39-3.7 1608.5 27.47"/><path fill="none" stroke="#2fc1c1" stroke-dasharray="0 6" stroke-linecap="round" stroke-linejoin="round" stroke-width=".77" d="M201.51 228.21c85.45-5.78 30.82 15.32 109.75 35.9C339 271.35 366 258 371.9 240.8c18.35-17.26 135 50.39 129.82 20.06-2.27-13.42.12-28.77 5.58-43.33 5.94-15.84 17.58-25 31.1-25.89 47.64-3 115.26 32.49 157.15-27.17 5.12-7.29 10.65-14.5 19.07-18.74 30.91-15.55 79.77 44.24 117.88 25.08 8-4 14.44-11 21-22.55.81-1.43 1.43-2.88 2.11-4.23C865.8 123.94 874 98.8 914.35 97.42c4.29-.15 8.76-.1 13.46.09 1.09 0 2.17.1 3.23.21 38.06 4 56.13 28.61 77 53.13a563.5 563.5 0 0115.44 18.86c24.53 31.61 37.3 91.78 68.76 122.82 19 18.76 50.52 12.79 61.38-7.94.17-.32.32-.66.46-1 4.67-11.24 16.81-21.23 32.66-24 63.44-11.12 71.52-59.1 70.14-105.25a27.87 27.87 0 01-1.1-3.23C1239.19 88.85 1553-5.73 1608.5 27.47"/><path fill="none" stroke="#2fc1c1" stroke-dasharray="0 6" stroke-linecap="round" stroke-linejoin="round" stroke-width=".68" d="M210.21 221.37c87-5.32 27.52 16.47 107.49 37.5 27.48 7.22 54.2-7.16 59-25.47 15.59-19.07 134.13 50.56 127.85 20.49-2.82-13.5-.42-28.73 5.35-42.8 6.26-15.26 18.32-23 32.11-24.38 48-4.9 114.43 32.61 155.93-25 5.23-7.26 10.64-14.63 19-19 31.15-16.19 80.38 46 118.07 24.17 7.77-4.5 14.2-12.22 20.57-24.72.79-1.55 1.38-3.12 2-4.63 9.07-22.47 17.39-50.71 58.21-52.33 4.28-.17 8.77-.11 13.49.12 1.08.05 2.17.12 3.23.25 38.29 4.62 56.07 32.05 76.17 58.31a934.37 934.37 0 0114.92 19.9c23.76 33 38.29 92.42 69.82 122.84 19.42 18.73 51.36 11.84 61.32-9.86a10.28 10.28 0 00.42-1c4.3-11.81 16.38-22.18 32.18-25 59-10.65 73.8-57 62.49-100.87-.28-1.12-.88-2.15-1.22-3.29-18.79-63.29 303-154.36 360-119.12"/><path fill="none" stroke="#2fc1c1" stroke-dasharray="0 6" stroke-linecap="round" stroke-linejoin="round" stroke-width=".58" d="M218.9 214.53c88.48-4.86 24.24 17.61 105.23 39.09 27.21 7.22 53.64-8.16 57.28-27.62 12.84-20.88 133.3 50.74 125.88 20.92-3.37-13.57-1-28.7 5.12-42.26 6.59-14.69 19-22.2 33.13-22.87 48.82-2.34 113.61 32.74 154.71-22.8 5.35-7.22 10.64-14.76 18.9-19.19 31.37-16.83 81 47.8 118.26 23.26 7.58-5 14-13.41 20.11-26.87a43.57 43.57 0 001.86-5.05c8-25 16.38-56.19 57.72-58a133.52 133.52 0 0113.5.14c1.09.06 2.18.15 3.25.29 38.5 5.19 56 35.49 75.35 63.48 4.15 6 9.06 13 14.4 20.95 23 34.35 39.28 93 70.88 122.85 19.83 18.71 52.18 10.91 61.27-11.77.14-.35.26-.72.38-1.09 3.92-12.38 15.94-23.12 31.69-26.06 54.58-10.15 68-53.9 54.85-96.49-.35-1.13-1-2.18-1.35-3.33-21-64.33 308.8-151.88 367.18-114.61"/><path fill="none" stroke="#2fc1c1" stroke-dasharray="0 6" stroke-linecap="round" stroke-linejoin="round" stroke-width=".48" d="M227.6 207.7c90-4.41 20.94 18.74 103 40.68 26.94 7.2 50.05-9.76 55.6-29.78 6.62-23.92 132.44 50.94 123.91 21.35-3.94-13.64-1.5-28.66 4.89-41.72 6.91-14.11 19.64-22.31 34.14-21.37 49.52 3.21 112.8 32.9 153.49-20.61 5.47-7.18 10.63-14.89 18.81-19.42 31.59-17.47 81.71 49.6 118.46 22.35 7.4-5.49 13.72-14.6 19.65-29a40 40 0 001.73-5.45c7-27.55 15.38-61.66 57.22-63.75a116.57 116.57 0 0113.53.17c1.09.07 2.18.17 3.25.33 38.73 5.76 56 38.92 74.54 68.66 4 6.37 8.72 13.73 13.88 22 22.21 35.72 40.28 93.66 71.94 122.86 20.26 18.68 53 10 61.21-13.67.13-.38.24-.76.35-1.15 3.53-12.95 15.5-24.06 31.21-27.08 50.15-9.63 62.11-50.67 47.2-92.11-.42-1.15-1.06-2.21-1.48-3.39-23.25-65.35 314.59-149.39 374.4-110.09"/><path fill="none" stroke="#2fc1c1" stroke-dasharray="0 6" stroke-linecap="round" stroke-linejoin="round" stroke-width=".39" d="M236.3 200.86c91.5-4 17.65 19.88 100.7 42.27 26.67 7.2 50.06-10.45 53.92-31.93 4.52-25.2 131.59 51.16 121.94 21.8-4.5-13.69-2-28.62 4.67-41.18 7.23-13.54 20.33-21.42 35.14-19.87 50.21 5.26 111.92 33 152.28-18.42 5.58-7.15 10.62-15 18.72-19.64 31.81-18.13 82.44 51.39 118.65 21.44 7.25-6 13.5-15.82 19.19-31.19a36.72 36.72 0 001.61-5.86c6-30.22 14.37-67.14 56.72-69.46a105.12 105.12 0 0113.55.19c1.1.08 2.19.2 3.26.37 39 6.34 55.92 42.35 73.73 73.83 3.8 6.74 8.38 14.46 13.36 23 21.43 37.08 41.28 94.27 73 122.88 20.68 18.64 53.79 9.07 61.15-15.59.12-.4.22-.8.31-1.2 3.16-13.51 15.07-25 30.73-28.1 45.74-9.11 56.26-47.31 39.55-87.73-.48-1.16-1.14-2.25-1.6-3.44-25.48-66.36 320.39-146.9 381.62-105.56"/><path fill="none" stroke="#2fc1c1" stroke-dasharray="0 6" stroke-linecap="round" stroke-linejoin="round" stroke-width=".29" d="M245 194c93-3.5 14.37 21 98.44 43.87 26.41 7.18 50.12-11.26 52.24-34.09 2.47-26.58 130.74 51.39 120 22.21-5.08-13.75-2.59-28.59 4.43-40.65 7.56-13 21-20.52 36.16-18.35 50.92 7.29 111.22 33.26 151.06-16.24 5.71-7.09 10.61-15.16 18.63-19.87 32-18.79 83.21 53.18 118.85 20.53 7.09-6.49 13.26-17 18.73-33.35a36.35 36.35 0 001.48-6.27c4.91-32.93 13.36-72.6 56.22-75.16a93.12 93.12 0 0113.58.22 32.24 32.24 0 013.26.4c39.18 6.92 55.88 45.79 72.91 79 3.64 7.1 8.06 15.18 12.85 24.08 20.66 38.45 42.28 94.88 74.07 122.89 21.1 18.6 54.58 8.17 61.08-17.5.11-.41.2-.83.28-1.24 2.77-14.08 14.64-25.9 30.24-29.13 41.33-8.56 50.42-43.84 31.91-83.35-.55-1.17-1.23-2.29-1.72-3.5-27.86-67.32 326.15-144.4 388.8-101.03"/><path fill="none" stroke="#2fc1c1" stroke-dasharray="0 6" stroke-linecap="round" stroke-linejoin="round" stroke-width=".19" d="M253.69 187.18c94.53-3 11.11 22 96.18 45.47 26.14 7.12 50.19-12.15 50.56-36.25.43-28.16 129.86 51.64 118 22.65-5.64-13.8-3.15-28.58 4.21-40.12 7.86-12.41 21.76-19.63 37.17-16.85 51.65 9.32 110.44 33.48 149.84-14.05 5.84-7 10.6-15.3 18.54-20.09 32.22-19.46 84 54.95 119 19.61 6.93-7 13-18.26 18.27-35.5a36.63 36.63 0 001.35-6.68c3.86-35.7 12.36-78.06 55.72-80.88a87 87 0 0113.6.25c1.1.1 2.2.24 3.27.44 39.39 7.56 55.83 49.22 72.1 84.19 3.47 7.45 7.72 15.9 12.33 25.12 19.88 39.82 43.29 95.48 75.13 122.91 21.54 18.55 55.37 7.27 61-19.42q.14-.64.24-1.29c2.38-14.64 14.21-26.8 29.75-30.16 36.92-8 44.61-40.23 24.27-79-.62-1.17-1.32-2.32-1.85-3.54-30-68.39 332-141.95 396-96.55"/><path fill="none" stroke="#2fc1c1" stroke-dasharray="0 6" stroke-linecap="round" stroke-linejoin="round" stroke-width=".1" d="M262.38 180.35c96.05-2.59 7.82 23.18 93.92 47.05 25.87 7.13 50.24-13.12 48.88-38.39-1.61-29.89 129 51.9 116 23.07-6.22-13.83-3.68-28.54 4-39.58 8.19-11.84 22.47-18.74 38.18-15.34C615.79 168.49 673 190.87 712 145.3c6-7 10.59-15.45 18.45-20.33 32.42-20.13 84.85 56.72 119.24 18.71 6.8-7.51 12.79-19.5 17.81-37.67a35.71 35.71 0 001.23-7.08c2.81-38.5 11.35-83.47 55.22-86.59a80.79 80.79 0 0113.63.27 32.83 32.83 0 013.28.49c39.61 8.1 55.78 52.64 71.28 89.35 3.3 7.82 7.39 16.63 11.81 26.16 19.11 41.2 44.29 96.08 76.19 122.93 22 18.5 56.16 6.38 61-21.33.08-.45.14-.89.2-1.34 2-15.2 13.8-27.66 29.28-31.18 32.52-7.39 38.82-36.52 16.61-74.59-.68-1.18-1.4-2.35-2-3.6C1173 50.08 1543-20 1608.5 27.47"/><path fill="none" d="M271.08 173.51c97.56-2.13 4.52 24.36 91.66 48.65 25.59 7.13 50.25-14.16 47.2-40.55-3.68-31.73 128.13 52.18 114.06 23.5s12-60.66 43-52.88c53.19 13.36 107.79 33 147.4-9.67 5.94-7.09 10.5-15.7 18.37-20.56 38.65-25.5 107.59 93.87 136.78-22a36.5 36.5 0 001.1-7.5c1.9-45.25 12-98.09 68.37-92a30.45 30.45 0 013.29.53c39.84 8.65 56.41 55.82 70.47 94.53 17.41 43.26 49.2 117.78 88.54 150.15 22.41 18.43 57 5.5 60.91-23.25.07-.46.12-.92.17-1.39 1.61-15.75 13.39-28.49 28.79-32.2 28.14-6.79 33.1-32.7 9-70.21A34.82 34.82 0 011198 115c-34.4-70.46 343.56-137 410.49-87.52"/></svg>