<svg xmlns="http://www.w3.org/2000/svg" width="130" height="130" viewBox="0 0 129.5 129.5"><style type="text/css">
	.st0{fill:#FFFFFF;}
</style><path class="st0" d="M116.4 65.2L116.4 65.2l13-0.1v-0.7l-13 0v-0.1c-2.9 0-5.5-2.2-7.4-5.4 -1.9-3.2-3-7.4-3-11.1 0-3.8 1.2-7.1 3.7-8.5l0-0.1 11.3-6.5 -0.4-0.6 -11.3 6.5 0-0.1 0 0 0 0c0 0 0 0 0 0 -1 0.5-2 0.8-3.2 0.8 -3.4 0-7.4-2.2-10.6-5.4 -3.2-3.1-5.4-7.2-5.4-10.6 0-1.2 0.3-2.2 0.8-3.2l-0.1-0.1 6.5-11.3 -0.5-0.3 -6.5 11.3 -0.1-0.1c-1.5 2.5-4.7 3.7-8.5 3.7 -3.7 0-7.9-1.1-11.1-3 -3.2-1.9-5.4-4.5-5.4-7.4h-0.1l0-13h-0.7l0 13h-0.1c0 2.9-2.2 5.5-5.4 7.4 -3.2 1.9-7.4 3-11.1 3 -3.8 0-7.1-1.2-8.5-3.7l-0.1 0L32.7 8.5 32 8.9l6.5 11.3 -0.1 0c0.6 1 0.8 2 0.8 3.2 0 3.4-2.2 7.4-5.4 10.6 -3.1 3.2-7.2 5.4-10.6 5.4 -1.2 0-2.2-0.3-3.2-0.8l0 0.1L8.9 32l-0.4 0.6 11.3 6.5 0 0.1c2.5 1.5 3.7 4.7 3.7 8.5 0 3.7-1.1 7.9-3 11.1 -1.9 3.2-4.5 5.4-7.4 5.4v0.1l-13 0v0.7l13 0v0.1c2.9 0 5.5 2.2 7.4 5.4 1.9 3.2 3 7.4 3 11.1 0 3.8-1.1 7-3.6 8.5 0 0 0 0-0.1 0l0 0.1L8.5 96.8l0.4 0.6 11.3-6.5 0 0.1c0 0 0 0 0 0 1-0.6 2-0.8 3.2-0.8 3.4 0 7.4 2.2 10.6 5.4 3.2 3.1 5.4 7.2 5.4 10.6 0 1.2-0.3 2.2-0.8 3.2l0.1 0L32 120.6l0.6 0.4 6.5-11.3 0.1 0c1.4-2.5 4.7-3.7 8.5-3.7 3.7 0 7.9 1.1 11.1 3 3.2 1.9 5.4 4.5 5.4 7.4h0.1l0 13h0.7l0-13h0.1c0-2.9 2.2-5.5 5.4-7.4 3.2-1.9 7.4-3 11.1-3 3.8 0 7.1 1.2 8.5 3.7l0.1-0.1 6.5 11.3 0.5-0.3 -6.5-11.3 0.1-0.1c-0.6-1-0.8-2-0.8-3.2 0-3.4 2.2-7.4 5.4-10.6 3.1-3.2 7.2-5.4 10.6-5.4 1.2 0 2.2 0.3 3.2 0.8l0-0.1 11.3 6.5 0.4-0.6 -11.3-6.5 0-0.1c-2.5-1.5-3.7-4.7-3.7-8.5 0-3.7 1.1-7.9 3-11.1C110.9 67.4 113.6 65.2 116.4 65.2zM105.2 47.8c0 3.9 1.2 8.2 3.1 11.6 1.3 2.2 3 4.1 4.9 5l-8.3 0v-0.1c-2.2 0-4.2-1.7-5.7-4.2 -1.5-2.5-2.3-5.7-2.3-8.6 0-2.9 0.9-5.4 2.8-6.6l0 0 7.2-4.1C105.7 42.7 105.2 45.1 105.2 47.8zM74.8 46.8L74.8 46.8c-0.5 0.9-1.8 1.4-3.3 1.4 -1.5 0-3.1-0.4-4.4-1.2 -1.2-0.7-1.9-1.6-2.1-2.5l0-6.3c0.6 0.9 1.5 1.7 2.6 2.4 1.9 1.1 4.3 1.8 6.5 1.8 1.3 0 2.6-0.2 3.6-0.8L74.8 46.8zM64.4 63.6l-2.8-4.8c0.2 0 0.3 0.1 0.5 0.1 0.6 0 1.3-0.2 1.8-0.5 0.1-0.1 0.3-0.2 0.4-0.3L64.4 63.6zM63.9 63.9l-4.8-2.8c0.4-0.1 0.9-0.4 1.2-0.8 0.4-0.4 0.7-0.8 0.8-1.2L63.9 63.9zM63.6 64.4l-5.6 0c0.1-0.1 0.2-0.3 0.3-0.4 0.3-0.5 0.5-1.2 0.5-1.8 0-0.2 0-0.4 0-0.5L63.6 64.4zM63.6 65l-4.8 2.8c0-0.2 0.1-0.3 0.1-0.5 0-0.6-0.2-1.3-0.5-1.8 -0.1-0.1-0.2-0.3-0.3-0.4L63.6 65zM63.9 65.6l-2.8 4.8c-0.1-0.4-0.4-0.9-0.8-1.2 -0.4-0.4-0.8-0.6-1.2-0.8L63.9 65.6zM64.4 65.9l0 5.6c-0.1-0.1-0.3-0.2-0.4-0.3 -0.5-0.3-1.2-0.5-1.8-0.5 -0.2 0-0.4 0-0.5 0.1L64.4 65.9zM65 65.9l2.8 4.8c-0.2 0-0.4-0.1-0.5-0.1 -0.6 0-1.3 0.2-1.8 0.5 -0.1 0.1-0.3 0.2-0.4 0.3L65 65.9zM65.6 65.6l4.8 2.8c-0.4 0.1-0.9 0.4-1.2 0.8 -0.4 0.4-0.7 0.8-0.8 1.2L65.6 65.6zM65.9 65l5.6 0c-0.1 0.1-0.2 0.3-0.3 0.4 -0.3 0.5-0.5 1.2-0.5 1.8 0 0.2 0 0.4 0.1 0.5L65.9 65zM65.9 64.4l4.8-2.8c0 0.2 0 0.3 0 0.5 0 0.6 0.2 1.3 0.5 1.8 0.1 0.1 0.2 0.3 0.3 0.4L65.9 64.4zM65.6 63.9l2.8-4.8c0.1 0.4 0.4 0.9 0.8 1.2 0.4 0.4 0.8 0.7 1.2 0.8L65.6 63.9zM65 63.6l0-5.6c0.1 0.1 0.3 0.2 0.4 0.3 0.5 0.3 1.2 0.5 1.8 0.5 0.2 0 0.4 0 0.5-0.1L65 63.6zM64.4 57.3c-0.1 0.2-0.3 0.5-0.6 0.6 -0.5 0.3-1.1 0.4-1.6 0.4 -0.4 0-0.7-0.1-0.9-0.2l-2.3-4c0.4 0.1 0.9 0.2 1.3 0.2 1.1 0 2.2-0.3 3.1-0.8 0.4-0.2 0.7-0.5 1-0.8L64.4 57.3zM60.7 58.4C60.7 58.5 60.7 58.5 60.7 58.4c0 0.5-0.3 1.1-0.8 1.5 -0.5 0.5-1 0.8-1.5 0.8 0 0 0 0-0.1 0l-4-2.3c0.9-0.2 1.8-0.7 2.5-1.5 0.7-0.7 1.3-1.6 1.5-2.5L60.7 58.4zM58.1 61.3c0.1 0.2 0.2 0.5 0.2 0.9 0 0.5-0.2 1.1-0.4 1.6 -0.2 0.3-0.4 0.5-0.6 0.6l-4.6 0c0.3-0.3 0.6-0.6 0.8-1 0.5-0.9 0.8-2.1 0.8-3.1 0-0.5-0.1-0.9-0.2-1.3L58.1 61.3zM57.3 65.1c0.2 0.1 0.5 0.3 0.6 0.6 0.3 0.5 0.4 1.1 0.4 1.6 0 0.4-0.1 0.7-0.2 0.9l-4 2.3c0.1-0.4 0.2-0.9 0.2-1.3 0-1.1-0.3-2.2-0.8-3.1 -0.2-0.4-0.5-0.7-0.8-1L57.3 65.1zM58.4 68.7C58.5 68.7 58.5 68.7 58.4 68.7c0.5 0 1.1 0.3 1.5 0.8 0.5 0.5 0.8 1 0.8 1.5 0 0 0 0 0 0.1l-2.3 4c-0.2-0.9-0.7-1.8-1.5-2.5 -0.7-0.7-1.6-1.3-2.5-1.5L58.4 68.7zM61.3 71.4c0.2-0.1 0.5-0.2 0.9-0.2 0.5 0 1.1 0.2 1.6 0.4 0.3 0.2 0.5 0.4 0.6 0.6l0 4.6c-0.3-0.3-0.6-0.6-1-0.8 -0.9-0.5-2.1-0.8-3.1-0.8 -0.5 0-0.9 0.1-1.3 0.2L61.3 71.4zM65.1 72.2c0.1-0.2 0.3-0.4 0.6-0.6 0.5-0.3 1.1-0.4 1.6-0.4 0.4 0 0.7 0.1 0.9 0.2l2.3 4c-0.4-0.1-0.9-0.2-1.3-0.2 -1.1 0-2.2 0.3-3.1 0.8 -0.4 0.2-0.7 0.5-1 0.8L65.1 72.2zM68.7 71.1C68.7 71 68.7 71 68.7 71.1c0-0.5 0.3-1.1 0.8-1.6 0.5-0.5 1-0.8 1.5-0.8 0 0 0 0 0.1 0l4 2.3c-0.9 0.2-1.8 0.7-2.5 1.5 -0.7 0.7-1.3 1.6-1.5 2.5L68.7 71.1zM71.4 68.2c-0.1-0.2-0.2-0.5-0.2-0.9 0-0.5 0.2-1.1 0.4-1.6 0.2-0.3 0.4-0.5 0.6-0.6l4.6 0c-0.3 0.3-0.6 0.6-0.8 1 -0.5 0.9-0.8 2.1-0.8 3.1 0 0.5 0.1 0.9 0.2 1.3L71.4 68.2zM72.2 64.4c-0.2-0.1-0.5-0.3-0.6-0.6 -0.3-0.5-0.4-1.1-0.4-1.6 0-0.4 0.1-0.7 0.2-0.9l4-2.3c-0.1 0.4-0.2 0.9-0.2 1.3 0 1.1 0.3 2.2 0.8 3.1 0.2 0.4 0.5 0.7 0.8 1L72.2 64.4zM71 60.7C71 60.7 71 60.7 71 60.7c-0.5 0-1.1-0.3-1.5-0.8 -0.5-0.5-0.8-1-0.8-1.5 0 0 0-0.1 0-0.1l2.3-4c0.2 0.9 0.7 1.8 1.5 2.5 0.7 0.7 1.6 1.3 2.5 1.5L71 60.7zM68.2 58.1c-0.2 0.2-0.5 0.2-0.9 0.2 -0.5 0-1.1-0.2-1.6-0.4 -0.3-0.2-0.5-0.4-0.6-0.6l0-4.6c0.3 0.3 0.6 0.6 1 0.8 0.9 0.5 2.1 0.8 3.1 0.8 0.5 0 0.9-0.1 1.3-0.2L68.2 58.1zM64.4 51.6c-0.2 0.5-0.6 1-1.3 1.4 -0.8 0.5-1.9 0.8-2.8 0.8 -0.8 0-1.5-0.2-1.9-0.6l-2.8-4.8c0.7 0.3 1.5 0.4 2.3 0.4 1.6 0 3.3-0.5 4.7-1.3 0.7-0.4 1.3-0.9 1.7-1.5L64.4 51.6zM57.9 53.5c0 0.1 0 0.3 0 0.4 0 0.8-0.6 1.9-1.4 2.7 -0.8 0.8-1.8 1.4-2.7 1.4 -0.1 0-0.3 0-0.4 0l-4.8-2.8c1.4-0.2 2.9-1.1 4.1-2.3 1.2-1.2 2.1-2.7 2.3-4.1L57.9 53.5zM53.2 58.4c0.4 0.4 0.6 1.1 0.6 1.9 0 0.9-0.3 2-0.8 2.8 -0.4 0.7-0.9 1.1-1.4 1.3l-5.6 0c0.6-0.4 1.1-1 1.5-1.8 0.8-1.4 1.3-3.1 1.3-4.7 0-0.8-0.1-1.6-0.4-2.3L53.2 58.4zM51.6 65.1c0.5 0.2 1 0.6 1.4 1.3 0.5 0.8 0.8 1.9 0.8 2.8 0 0.8-0.2 1.5-0.6 1.9l-4.8 2.8c0.3-0.7 0.4-1.5 0.4-2.3 0-1.6-0.5-3.3-1.3-4.7 -0.4-0.7-0.9-1.3-1.5-1.7L51.6 65.1zM53.5 71.6c0.1 0 0.3 0 0.4 0 0.8 0 1.9 0.6 2.7 1.4 0.8 0.8 1.4 1.8 1.4 2.7 0 0.1 0 0.3 0 0.4l-2.8 4.8c-0.2-1.4-1.1-2.9-2.3-4.1 -1.2-1.2-2.7-2.1-4.1-2.3L53.5 71.6zM58.4 76.3c0.4-0.4 1.1-0.6 1.9-0.6 0.9 0 2 0.3 2.8 0.8 0.7 0.4 1.1 0.9 1.3 1.4l0 5.6c-0.4-0.6-1-1.1-1.7-1.5 -1.4-0.8-3.1-1.3-4.7-1.3 -0.8 0-1.6 0.1-2.3 0.4L58.4 76.3zM65.1 77.9c0.2-0.5 0.6-1 1.3-1.4 0.8-0.5 1.9-0.8 2.8-0.8 0.8 0 1.5 0.2 1.9 0.6l2.8 4.8c-0.7-0.3-1.5-0.5-2.4-0.5 -1.6 0-3.3 0.5-4.7 1.3 -0.7 0.4-1.3 0.9-1.7 1.5L65.1 77.9zM71.6 76c0-0.1-0.1-0.3-0.1-0.4 0-0.8 0.6-1.9 1.4-2.7 0.8-0.8 1.8-1.4 2.7-1.4 0.1 0 0.3 0 0.4 0l4.8 2.8c-1.4 0.2-2.9 1.1-4.1 2.3 -1.2 1.2-2.1 2.7-2.3 4.2L71.6 76zM76.3 71c-0.4-0.4-0.6-1.1-0.6-1.9 0-0.9 0.3-2 0.8-2.8 0.4-0.7 0.9-1.1 1.4-1.3l5.6 0c-0.6 0.4-1.1 1-1.5 1.7 -0.8 1.4-1.3 3.1-1.3 4.7 0 0.8 0.1 1.6 0.4 2.3L76.3 71zM77.9 64.4c-0.5-0.2-1-0.6-1.4-1.3 -0.5-0.8-0.8-1.9-0.8-2.8 0-0.8 0.2-1.5 0.6-1.9l4.8-2.8c-0.3 0.7-0.4 1.5-0.4 2.3 0 1.6 0.5 3.3 1.3 4.7 0.4 0.7 0.9 1.3 1.5 1.8L77.9 64.4zM76 57.9c-0.1 0-0.3 0-0.4 0 -0.8 0-1.9-0.6-2.7-1.4 -0.8-0.8-1.4-1.8-1.4-2.7 0-0.2 0-0.3 0.1-0.4l2.8-4.8c0.1 1.4 1.1 3 2.3 4.2 1.2 1.2 2.7 2.1 4.1 2.3L76 57.9zM71.1 53.2c-0.4 0.4-1.1 0.6-1.9 0.6 -0.9 0-2-0.3-2.8-0.8 -0.7-0.4-1.1-0.9-1.3-1.4l0-5.6c0.4 0.6 1 1.1 1.7 1.5 1.4 0.8 3.1 1.3 4.7 1.3 0.8 0 1.7-0.1 2.4-0.5L71.1 53.2zM64.4 44.4c-0.1 1-0.9 1.9-2.1 2.5 -1.3 0.7-2.9 1.2-4.4 1.2 -1.4 0-2.6-0.4-3.1-1.2l-3.1-5.4c1 0.5 2.2 0.8 3.5 0.8 2.2 0 4.6-0.7 6.5-1.8 1.1-0.6 2-1.4 2.6-2.4L64.4 44.4zM54.3 47.3c0.1 0.3 0.2 0.6 0.2 1 0 1.3-0.9 2.9-2.1 4.1 -1.2 1.2-2.8 2.1-4.1 2.1 -0.4 0-0.7-0.1-1-0.2l-5.4-3.1c2.1-0.1 4.3-1.4 6.1-3.2 1.8-1.8 3.1-4 3.2-6.1L54.3 47.3zM46.9 54.8c0.8 0.6 1.2 1.8 1.2 3.1 0 1.5-0.4 3.1-1.2 4.4 -0.7 1.2-1.6 1.9-2.5 2.1l-6.3 0c0.9-0.6 1.7-1.5 2.4-2.6 1.1-1.9 1.8-4.3 1.8-6.5 0-1.3-0.2-2.5-0.8-3.5L46.9 54.8zM44.4 65.1c1 0.1 1.9 0.9 2.5 2.1 0.7 1.3 1.2 2.9 1.2 4.4 0 1.4-0.4 2.6-1.2 3.1l-5.4 3.1c0.5-1 0.8-2.2 0.8-3.5 0-2.2-0.7-4.6-1.8-6.5 -0.6-1.1-1.4-2-2.4-2.6L44.4 65.1zM47.3 75.2c0.3-0.1 0.6-0.2 1-0.2 1.3 0 2.9 0.9 4.1 2.1 1.2 1.2 2.1 2.8 2.1 4.1 0 0.3-0.1 0.7-0.2 1l-3.1 5.4c-0.1-2.1-1.4-4.3-3.2-6.1 -1.8-1.8-4-3.1-6.1-3.2L47.3 75.2zM54.8 82.5c0.6-0.8 1.8-1.2 3.1-1.2 1.5 0 3.1 0.4 4.4 1.2 1.2 0.7 1.9 1.6 2.1 2.5l0 6.3c-0.6-0.9-1.5-1.7-2.6-2.4 -1.9-1.1-4.3-1.8-6.5-1.8 -1.3 0-2.5 0.2-3.5 0.8L54.8 82.5zM65.1 85c0.1-1 0.9-1.9 2.1-2.5 1.3-0.7 2.9-1.2 4.4-1.2 1.5 0 2.7 0.4 3.2 1.4 0 0 0 0 0 0h0l3 5.2c-1-0.5-2.3-0.8-3.6-0.8 -2.2 0-4.6 0.7-6.5 1.8 -1.1 0.6-2 1.4-2.6 2.4L65.1 85zM75.3 82.4C75.1 82 75 81.6 75 81.2c0-1.3 0.9-2.9 2.1-4.1 1.2-1.2 2.8-2.1 4.1-2.1 0.3 0 0.7 0.1 1 0.2l5.4 3.1c-2.1 0.1-4.3 1.4-6.1 3.2 -1.8 1.8-3.1 4-3.2 6.1L75.3 82.4zM82.5 74.6c-0.8-0.6-1.2-1.8-1.2-3.1 0-1.5 0.4-3.1 1.2-4.4 0.7-1.2 1.6-1.9 2.5-2.1l6.3 0c-0.9 0.6-1.7 1.5-2.4 2.6 -1.1 1.9-1.8 4.3-1.8 6.5 0 1.3 0.2 2.5 0.8 3.5L82.5 74.6zM85 64.4c-1-0.1-1.9-0.9-2.5-2.1 -0.7-1.3-1.2-2.9-1.2-4.4 0-1.4 0.4-2.6 1.2-3.1l5.4-3.1c-0.5 1-0.8 2.2-0.8 3.5 0 2.2 0.7 4.6 1.8 6.5 0.6 1.1 1.4 2 2.4 2.6L85 64.4zM82.1 54.3c-0.3 0.1-0.6 0.2-1 0.2 -1.3 0-2.9-0.9-4.1-2.1 -1.2-1.2-2.1-2.8-2.1-4.1 0-0.4 0.1-0.8 0.3-1.2l3-5.2c0.1 2.1 1.4 4.3 3.2 6.1 1.8 1.8 4 3.1 6.1 3.2L82.1 54.3zM89.5 50C89.5 50 89.5 50 89.5 50L89.5 50C89.5 50 89.5 50 89.5 50c-0.5 0.3-1.1 0.4-1.7 0.4 -1.8 0-4.1-1.2-5.8-3 -1.7-1.7-3-4-3-5.8 0-0.6 0.1-1.2 0.4-1.7 0 0 0 0 0 0v0l0 0 0 0 4.4-7.6c0 0.1 0 0.1 0 0.2 0 2.9 1.9 6.2 4.4 8.7 2.5 2.5 5.8 4.4 8.7 4.4 0 0 0.1 0 0.1 0L89.5 50 89.5 50zM78.9 39.6L78.9 39.6c-0.8 1.3-2.6 2-4.7 2 -2.1 0-4.4-0.6-6.1-1.7 -1.8-1-3-2.5-3-4h0l0-8.7c0.8 1.4 2.2 2.7 3.8 3.6 2.6 1.5 6 2.4 9 2.4 2 0 3.8-0.4 5.3-1.3L78.9 39.6zM64.4 35.9L64.4 35.9c0 1.5-1.2 3-3 4 -1.8 1-4.1 1.7-6.1 1.7 -2.1 0-3.9-0.6-4.6-2l0 0 -4.3-7.5c1.4 0.9 3.3 1.2 5.2 1.2 3.1 0 6.4-0.9 9-2.5 1.6-1 3-2.2 3.8-3.6L64.4 35.9zM50 40L50 40c0.3 0.5 0.4 1.1 0.4 1.7 0 1.8-1.2 4.1-3 5.8 -1.7 1.7-4 3-5.8 3 -0.6 0-1.2-0.1-1.7-0.4l0 0 -7.5-4.3c0 0 0.1 0 0.1 0 2.9 0 6.2-1.9 8.7-4.4 2.5-2.5 4.4-5.8 4.4-8.7 0 0 0-0.1 0-0.1L50 40zM39.6 50.6L39.6 50.6c1.3 0.8 2 2.6 2 4.7 0 2.1-0.6 4.4-1.7 6.1 -1 1.8-2.5 3-4 3v0l-8.7 0c1.4-0.8 2.7-2.2 3.6-3.8 1.5-2.6 2.4-6 2.4-9 0-1.9-0.4-3.8-1.2-5.2L39.6 50.6zM35.9 65.1L35.9 65.1c1.5 0 3 1.2 4 3 1 1.8 1.7 4.1 1.7 6.1 0 2.1-0.6 3.9-2 4.6h0c0 0 0 0 0 0l0 0 -7.5 4.3c0.9-1.4 1.2-3.3 1.2-5.2 0-3.1-0.9-6.4-2.4-9 -1-1.6-2.2-3-3.6-3.8L35.9 65.1zM40 79.4L40 79.4C40 79.4 40 79.4 40 79.4c0.6-0.3 1.1-0.4 1.7-0.4 1.8 0 4.1 1.2 5.8 3 1.7 1.7 3 4 3 5.8 0 0.6-0.1 1.2-0.4 1.7l0 0L45.7 97c0 0 0-0.1 0-0.1 0-2.9-1.9-6.2-4.4-8.7 -2.5-2.5-5.8-4.4-8.7-4.4 0 0-0.1 0-0.1 0L40 79.4zM50.6 89.8L50.6 89.8c0.8-1.3 2.6-2 4.7-2 2.1 0 4.4 0.6 6.1 1.7 1.8 1 3 2.5 3 4h0l0 8.7c-0.8-1.4-2.2-2.7-3.8-3.6 -2.6-1.5-6-2.4-9-2.5 -1.9 0-3.8 0.4-5.2 1.2L50.6 89.8zM65.1 93.5L65.1 93.5c0-1.5 1.2-3 3-4 1.8-1 4.1-1.7 6.1-1.7 2.1 0 3.8 0.6 4.6 2 0 0 0 0 0 0l0 0 4.4 7.6c-1.4-0.9-3.3-1.3-5.3-1.3 -3.1 0-6.4 0.9-9 2.5 -1.6 1-3 2.2-3.8 3.6L65.1 93.5zM79.4 89.5L79.4 89.5C79.1 89 79 88.4 79 87.8c0-1.8 1.2-4.1 3-5.8 1.7-1.7 4-3 5.8-3 0.6 0 1.2 0.1 1.7 0.4 0 0 0 0 0 0h0l0 0 0 0 7.5 4.3c0 0-0.1 0-0.1 0 -2.9 0-6.2 1.9-8.7 4.4 -2.5 2.5-4.4 5.8-4.4 8.7 0 0.1 0 0.1 0 0.2L79.4 89.5zM89.8 78.8L89.8 78.8c-1.3-0.8-2-2.6-2-4.7 0-2.1 0.6-4.4 1.7-6.1 1-1.8 2.5-3 4-3v0l8.7 0c-1.4 0.8-2.7 2.2-3.6 3.8 -1.5 2.6-2.4 6-2.5 9 0 1.9 0.4 3.8 1.2 5.2L89.8 78.8zM93.5 64.4L93.5 64.4c-1.5 0-3-1.2-4-3 -1-1.8-1.7-4.1-1.7-6.1 0-2.1 0.6-3.9 2-4.6l0 0 7.5-4.3c-0.9 1.4-1.2 3.3-1.2 5.2 0 3.1 0.9 6.4 2.4 9 1 1.6 2.2 3 3.6 3.8L93.5 64.4zM94.9 34.5c3.3 3.3 7.4 5.6 11.2 5.6 0.2 0 0.3 0 0.5 0l-7.2 4.2 0 0c-0.7 0.4-1.6 0.6-2.5 0.6 -2.6 0-5.7-1.7-8.2-4.2 -2.4-2.4-4.2-5.6-4.2-8.2 0-0.9 0.2-1.7 0.6-2.5l-0.1 0 4.2-7.3c0 0.2 0 0.4 0 0.6C89.3 27.1 91.7 31.3 94.9 34.5zM70.1 21.2c3.4 2 7.7 3.1 11.6 3.1 2.7 0 5.2-0.5 7.1-1.8l-4.2 7.3 -0.1 0c-1.1 1.9-3.6 2.8-6.6 2.8 -2.9 0-6.1-0.9-8.6-2.3 -2.5-1.5-4.2-3.5-4.2-5.7h-0.1l0-8.3C66.1 18.2 67.9 19.9 70.1 21.2zM47.8 24.3c3.9 0 8.2-1.2 11.6-3.1 2.2-1.3 4.1-3 5-4.9l0 8.3h-0.1c0 2.2-1.7 4.2-4.2 5.7 -2.5 1.5-5.7 2.3-8.6 2.3 -2.9 0-5.4-0.9-6.6-2.8l0 0 -4.1-7.2C42.7 23.8 45.1 24.3 47.8 24.3zM23.4 40.2c3.8 0 7.9-2.4 11.2-5.6 3.3-3.3 5.6-7.4 5.6-11.2 0-0.2 0-0.3 0-0.5l4.2 7.2 0 0c0.4 0.7 0.6 1.6 0.6 2.5 0 2.6-1.7 5.7-4.2 8.2 -2.4 2.4-5.6 4.2-8.2 4.2 -0.9 0-1.7-0.2-2.5-0.6l0 0 -7.2-4.2C23.1 40.2 23.2 40.2 23.4 40.2zM21.2 59.3c2-3.4 3.1-7.7 3.1-11.6 0-2.6-0.5-5.1-1.8-7l7.2 4.1 0 0c1.9 1.1 2.8 3.6 2.8 6.6 0 2.9-0.9 6.1-2.3 8.6 -1.5 2.5-3.5 4.2-5.7 4.2v0.1l-8.3 0C18.2 63.4 19.9 61.6 21.2 59.3zM24.3 81.7c0-3.9-1.2-8.2-3.1-11.6 -1.3-2.2-3-4-4.9-5l8.3 0v0.1c2.2 0 4.2 1.7 5.7 4.2 1.5 2.5 2.3 5.7 2.3 8.6 0 2.9-0.9 5.5-2.8 6.6l0 0 -7.2 4.1C23.8 86.8 24.3 84.3 24.3 81.7zM34.5 94.9c-3.3-3.3-7.4-5.6-11.2-5.6 -0.2 0-0.3 0-0.5 0l7.2-4.2 0 0c0 0 0 0 0 0l0 0c0.7-0.4 1.6-0.6 2.5-0.6 2.6 0 5.7 1.7 8.2 4.2 2.4 2.4 4.2 5.6 4.2 8.2 0 0.9-0.2 1.7-0.6 2.5l0 0 -4.2 7.2c0-0.2 0-0.3 0-0.5C40.2 102.3 37.8 98.2 34.5 94.9zM59.3 108.3c-3.4-2-7.7-3.1-11.6-3.1 -2.6 0-5.1 0.5-7 1.8l4.1-7.2 0 0 0 0 0 0c1.1-1.9 3.6-2.8 6.6-2.8 2.9 0 6.1 0.9 8.6 2.3 2.5 1.5 4.2 3.5 4.2 5.7h0.1l0 8.3C63.4 111.3 61.6 109.6 59.3 108.3zM81.7 105.2c-3.9 0-8.2 1.2-11.6 3.1 -2.2 1.3-4.1 3-5 4.9l0-8.3h0.1c0-2.2 1.7-4.2 4.2-5.7 2.5-1.5 5.7-2.3 8.6-2.3 2.9 0 5.4 0.9 6.6 2.8l0.1 0 4.2 7.3C86.9 105.7 84.4 105.2 81.7 105.2zM106.1 89.3c-3.8 0-7.9 2.4-11.2 5.6 -3.3 3.3-5.6 7.4-5.6 11.2 0 0.2 0 0.4 0 0.6l-4.2-7.3 0.1 0c-0.4-0.7-0.6-1.6-0.6-2.5 0-2.6 1.7-5.7 4.2-8.2 2.4-2.4 5.6-4.2 8.2-4.2 0.9 0 1.7 0.2 2.5 0.6l0 0 7.2 4.2C106.4 89.3 106.3 89.3 106.1 89.3zM105.2 81.7c0 2.6 0.5 5.1 1.8 7l-7.2-4.1 0 0c-1.9-1.1-2.8-3.6-2.8-6.6 0-2.9 0.9-6.1 2.3-8.6 1.5-2.5 3.5-4.2 5.7-4.2v-0.1l8.3 0c-2 1-3.6 2.8-4.9 5C106.3 73.5 105.2 77.8 105.2 81.7z"/></svg>
